<svg xmlns="http://www.w3.org/2000/svg" fill="none" viewBox="0 0 101 40"><path fill="#fff" d="M55.2943 8.62744C46.2747 8.62744 39.4512 15.634 39.4512 24.3137 39.4512 33.464 46.5623 40 55.2943 40 64.0263 40 71.1113 33.464 71.1113 24.3137 71.1113 15.634 64.3139 8.62744 55.2943 8.62744ZM55.2943 16.915C59.1897 16.8889 62.3793 20.2091 62.3793 24.3137 62.3793 28.3921 59.1897 31.7124 55.2943 31.7124 51.3989 31.7124 48.2093 28.3921 48.2093 24.3137 48.2093 20.2091 51.3989 16.915 55.2943 16.915ZM100.426 34.5088C100.426 37.5414 97.9687 39.9989 94.936 39.9989 91.9033 39.9989 89.4458 37.5414 89.4458 34.5088 89.4458 31.4761 91.9033 29.0186 94.936 29.0186 97.9687 29.0186 100.426 31.4761 100.426 34.5088ZM84.4443 38.9543H75.8169V0H84.4443V38.9543Z"/><path fill="#fff" fill-rule="evenodd" d="M0 38.9543L15.6863 0H23.7909L39.2157 38.9543H28.2353L26.4052 33.4641H12.8105L10.9804 38.9543H0ZM23.7909 25.3595H15.6863L19.7386 12.2876L23.7909 25.3595Z" clip-rule="evenodd"/></svg>