<svg xmlns="http://www.w3.org/2000/svg" fill="none" viewBox="0 0 74 59"><g fill="#FF5B40" clip-path="url(#a)"><path d="M47.7168 49.5501C48.0735 49.6611 47.8992 49.1402 47.748 49.0258L47.7864 48.9124C47.7539 49.0157 47.494 49.4893 47.727 49.556L47.7168 49.5501Z"/><path d="M47.7378 49.02C47.8043 48.7872 48.0605 49.2605 47.7378 49.02ZM17.6693 22.5771C17.7918 22.5529 17.8055 22.4117 17.7009 22.3107 17.6594 22.124 17.5032 22.183 17.4229 22.2044 17.4774 22.4392 17.4461 22.6109 17.6693 22.5771Z"/><path d="M17.7009 22.3107C17.6637 22.1401 17.8564 22.4411 17.7009 22.3107ZM16.8118 21.9464C16.8561 22.1753 17.1477 22.1404 17.215 22.0708 17.208 22.0125 17.1833 21.9847 17.1484 21.951 17.1484 21.951 17.1281 21.9393 17.0975 21.9216 17.0458 21.7291 16.753 21.6956 16.8118 21.9464Z"/><path d="M17.1136 21.9174C17.1136 21.9174 17.1543 21.9409 17.1645 21.9467 17.1907 21.9483 17.0748 21.7729 17.1136 21.9174ZM17.3069 21.6765C17.5869 21.6619 17.6424 21.6126 17.4775 21.287 17.2245 20.7613 16.9687 21.6981 17.3069 21.6765ZM17.3319 17.5426C17.2712 17.7652 17.508 17.5901 17.5707 17.5992 17.6204 17.5601 17.6439 17.5194 17.6587 17.4467 17.5965 17.3429 17.3776 17.3928 17.3319 17.5426ZM18.3666 14.2222C18.1554 14.9408 18.0507 14.1347 18.3666 14.2222ZM36.68 39.4906C36.3426 39.6754 36.8365 39.337 36.68 39.4906Z"/><path d="M37.1619 39.6198C37.4841 39.2499 36.9931 39.1834 36.6741 39.5008 36.1132 39.8141 36.812 40.0142 37.1619 39.6198ZM23.457 39.8004 23.2734 39.7893C23.2845 40.3108 23.9452 39.8247 23.457 39.8004ZM16.2409 38.969C16.4601 38.8245 16.26 38.5598 15.9401 38.7141 15.6423 38.8539 16.0553 39.0788 16.2409 38.969ZM18.5496 39.3666C18.5496 39.3666 18.5613 39.3462 18.5774 39.3419 18.5715 39.3521 18.5555 39.3564 18.5496 39.3666ZM23.158 7.05173C23.0981 7.08493 23.0645 7.11973 23.0308 7.15452 23.0848 7.13148 23.1346 7.0924 23.158 7.05173ZM19.1662 39.3565C19.1662 39.3565 19.1764 39.3624 19.1865 39.3683 19.1865 39.3683 19.1865 39.3683 19.1662 39.3565ZM25.8222 42.5216C25.8222 42.5216 25.7929 42.5724 25.7956 42.6147 25.7972 42.5885 25.8046 42.5521 25.8222 42.5216ZM45.9954 39.1074C45.8807 39.0005 45.8024 38.9011 45.7836 38.8631 45.8212 38.939 45.86 39.0835 45.9954 39.1074Z"/><path d="M73.9487 58.188C73.7044 58.0469 73.7553 58.0763 73.7634 57.8506L73.77 57.2985C73.7703 57.2039 73.3886 57.1597 73.3995 56.9762C73.4015 56.8553 73.4343 56.6574 73.1853 56.595C72.8999 56.5251 72.8373 56.516 72.8439 56.3165C72.5663 56.1155 71.7186 55.938 71.6968 56.3049C71.7578 55.9877 70.7242 55.6621 70.3292 55.6645C69.8292 55.6605 69.588 55.467 69.0752 55.4149C69.8085 55.7434 68.6716 55.7378 68.6915 55.4917C68.7071 55.2296 67.9383 55.4093 67.9629 55.0845C67.9566 55.1894 67.9809 55.3119 67.7668 55.2831C67.694 55.2682 67.6039 55.1891 67.3819 55.2914C67.2359 55.3562 67.0316 55.428 66.8233 55.3891C66.4009 55.3215 66.3147 55.0006 66.826 55.0789C67.0719 55.1937 67.4672 55.0966 67.2217 54.8871C66.9085 54.8418 66.8075 54.9462 66.528 54.8662C66.1028 54.7562 65.6987 54.4687 65.272 54.385C65.0477 54.3504 64.9843 54.5307 64.8849 54.6089C64.7255 54.7202 64.3435 54.7708 64.1109 54.6094C63.8478 54.4303 64.3672 54.2829 63.872 54.2003C63.8657 54.3052 63.8995 54.6229 63.5953 54.515C63.358 54.4323 63.4946 54.1722 63.291 54.0547C62.9856 53.8783 62.2441 54.1281 61.9611 54.1951C61.88 54.0534 61.8154 53.8128 61.6701 53.6882C61.7398 53.7556 61.436 53.9056 61.3311 53.8992C61.1315 53.8924 61.0766 53.7523 60.9764 53.6673C60.7497 53.4957 60.337 53.5286 60.3042 53.7266C60.2624 53.9871 59.7748 53.4209 59.8018 53.2332C59.8272 53.0716 59.7442 53.0508 59.5908 53.152C59.3833 53.2762 59.2091 53.4604 59.134 53.661C59.0546 53.8456 59.1909 54.0327 58.8844 54.1404C58.8664 54.2656 58.7473 53.7902 58.7606 53.7436L58.8872 53.0305C58.6848 52.9814 58.5682 52.9954 58.5008 53.065C58.4667 52.8419 58.0427 52.8005 57.912 53.0504C57.903 52.7605 57.4883 52.5617 57.0632 52.4518C56.7836 52.3718 56.4516 52.2885 56.2253 52.3748C56.021 52.4466 55.9345 52.5729 55.626 52.449C55.2767 52.3016 55.4638 51.8131 55.299 51.84C55.2085 51.8555 53.9335 52.1361 53.9151 52.0035C53.9025 51.8607 54.5453 51.8522 54.3711 51.6838C54.2215 51.5432 53.8191 51.582 53.6013 51.3479C53.3734 51.1078 52.0755 50.5347 52.1202 51.0215C52.0826 50.9455 51.8637 50.6429 51.7393 50.7879C51.6426 50.9084 51.7249 51.1185 51.6587 51.2566C51.3952 51.1722 51.302 50.793 51.1137 50.8606C50.9195 50.9383 50.9325 51.3389 50.6601 51.3172C50.4561 51.2943 50.0798 50.9821 50.3307 50.9237C50.5496 50.8738 50.7128 50.8731 50.766 50.6869C50.7793 50.6404 50.656 50.5014 50.5757 50.5228C50.7362 50.48 51.3176 50.5309 51.1742 50.2855C51.0975 50.1598 50.7772 50.0563 50.7373 50.1959C50.3384 50.0876 49.8951 49.7503 49.4848 49.5677C49.3771 49.5191 48.293 49.0694 48.2589 49.1988C48.1717 49.5145 48.0704 49.7135 47.8406 49.9469C47.6366 49.5715 47.2493 49.0904 47.4007 48.7575C47.21 48.6881 46.7896 48.8521 46.9173 49.0071C46.6099 48.5992 46.4661 48.0959 45.7673 48.2483C45.2713 48.3551 45.389 47.7045 45.0821 47.9069C45.2554 47.2071 43.3321 47.7642 43.5621 47.0836L43.4413 47.4341C43.3664 47.1875 43.1052 46.8876 42.8597 46.6781C42.4282 46.3205 42.489 46.8029 42.3833 46.986C42.3188 47.0978 42.1426 47.0503 42.0134 46.9215C41.8348 46.737 41.9503 46.6546 41.9275 46.5059C41.8962 46.3251 41.5133 46.2125 41.3915 46.0473C41.274 45.8981 41.3421 45.6392 40.9643 45.7057C40.8578 45.7256 40.65 45.9445 40.502 45.7777C40.2552 45.4997 40.1514 45.2093 39.7192 45.0411C39.6319 45.0043 39.1511 44.9436 39.2322 45.0853C39.0497 44.7901 39.1256 44.7526 38.7666 44.5047C38.5747 44.3668 38.3363 44.2156 38.1151 44.1285C37.8676 44.0399 37.7564 44.1384 37.4495 43.9883C37.3058 43.8375 37.0806 43.6397 36.971 43.712C37.1268 43.3953 36.3481 43.4744 36.2447 43.4418C36.0686 43.3943 36.0434 43.1087 35.8136 42.9896C35.3892 43.0428 34.9043 41.8139 34.556 42.5346C34.7 42.2382 34.3011 42.1299 34.1124 42.2921C33.9457 42.4398 33.7327 42.4795 33.5021 42.5498C33.6673 42.4282 33.8251 42.3431 33.8943 42.1526C34.1342 41.5726 33.5741 42.049 33.2796 41.6892C33.0388 41.4011 33.3942 41.0911 32.7501 41.0311C32.1907 40.9657 32.5306 41.2703 32.3243 41.463C31.9069 41.2221 31.8978 40.9321 31.8218 40.6171C31.7313 40.2802 31.3879 40.1226 31.0387 39.9752C30.8641 39.9015 30.9609 40.4861 30.6683 40.0054C30.4193 39.5905 30.4932 39.3213 29.9153 39.1233C29.6111 39.0154 29.7784 39.478 29.4647 39.1749C29.3108 39.0183 29.234 38.5401 29.0727 38.7724C29.0258 38.8537 28.524 39.3232 28.3391 38.8911C28.2373 38.8323 28.6413 38.7673 28.6883 38.686C28.3625 38.4979 28.0014 37.6658 27.7227 38.1014C27.799 37.9692 27.8816 37.7322 28.0726 37.7069C28.131 37.6999 28.4806 37.7527 28.1869 37.556C27.591 37.1306 27.2107 38.2125 26.7471 37.8635C26.8629 37.6863 26.9228 37.6531 26.8668 37.4445C26.8151 37.252 27.1024 37.201 26.8847 36.9668C26.4594 36.5044 26.0045 36.54 25.8278 35.8822C25.7077 36.0433 25.3716 35.4968 25.2553 35.4161C25.0838 35.29 25.0381 35.4398 24.8752 35.3457C24.7021 35.2458 24.6554 34.5275 24.5563 34.5109C24.4675 34.5003 24.359 34.641 24.2181 34.5326C24.0916 34.446 24.0387 34.185 23.8242 34.2509C23.776 34.2638 23.4355 34.501 23.4233 34.2635C23.4213 34.0319 23.5528 33.9451 23.6773 33.8001C23.6385 33.6557 23.1255 33.2511 23.0225 33.1238C22.7324 32.7801 22.5107 32.4352 22.2147 32.1016C22.0581 32.2552 22.7237 32.748 22.1036 32.5526C21.8197 32.4565 22.1516 31.8347 22.1273 31.7122C22.1273 31.7122 21.9331 31.7899 21.939 31.7797C21.7977 31.7659 21.6719 31.49 21.5631 31.3729C21.3555 31.1446 21.2937 31.2987 21.1136 31.1405C20.9291 30.9662 20.9757 30.6271 20.9952 30.4757C20.9262 30.219 20.8048 29.9591 20.6615 29.7136C20.4312 29.3367 20.0669 28.557 19.6629 28.622C19.4981 28.6488 19.3271 28.7805 19.5154 29.0655C19.6314 29.2409 19.4701 29.4732 19.3511 29.3502C19.2277 29.2112 19.4266 29.0549 19.277 28.9143C19.1623 28.8074 19.1079 28.9251 19.0335 28.9364C18.9168 28.9504 19.0914 28.6716 19.0914 28.6716L19.3442 28.4922C19.3442 28.4922 19.7678 28.2758 19.7823 28.2977C19.6589 28.1587 19.3132 28.2167 19.2553 28.1291C19.2741 28.167 19.44 27.8561 19.317 27.6224C19.1749 27.4455 19.0899 27.5456 18.9803 27.6178C19.1995 27.4733 18.8854 26.9123 18.8106 26.6658C18.7385 26.4615 18.8896 26.2234 18.7529 26.1309C18.5392 26.0075 17.6187 25.815 17.7106 25.4207C17.7669 25.1821 18.1628 25.3428 18.0081 25.023C17.9387 24.861 17.9693 24.8786 17.8526 24.8926C17.736 24.9066 17.7707 24.5878 17.7519 24.5498C17.6352 24.2113 17.329 24.2243 17.5842 23.8294C17.5754 23.0923 17.8085 23.864 17.9334 23.6243C18.0919 23.3498 17.7641 22.9301 17.5781 22.782C17.4168 22.6618 16.931 22.7744 16.853 22.5803C16.8025 22.4562 16.8017 22.2931 16.7613 22.1749C16.649 22.2049 16.6447 22.1889 16.6016 22.0284C16.5162 21.8707 16.2745 21.4194 16.4381 21.324C16.52 21.2764 17.1918 21.3118 16.9204 21.006C16.8851 20.7145 16.9054 20.3737 16.9589 20.0928C17.0168 19.828 17.2028 19.9761 17.1851 19.6541C17.1831 19.4224 17.0836 19.1481 16.9071 19.1953C17.2406 19.2523 17.0947 18.1649 17.1178 17.8664C17.0896 17.9857 16.9904 18.7689 16.7847 18.4197C16.7006 18.3304 16.7645 17.2558 16.5614 17.396C16.7207 17.2847 16.9501 17.4985 17.0738 17.1903C17.1857 16.9024 16.9351 16.8662 16.8231 16.8016C16.4508 16.6001 16.7584 16.2084 17.0446 16.4414C17.1696 16.5542 17.3932 17.1307 17.5866 16.8899C17.7858 16.6389 17.518 16.5385 17.4087 16.5161C17.2835 16.498 16.9675 16.4104 17.0532 16.121C17.133 15.8417 17.3871 16.0833 17.4388 15.9234C17.4888 15.7896 17.3526 15.6025 17.5667 15.6312C17.5522 15.6093 17.7394 15.8258 17.7268 15.683C17.6959 15.4075 18.1308 15.2655 18.1037 15.1008C18.0653 14.8617 17.9333 14.6906 17.9168 14.437C17.8988 14.2097 17.8741 14.1819 17.6416 14.373C17.5848 14.3538 17.3108 14.3583 17.2834 14.2882C17.097 14.2348 17.4548 14.0618 17.4329 14.0763C17.591 13.8964 17.4829 13.59 17.6888 13.492C17.9385 13.365 17.8732 13.6663 17.7938 13.8509C17.9292 13.8748 18.7904 13.5587 18.7658 13.5309C18.7094 13.417 18.3375 13.4734 18.2255 13.4087C18.3683 13.0438 18.6765 13.2624 18.8267 12.8611C19.0243 12.6363 19.2572 12.3505 19.3997 12.0803C19.5804 11.6966 19.4588 10.3792 20.1119 10.7291C20.2951 10.8349 20.8187 9.99852 20.697 9.83331C20.5795 9.68415 21.0018 9.39929 20.8245 9.28333C20.6224 9.13957 20.7132 9.02932 20.9285 8.77402C20.5038 9.27445 20.9671 8.2134 20.9166 8.08933C20.8069 7.8091 20.5352 7.59799 20.3875 7.33651C20.6651 7.53746 21.8445 8.24546 21.1759 8.86266C21.3372 8.98291 22.11 8.56142 22.4556 8.50343L22.1466 7.76918C22.4879 7.69514 22.9225 7.64778 23.2411 7.42505C23.5378 7.21677 22.6597 7.37408 22.9873 7.08875C22.8296 7.1739 22.6268 7.21951 22.6597 7.02157C22.673 6.97502 22.7488 6.58501 22.7884 6.54005C22.7386 6.57913 22.9567 6.71861 23.0456 6.72925C23.1928 6.73289 23.3459 6.72638 23.5048 6.70969C23.8227 6.67632 24.2498 6.66534 24.606 6.51854C25.158 6.26784 24.4203 5.9233 24.6986 5.58237C25.1131 5.07607 25.0213 5.82287 25.0823 5.85814C25.309 5.67719 25.2827 5.6756 25.491 5.71451C25.6367 5.74437 25.9009 5.63936 26.0426 5.55849C26.3201 5.40693 25.866 5.25317 25.8667 5.06381C25.8799 4.66475 26.1485 4.57577 26.5509 4.537C26.6836 4.51872 27.0391 4.56129 27.1311 4.5195C27.0931 4.53825 26.4808 4.21181 27.2054 4.15571C27.7347 4.10883 27.5312 4.34379 27.66 4.5673C27.9697 4.40716 27.8541 4.1371 28.136 4.00158C28.444 3.86765 28.3768 4.28975 28.6716 4.20236C29.016 4.0759 29.1059 3.44998 29.1987 3.21883C29.1893 3.37611 29.1444 4.04158 29.3805 4.05587C30.0292 4.03726 29.2699 3.25998 29.2817 3.23964C29.4194 3.04805 30.1274 3.53811 29.944 3.07981C29.8704 2.90173 29.8789 2.5813 30.0386 2.37525C30.2304 2.16063 30.5034 2.79272 30.5571 2.86437C30.6934 3.0515 30.8195 3.23276 30.9937 3.40114C31.213 3.60908 31.6009 3.54839 31.873 3.31231C32.0338 3.17473 31.9437 2.74311 32.401 2.84444C32.5568 2.88018 33.2153 2.96213 32.8387 3.09718C33.444 3.0128 33.5237 2.38101 34.0373 2.24373C34.2459 2.18797 34.4625 2.35365 34.5087 2.46167C34.5651 2.57557 34.3133 2.47089 34.5518 2.62212C34.6755 2.66644 34.7554 2.73967 34.809 2.81132C35.0225 3.02942 33.5641 2.85171 34.1099 3.05837C34.3123 3.10745 35.4746 2.95156 35.4522 2.70819C35.4151 2.89008 35.6191 2.91295 35.8305 2.89944C35.9675 2.89721 36.1166 2.77997 35.9271 2.77903C36.1589 2.77727 36.332 2.87718 36.5477 2.87972C36.8581 2.88273 36.9379 2.60345 37.1536 2.60598C37.3956 2.6101 37.1554 3.28479 37.5492 3.21393C37.7563 3.18437 37.6697 2.95816 37.5401 2.92401C37.4309 2.90161 37.6548 2.6784 37.6489 2.68857C38.036 2.46472 38.3356 3.00372 38.7447 2.76542C39.0704 2.60098 38.9205 2.90759 39.0905 3.05993L39.4561 3.10837C39.4616 3.19289 39.5227 3.22815 39.6319 3.25055C39.7615 3.2847 40.0019 3.31503 40.1143 3.285C40.3828 3.19603 40.0201 2.39014 40.5836 2.91881C40.7884 3.10483 41.0272 3.16138 41.2578 3.09115C41.3059 3.07828 41.6207 3.09733 41.4966 3.1477C41.5827 3.11608 41.7717 2.8592 41.8242 2.86237C41.9436 2.89065 41.9143 3.29399 41.773 3.28018C41.569 3.25731 41.4375 3.34405 41.2696 3.42333C41.2129 3.75662 41.6631 3.79966 42.0785 3.80902C42.268 3.80996 42.6019 3.7723 42.6375 3.61661C42.6524 3.54385 42.3869 3.58041 42.3274 3.51893C41.8818 3.04474 42.7842 3.36243 42.8273 3.17037C43.1918 3.50285 43.0349 3.75115 43.0103 4.07587C42.9947 4.33799 43.6677 4.44186 43.9151 4.5305C44.2033 4.64264 44.3396 4.82977 44.6555 4.91729C44.7013 4.76748 44.854 4.85565 45.0286 4.92935C45.3896 5.05643 45.5788 5.50457 45.9021 5.2032C45.8904 5.22353 46.1947 5.6839 46.3841 5.68485C46.632 5.6788 46.5313 5.33598 46.8386 5.39142C46.8022 5.38395 46.5631 5.7746 47.0262 5.86577C47.3379 5.93724 47.8202 5.9717 48.0156 6.31499C47.9245 6.51992 48.2181 6.71658 48.4378 6.82984C48.7025 6.98266 48.5983 6.78694 48.6805 6.6446C48.7568 6.51243 48.8809 6.46206 49.0739 6.66842C49.2959 6.91862 49.1115 6.74435 49.0978 6.88558C49.0857 7.00059 49.5473 7.11798 49.6272 7.19121C49.7666 7.32592 49.6907 7.36341 49.769 7.46285C49.9996 7.74514 50.2518 7.75514 50.3065 7.54274C50.3472 7.56625 50.7217 8.3518 50.6445 7.96832C50.6562 7.94798 50.234 7.08062 50.4638 7.19976C50.6369 7.29967 50.7278 7.54193 50.8351 7.68522C50.9627 7.84027 51.1154 7.92842 51.2709 8.05884C51.4467 8.20102 51.3716 8.40166 51.2024 8.41247C51.0012 8.43186 51.0787 8.36815 50.9453 8.57579C51.0839 8.54735 51.1798 8.61629 51.3196 8.65632C51.5016 8.69365 51.5607 8.49729 51.6903 8.53144C52.092 8.68203 52.1352 9.19499 51.9625 9.3529C52.1936 9.54051 52.2459 9.19117 52.2604 9.21309C52.3039 9.27886 52.4112 9.42215 52.5436 9.49856C52.6124 9.40276 52.2043 8.652 52.767 9.01752C53.193 9.29059 52.6465 9.6258 52.5573 9.70984C52.25 10.0069 52.8173 9.94129 52.9649 9.85026C53.2307 9.71903 53.4785 9.71299 53.6563 10.0868C53.746 10.2606 54.0133 10.1031 54.078 10.3438C54.1254 10.5203 54.0041 10.6129 53.925 10.7028C53.7771 10.8885 53.9004 11.0275 54.124 11.2515C54.4028 11.5209 55.0086 12.0469 55.0494 12.4229C55.3004 12.717 55.4607 11.9691 55.8496 12.424C55.6605 12.6809 55.32 12.9181 55.7551 13.4811C55.7829 13.4565 55.9484 13.2402 55.9194 13.1964C55.9876 13.29 55.992 13.6585 56.0425 13.7826C56.0785 13.8847 56.1263 13.9665 56.1784 14.0644C56.3933 13.9038 56.3233 14.2836 56.4004 14.3146C56.5751 14.3883 56.6333 14.0288 56.6716 13.9154C56.6733 14.2417 56.5234 14.5483 56.7043 14.8696C56.7564 14.9675 56.9155 15.3033 57.0219 15.2835C57.0642 15.2808 57.2462 14.9656 57.2376 14.9335C57.2998 15.0372 57.2095 15.4053 57.2091 15.5C57.1611 16.2179 57.2361 15.3122 57.2828 15.6781C57.3141 15.8589 57.2927 16.4837 57.5104 16.3653C57.427 16.4392 57.3812 16.589 57.4506 16.751C57.5371 16.9772 57.7156 16.8091 57.8248 16.8315C57.9764 16.8512 57.6245 17.3666 57.6892 17.6073C57.8533 18.1223 57.9867 17.5621 58.0411 17.4444C58.1526 17.2512 58.4306 17.3575 58.6001 17.252C58.4944 17.435 58.3496 17.5683 58.2295 17.7294C58.0858 17.9312 58.7365 17.7917 58.7627 17.7932C58.962 17.8948 58.964 18.1264 58.7393 18.1864C58.605 18.2309 58.6819 18.7091 58.4277 18.4675C58.3635 18.4846 57.8539 18.7326 57.9349 18.8743C58.0653 19.0716 58.7093 18.7791 58.8494 18.7245C59.2531 19.1067 58.2361 19.3871 58.206 19.6273C58.2044 19.6535 58.5125 19.5196 58.5822 19.587C58.7028 19.6837 58.6109 20.078 58.8078 20.0426C58.6489 20.0592 58.2672 20.0151 58.2324 20.3339C58.1796 20.7779 58.3057 20.9592 58.5359 20.9837C58.4381 21.0356 58.4127 21.1972 58.5141 21.3506C58.5071 21.6448 58.4598 21.8209 58.4238 22.0712C58.3628 22.3885 58.7016 22.9772 58.868 22.9241C59.2387 22.7993 59.4009 23.4352 58.9499 23.5815C58.6274 23.6935 58.3643 23.5145 58.1348 23.3007C58.6315 23.0045 57.9651 22.7011 57.9018 23.2339C57.8584 23.5207 57.6355 24.2596 57.8829 24.3482C57.619 24.3585 57.5683 25.0342 57.4493 25.2637C57.2846 25.6431 56.9238 26.221 56.9368 26.6217C56.9474 26.8854 56.8374 27.0524 56.6629 27.3312C56.4105 27.7684 56.7397 27.8093 56.9291 27.4578C57.1402 27.5389 56.8153 27.8665 56.777 27.98C56.6944 28.217 56.974 28.297 57.0832 28.3194C56.9701 28.5388 56.4243 28.3322 56.4701 28.1824C56.5127 28.085 56.7929 27.6232 56.423 27.9112C56.2301 28.0573 56.1694 28.2799 56.0011 28.4539C55.9338 28.5234 55.8054 28.5578 55.7467 28.6594C55.6352 28.8526 55.539 29.2309 55.7077 29.3147C55.9691 28.815 56.4546 28.797 56.6383 29.1606C56.269 28.9068 55.6447 29.4004 55.2235 29.7537C54.9809 29.9389 54.7993 30.1594 54.7398 30.4505C54.7367 30.5029 54.6703 31.0881 54.6076 31.0791C54.5086 31.0626 54.5723 30.7876 54.3672 31.0488C54.2823 31.1488 54.1402 31.3244 54.2405 31.4094C54.1246 31.234 53.9797 31.3673 53.8114 31.5412C53.602 31.7864 53.7877 32.0291 53.7935 32.0189C53.6691 32.164 53.4866 31.8688 53.3559 32.1187C53.2502 32.3017 53.3943 32.3578 53.1637 32.428C53.1257 32.4468 52.3467 32.6206 52.5781 32.7135C52.923 32.8449 52.6866 32.9253 52.413 33.1876C52.1731 33.4151 52.3313 33.5877 52.1587 33.7457C52.0615 33.6082 51.8916 33.4559 51.6372 33.6615C51.3945 33.8467 52.098 33.9682 52.1634 34.0195C52.3044 34.128 51.8013 34.1765 51.7649 34.169C51.539 34.1606 51.2462 34.1271 51.1228 33.9881C51.0038 33.8652 50.7333 34.075 50.8363 34.2023C50.89 34.2739 51.047 34.3781 51.0188 34.4974C50.9891 34.6429 50.7061 34.71 50.6415 34.8218C50.8576 35.0822 50.3304 35.3607 50.3151 35.1756C50.3025 35.0328 50.4646 34.9637 50.398 34.8439C50.3749 34.7899 50.3298 34.7504 50.295 34.7167C50.2508 34.8403 50.2825 34.9264 50.3084 35.0226C50.3327 35.1451 49.985 34.9715 50.0273 34.9688C50.0273 34.9688 49.8211 35.514 49.8019 35.5707C49.6453 35.3718 49.5979 35.5479 49.3677 35.5234C49.1841 35.5123 49.2561 35.3641 49.2142 35.2721C49.1551 35.1159 48.5985 35.7978 48.7144 35.9732C48.6486 35.664 47.5278 36.0066 47.2342 36.1624C46.9508 36.3242 47.3733 36.3918 47.4504 36.4228C47.668 36.3044 47.7049 36.5697 47.7265 36.65C47.7421 36.7403 47.8691 37.4373 47.4905 37.3407C47.3085 37.3034 46.754 36.7121 46.6561 36.7641C46.7 36.7351 47.3499 36.785 47.3499 36.785C47.2774 36.6754 46.508 36.2447 46.4541 36.6203C46.4346 36.7717 46.6833 37.6338 46.8 37.6198C46.6935 37.6397 45.8275 37.3295 46.0981 37.8246C45.9505 37.5631 45.8275 37.3295 45.5045 37.1836C45.1 36.9908 45.1158 37.4337 44.7787 37.5238C44.4315 37.608 43.7439 37.1297 44.0956 37.7666C44.2664 38.082 44.5554 38.3573 44.5699 38.7318C44.5762 38.9794 44.3202 38.8587 44.2419 38.7593C44.0868 38.5342 44.0632 38.2223 43.8541 38.0203C43.7496 37.9192 43.2661 38.1688 43.1319 38.2133C43.0394 37.9973 43.6502 37.9974 43.562 37.7974C43.5013 37.6674 43.3682 37.7804 43.2367 37.8671C43.0015 38.016 42.7149 38.2302 42.749 38.4532C42.7761 38.6179 43.0752 38.5466 43.1429 38.7348C42.9448 38.7018 42.735 38.6891 42.5134 38.6967C42.3854 38.6364 42.2209 38.5686 42.0432 38.5473C41.7081 38.5165 42.0233 38.7933 41.927 38.8191C41.8467 38.8405 41.5429 38.638 41.3021 38.7024C41.4118 38.9826 41.0046 38.7475 40.8688 38.8182C40.803 38.8615 40.7659 39.0434 40.8125 39.0568C40.6465 39.0152 40.4119 38.6222 40.1563 38.7593C39.8787 38.9108 39.7038 39.2843 39.862 39.457C40.0754 39.6751 40.2747 39.7766 40.3785 40.067C40.3915 40.1151 40.4973 40.6371 40.2322 40.579C39.8376 40.4867 39.9699 40.5631 40.076 40.2854C40.1112 40.2244 40.142 39.7949 39.9071 39.8491C39.8417 39.7977 39.5355 39.4583 39.4932 39.461C39.2861 39.4905 39.4004 39.3396 39.2462 39.2777C38.8664 39.1126 37.6042 39.0888 37.3533 39.4998C37.277 39.632 37.4478 39.9475 37.1753 39.9257C36.7979 39.8976 36.4542 39.8347 36.2012 39.6616C36.0442 39.5574 36.0817 39.2808 35.8418 39.5083C35.7686 39.588 35.587 39.8085 35.4108 39.7611C35.2914 39.7328 35.3896 39.5861 35.2526 39.5884C34.8212 39.5833 34.739 39.7257 34.3956 39.5681C34.1541 39.4693 34.0367 39.6726 34.0171 39.824C33.9114 39.6545 33.4185 39.7089 33.1531 39.7454C32.7871 39.7916 32.674 40.011 32.3079 40.0573C31.8675 40.1148 31.223 39.7969 30.9847 39.9982C31.0188 40.2213 30.6715 39.953 30.5986 39.938C30.437 39.9125 30.2311 40.0105 30.0866 40.0491C30.3638 39.9922 30.4245 40.1222 30.4531 40.2607C30.096 40.2443 30.0373 40.346 29.9156 40.5333C29.9297 40.6499 29.8957 40.7794 29.7947 40.8838C29.7392 40.933 29.5207 40.8882 29.5058 40.961C29.4867 41.0177 29.6507 41.1802 29.6183 41.2835C29.0847 41.3143 29.3794 40.8744 29.348 40.6936C29.3296 40.561 29.2371 39.9924 28.9067 40.2355C28.6691 40.5999 28.4655 40.1299 28.0125 40.0446C27.9397 40.0296 26.9425 40.064 27.1869 40.205C26.8 39.9817 26.4942 39.9001 25.9285 39.9395C25.5801 39.9552 25.8237 40.2856 25.8785 40.4258C25.884 40.5103 25.9757 40.9157 25.7177 40.9158C25.5807 40.9181 25.5063 40.5768 25.5078 40.5506C25.4984 40.3554 25.5026 40.0189 25.1898 39.879C24.9846 39.7876 24.3406 39.7276 24.1652 39.8433C23.9797 39.9531 24.7389 40.3778 24.2202 40.3359C23.9316 40.3184 23.8827 40.1682 23.5679 40.1491C23.4003 40.1337 23.2371 40.1343 23.077 40.0826C22.7626 39.9688 22.6838 39.6115 22.34 39.5487C22.3604 39.5604 22.6056 40.2171 22.3042 40.1515C21.8571 40.0561 22.0547 39.8313 21.803 39.7266C21.4944 39.6027 20.6288 39.5503 20.2992 39.604C20.0017 39.6491 19.745 40.0703 19.4246 39.6142C19.4387 39.7308 18.9957 40.4511 18.7036 40.2282C18.6426 40.193 19.3189 39.4447 19.1196 39.3432C19.1384 39.3812 18.4517 39.4185 18.4826 39.3415C18.3684 39.4924 18.8547 39.9901 18.2697 39.7337C17.8289 39.5334 17.6923 39.7935 17.6783 40.0294C17.95 40.2405 17.4912 40.1654 17.3388 39.9825C17.1372 39.7441 17.2537 39.3776 16.9981 39.1622C17.0693 39.2033 16.8345 39.61 16.6924 39.433C16.6387 39.3614 16.1802 38.8391 16.0436 39.0991C16.0201 39.1398 16.0573 39.3104 15.9524 39.3041C15.8577 39.3036 15.6905 39.1935 15.6553 39.2545C15.6259 39.3054 15.5923 39.6927 15.7176 39.7108C15.4205 39.6612 15.1064 39.1003 15.1055 38.9371C15.0902 38.7521 15.1924 38.7162 14.9144 38.6099C14.7398 38.5362 14.5433 38.4769 14.3671 38.4294C13.8401 38.2608 14.2344 38.8002 14.2192 38.9677C14.161 39.3272 13.6703 38.8134 13.7564 38.7818C13.6863 38.8091 13.6308 38.8584 13.6014 38.9092C13.5501 38.622 12.8016 38.8135 12.7018 38.9863C12.7284 38.8932 12.8368 38.7525 12.8297 38.6942C12.8215 38.5674 12.6089 38.5124 12.5423 38.3927C12.4612 38.251 12.6237 38.0872 12.334 38.0012C11.9511 37.8886 11.3775 37.7066 10.9899 37.6726C10.7072 37.645 10.5511 38.0564 10.5875 38.0639C10.4157 38.0324 10.4739 37.6729 10.4535 37.6612C10.2453 37.6223 10.182 38.1551 9.82841 37.9916C9.50108 37.8298 9.88859 37.5112 9.67793 37.3354C9.40774 37.0981 9.22733 37.387 9.02492 37.3379C8.69879 37.2445 8.55664 37.0676 8.308 36.9105C8.08404 36.7812 7.55237 36.6911 7.69847 36.9788C7.78385 37.1366 7.73689 37.2179 7.50274 37.0827C7.28896 36.9593 7.14956 36.8246 6.97962 36.6722C6.72393 36.4568 6.66211 36.6109 6.44914 36.6507C6.1297 36.7102 6.29599 36.3047 6.2494 36.2913C6.09945 36.2454 5.99892 36.6076 5.85915 36.5676C5.77615 36.5468 6.01214 36.2086 5.75846 36.2248C5.67389 36.2302 5.10627 36.3905 5.10627 36.3905C5.08472 36.3103 5.13755 36.2188 5.15241 36.146C5.11526 36.3279 4.65321 35.9527 4.52518 35.8923C4.17163 35.7289 3.79341 35.5376 3.40307 35.4614C2.93405 35.3804 2.72777 35.5731 2.44593 35.7086C2.13198 35.8527 2.53012 35.7979 2.7008 35.7608C3.11224 35.6595 2.82928 36.079 2.80855 36.162C2.62613 36.2193 2.25661 36.4127 2.75223 36.4006C3.15119 36.5089 3.02516 36.6802 2.85411 36.8119C2.67169 36.8692 2.09224 36.6974 2.05821 36.8268C1.96971 36.7215 1.82912 36.5183 1.6412 36.4912C1.47951 36.4656 1.29203 36.6963 1.18867 36.6637C1.23957 36.6931 1.85014 35.9882 1.88261 35.8849C1.67589 35.8198 1.50989 35.7782 1.4743 35.9339C1.49503 35.851 1.74543 35.1822 1.57512 35.1245C1.3175 35.03 1.02042 35.3329 0.951541 35.4287C0.84588 35.6117 0.696007 35.9183 0.871448 36.1552C1.06138 36.414 0.81201 36.4462 0.388385 36.3101C-0.268192 36.1073 0.473843 36.8204 0.727077 36.5463C0.811268 36.6356 0.941759 37.1854 1.22754 37.1606C1.47104 37.1385 1.62761 36.9849 1.87706 37.3052C2.10615 37.6137 1.71581 37.5374 2.27728 37.8345C2.4707 37.9461 2.57287 37.9102 2.61396 37.8391C2.73107 38.0829 3.54229 38.253 3.79129 38.3154C4.16988 38.412 4.28535 38.3296 4.65808 38.4363C4.94349 38.5062 4.71173 38.508 4.83077 38.6309C5.01951 38.8212 5.62674 38.9685 5.90198 39.0325C5.93252 39.0501 6.88075 39.218 6.72255 39.0453C6.79225 39.1127 6.91055 39.425 7.10159 39.3997C7.17597 39.3884 7.32667 39.245 7.41242 39.308C7.61877 39.4678 7.6826 39.5454 8.02322 39.6607C8.59093 39.8529 9.18799 39.9943 9.77798 40.0773C9.99213 40.1061 10.608 40.2854 10.792 40.2018C10.9658 40.1124 10.7781 39.638 11.116 39.7111C11.4277 39.7826 11.2351 40.1866 11.2434 40.3133C11.283 40.6209 11.8037 40.5419 12.0197 40.4498C12.3439 40.3115 12.3563 40.1018 12.4694 39.8825C12.4284 39.9536 12.5984 40.4585 12.6751 40.5841C12.8431 40.8574 13.3047 40.9748 13.6673 41.0756C13.8799 41.1306 14.6347 41.1868 15.2392 41.2918L15.2595 41.3035L15.312 41.3067C15.7184 41.3786 16.0445 41.472 16.0265 41.5972C16.0597 41.3046 16.981 41.6603 17.3204 41.7071C17.8012 41.7678 18.2718 41.8226 18.7494 41.9357C18.9518 41.9847 19.1222 42.0424 19.3277 42.0391C19.6644 42.0437 19.5504 41.7474 20.0644 41.8679C20.2567 41.9111 20.0563 42.0937 20.4482 42.1437C20.9916 42.2134 21.6849 42.3291 21.6809 41.8658C22.0313 41.7292 21.9519 42.2663 22.2126 42.3084C22.6088 42.3745 23.0344 42.3897 23.4279 42.4135C23.9525 42.4453 24.4743 42.4348 24.9962 42.4243C25.3607 42.4042 25.4487 42.2517 25.7854 42.2563C25.8171 42.3424 25.7702 42.4237 25.7451 42.4906C25.924 42.2279 27.2442 42.6919 27.3843 42.6372C27.7785 42.4717 27.5213 42.2825 28.1634 42.4634C28.4617 42.5814 28.7777 42.6689 29.1335 42.6168C29.5215 42.5561 29.8937 42.405 30.3005 42.3823C30.5279 42.3645 30.2242 42.5145 30.3624 42.5807C30.9109 42.8296 31.4534 42.0312 31.8456 41.9865C31.931 42.1443 31.6742 42.2129 31.7756 42.3663C31.7553 42.3546 32.0983 42.6068 32.1292 42.5298C32.2293 42.2623 32.5327 42.207 32.7328 42.4716C32.7967 42.5492 32.9614 42.1698 32.9614 42.1698C32.9833 42.1553 33.2233 42.2803 33.2598 42.2878C33.6094 42.3405 34.3625 42.0705 34.6288 42.1971C34.767 42.2633 35.4842 42.2436 35.434 42.0248C35.7449 41.9331 35.9978 42.1063 35.833 42.1331C36.0197 42.0918 36.2244 41.9253 36.356 41.8386C36.4378 41.7909 36.7247 41.4821 36.8311 41.4622C36.6444 41.5036 36.7389 41.9512 37.0113 41.973C37.1687 41.9825 37.3351 41.9294 37.4608 41.8529C37.5484 41.795 37.6572 41.5596 37.7112 41.5366C37.6631 41.5494 37.8879 41.8419 38.0233 41.8659C38.3467 41.917 38.8897 41.7289 39.2048 41.6533C39.5462 41.5792 40.1894 41.4761 40.0856 41.1857C40.3019 40.6464 40.571 41.1677 40.8435 41.1895C41.2209 41.2176 41.8954 40.9427 42.2661 40.8179C42.3252 40.974 43.2796 40.6845 43.388 40.5438C43.4788 40.4335 43.2576 40.3465 43.3747 40.2378C43.4361 40.1784 43.8099 40.0011 43.8695 40.0626C43.9842 40.1695 43.8527 40.2562 44.1036 40.1978C44.2101 40.1779 44.2579 40.2597 44.1338 40.3101L44.7644 40.0641C44.7644 40.0641 44.9958 40.1571 45.0761 40.1356C45.435 40.0311 45.4111 39.8139 45.6115 39.6314C45.7285 39.5227 45.983 39.6696 46.0124 39.6188C46.3188 39.1586 44.7391 39.0735 45.3243 38.5302C45.7025 38.7214 45.8876 38.3538 45.7588 38.1303C45.886 38.38 46.1582 38.4964 46.3074 38.7317C46.3696 38.8354 46.1544 39.0907 45.959 39.1C45.9488 39.0941 45.9387 39.0882 45.9124 39.0866C46.1215 39.2887 46.45 39.519 46.6137 39.4237C46.7671 39.3225 46.533 39.1873 46.9068 39.01C46.8787 39.4818 48.4504 38.6405 48.7236 38.4728C49.4349 38.1108 50.1159 37.6364 50.8186 37.2422C51.0362 37.1239 51.2825 37.144 51.3662 36.9755C51.4324 36.8374 51.4883 36.6935 51.5384 36.5597C51.6805 36.7367 53.1993 35.6343 53.3997 35.4518C54.0577 34.9234 53.259 34.8961 53.688 34.4117C53.7612 34.332 53.9836 34.84 54.1121 34.8057C54.1442 34.7971 54.0759 34.351 54.1155 34.306C54.2223 34.1915 54.5262 34.394 54.6349 34.1586C54.804 33.7953 54.9261 33.5133 55.2728 33.1713C54.8628 34.0461 55.7179 33.0351 55.7806 33.0442C55.9466 33.0858 56.552 32.2017 56.7031 31.9636C57.0475 31.4846 57.5462 31.0675 57.7974 30.5619C57.9559 30.2874 58.0388 29.9557 58.0442 29.6877C58.0473 29.6352 57.9063 29.1742 57.846 29.3021C57.893 29.2208 58.2954 29.182 58.3831 29.1242C58.5745 29.0042 58.7503 28.7939 58.8955 28.5659C59.1432 28.2074 59.3772 27.6375 59.4765 27.2068C59.518 27.041 59.2807 26.9582 59.2552 26.7673C59.2356 26.5662 59.5095 25.8567 59.5542 25.9909C59.5542 25.9909 59.2474 26.5458 59.5523 26.4643C59.7289 26.4171 59.9108 26.1019 60.0094 25.8606C60.0799 25.7386 60.4546 24.2197 60.1802 24.3189C60.4064 24.2326 60.6609 24.027 60.3691 23.7095C60.384 23.6367 60.7251 22.5051 60.4656 22.884C60.6613 22.4276 60.797 22.0044 60.8443 21.4759C60.8795 21.4149 60.7156 20.1002 60.5876 20.3923C60.7418 20.1017 60.9845 19.9165 60.737 19.4754C60.5791 19.208 60.3258 19.1295 60.1265 19.028C60.3861 19.0016 60.6593 18.834 60.6279 18.3007C60.6157 18.0632 60.4023 17.8451 60.3589 18.1319C60.3202 18.34 60.5394 18.5479 60.5128 18.641C60.4612 18.801 59.8715 18.2707 60.0464 17.8973C60.1082 17.7432 60.3298 17.7355 60.3059 17.5184C60.2918 17.4018 60.2381 17.3301 60.2385 17.2354C60.2455 16.9412 60.1275 16.5342 60.0339 16.2497C59.8267 15.5742 59.5552 14.9159 59.2618 14.2721C59.0887 13.8196 58.8051 13.2764 58.4418 13.0123C58.2601 12.8803 57.7155 12.7421 57.7812 12.3463C57.8304 12.0494 57.9032 11.7118 57.4717 11.3542C57.2465 11.1564 56.655 11.0996 56.4678 10.883C56.5273 10.9445 56.9622 10.8025 56.7155 10.5245C56.5922 10.3855 56.4191 10.2856 56.2766 10.2033C56.1544 10.1328 56.0272 10.2355 55.9183 10.1185C55.8138 10.0174 56.3689 10.0668 56.1555 9.84871C55.9625 9.64236 55.8466 9.8195 55.6924 9.75755C55.7856 9.78423 55.1817 8.78486 55.0262 8.65444C54.8868 8.51973 54.6906 8.3658 54.5462 8.40441C54.4017 8.44302 54.5975 8.69163 54.475 8.71578C54.1994 8.74645 54.1085 8.50419 54.1617 8.318C54.2298 8.05906 54.2838 8.03602 53.9177 7.72975C53.6968 7.54802 53.2955 7.30275 53.1361 7.06161C53.0014 6.84826 53.138 6.94072 52.7994 6.7045C52.4584 6.68386 51.952 6.07973 51.6118 5.86973C51.0288 5.49246 50.4821 5.12265 49.9269 4.72075C49.6654 4.51551 49.1814 4.15475 49.0609 4.41052C49.1947 4.10821 48.681 3.89297 48.3048 3.93334C48.0977 3.96289 47.9501 4.05392 47.8738 4.1861C47.9607 3.96512 47.9818 3.78752 47.5472 3.48236C46.9062 3.0174 45.9967 2.6414 45.2398 2.35358C44.7262 2.13834 44.1859 2.01619 43.6765 1.817C43.3578 1.68722 43.1237 1.55204 42.8281 1.47628C42.6155 1.42132 42.7447 1.55015 42.5423 1.50107C42.2933 1.43864 42.1335 1.29218 41.8626 1.24422C41.7737 1.23358 41.3466 1.24455 41.4367 1.32366C41.4469 1.32954 41.7855 1.21324 41.836 1.33731C41.872 1.43945 41.6892 1.59149 41.5769 1.62152C41.0398 1.79946 41.1556 1.26982 41.1837 1.15051C41.2784 0.798471 40.23 0.898115 39.9677 0.882238C39.382 0.81522 39.7035 1.33976 39.3277 1.28545C39.5186 0.555158 37.3634 0.408927 36.6779 0.514753C36.3236 0.54066 36.8792 0.847876 36.3299 0.788323C35.8958 0.740998 36.1098 0.417234 35.7164 0.393419C35.0168 0.382641 34.3227 0.456378 33.6345 0.519947C33.3968 0.53187 33.174 0.471035 32.983 0.496301C32.6913 0.531261 32.5364 0.658671 32.2592 0.715553C31.9981 0.768146 31.9636 0.639789 31.7725 0.665055C31.5114 0.717647 31.2488 0.796449 31.0151 0.919098C30.7391 1.04445 30.4526 1.2586 30.1578 1.34599C29.8309 1.44195 29.7894 1.25529 29.5709 1.2105C29.6336 1.21956 29.5291 1.47104 29.4837 1.52616C29.5686 1.42608 29.0847 1.41783 28.9884 1.44357C28.6776 1.53524 28.572 1.71826 28.202 1.65378C27.926 1.77913 27.6719 1.89002 27.4018 2.0052C27.2018 2.09306 27.0797 2.02253 26.9716 2.0686C26.6694 2.19237 26.5042 2.3139 26.2557 2.50931C25.9691 2.72346 25.771 2.69043 25.5096 2.8377C25.0684 3.08459 24.6562 3.37532 24.2194 3.63825C23.743 3.94614 23.4377 4.12233 22.9981 4.343C22.5702 4.54334 21.8453 5.04664 21.6528 5.45063C21.5616 5.65556 22.0056 5.80344 21.8197 6.0079C21.4729 6.34994 21.1902 5.9698 21.0449 5.84526C21.3397 6.11039 20.6011 6.4024 20.4226 6.57048C20.0335 6.91522 19.7404 7.32891 19.3556 7.68969C19.1728 7.84173 18.5376 8.51882 18.5513 8.7301C18.5651 8.94139 18.6833 8.90119 18.4066 9.2159C17.8176 10.001 17.1189 10.5059 16.7069 11.5017C16.5069 11.942 16.6439 11.9398 16.7039 12.2591C16.767 12.526 16.2384 12.3835 16.0898 12.7586C15.8874 13.062 15.8038 13.5831 15.6989 13.9292C15.5397 14.3931 15.3965 14.8527 15.2839 15.3299C15.1234 15.7253 14.5609 17.5696 15.132 17.2622C15.2299 17.2102 15.226 17.452 15.1885 17.7286C15.167 18.0009 15.1381 18.3095 15.1232 18.3823C15.0904 18.5802 14.85 18.5499 14.7585 18.8495C14.6345 19.2524 14.6398 20.1366 15.0159 19.7437C15.1341 19.7035 15.2629 19.5745 15.3725 19.5023C15.0958 19.817 14.9228 20.0696 14.8231 20.5949C14.696 21.4027 15.0731 21.5255 15.2177 22.1919C15.2906 22.5594 15.0164 22.2113 14.9836 22.4093C14.9508 22.6072 15.2148 23.3019 15.2736 23.5527C15.3108 23.7233 15.1581 23.6352 15.2768 23.8528L15.5583 24.1645C15.6684 24.35 15.4441 24.6679 15.5683 24.9701C15.6693 25.2182 15.7739 25.3192 15.799 25.6049C15.7709 25.7242 15.7952 25.8467 15.8719 25.9723C16.0497 26.3461 16.2576 26.4797 16.4973 26.6994C16.6077 26.7903 16.3592 26.9857 16.3282 27.0627C16.2782 27.1965 16.6349 27.66 16.745 27.8456C16.9592 28.2268 17.0932 28.6295 17.2475 29.044C17.4136 29.4381 17.6161 29.8397 17.9004 30.1937C17.9744 30.2771 18.5222 30.7153 18.4928 30.7662C18.4576 30.8272 18.305 31.0915 18.5133 31.1304C18.9052 31.1805 18.7583 31.0821 18.8426 31.5239C18.8697 31.6887 19.0091 32.1759 19.1978 32.0137C19.5313 31.7182 19.5005 32.5003 19.5977 32.6377C19.909 33.1563 20.4506 33.6995 20.8672 34.1298C21.3536 34.6275 21.7322 35.0766 22.1661 35.5711C22.7104 36.1565 23.3377 36.7627 23.9889 37.2335C24.4525 37.5825 24.4184 37.3595 24.7794 37.4865C24.9395 37.5383 25.1502 38.0667 25.0814 38.1625C24.8566 38.2225 25.0192 38.4113 25.2451 38.4197C25.4024 38.4292 25.9204 38.308 25.7004 38.6419C25.68 38.6302 26.1374 39.084 26.0465 38.8417C26.2024 39.23 25.9887 39.4591 26.4985 39.5636C26.4537 39.0768 26.7964 39.7763 26.8501 39.8479C27.0283 40.1271 27.4324 40.4146 27.6982 40.6359C28.163 41.0533 28.685 41.3953 29.2261 41.6806C29.3381 41.7453 29.4911 41.7388 29.5667 41.796C29.8545 42.0028 30.046 42.2353 30.3353 42.416C30.7425 42.6511 31.0553 42.4385 31.1979 42.8733C31.326 43.2862 33.2152 44.3633 33.3181 44.1381C33.6047 44.2764 33.6596 44.4165 33.8921 44.5779C34.1247 44.7393 34.4144 44.8253 34.6368 44.9808C34.5339 45.206 35.2066 45.4046 35.4003 45.4216C35.7821 45.4657 36.1052 45.9641 36.4294 46.1784C36.7986 46.4322 37.2218 46.663 37.6455 46.7991C37.9657 46.9027 38.0976 46.7213 38.387 46.9019C38.7621 47.1456 38.9571 47.5835 39.4203 47.6747C39.5761 47.7105 40.365 47.6372 39.9516 47.8595C39.8146 48.2142 40.2884 48.2166 40.3419 47.9357C40.2304 48.1289 40.6317 48.3741 40.8435 48.2659C40.9469 48.651 43.2049 49.7242 43.3184 49.4101C43.2667 49.5701 43.1944 49.813 43.5436 49.9604C43.8055 50.071 43.9339 50.0367 43.9856 49.8767C44.2111 49.9798 44.3208 50.26 44.5596 50.3165C44.8348 50.3806 44.8504 50.1184 45.1096 50.1867C45.3837 50.5348 46.1374 50.875 46.5607 51.1059C47.0611 51.3676 47.7752 51.7529 48.339 51.8343C48.6886 51.8871 48.9391 51.5708 49.3185 51.8305C49.5119 51.9422 49.6694 52.3042 49.8761 52.3693C49.9693 52.396 49.934 52.1045 50.1321 52.1375C50.4293 52.1871 50.1569 52.5178 50.6008 52.6657C50.9051 52.7736 51.1341 52.7296 51.4136 52.8096C51.7542 52.9249 51.9735 53.1329 52.2907 53.2889C52.5365 53.4037 53.6438 53.9074 53.6351 53.5228C53.4191 53.9675 55.5591 54.2812 55.1839 53.685C55.4118 53.925 55.644 54.1811 56.0429 54.2894C56.3436 54.1919 56.9395 54.6173 57.261 54.7893C57.8181 55.0703 58.1423 54.9321 58.6505 55.0628C58.643 55.0992 59.6043 55.6677 59.7339 55.7019C60.2479 55.8224 60.2905 55.3725 60.6761 55.5274C60.9439 55.6278 60.3869 55.6993 60.8281 55.8049C61.1397 55.8764 61.3617 55.7741 61.6745 55.914C61.9408 56.0406 62.5077 56.0697 62.7242 56.2354C62.7242 56.2354 62.9325 56.6268 62.9583 56.3705C63.3204 56.2136 63.2637 56.5469 63.6208 56.5632C63.8365 56.5658 63.9821 56.2431 64.1175 56.2671C64.0549 56.258 64.2006 56.6404 64.2922 56.6933C64.4246 56.7697 64.6387 56.7985 64.7961 56.808C65.0686 56.8297 65.1057 56.6478 65.083 56.4991C65.0619 56.6768 65.5607 56.9648 65.6389 56.7117C65.673 56.5822 65.5903 56.4667 65.857 56.4986C65.6958 57.0834 66.6475 57.1042 67.3276 57.2664C67.5926 57.3245 67.9493 57.4355 68.219 57.415C68.4042 57.3999 68.2346 57.1529 68.2084 57.1513C68.354 57.1812 68.56 57.4357 68.7726 57.4906C69.0784 57.5723 69.4018 57.6234 69.7193 57.6847C70.9893 57.93 72.2727 58.1286 73.5619 58.3172C73.7236 58.3427 74.2208 58.3044 73.9095 58.1383L73.9487 58.188Z"/></g><defs><clipPath id="a"><path fill="#fff" d="M0 0H74V59H0z"/></clipPath></defs></svg>