<svg xmlns="http://www.w3.org/2000/svg" fill="none" viewBox="0 0 124 56"><path fill="#333" d="M112.934 28.0878C114.094 27.3867 114.993 26.4733 116.268 25.863C118.396 24.8435 120.806 25.2834 121.62 27.2471C122.29 28.8643 123.344 30.3838 123.53 32.1645C123.8 34.7314 123.572 37.2691 123.652 39.8192C123.73 42.2773 122.84 44.604 122.614 47.0159C122.498 48.2659 121.668 49.3133 120.955 50.3287C119.388 52.5618 117.385 54.647 113.816 54.7517C111.686 54.8146 109.546 54.7908 107.414 54.9402C104.004 55.1777 100.589 55.3872 97.1658 55.5198C94.683 55.6162 92.1777 55.4905 89.6976 55.6064C85.4739 55.8019 81.2348 55.538 77.0014 55.7335C73.5857 55.8913 70.1181 56.0184 66.6617 55.714C65.98 55.6539 65.3235 55.8159 64.674 55.8578C62.9276 55.9723 61.1461 55.8327 59.3815 55.8341C58.5791 55.8341 58.4837 55.3467 58.1499 54.7475C57.9451 56.0059 56.7415 55.6288 56.0065 55.6427C50.7714 55.7419 45.5224 55.5115 40.2887 55.8173C36.9754 56.0114 33.6131 56.119 30.2829 55.7838C28.702 55.6246 27.1997 56.0394 25.6497 55.7908C23.6087 55.464 21.6505 56.1986 19.594 55.8927C15.9904 55.355 12.3965 56.1064 8.7957 55.7517C6.48818 55.524 4.79226 54.2643 3.41477 52.9487C2.04569 51.6401 1.41305 49.9725 1.87175 48.2142C1.8984 48.1137 1.87876 47.967 1.80302 47.8902C-0.194493 45.8512 0.223525 43.5621 0.39466 41.2815C0.44095 40.674 0.105694 40.0427 0.0734313 39.4226C0.0131133 38.2299 -0.0486075 37.0288 0.0580011 35.8459C0.233344 33.9046 0.8239 32.1575 2.98834 30.9117C6.11926 29.1101 8.57827 29.1744 12.1777 32.1994C13.2186 30.5682 12.7655 28.7596 13.1232 27.0767C13.7712 24.0209 14.547 20.9651 16.6202 18.3353C17.9346 16.6678 19.9082 15.5952 22.6731 15.9458C22.7236 15.9527 22.8091 15.9192 22.8245 15.9346C23.791 16.9737 25.6988 16.827 26.6204 17.8507C27.535 18.8674 28.3472 19.9051 28.8002 21.1718C29.1537 22.1578 30.1202 23.0475 30.5004 24.1047C30.6883 24.627 31.0138 25.12 31.321 25.7122C32.1781 24.4133 32.1065 22.9483 32.6213 21.6257C33.3409 19.7724 33.9273 17.8898 34.9667 16.1189C35.7691 14.7517 36.7356 13.4458 37.674 12.1652C38.5676 10.9445 39.7066 9.79513 40.6927 8.58707C41.2089 7.95441 41.843 8.79377 42.4041 8.58148C42.0814 7.42789 43.0002 6.55921 44.5531 5.83437C47.872 4.28275 50.5105 5.9042 53.3441 6.96981C55.0989 7.629 55.7876 9.10242 57.2591 9.95434C57.3798 10.0242 57.492 10.1513 57.5257 10.2658C58.0994 12.1694 60.3199 13.2671 61.278 14.9723C62.2796 16.753 63.3456 18.5392 63.7188 20.4624C63.9123 21.4567 65.1215 22.1578 64.5085 23.3003C64.667 23.2835 64.8255 23.2667 64.984 23.2486C65.3389 21.9428 65.8131 20.6495 66.0066 19.3241C66.1427 18.394 66.4204 17.5351 66.8469 16.6846C67.9537 14.4821 68.1879 12.0423 69.686 9.9292C71.7509 7.01589 74.2786 4.50481 77.9931 2.84425C78.658 2.54677 79.2808 1.75769 79.8363 1.82194C81.6416 2.02863 82.6081 0.78147 84.1455 0.611084C86.5302 0.34573 88.8321 -0.550887 91.3486 0.49377C92.5396 0.988166 93.9998 0.458855 95.2735 1.22838C97.9177 2.82749 101.008 3.9322 103.237 6.00196C103.771 6.49776 103.482 7.23097 104.278 7.6304C105.4 8.19323 105.595 9.27839 106.316 10.0689C106.853 10.6568 107.41 11.2001 107.156 11.9906C107.097 12.1707 107.13 12.478 107.28 12.5855C109.525 14.2056 108.859 16.5603 109.824 18.5085C110.527 19.9289 110.82 21.4805 111.432 22.9581C111.99 24.3086 111.93 25.789 112.264 27.2079C112.379 27.6968 112.574 27.8588 112.926 28.0934L112.934 28.0878Z"/></svg>