<svg xmlns="http://www.w3.org/2000/svg" fill="none" viewBox="0 0 106 48"><path fill="#333" d="M6.30176 4.87466C6.91543 4.94162 6.68043 5.31659 7.18829 5.33668C7.24286 5.29873 7.37094 5.24628 7.35869 5.2128C7.03571 4.30105 8.44012 3.97295 9.33667 3.85689C10.8848 3.65601 12.493 2.79559 14.2103 3.68391C14.4899 3.82899 15.3931 3.39264 16.244 3.53883C20.7112 4.30551 24.2695 5.87905 27.8502 7.5374C29.2568 6.62006 29.8727 5.42149 31.3662 4.51978C34.4178 2.67841 37.984 1.53341 42.3364 1.1629C45.1341 0.9252 47.7436 1.02006 50.3965 1.58363C54.1987 2.3916 57.5154 3.53771 60.1505 5.28646C60.6439 5.61344 61.1451 5.98841 60.459 6.29531C62.7967 6.86557 63.1297 8.34648 64.5776 9.27498C65.4775 9.2069 65.6969 8.79957 66.1112 8.40786C68.861 5.81097 72.0084 3.35358 76.627 1.77669C79.6318 0.751107 82.8628 -0.138331 86.557 0.0179069C89.6209 0.148477 92.6346 0.547999 94.5335 1.87155C96.2242 3.05003 98.093 4.16601 99.3916 5.59559C100.425 6.73389 101.69 7.803 102.413 9.04955C103.194 10.3954 103.591 11.8071 104.292 13.1597C105.353 15.212 104.711 17.3357 105.05 19.4126C105.373 21.3845 104.986 23.3185 104.467 25.2904C104.143 26.5203 104.07 27.8271 103.736 29.058C103.028 31.6638 102.773 34.3087 101.403 36.8743C100.63 38.3229 99.8516 39.7748 98.8013 41.1575C97.8803 42.3694 96.3645 43.4162 94.528 44.2722C93.4354 44.7811 92.0443 44.8279 90.8126 44.9072C90.1065 44.9518 89.3012 45.0143 88.5339 45.011C85.0423 44.9931 82.483 43.8749 79.7944 42.8761C78.4791 42.3873 77.8265 41.49 76.3519 41.114C76.0735 41.0425 75.7717 41.0012 75.3251 40.9175C75.0578 42.0558 74.1957 43.1071 73.1923 43.9374C71.9527 44.9619 70.7053 46.2218 68.5502 46.7251C66.403 47.2273 64.1421 47.0186 61.8668 46.7954C57.0866 46.3278 54.0807 44.3257 50.5825 42.7902C49.4632 42.2991 48.4218 41.5827 47.3181 40.8004C47.0687 41.6262 46.0563 42.1217 45.877 42.9319C45.6743 43.8481 44.4247 44.6248 43.6395 45.4663C43.2486 45.8848 42.6873 45.7241 42.1872 45.733C41.3263 47.378 38.6834 47.9605 35.7732 47.9973C33.2774 48.0297 31.0933 47.7652 28.8748 47.3378C26.7175 46.9215 24.9155 46.1615 23.2226 45.3268C22.1434 44.7945 20.5831 44.598 19.9137 43.7812C19.6387 43.4452 19.2778 43.1863 18.5695 43.0814C17.4502 42.9174 17.4157 42.2054 16.8087 41.7735C13.8228 39.6509 10.9627 37.468 8.60718 35.0877C6.54344 33.003 4.72695 30.8302 3.52301 28.5223C2.22774 26.0381 0.883474 23.5674 0.348885 20.9403C-0.275917 17.8692 -0.0375788 14.827 0.872337 11.7826C1.13518 10.901 1.36572 9.98698 2.45829 9.15334C2.90823 8.80961 3.08866 8.06525 3.42055 7.50057C4.01973 6.48391 5.08334 5.66031 6.29731 4.87466H6.30176Z"/></svg>