<svg xmlns="http://www.w3.org/2000/svg" fill="none" viewBox="0 0 251 40"><g fill="#fff" fill-rule="evenodd" clip-path="url(#a)" clip-rule="evenodd"><path d="M18.8691 36.6896C17.4083 38.1609 15.5417 39.0344 13.5939 39.0804 7.34476 39.0344 5.92451 33.1034 5.92451 25.2873 5.92451 17.4712 7.26361 11.4942 13.5127 11.4942 15.4199 11.4942 17.246 12.3677 18.5851 13.931L22.0342 20.3677H22.2371V11.3103H22.0342L18.7879 13.1953C17.3271 11.77 15.4605 10.9425 13.5127 10.8965 7.50708 10.9425.365234 16.1379.365234 25.2873.365234 34.4367 7.34476 39.6781 13.5939 39.6781 15.5822 39.6321 17.4894 38.8045 19.0314 37.3792L22.3995 39.2643H22.6023V29.793H22.3995L18.8691 36.6896ZM39.1988 10.9425C33.3149 10.9425 26.376 16.5517 26.376 25.2873 26.376 34.023 33.3149 39.6781 39.1988 39.6781 45.0827 39.6781 52.0217 34.0689 52.0217 25.2873 52.0217 16.5057 45.0422 10.9425 39.1988 10.9425ZM39.1988 39.0804C33.2338 39.0804 31.8541 33.5172 31.8541 25.2873 31.8541 17.1034 33.2338 11.4942 39.1988 11.4942 45.1639 11.4942 46.5436 17.0574 46.5436 25.2873 46.503 33.4712 45.1639 39.0804 39.1988 39.0804ZM72.5952 11.4482V11.908H75.7198V29.5172H75.6792L64.4795 11.4482H54.8218V11.908H57.9869V38.6666H54.8218V39.1264H61.7201V38.6666H58.555V11.908H58.5956L76.1662 39.6781H76.3285V11.908H79.453V11.4482H72.5952ZM93.0875 11.4482H82.2124V11.908H85.337V38.6666H82.2124V39.1264H93.0875C98.4844 39.1264 107.736 36.4597 107.736 25.1034 107.736 13.7471 98.525 11.4482 93.0875 11.4482ZM93.0063 38.6666H90.3687V11.908H93.0063C99.4178 11.908 102.339 16.8735 102.339 25.2873 102.339 33.7011 99.3772 38.6666 93.0063 38.6666ZM127.904 38.6666H118.652V24.5517H123.318C124.86 25.931 126.646 29.931 126.646 29.931H126.849V18.6207H126.605C126.605 18.6207 124.82 22.6207 123.278 24H118.611V11.908H126.889C129.284 13.7011 131.394 18.8965 131.394 18.8965H131.597V11.4482H110.496V11.908H113.661V38.6666H110.496V39.1264H132.286V29.839H132.083C132.124 29.839 130.014 36 127.904 38.6666ZM127.254.229858 119.463 7.49423 119.545 7.63216 127.498 5.56319 126.849 3.58618 127.376.367789 127.254.229858ZM170.633 11.4482V11.908H173.798V29.5172H173.717L162.518 11.4482H152.86V11.908H156.025V38.6666H152.86V39.1264H159.758V38.6666H156.593V11.908H156.674L174.204 39.6781H174.367V11.908H177.532V11.4482H170.633ZM190.558 10.4828 179.967 38.6667H177.045V39.1265H183.619V38.6667H180.575L184.471 28.1839H192.424L196.563 38.6667H193.398V39.1265H204.882V38.6667H201.96L190.72 10.4828H190.558ZM188.366 17.7931 192.262 27.6782H184.633L188.366 17.7931ZM219.125 22.8965 214.296 21.0574C211.902 20.1379 209.913 18.8046 209.913 16.1839 209.913 13.1954 212.024 11.5402 215.229 11.5402 217.218 11.5402 218.476 12.1379 219.652 13.3793L223.061 19.7701H223.264V10.9425H223.061L219.815 12.7816C218.516 11.5402 216.893 10.8965 215.189 10.9425 210.522 10.9425 207.479 14.3908 207.438 19.2183 207.479 23.1264 209.873 25.1494 212.632 26.2988L217.542 28.3218C220.139 29.3793 221.925 30.6666 221.925 33.5632 221.925 36.2758 220.302 39.0344 216.041 39.0804 214.052 39.0344 211.78 38.1149 210.441 36.6436L206.748 29.6551H206.545L206.708 39.2183H206.911L210.238 37.1954C211.902 38.6666 213.931 39.5402 216.041 39.5862 221.397 39.5862 224.887 35.3103 224.887 30.6206 224.968 26.1149 222.128 24.0459 219.125 22.8965ZM227.362 11.4482V20.0459H227.565C227.565 20.0459 229.838 14.5747 231.948 11.908H236.208V38.6666H232.353V39.1264H245.014V38.6666H241.159V11.908H245.42C247.57 14.5747 249.802 20.0459 249.802 20.0459H250.005V11.4482H227.362Z"/></g><defs><clipPath id="a"><path fill="#fff" d="M0 0H250.37V40H0z"/></clipPath></defs></svg>