<svg xmlns="http://www.w3.org/2000/svg" fill="none" viewBox="0 0 145 40"><g fill="#fff" fill-rule="evenodd" clip-path="url(#a)" clip-rule="evenodd"><path d="M75.061 12.486 80.4164 12.2851 75.9216 27.174H85.5259L90.0207 12.2851 95.2609 12.486 97.3892 5.41626H77.1894L75.061 12.486ZM55.1607 16.357C53.8161 23.3417 46.4553 27.5217 38.3877 27.5217 30.3201 27.5217 24.5728 23.334 25.9097 16.357 27.2236 9.51902 34.6689 5.07629 42.7058 5.07629 50.7427 5.07629 56.4746 9.51902 55.1607 16.357ZM35.5679 16.4729C35.0915 18.9531 36.7972 20.6606 39.7093 20.6606 42.6213 20.6606 44.9801 18.9608 45.4565 16.4729 45.9021 14.1626 44.3808 12.231 41.3305 12.231 38.2801 12.231 36.0135 14.1626 35.5679 16.4729Z"/><path d="M52.1797 25.5283C54.9227 26.7723 58.6338 27.5217 61.9684 27.5217 67.6849 27.5217 73.9316 24.9565 74.9304 19.7566 75.6373 16.0634 73.0403 14.2708 69.114 13.5213L67.0165 13.1196C66.3096 12.9728 65.1417 12.8569 65.2954 12.0533 65.4644 11.157 66.7475 10.9021 67.585 10.9021 69.6519 10.9021 71.373 11.6206 72.8405 12.5478L76.5055 6.97701C74.1621 5.67896 71.5036 5.07629 68.4917 5.07629 62.7445 5.07629 56.4671 7.95827 55.4759 13.1273 54.8228 16.5347 57.6273 18.3504 61.2769 18.899L63.1517 19.1849C63.9969 19.3317 65.2493 19.4166 65.0572 20.3979 64.8651 21.3792 63.2977 21.696 62.3526 21.696 60.1398 21.696 58.2496 20.7997 56.736 19.7025L56.3057 19.3857 52.1797 25.536V25.5283ZM116.098 5.96488C114.177 5.38539 111.995 5.0686 109.821 5.0686 102.068 5.0686 95.0302 10.1449 93.8086 16.4961 92.6176 22.7004 97.5811 27.5218 105.119 27.5218 106.84 27.5218 110.466 27.2591 112.126 26.6564L113.97 18.5204C112.187 19.7644 110.282 20.537 108.077 20.537 105.203 20.537 103.067 18.6904 103.528 16.2952 103.981 13.9309 106.694 12.0533 109.567 12.0533 111.742 12.0533 113.478 13.0655 114.792 14.2477L116.106 5.96488H116.098ZM131.481 5.0686C123.452 5.0686 116.007 9.51133 114.685 16.3493 113.34 23.334 119.095 27.514 127.163 27.514 135.231 27.514 142.591 23.3263 143.936 16.3493 145.25 9.51133 139.518 5.0686 131.481 5.0686ZM130.106 12.2233C133.156 12.2233 134.677 14.1549 134.232 16.4652 133.755 18.9454 131.397 20.6529 128.485 20.6529 125.572 20.6529 123.867 18.9531 124.343 16.4652 124.789 14.1549 127.055 12.2233 130.106 12.2233ZM28.3992 1.08171C26.002.386324 23.2743 0 20.5697 0 10.8963 0 2.11405 6.14255.592728 13.815-.897865 21.3174 5.29501 27.1431 14.6996 27.1431 16.8433 27.1431 21.3688 26.8263 23.4357 26.1001L25.7407 16.2642C23.5202 17.7632 21.146 18.7058 18.3876 18.7058 14.7995 18.7058 12.141 16.4729 12.7172 13.5754 13.2858 10.7166 16.6665 8.44505 20.2547 8.44505 22.967 8.44505 25.126 9.66583 26.7703 11.0952L28.4069 1.08171H28.3992ZM49.2983 30.0637 49.6671 35.8972H49.7593C49.9514 35.3023 50.1588 34.6764 50.4585 34.0969L52.4562 30.0637H55.7063L56.198 35.8972H56.2902C56.4593 35.3255 56.6513 34.7305 56.9126 34.1742L58.8642 30.0637H63.2745L57.3121 39.8454H53.6087L53.286 34.5296H53.1477C53.0094 35.0318 52.8788 35.5263 52.6483 36.0054L50.7428 39.8454H47.1392L44.9033 30.0637H49.2983Z"/><path d="M62.9676 30.0637H67.0552L66.4328 33.3552H69.0375L69.6599 30.0637H73.7475L71.8958 39.8454H67.8082L68.4536 36.4458H65.8489L65.2111 39.8454H61.1235L62.9676 30.0637Z"/><path d="M85.7102 34.9778C85.1186 38.1147 81.8685 40 78.3034 40 74.7382 40 72.2027 38.1224 72.7943 34.9778 73.3783 31.9026 76.6668 29.9092 80.2089 29.9092 83.7509 29.9092 86.2865 31.9103 85.7025 34.9778H85.7102ZM77.0586 35.0318C76.8512 36.1445 77.6042 36.9094 78.8873 36.9094 80.1704 36.9094 81.2154 36.1445 81.4228 35.0318 81.6226 33.9965 80.9465 33.1234 79.6019 33.1234 78.2573 33.1234 77.2584 33.9888 77.0586 35.0318ZM86.6399 30.0637H90.8812L89.6288 36.7008H93.1862L92.5946 39.8454H84.7959L86.6399 30.0637ZM103.221 36.3376 103.413 36.4767C104.082 36.9712 104.919 37.373 105.895 37.373 106.31 37.373 107.009 37.2339 107.086 36.7858 107.17 36.3454 106.617 36.3067 106.241 36.2449L105.411 36.1136C103.797 35.8663 102.56 35.0473 102.852 33.5175 103.29 31.1918 106.056 29.9015 108.6 29.9015 109.929 29.9015 111.104 30.1719 112.134 30.7591L110.513 33.2625C109.867 32.8453 109.107 32.5208 108.192 32.5208 107.824 32.5208 107.255 32.6367 107.178 33.0384 107.109 33.4016 107.624 33.4557 107.939 33.5175L108.861 33.6952C110.59 34.0352 111.742 34.8387 111.427 36.4999 110.989 38.8333 108.231 39.9923 105.703 39.9923 104.235 39.9923 102.591 39.6523 101.385 39.096L103.206 36.3299 103.221 36.3376Z"/><path d="M117.797 36.299L117.628 34.576C117.582 34.1588 117.589 33.7338 117.589 33.3166H117.436L116.099 36.299H117.804H117.797ZM114.101 39.8378H109.614L115.515 30.056H120.202L122.514 39.8378H118.027L117.873 38.617H114.669L114.101 39.8378Z"/><path d="M124.02 30.0637H128.261L127.009 36.7008H130.566L129.975 39.8454H122.168L124.02 30.0637ZM132.611 30.0637H140.455L139.956 32.7371H136.375L136.199 33.672H139.464L138.988 36.214H135.722L135.538 37.1721H139.241L138.734 39.8454H130.759L132.611 30.0637ZM1.26123 39.8609H46.2326V39.8455H46.1942L45.6256 37.3575H1.26123V39.8609ZM1.26123 36.3067H45.3797L44.8111 33.8033H1.26123V36.3067ZM1.26123 32.7371H44.5499L44.3578 31.8254 43.9583 30.0792H1.26123V32.7371ZM95.2303 30.0637H103.083L102.576 32.7371H99.0028L98.8261 33.672H102.092L101.608 36.214H98.3421L98.1653 37.1721H101.861L101.354 39.8454H93.3862L95.2303 30.0637ZM140.217 26.9268H139.771L140.14 25.1652H139.495L139.579 24.7943H141.308L141.231 25.1652H140.586L140.217 26.9268ZM143.16 26.9268H142.745L143.121 25.142 142.345 26.9268H141.907L141.9 25.142H141.892L141.515 26.9268H141.101L141.554 24.7943H142.199L142.23 26.4787H142.238L142.968 24.7943H143.613L143.16 26.9268Z"/></g><defs><clipPath id="a"><path fill="#fff" d="M0 0H143.75V40H0z" transform="translate(.370117)"/></clipPath></defs></svg>