<svg xmlns="http://www.w3.org/2000/svg" fill="none" viewBox="0 0 80 66"><path fill="#fff" d="M5.77435 30.0867 6.61148 30.4435 7.51534 30.5981 8.37674 30.7884 9.23813 30.9966 10.1299 31.1453 11.0519 31.1988 11.9012 30.7765 12.7565 30.5446 13.624 30.3127 14.455 29.9737 15.2194 29.5098 15.7593 28.7902 16.6267 28.3918 17.0756 27.6127 17.6337 26.9169 18.1493 26.1379 18.3738 25.228 18.3677 24.2943 18.7499 23.432 18.6407 22.5162 18.7196 21.6241 18.6832 20.732 18.7984 19.8459 18.6043 18.9539 18.6528 18.0618 18.5376 17.1698 18.6225 16.2837 18.5558 15.3916 18.5376 15.0705 17.6276 15.2251 16.7177 15.1181 15.8078 15.0646 14.8979 15.3619 13.9879 15.1062 13.078 15.3441 12.1681 15.2311 11.2582 15.2786 10.3482 15.237 10.2573 15.3916 10.0267 16.3491 10.2755 17.3125 10.0753 18.2759 9.9964 19.2334 10.0631 20.1968 10.3482 20.3633 11.3734 20.2801 12.3925 20.4644 13.5148 20.3158 13.4299 21.4635 13.4602 22.5162 13.2297 23.3785 12.8839 24.1754 12.5078 24.9961 11.8587 25.5967 11.0458 26.0308 10.1299 26.0249 9.25027 25.9476 8.43133 25.5908 7.73979 25.0436 7.25449 24.2586 6.95726 23.4023 7.05431 22.5162 6.93299 21.6063 6.75707 20.7023 6.87233 19.7924 7.06644 18.8885 6.96332 17.9786 6.90873 17.0746 6.79347 16.1648 6.71461 15.2608 6.99365 14.3509 6.96332 13.447 6.70248 12.5371 6.81773 11.6331 6.72674 10.7232 6.69641 9.8193 6.8238 8.9094 6.90873 8.01141 7.22417 7.14909 7.97031 6.59602 8.54659 5.99537 9.25027 5.47798 10.1299 5.58503H11.0155L11.9072 5.82885 12.3319 6.66738 13.0416 7.35129 13.2721 8.29686 13.4602 9.25433 13.4663 10.0691 13.4966 10.8838 13.5876 11.1752 14.5703 11.1455 15.5469 11.0563 16.5297 10.8779 17.5124 10.866 18.4951 11.2347 18.5194 10.8838 18.5133 9.89661 18.8105 8.9094 18.6286 8.01141 18.3556 7.14314 18.4284 6.19757 18.0462 5.35904 17.6398 4.53835 16.9482 3.94365 16.4144 3.27164 15.9776 2.4688 15.2618 1.93951 14.4429 1.57675 13.6725 1.10693 12.8111.815529 11.9376.589543 11.0337.500338 10.1299.179199 9.23813.464656 8.35854.59549 7.51534.874999 6.59328.987992 5.77435 1.38049 5.15561 2.0644 4.43373 2.58774 3.91204 3.30732 3.13557 3.82471 2.91112 4.72866 2.2863 5.41256 2.04366 6.28083 1.92234 7.16098 1.46131 7.99951 1.5887 8.9094 1.70395 9.8193 1.71609 10.7232 1.66756 11.6331 1.65542 12.5371 1.78888 13.441 1.71002 14.3509 1.70395 15.2549 1.41278 16.1648 1.52197 17.0687 1.49771 17.9786 1.75855 18.8825 1.50983 19.7924 1.71609 20.6964 1.40671 21.6063 1.66149 22.5162 1.44918 23.4439 1.73429 24.3359 1.87987 25.2458 2.18925 26.12 2.69881 26.905 3.15983 27.6603 3.74825 28.3383 4.30634 29.04 5.02215 29.5931 5.77435 30.0867ZM25.2953 29.938 25.9929 30.5565 26.921 30.7052 27.8006 30.9014 28.6802 31.1155 29.5901 31.2701 30.494 31.0679 31.4039 30.9906 32.3017 30.8122 33.157 30.4851 33.8304 29.8369 34.7646 29.605 35.3166 28.8676 35.9657 28.255 36.5602 27.589 36.8635 26.7326 37.282 25.9476 37.925 25.222 38.0282 24.3003 38.1677 23.4023 38.016 22.4983 38.3557 21.5884V20.6845L37.9796 19.7805 38.0039 18.8766 38.192 17.9667 37.9675 17.0627 38.2344 16.1529 38.3193 15.243 38.2587 14.339 38.3133 13.4291 38.1313 12.5252 38.2283 11.6153 38.1677 10.7113 38.3254 9.80145 38.0585 8.89751 37.9675 8.01141 37.9857 7.10151 37.6157 6.26893 37.4276 5.38283 36.8756 4.65135 36.4146 3.90797 35.9657 3.14081 35.2438 2.61152 34.4977 2.14766 33.9092 1.45781 33.0842 1.08909 32.2289.809582 31.3614.607384 30.5061.250563 29.5901.423026 28.6741.226775 27.8127.589543 26.9271.756059 26.1445 1.20208 25.3741 1.63027 24.5188 1.95141 23.8637 2.558 23.2692 3.21217 22.5473 3.77714 22.1773 4.59782 21.7648 5.39472 21.2309 6.16783 21.3523 7.13125 20.8852 7.96978 20.9822 8.88562 21.0126 9.78956 20.9337 10.6935 21.146 11.6034 20.8245 12.5073 20.9276 13.4172V14.3271L21.0793 15.237 20.7942 16.141 20.964 17.0509 20.9944 17.9548 20.9762 18.8587 20.9337 19.7686 20.8002 20.6726 20.958 21.5825 20.867 22.4924 20.958 23.4023 21.1824 24.2824 21.5282 25.115 21.8436 25.9476 22.0499 26.8575 22.705 27.4938 23.069 28.3502 23.7848 28.9211 24.4945 29.4801 25.2892 29.9142 25.2953 29.938ZM26.2841 8.9094 26.5995 8.07088 26.7208 7.19072 27.2365 6.44734 27.9644 5.97753 28.7773 5.75749 29.5962 5.50177 30.4455 5.66829 31.1977 6.05484 31.8285 6.59007 32.5504 7.16098V8.08872L32.8537 8.91535 32.8234 9.8193 32.7809 10.7292 33.0054 11.6331V12.5371L32.6657 13.447 32.8052 14.3509V15.2549L32.9993 16.1588 32.6596 17.0687V17.9726L33.0357 18.8766 33.0114 19.7865 32.8234 20.6964 33.0478 21.6063 32.7809 22.5162 32.5868 23.3428 32.3138 24.1397 31.7557 24.782 31.228 25.4599 30.4151 25.7394 29.5841 25.9178 28.7773 25.6562 27.8977 25.5491 27.1879 25.0198 26.7754 24.2111 26.3144 23.426 26.3569 22.5221 26.2052 21.6182 26.2355 20.7142 26.3751 19.8103 26.2355 18.9063 26.1203 18.0024 26.369 17.0925 26.3023 16.1885 26.2477 15.2846 26.2234 14.3806 26.4539 13.4767 26.2295 12.5668 26.4782 11.6569 26.2477 10.747 26.3144 9.83714 26.278 8.92725 26.2841 8.9094ZM44.7798 30.0689 45.7079 30.2532 46.448 30.8301 47.3519 30.9966 48.2618 31.062 49.1657 31.169 50.0756 31.1155H51.0037L51.8469 30.723 52.6355 30.2829 53.3938 29.8191 54.1581 29.3731 54.8496 28.82 55.6079 28.3085 55.9962 27.4878 56.7241 26.8931 57.0456 26.0308 57.2761 25.1507 57.4278 24.2705 57.725 23.4082 57.8888 22.5043 57.5976 21.6003 57.5552 20.6964 57.9131 19.7865 57.537 18.8825 57.9131 17.9726 57.7311 17.0687 57.7917 16.1588 57.6158 15.2549 57.7493 14.345 57.6704 13.441 57.7007 12.5311 57.8524 11.6212V10.7113L57.6644 9.80145 57.7007 7.98762 57.3792 7.13125 57.1791 6.26893 56.9304 5.40662 56.5178 4.60377 55.893 3.97339 55.5958 3.09323 54.9346 2.48664 54.1338 2.05845 53.4241 1.53512 52.7204.934469 51.768.886893 50.937.553861H50.0331L49.1474.226775 48.2315.268405 47.3337.423026 46.5451.928522 45.5805.940416 44.798 1.41023 44.064 1.93951 43.5059 2.6591 42.8204 3.21812 42.1896 3.8485 41.6861 4.57998 41.1644 5.3412 41.0976 6.28083 40.6063 7.08367 40.7397 8.01141 40.4546 8.89751 40.576 9.8074 40.4425 10.7113 40.7033 11.6212 40.3636 12.5252 40.5699 13.4351 40.6124 14.345 40.5092 15.2489V16.1529L40.4182 17.0568V17.9607L40.7033 18.8706 40.5214 19.7746V20.6845L40.7033 21.5944 40.3636 22.4983 40.6851 23.3904 40.7519 24.2824 40.8611 25.1923 41.4131 25.9476 41.5587 26.8931 42.2442 27.5176 42.7477 28.255 43.2997 28.9746 44.1125 29.4087 44.7556 30.0629 44.7798 30.0689ZM46.0052 8.9094 45.8293 7.99356 46.3995 7.25614 46.8666 6.51871 47.4914 5.9359 48.3103 5.66234 49.1535 5.54935 49.9724 5.78128 50.8035 5.97158 51.5557 6.43545 52.132 7.14909 52.3989 8.0233 52.4838 8.91535 52.3079 9.82524 52.5263 10.7292 52.2473 11.6391 52.3686 12.543 52.4778 13.447 52.5627 14.3509 52.3989 15.2608 52.2776 16.1707 52.5688 17.0746 52.6112 17.9786 52.2533 18.8885 52.6294 19.7924 52.2533 20.7023 52.4353 21.6122 52.3747 22.5221 52.4292 23.4142 51.9561 24.1813 51.4829 24.9306 50.8035 25.4718 49.9724 25.6978 49.1535 25.8167 48.2861 25.8762 47.4975 25.5075 46.8726 24.9187 46.1811 24.3062 45.8717 23.4379 45.8475 22.534 45.8596 21.63 45.6897 20.7261 46.0173 19.8222 45.9748 18.9182 45.7989 18.0143 45.8414 17.1044 46.0476 16.2004 45.7383 15.2965 45.8475 14.3925 45.714 13.4886 45.9991 12.5787V11.6688L45.987 10.7589 45.6958 9.83714 45.9991 8.93914 46.0052 8.9094ZM60.7338 30.6576 61.6074 30.842 62.4748 30.723 63.3423 30.5149 64.2158 30.7587 65.0833 30.61 65.9568 30.8241 66.8303 30.8479 67.6978 30.6398 68.5713 30.7884 69.5359 30.5446 70.4943 30.4197 71.3921 30.0629 72.3384 29.8488 73.1452 29.3195 74.0612 29.0103 74.7649 28.3799 75.329 27.6306 75.9053 26.911 76.5847 26.2449 77.1125 25.4302 77.2399 24.4549 77.5068 23.545 77.8344 22.6291 77.9193 21.6657 77.7434 20.7856 77.798 19.9054 77.6099 19.0253 77.5371 18.1451 77.8526 17.2649 77.8344 16.3848 77.8526 15.5046 77.7737 14.6245 77.8586 13.7443 77.6402 12.8642 77.5735 11.984 77.6463 11.1039 77.8465 10.2237 77.6766 9.34354 77.8526 8.42175 77.4097 7.57133 77.4704 6.61981 76.9487 5.84075 76.6272 4.97843 75.8993 4.38373 75.42 3.63441 74.6981 3.10513 74.1522 2.36175 73.3757 1.89788 72.5993 1.38644 71.6287 1.36265 70.7673 1.11288 69.8877.785794 68.9656.916628 68.0557.809582 67.1458.999886 66.2359.702536H65.3259L64.416.886893 63.5061.863105 62.5961.970151 61.6862.869052 60.7763.660907 60.4184 1.01773 60.5215 1.90978 60.7945 2.80183 60.7581 3.69388 60.4366 4.58593 60.6489 5.47798 60.4366 6.37003 60.6732 7.26208 60.5701 8.15413 60.5882 9.04618V9.93824L60.4366 10.8303 60.479 11.7223 60.4245 12.6144 60.5943 13.5064 60.3881 14.3985 60.4608 15.2905 60.7096 16.1826 60.7278 17.0746 60.5215 17.9667 60.4851 18.8587V19.7508L60.6004 20.6428 60.6914 21.5349 60.4002 22.427 60.4245 23.319 60.5397 24.2111 60.6428 25.1031 60.4002 25.9952 60.5761 26.8872 60.6368 27.7793 60.4912 28.6713 60.3941 30.4554 60.746 30.6219 60.7338 30.6576ZM65.8658 5.95374 66.9213 6.11431 67.9404 5.98942 68.9596 5.77533 69.8392 6.10836 70.7248 6.31056 71.289 7.01826 71.8046 7.69621 72.3384 8.4158 72.2959 9.30191 72.484 10.1821 72.4597 11.0622 72.5811 11.9424 72.4415 12.8225 72.5507 13.7027 72.3081 14.5828 72.3566 15.463 72.4961 16.3432 72.5083 17.2233 72.3141 18.1035 72.2292 18.9896 72.4658 19.8697 72.4415 20.7558 72.2596 21.6419 72.1018 22.5697 71.8895 23.5153 71.2404 24.2527 70.555 25.0139 69.6086 25.4718 68.5592 25.2875 67.6553 25.3053 66.7515 25.2875 65.884 25.3826 65.9871 24.5381 65.7748 23.652 65.7141 22.7659 65.793 21.8798 65.9932 20.9997 65.8234 20.1136 66.0478 19.2334 65.7384 18.3473 66.0478 17.4671 65.8537 16.581 65.975 15.6949 65.702 14.8088 65.8173 13.9227 65.6899 13.0366 65.9386 12.1565 65.9083 11.2704 66.0114 10.3843 65.6899 9.49816 65.7263 8.61205 65.9386 7.72595 65.7748 6.84579 65.8537 5.92401 65.8658 5.95374ZM26.8967 35.8613 25.9262 35.885 24.9556 35.7245 23.985 35.7066 23.0083 35.671 22.0378 35.7245 21.8558 35.891 21.5646 36.7474 21.4554 37.6275 21.607 38.5493 21.4493 39.4295 21.0914 40.2799 21.2006 41.1957 20.7275 42.0283 20.6971 42.9204 20.5333 43.8005 20.6304 44.7104 20.4909 45.5906 20.2482 46.4588 20.3332 47.3687 20.1694 48.2489 20.0541 49.129 19.8115 49.9973 19.7811 50.8953 19.3444 51.7279 19.5264 52.6556 19.2534 53.5179 19.2109 54.4159 18.9743 55.3853 19.0229 54.3743 18.5558 53.5417 18.6953 52.6199 18.4344 51.7576 18.3192 50.8774 18.2282 49.9913 18.1554 49.0993 18.1311 48.2013 17.6701 47.3687 17.5245 46.4886 17.5852 45.5787 17.3061 44.7223 17.4881 43.7946 17.1181 42.9441 17.1423 42.0402 17.0271 41.16 16.5964 40.3215 16.5782 39.4235 16.4265 38.5434 16.3295 37.6573 16.3598 36.7533 16.0565 35.8969 15.9109 35.5461H14.9221L13.9394 35.7958 12.9567 35.778 11.9679 35.5877 11.5554 35.8613 11.6585 36.7771 11.5554 37.6632 11.4402 38.5434 11.3128 39.4295 11.24 40.3156 10.8942 41.166 10.7729 42.0521 10.5727 42.9204 10.6152 43.8302 10.4514 44.7045 10.4392 45.6025 10.1177 46.4588 10.1359 47.3628 9.66884 48.1954 9.86295 49.1231 9.6749 49.9973 9.6385 50.8953 9.26239 51.7398 9.21387 52.6318 8.96516 53.5001 9.06222 54.4159 8.81957 55.4626 8.75891 54.3921 8.63758 53.506 8.35854 52.6497 8.31001 51.7576 8.24935 50.8656 8.14622 49.9795 7.90358 49.1171 7.96423 48.2072 7.84291 47.3211 7.576 46.4648 7.60633 45.5608 7.28483 44.7045 7.25449 43.8065 7.09071 42.9322 6.86626 42.064 6.64788 40.2977 6.44163 39.4235 6.56902 38.5077 6.11406 37.6691 6.04733 36.7771 5.87141 35.9029 5.79862 35.6293 4.8159 35.885 3.83318 35.5342 2.85652 35.6293 1.87381 35.5817.89109 35.7185.648438 35.9029.909288 36.7533 1.03061 37.6216 1.27932 38.472 1.40671 39.3462 1.42491 40.2323 1.83741 41.0589 1.84347 41.951 2.13465 42.7955 2.18318 43.6756 2.38336 44.5379 2.2681 45.4478 2.51682 46.2983 2.86259 47.1308 2.7716 48.0407 3.15377 48.8674 3.24476 49.7475 3.34182 50.6217 3.65726 51.4603 3.62693 52.3583 3.85137 53.2146 3.80892 54.1126 4.16682 54.9452 4.3852 55.8016 4.51259 56.6758 4.56111 57.5619 4.51259 58.4599 4.70671 59.3222 4.8341 60.1905 5.26479 61.0111 5.48317 61.8675 5.5681 62.7477 5.51351 63.6516 5.85928 64.4842 6.04126 65.3465 6.14438 65.5487 7.03005 65.632 7.90964 65.5428 8.79531 65.6914 9.6749 65.6141 10.5606 65.4833 11.4462 65.5547 11.6161 65.3584 11.8769 64.4723 12.1074 63.5802 11.974 62.6347 12.3501 61.7664 12.3197 60.8387 12.5927 59.9526V59.0248L12.5988 58.1031 12.7686 57.1991 13.0416 56.313 13.1023 55.3972 13.3995 54.517 13.1872 53.5595 13.3753 52.6615 13.6422 50.8477 13.897 50.0449 13.8302 50.8953 14.267 51.7576 14.3822 52.6675 14.364 53.5893 14.4308 54.5051 14.7826 55.3853 14.9585 56.2833 14.7705 57.2348 15.2254 58.0912 15.0495 59.0427 15.3407 59.9288 15.5166 60.8268 15.6379 61.7367 15.7714 62.6406 15.8685 63.5505 16.0747 64.4485 16.1596 65.3584 16.3477 65.7152 17.2273 65.7509 18.1129 65.5725 18.9925 65.4298 19.8782 65.4773 20.7639 65.6795 21.6495 65.6736 21.8922 65.3703 22.0317 64.502 22.1591 63.6338 22.2197 62.7477 22.4624 61.8972 22.6686 61.0409 22.8506 59.2806 23.1054 58.4361 23.1236 57.544 23.2813 56.6758 23.4815 55.8194 23.6635 54.9571 23.8091 54.0888 23.9425 53.2206 24.0517 52.3464 24.3065 51.4959 24.5673 50.6455 24.7493 49.7832 24.7615 48.8911 24.7433 47.9931 25.1254 47.1665 25.1194 46.2745 25.2953 45.4122 25.5137 44.5558 25.5197 43.6637 26.0232 42.8549 25.9626 41.951 26.0839 41.0768 26.1263 40.1907 26.5328 39.364 26.5813 38.4839 26.5692 37.5859 27.0181 36.7652 27.0241 35.8732 26.8967 35.8613ZM44.519 39.4651 44.0943 38.6861 43.512 38.0081 42.7355 37.5324 42.044 37.0031 41.3949 36.3965 40.6669 35.8375 39.8056 35.5342 38.8774 35.5044 38.016 35.1714 37.1061 35.0703 36.2022 35.2249 35.3227 35.4331 34.4552 35.665 33.6363 36.0278 32.7809 36.3311 31.9984 36.783 31.319 37.3718 30.7306 38.0438 30.1725 38.7396 29.8206 39.5603 29.1412 40.2264 29.1109 41.1779 28.5346 41.9569 28.4497 42.8728 28.4194 43.7827 28.3708 44.6866V45.5906L28.7287 46.5005 28.3648 47.4044 28.3344 48.3083 28.5892 49.2182 28.7227 50.1281 28.6074 51.0321 28.5104 51.936 28.5467 52.84 28.3648 53.7439 28.6317 54.6538 28.4315 55.5577 28.4922 56.4676 28.3587 57.3775 28.7105 58.2636 28.6559 59.1795 29.0927 59.9942 29.1776 60.9279 29.6083 61.7426 30.1604 62.4563 30.6153 63.2472 31.3493 63.8003 32.0287 64.395 32.8962 64.7221 33.5392 65.4238 34.4673 65.5666 35.3773 65.632 36.2326 65.9293 37.1364 65.9412 38.0464 65.9828 38.9017 65.6617 39.7449 65.406 40.6609 65.2751 41.4677 64.8648 42.2442 64.4069 42.7962 63.6813 43.3725 63.0153 44.0579 62.4325 44.5432 61.6891 45.0043 60.9041 45.2712 60.0358 45.7019 59.2033 45.7443 58.2874 45.7747 57.3775 45.7929 56.4736 45.5077 55.5696 45.5624 54.6657 45.7868 53.7558 45.5442 52.8519 45.5017 51.9479 45.623 51.038 45.7747 50.1281 45.5077 49.2242 45.8171 48.3143 45.8535 47.4044 45.6351 46.5005 45.805 45.5906 45.6473 44.6807 45.5684 43.7708 45.7383 42.8609 45.4228 41.9986 45.2894 41.1065 44.9679 40.2561 44.5372 39.4592 44.519 39.4651ZM39.3749 59.7385 38.6833 60.2321 37.9372 60.6067 37.1061 60.9398 36.2022 60.8506 35.4501 60.3629 34.898 59.7087 34.3581 59.0367 33.8364 58.2874 33.9396 57.3835 34.0002 56.4795 33.891 55.5756 33.8243 54.6716V53.7677L33.7879 52.8637 33.9153 51.9539 33.9699 51.0499 33.9335 50.146 33.8668 49.242 33.8546 48.3381 33.6909 47.4282 33.982 46.5183 33.6666 45.6084 34.0245 44.6985 33.9699 43.7886 34.0488 42.9322 34.3945 42.1532 34.9041 41.4693 35.3651 40.6664H36.3054L37.1182 40.5832 37.9978 40.4345 38.8835 40.6664 39.5083 41.3206 39.9511 42.0937 40.2969 42.9025 40.2181 43.7767 40.491 44.6807 40.2969 45.5906 40.3636 46.4945 40.2302 47.4044 40.5396 48.3083 40.3454 49.2182 40.5578 50.1222 40.2908 51.0321V51.936L40.3576 52.84 40.212 53.7499 40.3454 54.6538 40.3212 55.5637 40.5396 56.4736 40.2181 57.3835 40.3151 58.2577 40.1271 59.1557 39.3931 59.7385H39.3749ZM62.7721 60.4343 61.8682 60.2499 60.9704 60.4402 60.0666 60.4997 59.1627 60.238 58.2649 60.1964 57.361 60.2024 56.4572 60.2856 55.5594 60.4105 54.6555 60.2797 53.7092 60.3451 53.7699 59.3995 53.8548 58.4956 53.6304 57.5976 53.5879 56.6936 53.7638 55.7897 53.8973 54.8857 53.7335 53.9818 53.9215 53.0838 53.7941 52.1798 53.9155 51.2759 53.8973 50.372 53.6364 49.474 53.7759 48.57 53.7881 47.6661 53.594 46.7621 53.8063 45.8582 53.964 44.9602 53.7395 44.0562 53.8973 43.1523 53.691 42.2483 53.8487 41.3444 53.7092 40.4405 53.782 39.5425 53.8366 38.6385 53.9701 37.7346 53.7031 36.8306 53.6971 35.9267 53.5758 35.8553 52.6052 35.7364 51.6346 35.6115 50.664 35.7839 49.6934 35.6293 48.7168 35.772 48.4377 35.9267 48.5408 36.8187 48.6986 38.6028 48.5772 39.4949 48.6015 40.3869 48.6743 41.279 48.6197 42.171 48.468 43.0631 48.3952 43.9551 48.5166 44.8472 48.2921 45.7392 48.5894 46.6313 48.6804 47.5233 48.6136 48.4154 48.462 49.3074 48.5712 50.1995 48.3952 51.0915 48.6015 51.9836 48.4316 52.8756 48.4559 53.7677 48.3225 54.6597 48.3831 55.5518 48.6682 56.4438 48.3467 57.3359 48.3407 58.2279 48.3103 59.12 48.5651 60.012 48.3528 60.9041 48.5651 61.7962 48.6379 62.6882 48.5651 63.5802 48.2861 64.4723 48.2618 65.3643 48.6318 65.5903 49.5175 65.4773 50.3971 65.632 51.2828 65.6974 52.1684 65.6914 53.048 65.4417 53.9337 65.5606 54.8193 65.519 55.6989 65.4536 56.5846 65.4655 57.4702 65.5784 58.3498 65.7687 59.2355 65.4119 60.1211 65.4952 61.0007 65.406 61.8864 65.5487 62.7721 65.4892 63.0632 65.3643 63.136 64.395 63.1421 63.4256 63.1724 62.4563 63.0754 61.4869 62.857 60.5175 62.7721 60.4343ZM79.6663 47.7731V47.5471L78.7686 47.5888 77.8708 47.5709 76.973 47.5412 76.0752 47.7196 75.1774 47.5828 74.2796 47.6423 72.484 47.4877 71.5862 47.7255 70.7127 47.5352 70.7005 46.6075 70.6338 45.656 70.5186 44.7045 70.5489 43.7529 70.7915 42.8074 70.561 41.8558 70.7673 40.9697 71.5862 40.8865 72.484 40.827 73.3818 40.9222 74.2796 40.9757 75.1774 40.8508 76.0752 40.8924 76.973 40.7556 77.8708 41.0887 78.7686 40.8448 79.6663 41.0292 79.8059 40.7319 79.6481 39.7625 79.8605 38.7931 79.7937 37.8238 79.9878 36.8544 79.6663 35.885 79.6178 35.6293 78.6836 35.552 77.7555 35.7423 76.8213 35.8494 75.8871 35.778 74.9529 35.7126 74.0187 35.665 73.0846 35.772 72.1504 35.7958 71.2162 35.8494 70.282 35.8553 69.3478 35.6947 68.4136 35.558 67.4794 35.7007 66.5452 35.6174 65.611 35.7185V35.885L65.241 36.7771 65.3866 37.6691 65.3077 38.5612 65.5019 39.4592 65.3138 40.3512 65.5989 41.2433 65.4836 42.1353 65.5504 43.0274 65.5382 43.9254 65.3926 44.8175 65.332 45.7095 65.2228 46.6016 65.4472 47.4936 65.2167 48.3857 65.514 49.2836 65.3926 50.1757 65.2046 51.0677 65.4776 51.9598 65.4048 52.8578 65.3745 53.7499 65.2107 54.6419 65.4472 55.534V56.432L65.4108 57.324 65.5504 58.2161 65.241 59.1081 65.2956 60.0002 65.5079 60.8982 65.423 61.7902 65.3502 62.6823 65.1985 63.5802 65.5261 64.4723 65.3441 65.3643 65.5686 65.6201 66.5513 65.4952 67.5279 65.4655 68.5107 65.5249 69.4934 65.4 70.47 65.519 70.8401 65.3643 70.7855 64.4664 70.555 63.5684 70.561 62.6704 70.5853 61.7724 70.561 60.8744V59.9764L70.5064 59.0784 70.7551 58.1804 70.8279 57.2824 70.7915 56.3844 70.5246 55.4864 70.6763 54.5884 70.743 53.6904 70.7005 52.7983 71.5862 52.7686 72.484 52.8994 73.3818 52.7983 74.2796 52.8637 75.1774 52.9054 76.0752 52.7448 76.973 52.834 77.8708 52.7151 78.7686 52.7448 79.6663 52.6021 79.727 52.6199 79.9636 51.6506 79.9696 50.6812 79.7149 49.7118 80 48.7246 79.6663 47.7731Z"/><path fill="#000" fill-rule="evenodd" d="M47.7401 1.88603C47.7159 1.70762 47.5824 1.79087 47.5764 1.88603 47.6006 2.06444 47.7341 1.98118 47.7401 1.88603ZM49.19 1.92766C49.1657 1.74925 49.0322 1.8325 49.0262 1.92766 49.0504 2.11201 49.1839 2.02281 49.19 1.92766ZM50.0028 2.05254C50.0028 1.89792 49.8087 1.92766 49.6813 1.88603 49.6813 2.04065 49.8754 2.01091 50.0028 2.05254ZM50.7914 2.70671C50.7672 2.5283 50.6337 2.61156 50.6276 2.70671 50.6519 2.88512 50.7854 2.80186 50.7914 2.70671ZM24.9556 4.69896C25.0405 4.62165 24.8464 4.49081 24.7979 4.53839 24.713 4.6157 24.9071 4.74059 24.9556 4.69896ZM52.6234 3.30736C52.7083 3.23005 52.5142 3.10516 52.4657 3.14679 52.3807 3.2241 52.5749 3.35494 52.6234 3.30736ZM27.1576 2.22501C27.2426 2.14769 27.0484 2.02281 26.9999 2.06444 26.915 2.14175 27.1091 2.27258 27.1576 2.22501ZM23.979 4.99036C24.0639 4.91305 23.8698 4.78222 23.8212 4.82385 23.7363 4.90116 23.9304 5.03199 23.979 4.99036ZM54.4978 3.28357C54.5828 3.20626 54.3886 3.07543 54.3401 3.123 54.2552 3.20031 54.4493 3.3252 54.4978 3.28357ZM15.547 4.38377C15.6319 4.30646 15.4378 4.17562 15.3893 4.21725 15.3043 4.29456 15.4985 4.4254 15.547 4.38377ZM44.9436 3.34304C45.0286 3.26573 44.8344 3.1349 44.7859 3.18247 44.701 3.25979 44.8951 3.38467 44.9436 3.34304ZM50.6034 3.65823C50.5791 3.47982 50.4456 3.56308 50.4396 3.65823 50.4638 3.84259 50.5973 3.75339 50.6034 3.65823ZM53.8366 3.90206C53.9216 3.82475 53.7274 3.69392 53.6789 3.73554 53.594 3.81286 53.7881 3.94369 53.8366 3.90206ZM31.8225 3.30141C31.9074 3.2241 31.7133 3.09327 31.6648 3.1349 31.5799 3.21221 31.774 3.34304 31.8225 3.30141ZM46.8727 3.87233C46.9576 3.79502 46.7635 3.66418 46.715 3.71176 46.63 3.78907 46.8241 3.91396 46.8727 3.87233ZM24.3733 3.42035C24.349 3.236 24.2155 3.3252 24.2095 3.42035 24.2337 3.59876 24.3672 3.50956 24.3733 3.42035ZM23.7242 3.40251C23.8091 3.3252 23.615 3.19437 23.5665 3.236 23.4815 3.31331 23.6757 3.44414 23.7242 3.40251ZM13.254 5.11525C13.3389 5.03794 13.1448 4.9071 13.0963 4.94873 13.0113 5.02604 13.2054 5.15688 13.254 5.11525ZM49.6146 4.26483C49.6995 4.18752 49.5054 4.05668 49.4569 4.10426 49.3719 4.18157 49.5661 4.30646 49.6146 4.26483ZM43.6273 4.10426C43.7122 4.02695 43.5181 3.89611 43.4696 3.94369 43.3846 4.021 43.5788 4.14589 43.6273 4.10426ZM31.0036 3.75933C31.0885 3.68202 30.8944 3.55119 30.8459 3.59876 30.7609 3.67607 30.9551 3.80096 31.0036 3.75933ZM15.5167 5.33529C15.6016 5.25798 15.4075 5.12714 15.3589 5.17472 15.274 5.25203 15.4681 5.37692 15.5167 5.33529ZM30.6699 4.06858C30.7549 3.99127 30.5608 3.86043 30.5122 3.90206 30.4273 3.97937 30.6214 4.11021 30.6699 4.06858ZM14.3762 5.62669C14.4611 5.54938 14.267 5.41855 14.2185 5.46018 14.1336 5.53749 14.3277 5.66832 14.3762 5.62669ZM13.8909 5.60885C13.9758 5.53154 13.7817 5.40071 13.7332 5.44234 13.6483 5.51965 13.8424 5.65048 13.8909 5.60885ZM51.5375 4.95468C51.6225 4.87737 51.4284 4.74654 51.3798 4.78816 51.2949 4.86548 51.489 4.99631 51.5375 4.95468ZM50.7308 4.93089C50.8157 4.85358 50.6216 4.72275 50.573 4.76438 50.4881 4.84169 50.6822 4.97252 50.7308 4.93089ZM49.4265 5.05578C49.5115 4.97847 49.3173 4.84763 49.2688 4.89521 49.1839 4.97252 49.378 5.09741 49.4265 5.05578ZM32.4352 4.59191C32.5201 4.5146 32.326 4.38377 32.2775 4.43134 32.1925 4.50866 32.3867 4.63354 32.4352 4.59191ZM30.9793 4.55028C31.0642 4.47297 30.8701 4.34214 30.8216 4.38972 30.7367 4.46703 30.9308 4.59191 30.9793 4.55028ZM27.7278 4.93684C27.8128 4.85953 27.6187 4.72869 27.5701 4.77627 27.4852 4.85358 27.6793 4.97847 27.7278 4.93684ZM51.5133 5.74563C51.5982 5.66832 51.4041 5.53749 51.3556 5.57912 51.2706 5.65643 51.4647 5.78726 51.5133 5.74563ZM50.8703 5.72779C50.9552 5.65048 50.7611 5.51965 50.7126 5.56128 50.6276 5.63859 50.8217 5.76942 50.8703 5.72779ZM46.0052 5.75158C45.981 5.57317 45.8475 5.65643 45.8414 5.75158 45.8657 5.92999 45.9991 5.84673 46.0052 5.75158ZM46.812 5.93594C46.8969 5.85863 46.7028 5.73374 46.6543 5.77537 46.5694 5.85268 46.7635 5.98351 46.812 5.93594ZM44.8708 5.88241C44.9558 5.8051 44.7617 5.68022 44.7131 5.72184 44.6282 5.79916 44.8223 5.92999 44.8708 5.88241ZM53.2057 4.60975C53.2907 4.53244 53.0965 4.40161 53.048 4.44324 52.9631 4.52055 53.1572 4.65138 53.2057 4.60975ZM32.5687 5.704C32.6536 5.62669 32.4595 5.49586 32.4109 5.53749 32.326 5.6148 32.5201 5.74563 32.5687 5.704ZM23.1722 5.60885C23.1479 5.43044 23.0144 5.5137 23.0084 5.60885 23.0326 5.78726 23.1661 5.704 23.1722 5.60885ZM44.2096 6.34033C44.2946 6.26302 44.1004 6.13219 44.0519 6.17382 43.967 6.25113 44.1611 6.38196 44.2096 6.34033ZM23.6575 5.78131C23.7424 5.704 23.5483 5.57317 23.4997 5.6148 23.4148 5.69211 23.6089 5.82294 23.6575 5.78131ZM48.5045 5.43044C48.5894 5.35313 48.3953 5.2223 48.3468 5.26987 48.2618 5.34718 48.4559 5.47207 48.5045 5.43044ZM42.9115 6.46522C42.9964 6.38791 42.8023 6.25708 42.7537 6.30465 42.6688 6.38196 42.8629 6.50685 42.9115 6.46522ZM42.5839 6.45333C42.5596 6.27492 42.4262 6.35817 42.4201 6.45333 42.4444 6.63174 42.5778 6.54848 42.5839 6.45333ZM23.9729 5.94783C24.0578 5.87052 23.8637 5.73969 23.8152 5.78726 23.7302 5.86457 23.9244 5.98946 23.9729 5.94783ZM26.2356 6.32844C26.3205 6.25113 26.1264 6.12029 26.0779 6.16192 25.9929 6.23923 26.187 6.37007 26.2356 6.32844ZM44.3492 7.13723C44.4341 7.05992 44.24 6.92909 44.1914 6.97072 44.1065 7.04803 44.3006 7.17886 44.3492 7.13723ZM21.5222 6.67337C21.6071 6.59605 21.413 6.46522 21.3644 6.5128 21.2795 6.59011 21.4736 6.71499 21.5222 6.67337ZM17.7793 7.36916C17.7551 7.19075 17.6216 7.27401 17.6155 7.36916 17.6398 7.54757 17.7733 7.46432 17.7793 7.36916ZM45.1196 8.42773C45.2045 8.35042 45.0104 8.21959 44.9618 8.26122 44.8769 8.33853 45.071 8.46936 45.1196 8.42773ZM34.437 8.2969C34.522 8.21959 34.3278 8.08875 34.2793 8.13633 34.1944 8.21364 34.3885 8.33853 34.437 8.2969ZM46.4116 8.78455C46.4966 8.70724 46.3025 8.57641 46.2539 8.61804 46.169 8.69535 46.3631 8.82618 46.4116 8.78455ZM36.3721 8.51099C36.4571 8.43368 36.263 8.30284 36.2144 8.34447 36.1295 8.42178 36.3236 8.55262 36.3721 8.51099ZM26.181 8.23148C26.2659 8.15417 26.0718 8.02334 26.0233 8.06496 25.9383 8.14228 26.1325 8.27311 26.181 8.23148ZM41.2251 8.80239C41.31 8.72508 41.1159 8.59425 41.0674 8.64182 40.9824 8.71913 41.1765 8.84402 41.2251 8.80239ZM18.0826 8.17201C18.1676 8.0947 17.9735 7.96387 17.9249 8.01144 17.84 8.08875 18.0341 8.21364 18.0826 8.17201ZM34.0973 8.76671C34.1823 8.6894 33.9881 8.56451 33.9396 8.60614 33.8547 8.68345 34.0488 8.81429 34.0973 8.76671ZM21.1521 8.40989C21.2371 8.33258 21.0429 8.20769 20.9944 8.24932 20.9095 8.32663 21.1036 8.45747 21.1521 8.40989ZM44.1308 9.1949C44.2157 9.11758 44.0216 8.98675 43.973 9.02838 43.8881 9.10569 44.0822 9.23652 44.1308 9.1949ZM34.7403 8.93917C34.8253 8.86186 34.6311 8.73103 34.5826 8.77266 34.4977 8.84997 34.6918 8.9808 34.7403 8.93917ZM37.4034 8.13038C37.4883 8.05307 37.2942 7.92224 37.2457 7.96387 37.1607 8.04118 37.3549 8.17201 37.4034 8.13038ZM18.386 8.81429C18.4709 8.73698 18.2768 8.60614 18.2282 8.64777 18.1433 8.72508 18.3374 8.85592 18.386 8.81429ZM36.0203 9.45062C36.1052 9.37331 35.9111 9.24247 35.8626 9.29005 35.7777 9.36736 35.9718 9.49225 36.0203 9.45062ZM34.0731 9.71823C34.0488 9.53982 33.9153 9.62308 33.9093 9.71823 33.9335 9.89664 34.067 9.81338 34.0731 9.71823ZM42.1593 10.0929C42.2442 10.0156 42.0501 9.88475 42.0015 9.93232 41.9166 10.0096 42.1107 10.1345 42.1593 10.0929ZM18.21 9.44467C18.295 9.36736 18.1008 9.23652 18.0523 9.2841 17.9674 9.36141 18.1615 9.4863 18.21 9.44467ZM33.0903 10.0096C33.1753 9.93232 32.9812 9.80149 32.9326 9.84312 32.8477 9.92043 33.0418 10.0513 33.0903 10.0096ZM41.1826 10.3843C41.2675 10.307 41.0734 10.1762 41.0249 10.2237 40.94 10.301 41.1341 10.4259 41.1826 10.3843ZM40.6913 10.533C40.7762 10.4557 40.5821 10.3308 40.5335 10.3724 40.4486 10.4497 40.6427 10.5805 40.6913 10.533ZM17.8703 9.90854C17.9553 9.83123 17.7611 9.70634 17.7126 9.74797 17.6277 9.82528 17.8218 9.95611 17.8703 9.90854ZM55.2076 18.9242C55.2925 18.8469 55.0984 18.716 55.0499 18.7577 54.9649 18.835 55.1591 18.9658 55.2076 18.9242ZM34.0245 11.3061C34.1095 11.2288 33.9153 11.0979 33.8668 11.1396 33.7819 11.2169 33.976 11.3477 34.0245 11.3061ZM22.3532 11.7818C22.4382 11.7045 22.244 11.5737 22.1955 11.6153 22.1106 11.6926 22.3047 11.8235 22.3532 11.7818ZM36.5905 12.323C36.5663 12.1446 36.4328 12.2279 36.4267 12.323 36.451 12.5014 36.5845 12.4182 36.5905 12.323ZM35.2984 12.2873C35.3834 12.21 35.1892 12.0792 35.1407 12.1268 35.0558 12.2041 35.2499 12.329 35.2984 12.2873ZM37.7067 12.8345C37.7916 12.7572 37.5975 12.6323 37.549 12.6739 37.4641 12.7512 37.6582 12.882 37.7067 12.8345ZM33.9881 12.7274C34.0731 12.6501 33.8789 12.5252 33.8304 12.5668 33.7455 12.6442 33.9396 12.775 33.9881 12.7274ZM55.1469 20.9819C55.2319 20.9045 55.0377 20.7737 54.9892 20.8153 54.9043 20.8927 55.0984 21.0235 55.1469 20.9819ZM44.1732 13.3281C44.2582 13.2508 44.064 13.1199 44.0155 13.1675 43.9306 13.2448 44.1247 13.3697 44.1732 13.3281ZM42.0683 13.2686C42.0683 13.114 41.8742 13.1437 41.7468 13.1021 41.7468 13.2567 41.9409 13.227 42.0683 13.2686ZM43.6819 13.4708C43.7668 13.3935 43.5727 13.2626 43.5242 13.3043 43.4392 13.3816 43.6333 13.5124 43.6819 13.4708ZM22.9659 12.9058C23.0508 12.8285 22.8567 12.6977 22.8082 12.7393 22.7233 12.8166 22.9174 12.9475 22.9659 12.9058ZM52.7083 14.6542C52.7932 14.5769 52.5991 14.452 52.5506 14.4937 52.4657 14.571 52.6598 14.7018 52.7083 14.6542ZM45.6109 14.1606C45.6958 14.0833 45.5017 13.9525 45.4532 14.0001 45.3683 14.0774 45.5624 14.2023 45.6109 14.1606ZM24.5613 13.7444C24.6462 13.667 24.4521 13.5362 24.4036 13.5778 24.3187 13.6551 24.5128 13.786 24.5613 13.7444ZM44.6221 14.7672C44.7071 14.6899 44.5129 14.5591 44.4644 14.6007 44.3795 14.678 44.5736 14.8089 44.6221 14.7672ZM22.9295 14.1785C23.0144 14.1012 22.8203 13.9703 22.7718 14.012 22.6869 14.0893 22.881 14.2201 22.9295 14.1785ZM56.2328 22.76C56.3177 22.6827 56.1236 22.5519 56.0751 22.5994 55.9901 22.6768 56.1842 22.8016 56.2328 22.76ZM42.499 15.1835C42.5839 15.1062 42.3898 14.9754 42.3413 15.023 42.2563 15.1003 42.4504 15.2252 42.499 15.1835ZM56.6999 23.4082C56.7848 23.3309 56.5907 23.2001 56.5421 23.2417 56.4572 23.319 56.6513 23.4499 56.6999 23.4082ZM44.1004 15.8674C44.1854 15.7901 43.9913 15.6593 43.9427 15.7009 43.8578 15.7782 44.0519 15.9091 44.1004 15.8674ZM18.2889 15.8258C18.2646 15.6414 18.1312 15.7307 18.1251 15.8258 18.1494 16.0042 18.2828 15.915 18.2889 15.8258ZM52.678 16.254C52.7629 16.1767 52.5688 16.0458 52.5203 16.0934 52.4353 16.1707 52.6295 16.2956 52.678 16.254ZM41.0249 15.9388C41.1098 15.8615 40.9157 15.7307 40.8672 15.7782 40.7822 15.8555 40.9764 15.9804 41.0249 15.9388ZM54.2916 16.4562C54.3765 16.3789 54.1824 16.254 54.1339 16.2956 54.0489 16.3729 54.2431 16.5038 54.2916 16.4562ZM17.2273 15.4511C17.3122 15.3738 17.1181 15.2489 17.0696 15.2906 16.9847 15.3679 17.1788 15.4987 17.2273 15.4511ZM55.2136 24.3181C55.2986 24.2408 55.1045 24.11 55.0559 24.1576 54.971 24.2349 55.1651 24.3598 55.2136 24.3181ZM16.5722 15.7485C16.6571 15.6712 16.463 15.5404 16.4145 15.5879 16.3295 15.6652 16.5236 15.7901 16.5722 15.7485ZM36.4753 16.4502C36.5602 16.3729 36.3661 16.2421 36.3175 16.2837 36.2326 16.361 36.4267 16.4919 36.4753 16.4502ZM53.4605 17.0747C53.4363 16.8963 53.3028 16.9795 53.2967 17.0747 53.321 17.2531 53.4545 17.1698 53.4605 17.0747ZM55.2076 24.6393C55.2925 24.562 55.0984 24.4311 55.0499 24.4787 54.9649 24.556 55.1591 24.6809 55.2076 24.6393ZM37.1122 16.7833C37.1971 16.706 37.003 16.5811 36.9545 16.6227 36.8696 16.7 37.0637 16.8308 37.1122 16.7833ZM25.4591 16.4681C25.544 16.3908 25.3499 16.2659 25.3014 16.3075 25.2165 16.3848 25.4106 16.5157 25.4591 16.4681ZM24.4946 16.2837C24.2944 16.3491 24.1549 16.48 24.1549 16.7535 24.3551 16.6881 24.4946 16.5573 24.4946 16.2837ZM35.3288 16.8963C35.4137 16.819 35.2196 16.6881 35.171 16.7298 35.0861 16.8071 35.2802 16.9379 35.3288 16.8963ZM22.699 16.7119C22.7839 16.6346 22.5898 16.5038 22.5413 16.5513 22.4564 16.6287 22.6505 16.7535 22.699 16.7119ZM44.2218 17.4553C44.1975 17.2709 44.064 17.3601 44.058 17.4553 44.0822 17.6337 44.2157 17.5445 44.2218 17.4553ZM25.9323 16.9557C26.0172 16.8784 25.8231 16.7476 25.7745 16.7892 25.6896 16.8665 25.8837 16.9974 25.9323 16.9557ZM12.9871 16.6049C13.072 16.5276 12.8779 16.3967 12.8293 16.4383 12.7444 16.5157 12.9385 16.6465 12.9871 16.6049ZM37.9008 17.598C37.9857 17.5207 37.7916 17.3958 37.7431 17.4374 37.6582 17.5148 37.8523 17.6456 37.9008 17.598ZM33.8425 17.8062C33.9275 17.7288 33.7334 17.598 33.6848 17.6456 33.5999 17.7229 33.794 17.8478 33.8425 17.8062ZM35.6199 18.0143C35.7049 17.937 35.5107 17.8062 35.4622 17.8478 35.3773 17.9251 35.5714 18.0559 35.6199 18.0143ZM33.1935 17.9489C33.2784 17.8716 33.0843 17.7407 33.0357 17.7824 32.9508 17.8597 33.1449 17.9905 33.1935 17.9489ZM11.1733 17.5088C11.2582 17.4315 11.0641 17.3007 11.0156 17.3482 10.9306 17.4256 11.1248 17.5504 11.1733 17.5088ZM40.946 18.6387C41.031 18.5614 40.8368 18.4306 40.7883 18.4722 40.7034 18.5495 40.8975 18.6804 40.946 18.6387ZM45.4714 19.0788C45.5563 19.0015 45.3622 18.8707 45.3137 18.9123 45.2287 18.9896 45.4229 19.1204 45.4714 19.0788ZM16.4994 18.2879C16.4751 18.1035 16.3417 18.1927 16.3356 18.2879 16.3599 18.4663 16.4933 18.3771 16.4994 18.2879ZM36.8878 19.0015C36.9727 18.9242 36.7786 18.7934 36.73 18.8409 36.6451 18.9182 36.8392 19.0431 36.8878 19.0015ZM34.619 18.942C34.5948 18.7636 34.4613 18.8469 34.4552 18.942 34.4795 19.1204 34.6129 19.0372 34.619 18.942ZM44.3249 19.3643C44.4098 19.287 44.2157 19.1621 44.1672 19.2037 44.0822 19.281 44.2764 19.4118 44.3249 19.3643ZM34.2854 19.4059C34.3703 19.3286 34.1762 19.1978 34.1277 19.2453 34.0427 19.3226 34.2368 19.4475 34.2854 19.4059ZM14.2185 18.8588C14.3034 18.7815 14.1093 18.6506 14.0608 18.6982 13.9758 18.7755 14.17 18.9004 14.2185 18.8588ZM26.0233 19.5011C25.999 19.3226 25.8655 19.4059 25.8595 19.5011 25.8837 19.6795 26.0172 19.5962 26.0233 19.5011ZM24.8828 19.6259C24.8586 19.4475 24.7251 19.5308 24.719 19.6259 24.7433 19.8103 24.8767 19.7211 24.8828 19.6259ZM45.2651 20.5002C45.3501 20.4228 45.156 20.292 45.1074 20.3396 45.0225 20.4169 45.2166 20.5418 45.2651 20.5002ZM44.7738 20.6488C44.7374 20.4466 44.4583 20.4764 44.4523 20.6429 44.5918 20.744 44.7374 20.8391 44.7738 20.6488ZM18.5558 19.9352C18.6407 19.8579 18.4466 19.727 18.3981 19.7687 18.3132 19.846 18.5073 19.9768 18.5558 19.9352ZM34.5766 20.5299C34.5523 20.3515 34.4188 20.4347 34.4128 20.5299 34.437 20.7083 34.5705 20.625 34.5766 20.5299ZM15.9656 20.0184C16.0505 19.9411 15.8564 19.8103 15.8078 19.8579 15.7229 19.9352 15.917 20.0601 15.9656 20.0184ZM22.1045 20.5061C22.1894 20.4288 21.9953 20.298 21.9468 20.3396 21.8619 20.4169 22.056 20.5477 22.1045 20.5061ZM25.3014 22.0226C25.3863 21.9453 25.1922 21.8204 25.1437 21.862 25.0587 21.9393 25.2529 22.0702 25.3014 22.0226ZM42.1229 22.7957C42.2078 22.7184 42.0137 22.5876 41.9651 22.6351 41.8802 22.7124 42.0743 22.8373 42.1229 22.7957ZM21.5768 22.1713C21.419 22.1713 21.4494 22.3616 21.4069 22.4865 21.3705 22.6649 21.2431 22.5697 21.2431 22.4865 21.0672 22.5221 21.1279 22.7957 20.9095 22.7957 20.9519 23.0098 21.3098 22.9384 21.5525 22.9741L21.5768 22.1832V22.1713ZM36.2872 22.9563C36.3721 22.879 36.178 22.7481 36.1295 22.7957 36.0446 22.873 36.2387 22.9979 36.2872 22.9563ZM25.1194 22.653C25.2043 22.5757 25.0102 22.4448 24.9617 22.4924 24.8768 22.5697 25.0709 22.6946 25.1194 22.653ZM37.094 23.1347C37.1789 23.0574 36.9848 22.9325 36.9363 22.9741 36.8514 23.0514 37.0455 23.1823 37.094 23.1347ZM24.6341 22.7957C24.719 22.7184 24.5249 22.5935 24.4764 22.6351 24.3915 22.7124 24.5856 22.8433 24.6341 22.7957ZM16.2143 22.7243C16.2992 22.647 16.1051 22.5162 16.0565 22.5578 15.9716 22.6351 16.1657 22.766 16.2143 22.7243ZM44.2036 23.6461C44.1793 23.4677 44.0458 23.551 44.0398 23.6461 44.064 23.8245 44.1975 23.7413 44.2036 23.6461ZM24.4521 23.4261C24.537 23.3488 24.3429 23.2179 24.2944 23.2655 24.2095 23.3428 24.4036 23.4677 24.4521 23.4261ZM35.9354 24.0565C36.0203 23.9792 35.8262 23.8483 35.7777 23.8899 35.6927 23.9673 35.8868 24.0981 35.9354 24.0565ZM35.2802 24.1992C35.3652 24.1219 35.171 23.991 35.1225 24.0386 35.0376 24.1159 35.2317 24.2408 35.2802 24.1992ZM22.978 24.0208C23.063 23.9435 22.8689 23.8126 22.8203 23.8543 22.7354 23.9316 22.9295 24.0624 22.978 24.0208ZM14.079 23.7829C14.1639 23.7056 13.9698 23.5748 13.9213 23.6164 13.8363 23.6937 14.0304 23.8245 14.079 23.7829ZM41.0977 24.675C41.1826 24.5976 40.9885 24.4668 40.94 24.5144 40.855 24.5917 41.0492 24.7166 41.0977 24.675ZM36.2387 24.6987C36.3236 24.6214 36.1295 24.4965 36.081 24.5382 35.996 24.6155 36.1902 24.7463 36.2387 24.6987ZM26.2052 24.4252C26.2902 24.3479 26.0961 24.223 26.0475 24.2646 25.9626 24.3419 26.1567 24.4727 26.2052 24.4252ZM15.5227 24.1338C15.6076 24.0565 15.4135 23.9316 15.365 23.9732 15.2801 24.0505 15.4742 24.1813 15.5227 24.1338ZM35.4258 24.8355C35.5107 24.7582 35.3166 24.6274 35.2681 24.669 35.1832 24.7463 35.3773 24.8771 35.4258 24.8355ZM32.2472 25.3351C32.3321 25.2578 32.138 25.1269 32.0894 25.1686 32.0045 25.2459 32.1986 25.3767 32.2472 25.3351ZM31.9681 25.8049C32.053 25.7276 31.8589 25.5967 31.8104 25.6384 31.7255 25.7157 31.9196 25.8465 31.9681 25.8049ZM41.7225 25.4837C41.8074 25.4064 41.6133 25.2756 41.5648 25.3232 41.4799 25.4005 41.674 25.5254 41.7225 25.4837ZM44.9558 25.7335C45.0407 25.6562 44.8466 25.5313 44.798 25.5729 44.7131 25.6503 44.9072 25.7811 44.9558 25.7335ZM30.6457 26.4293C30.7306 26.352 30.5365 26.2271 30.488 26.2687 30.403 26.3461 30.5971 26.4769 30.6457 26.4293ZM31.5071 26.1795C31.4282 25.9357 31.3372 26.1677 31.3372 26.3342 31.4161 26.578 31.5071 26.3461 31.5071 26.1795ZM15.0132 24.9188C15.0981 24.8415 14.904 24.7166 14.8554 24.7582 14.7705 24.8355 14.9646 24.9664 15.0132 24.9188ZM6.59939 24.6868C6.68431 24.6095 6.4902 24.4846 6.44167 24.5263 6.35674 24.6036 6.55086 24.7344 6.59939 24.6868ZM35.2378 25.6265C35.2135 25.4481 35.08 25.5313 35.074 25.6265 35.0982 25.8049 35.2317 25.7216 35.2378 25.6265ZM12.7444 25.0139C12.7202 24.8355 12.5867 24.9188 12.5806 25.0139 12.6049 25.1923 12.7383 25.1091 12.7444 25.0139ZM43.324 26.1676C43.2997 25.9833 43.1662 26.0725 43.1602 26.1676 43.1844 26.3461 43.3179 26.2569 43.324 26.1676ZM34.7403 26.0903C34.7403 25.9357 34.5462 25.9655 34.4188 25.9238 34.4188 26.0784 34.6129 26.0487 34.7403 26.0903ZM17.4275 25.6205C17.5124 25.5432 17.3183 25.4124 17.2698 25.46 17.1849 25.5373 17.379 25.6622 17.4275 25.6205ZM43.3058 26.798C43.2815 26.6196 43.148 26.7029 43.142 26.798 43.1662 26.9764 43.2997 26.8932 43.3058 26.798ZM44.5918 27.1489C44.6767 27.0716 44.4826 26.9408 44.4341 26.9883 44.3492 27.0656 44.5433 27.1905 44.5918 27.1489ZM34.5584 26.8813C34.6433 26.804 34.4492 26.6731 34.4006 26.7207 34.3157 26.798 34.5098 26.9229 34.5584 26.8813ZM8.0128 26.1558C8.09773 26.0784 7.90362 25.9476 7.85509 25.9952 7.77016 26.0725 7.96427 26.1974 8.0128 26.1558ZM34.5523 27.1965C34.6372 27.1192 34.4431 26.9883 34.3946 27.03 34.3096 27.1073 34.5038 27.2381 34.5523 27.1965ZM15.1224 26.9824C15.2073 26.9051 15.0132 26.7742 14.9646 26.8159 14.8797 26.8932 15.0738 27.024 15.1224 26.9824ZM7.50931 26.9348C7.59424 26.8575 7.40012 26.7267 7.35159 26.7742 7.26667 26.8516 7.46078 26.9764 7.50931 26.9348ZM34.2065 27.8209C34.2914 27.7436 34.0973 27.6187 34.0488 27.6603 33.9639 27.7377 34.158 27.8685 34.2065 27.8209ZM33.0721 27.7912C33.0479 27.6128 32.9144 27.696 32.9084 27.7912 32.9326 27.9755 33.0661 27.8863 33.0721 27.7912ZM23.5058 28.1658C23.5907 28.0885 23.3966 27.9577 23.3481 28.0053 23.2631 28.0826 23.4573 28.2075 23.5058 28.1658ZM8.44351 28.2313C8.44351 28.0766 8.24939 28.1064 8.12806 28.0647 8.12806 28.2194 8.32218 28.1896 8.44351 28.2313ZM9.24424 28.5702C9.32916 28.4929 9.13505 28.3621 9.08652 28.4097 9.00159 28.487 9.19571 28.6119 9.24424 28.5702ZM7.30306 28.5167C7.38799 28.4394 7.19388 28.3086 7.14535 28.3561 7.06042 28.4335 7.25453 28.5583 7.30306 28.5167ZM28.4983 29.2541C27.9948 29.3969 28.6742 29.6823 28.6439 29.8964 29.1473 29.7537 28.474 29.4682 28.4983 29.2541ZM5.18598 28.939C5.16171 28.7605 5.02825 28.8438 5.02219 28.939 5.04645 29.1174 5.17991 29.0341 5.18598 28.939ZM8.74075 29.1947C8.82568 29.1174 8.63155 28.9865 8.58302 29.0282 8.4981 29.1055 8.69222 29.2363 8.74075 29.1947ZM8.24332 29.498C8.21906 29.3196 8.0856 29.4028 8.07953 29.498 8.1038 29.6823 8.23725 29.5931 8.24332 29.498ZM9.20784 29.837C9.29277 29.7596 9.09865 29.6288 9.05012 29.6764 8.9652 29.7537 9.15931 29.8786 9.20784 29.837ZM28.9472 30.5387C28.8683 30.2889 28.7773 30.5209 28.7834 30.6933 28.8622 30.9431 28.9532 30.7052 28.9472 30.5387ZM8.22512 30.1284C8.31005 30.051 8.11594 29.9202 8.06741 29.9678 7.98248 30.0451 8.17659 30.17 8.22512 30.1284ZM52.0411 4.33025C51.5618 3.88422 52.4718 4.82385 52.0411 4.33025V4.33025ZM27.7036 5.73374C27.2244 5.28771 28.1343 6.22734 27.7036 5.73374V5.73374ZM26.0051 8.70129C25.5016 9.11758 26.46 8.23148 26.0051 8.70129V8.70129ZM34.5341 10.5211C34.5341 10.5211 34.528 10.3665 34.5341 10.3605 33.8365 10.8244 35.2438 10.64 34.8556 10.3665 34.8313 10.3486 34.6069 10.5151 34.528 10.5151L34.5341 10.5211ZM34.7707 19.4237C34.2914 18.9777 35.1953 19.9173 34.7707 19.4237V19.4237ZM42.8629 25.1983C42.3837 24.7523 43.2936 25.6919 42.8629 25.1983V25.1983ZM42.4929 24.3003C42.4929 24.3003 42.4505 23.8483 42.3413 23.9791 42.2078 24.1338 42.7113 24.7582 42.4929 24.3003ZM35.6988 26.5899C35.2196 26.1439 36.1234 27.0835 35.6988 26.5899V26.5899ZM34.0852 26.5483C33.606 26.1022 34.5098 27.0419 34.0852 26.5483V26.5483ZM66.3451 1.98713C66.43 1.90981 66.2359 1.77898 66.1873 1.82656 66.1024 1.90387 66.2965 2.02875 66.3451 1.98713ZM67.6129 1.51136C67.6129 1.35674 67.4188 1.38648 67.2975 1.34485 67.2975 1.49947 67.4916 1.46974 67.6129 1.51136ZM64.1673 3.00406C64.2522 2.92675 64.0581 2.79592 64.0096 2.84349 63.9247 2.92081 64.1188 3.04569 64.1673 3.00406ZM62.396 4.72275C62.4627 4.919 62.5962 5.05578 62.8752 5.04983 62.9602 4.7168 62.6508 4.74059 62.396 4.72275ZM66.0964 3.69392C66.1813 3.6166 65.9872 3.48577 65.9386 3.5274 65.8537 3.60471 66.0478 3.73554 66.0964 3.69392ZM67.71 3.89611C67.7949 3.8188 67.6008 3.68797 67.5522 3.73554 67.4673 3.81286 67.6614 3.93774 67.71 3.89611ZM65.9204 4.00316C66.0054 3.92585 65.8112 3.80096 65.7627 3.84259 65.6778 3.9199 65.8719 4.05074 65.9204 4.00316ZM61.2556 4.71085C61.3405 4.63354 61.1464 4.50866 61.0978 4.55028 61.0129 4.6276 61.207 4.75843 61.2556 4.71085ZM69.639 4.26483H69.3175C69.3175 4.35998 69.3175 4.46703 69.3114 4.57407H69.6329C69.6329 4.47892 69.6329 4.37187 69.639 4.26483ZM68.9899 4.40756C68.9535 4.20536 68.6745 4.24104 68.6684 4.40161 68.7351 4.63354 68.814 4.38972 68.9899 4.40756ZM65.2471 4.94279C65.2228 4.76438 65.0894 4.84763 65.0833 4.94279 65.1076 5.1212 65.241 5.03794 65.2471 4.94279ZM66.6848 5.77537C66.7697 5.69806 66.5756 5.56722 66.527 5.60885 66.4421 5.68616 66.6362 5.817 66.6848 5.77537ZM64.416 5.70995C64.501 5.63264 64.3068 5.50181 64.2583 5.54343 64.1734 5.62075 64.3675 5.75158 64.416 5.70995ZM71.2101 6.05488C71.2951 5.97757 71.101 5.84673 71.0524 5.89431 70.9675 5.97162 71.1616 6.09651 71.2101 6.05488ZM74.9287 6.31654C75.0136 6.23923 74.8195 6.1084 74.771 6.15003 74.6861 6.22734 74.8802 6.35817 74.9287 6.31654ZM61.48 6.58416C61.5649 6.50685 61.3708 6.37602 61.3223 6.42359 61.2374 6.5009 61.4315 6.62579 61.48 6.58416ZM75.9842 6.34628C75.9478 6.14408 75.6688 6.17382 75.6627 6.34033 75.7294 6.57227 75.8083 6.32844 75.9842 6.34628ZM76.6697 7.63083C76.7546 7.55352 76.5605 7.42269 76.512 7.46432 76.427 7.54163 76.6211 7.67246 76.6697 7.63083ZM62.9662 6.12624C63.0511 6.04893 62.857 5.9181 62.8085 5.95972 62.7236 6.03703 62.9177 6.16787 62.9662 6.12624ZM77.4643 8.29095C77.5493 8.21364 77.3552 8.08875 77.3066 8.13038 77.2217 8.20769 77.4158 8.33853 77.4643 8.29095ZM76.1601 8.57046C76.245 8.49315 76.0509 8.36231 76.0024 8.40989 75.9175 8.4872 76.1116 8.61209 76.1601 8.57046ZM77.1004 9.70634C77.0761 9.52793 76.9427 9.61119 76.9366 9.70634 76.9609 9.88475 77.0943 9.80149 77.1004 9.70634ZM73.5335 9.93232C73.6184 9.85501 73.4243 9.72418 73.3758 9.76581 73.2908 9.84312 73.4849 9.97395 73.5335 9.93232ZM64.7011 11.9305C64.7861 11.8532 64.5919 11.7224 64.5434 11.764 64.4585 11.8413 64.6526 11.9721 64.7011 11.9305ZM64.6223 9.84312C64.7072 9.76581 64.5131 9.63497 64.4646 9.68255 64.3796 9.75986 64.5737 9.88475 64.6223 9.84312ZM64.8043 10.8779C64.78 10.6995 64.6465 10.7827 64.6405 10.8779 64.6647 11.0563 64.7982 10.973 64.8043 10.8779ZM60.8673 10.8541C60.9522 10.7768 60.7581 10.646 60.7096 10.6935 60.6247 10.7709 60.8188 10.8957 60.8673 10.8541ZM75.6324 11.2109C75.7173 11.1336 75.5232 11.0087 75.4746 11.0504 75.3897 11.1277 75.5838 11.2585 75.6324 11.2109ZM73.3212 11.5142C73.4061 11.4369 73.212 11.3061 73.1634 11.3477 73.0785 11.425 73.2726 11.5559 73.3212 11.5142ZM64.7982 12.6501C64.8831 12.5728 64.689 12.442 64.6405 12.4836 64.5555 12.5609 64.7497 12.6917 64.7982 12.6501ZM75.414 12.0435C75.4989 11.9662 75.3048 11.8354 75.2563 11.8829 75.1713 11.9603 75.3655 12.0851 75.414 12.0435ZM75.5657 12.3646C75.6506 12.2873 75.4565 12.1565 75.4079 12.1981 75.323 12.2754 75.5171 12.4063 75.5657 12.3646ZM64.8043 13.6433C64.78 13.4648 64.6465 13.5481 64.6405 13.6433 64.6647 13.8217 64.7982 13.7384 64.8043 13.6433ZM64.8953 14.4461C64.3615 14.0477 65.2714 14.9873 64.8953 14.4461V14.4461ZM61.3769 12.2219C61.3526 12.0435 61.2192 12.1268 61.2131 12.2219 61.2374 12.4003 61.3708 12.3171 61.3769 12.2219ZM56.6331 11.4548C56.7181 11.3774 56.5239 11.2466 56.4754 11.2942 56.3905 11.3715 56.5846 11.4964 56.6331 11.4548ZM75.8568 13.6433C75.9417 13.5659 75.7476 13.4351 75.6991 13.4827 75.6142 13.56 75.8083 13.6849 75.8568 13.6433ZM64.5373 15.4928C64.6223 15.4155 64.4282 15.2906 64.3796 15.3322 64.2947 15.4095 64.4888 15.5404 64.5373 15.4928ZM75.3594 13.9466C75.4443 13.8692 75.2502 13.7384 75.2017 13.78 75.1168 13.8573 75.3109 13.9882 75.3594 13.9466ZM64.8346 16.1529C64.8103 15.9685 64.6769 16.0577 64.6708 16.1529 64.6951 16.3313 64.8285 16.2421 64.8346 16.1529ZM74.9894 15.5285C75.0743 15.4511 74.8802 15.3203 74.8316 15.3619 74.7467 15.4393 74.9408 15.5701 74.9894 15.5285ZM64.7618 17.265C64.7376 17.0866 64.6041 17.1698 64.598 17.265 64.6223 17.4434 64.7557 17.3601 64.7618 17.265ZM74.4798 16.4621C74.4555 16.2837 74.3221 16.367 74.316 16.4621 74.3403 16.6405 74.4737 16.5573 74.4798 16.4621ZM64.5313 19.9233C64.6162 19.846 64.4221 19.7151 64.3736 19.7627 64.2886 19.84 64.4828 19.9649 64.5313 19.9233ZM74.0976 18.5198C74.1826 18.4425 73.9884 18.3176 73.9399 18.3592 73.855 18.4365 74.0491 18.5674 74.0976 18.5198ZM65.4109 20.2087C65.3866 20.0303 65.2532 20.1136 65.2471 20.2087 65.2714 20.3931 65.4048 20.3039 65.4109 20.2087ZM73.0724 19.0729C73.1574 18.9956 72.9632 18.8647 72.9147 18.9123 72.8298 18.9896 73.0239 19.1145 73.0724 19.0729ZM73.3818 20.3455C73.4668 20.2682 73.2726 20.1374 73.2241 20.185 73.1392 20.2623 73.3333 20.3872 73.3818 20.3455ZM73.218 22.4627C73.303 22.3854 73.1088 22.2545 73.0603 22.2962 72.9754 22.3735 73.1695 22.5043 73.218 22.4627ZM64.1734 23.0336C64.2583 22.9563 64.0642 22.8254 64.0157 22.8671 63.9307 22.9444 64.1249 23.0752 64.1734 23.0336ZM65.2168 23.9494C65.3017 23.8721 65.1076 23.7413 65.059 23.7888 64.9741 23.8662 65.1682 23.991 65.2168 23.9494ZM77.2945 8.60019C76.791 9.02243 77.7495 8.13038 77.2945 8.60019V8.60019ZM63.0208 10.0394C62.9965 9.86096 62.8631 9.94422 62.857 10.0394 62.7296 9.95016 62.5962 9.86691 62.3717 9.86691 62.5052 10.1048 62.6022 10.3784 63.0087 10.3605 63.0451 10.2237 62.948 10.2059 62.851 10.1999 62.8267 10.0632 62.9177 10.0513 63.0148 10.0453L63.0208 10.0394ZM64.319 18.4722C64.4585 18.5079 64.4706 18.4128 64.4827 18.3176 64.6465 18.4246 64.6405 18.6863 64.962 18.6506 64.9498 18.4246 64.2947 17.7824 64.319 18.4722ZM74.4313 18.2106C74.2008 18.2403 74.3645 18.6804 74.0976 18.6804 74.1522 19.0788 74.5647 18.5376 74.4313 18.2106ZM64.3372 20.7499C63.8579 20.3039 64.7618 21.2435 64.3372 20.7499V20.7499ZM41.68 21.7609C41.765 21.6836 41.5708 21.5528 41.5223 21.5944 41.4374 21.6717 41.6315 21.8025 41.68 21.7609ZM42.2988 22.7303C42.3837 22.653 42.1896 22.5221 42.1411 22.5697 42.0561 22.647 42.2503 22.7719 42.2988 22.7303ZM52.2715 25.0615C52.3565 24.9842 52.1624 24.8534 52.1138 24.9009 52.0289 24.9783 52.223 25.1031 52.2715 25.0615ZM74.4131 26.7802C74.498 26.7029 74.3039 26.572 74.2554 26.6196 74.1704 26.6969 74.3645 26.8218 74.4131 26.7802ZM72.7813 27.3689C72.8662 27.2916 72.6721 27.1608 72.6236 27.2024 72.5386 27.2797 72.7327 27.4106 72.7813 27.3689ZM67.4067 28.2313C67.3824 28.0529 67.2489 28.1361 67.2429 28.2313 67.2671 28.4097 67.4006 28.3264 67.4067 28.2313ZM68.8625 28.2729C68.8383 28.0945 68.7048 28.1777 68.6988 28.2729 68.723 28.4572 68.8565 28.368 68.8625 28.2729ZM63.5425 27.5949C63.6274 27.5176 63.4333 27.3868 63.3848 27.4284 63.2998 27.5057 63.494 27.6366 63.5425 27.5949ZM73.8853 28.3502C73.9702 28.2729 73.7761 28.1421 73.7276 28.1896 73.6427 28.2669 73.8368 28.3918 73.8853 28.3502ZM69.6693 28.3978C69.6693 28.2432 69.4752 28.2729 69.3478 28.2313 69.3478 28.3859 69.542 28.3561 69.6693 28.3978ZM70.464 29.0519C70.4397 28.8735 70.3063 28.9568 70.3002 29.0519 70.3245 29.2304 70.4579 29.1471 70.464 29.0519ZM43.2754 28.3145C43.3604 28.2372 43.1663 28.1064 43.1177 28.1539 43.0328 28.2313 43.2269 28.3561 43.2754 28.3145ZM72.2899 29.6526C72.3748 29.5753 72.1807 29.4504 72.1322 29.492 72.0473 29.5693 72.2414 29.7002 72.2899 29.6526ZM46.8302 28.5702C46.9151 28.4929 46.721 28.368 46.6725 28.4097 46.5876 28.487 46.7817 28.6178 46.8302 28.5702ZM61.5467 29.2839C61.6317 29.2066 61.4375 29.0757 61.389 29.1233 61.3041 29.2006 61.4982 29.3255 61.5467 29.2839ZM64.6162 29.6883C64.7011 29.611 64.507 29.4801 64.4585 29.5277 64.3736 29.605 64.5677 29.7299 64.6162 29.6883ZM61.6984 29.611C61.7833 29.5337 61.5892 29.4028 61.5407 29.4504 61.4557 29.5277 61.6499 29.6526 61.6984 29.611ZM70.276 29.9975C70.2517 29.8191 70.1182 29.9024 70.1122 29.9975 70.1364 30.1819 70.2699 30.0927 70.276 29.9975ZM51.4951 29.6466C51.58 29.5693 51.3859 29.4385 51.3374 29.4801 51.2524 29.5574 51.4466 29.6883 51.4951 29.6466ZM66.5452 30.2176C66.6302 30.1402 66.4361 30.0094 66.3875 30.057 66.3026 30.1343 66.4967 30.2592 66.5452 30.2176ZM69.2872 30.6101C69.3721 30.5327 69.178 30.4019 69.1294 30.4495 69.0445 30.5268 69.2386 30.6517 69.2872 30.6101ZM63.2999 30.4435C63.3848 30.3662 63.1907 30.2354 63.1421 30.283 63.0572 30.3603 63.2513 30.4852 63.2999 30.4435ZM50.6701 30.1046C50.755 30.0273 50.5609 29.8964 50.5124 29.944 50.4274 30.0213 50.6216 30.1462 50.6701 30.1046ZM50.3425 30.4138C50.4274 30.3365 50.2333 30.2057 50.1848 30.2473 50.0999 30.3246 50.294 30.4554 50.3425 30.4138ZM50.6519 30.8955C50.7368 30.8182 50.5427 30.6874 50.4942 30.7349 50.4092 30.8123 50.6034 30.9371 50.6519 30.8955ZM53.7153 25.5789C53.2118 26.0011 54.1703 25.1091 53.7153 25.5789V25.5789ZM62.4809 30.5803C61.9774 31.0026 62.9359 30.1105 62.4809 30.5803V30.5803ZM39.8966 38.2103C39.9815 38.133 39.7874 38.0081 39.7389 38.0498 39.6539 38.1271 39.8481 38.2579 39.8966 38.2103ZM14.0911 37.1577C14.176 37.0804 13.9819 36.9496 13.9334 36.9971 13.8485 37.0745 14.0426 37.1993 14.0911 37.1577ZM37.3973 38.6088C37.4823 38.5315 37.2881 38.4066 37.2396 38.4482 37.1547 38.5255 37.3488 38.6564 37.3973 38.6088ZM13.0841 35.9802C13.169 35.9029 12.9749 35.778 12.9264 35.8196 12.8415 35.8969 13.0356 36.0278 13.0841 35.9802ZM2.58359 37.0507C2.66851 36.9734 2.4744 36.8485 2.42587 36.8901 2.34094 36.9674 2.53506 37.0982 2.58359 37.0507ZM5.13137 36.7771C5.2163 36.6998 5.02219 36.5749 4.97366 36.6165 4.88873 36.6939 5.08284 36.8247 5.13137 36.7771ZM34.5584 37.4848C34.522 37.2826 34.2429 37.3123 34.2369 37.4789 34.3036 37.7108 34.3824 37.467 34.5584 37.4848ZM33.5878 37.4551C33.6727 37.3778 33.4786 37.2469 33.4301 37.2885 33.3451 37.3659 33.5392 37.4967 33.5878 37.4551ZM35.9354 38.8883C35.9111 38.7099 35.7777 38.7931 35.7716 38.8883 35.7959 39.0667 35.9293 38.9834 35.9354 38.8883ZM3.20234 36.0278C3.28726 35.9505 3.09314 35.8196 3.04461 35.8672 2.95968 35.9445 3.15381 36.0694 3.20234 36.0278ZM36.8999 39.0727C36.9848 38.9953 36.7907 38.8645 36.7422 38.9061 36.6572 38.9834 36.8514 39.1143 36.8999 39.0727ZM42.3595 37.4134C42.4444 37.3361 42.2503 37.2053 42.2017 37.2529 42.1168 37.3302 42.3109 37.4551 42.3595 37.4134ZM36.8817 39.709C36.9666 39.6317 36.7725 39.5008 36.724 39.5484 36.639 39.6257 36.8332 39.7506 36.8817 39.709ZM31.8225 37.6037C31.9074 37.5264 31.7133 37.3956 31.6648 37.4432 31.5799 37.5205 31.774 37.6454 31.8225 37.6037ZM13.0477 37.2469C13.1327 37.1696 12.9385 37.0388 12.89 37.0804 12.8051 37.1577 12.9992 37.2885 13.0477 37.2469ZM41.5284 38.1806C41.6133 38.1033 41.4192 37.9725 41.3707 38.02 41.2857 38.0973 41.4799 38.2222 41.5284 38.1806ZM4.14259 37.1637C4.11833 36.9853 3.98487 37.0685 3.97881 37.1637 4.00307 37.3421 4.13653 37.2588 4.14259 37.1637ZM12.8597 38.0379C12.9446 37.9606 12.7505 37.8297 12.702 37.8714 12.617 37.9487 12.8111 38.0795 12.8597 38.0379ZM32.4291 39.2035C32.5141 39.1262 32.3199 38.9953 32.2714 39.0429 32.1865 39.1202 32.3806 39.2451 32.4291 39.2035ZM43.7425 39.9885C43.8275 39.9112 43.6333 39.7863 43.5848 39.8279 43.4999 39.9052 43.694 40.0361 43.7425 39.9885ZM12.344 39.1321C12.429 39.0548 12.2349 38.9299 12.1863 38.9716 12.1014 39.0489 12.2955 39.1797 12.344 39.1321ZM2.67458 38.6623C2.75951 38.585 2.56539 38.4601 2.51686 38.5017 2.43193 38.579 2.62605 38.7099 2.67458 38.6623ZM2.4562 39.5008C2.54113 39.4235 2.347 39.2927 2.29847 39.3403 2.21355 39.4176 2.40767 39.5425 2.4562 39.5008ZM2.60785 39.822C2.69278 39.7447 2.49866 39.6138 2.45013 39.6555 2.3652 39.7328 2.55933 39.8636 2.60785 39.822ZM33.1935 40.8151C33.2784 40.7378 33.0843 40.607 33.0357 40.6546 32.9508 40.7319 33.1449 40.8567 33.1935 40.8151ZM29.6205 41.1898C29.7054 41.1125 29.5113 40.9876 29.4628 41.0292 29.3778 41.1065 29.572 41.2374 29.6205 41.1898ZM29.2808 41.6596C29.3657 41.5823 29.1716 41.4515 29.1231 41.4931 29.0381 41.5704 29.2323 41.7012 29.2808 41.6596ZM2.89903 41.1006C2.98395 41.0233 2.78983 40.8924 2.7413 40.94 2.65638 41.0173 2.8505 41.1422 2.89903 41.1006ZM43.1845 42.516C43.2694 42.4387 43.0753 42.3078 43.0267 42.3495 42.9418 42.4268 43.1359 42.5576 43.1845 42.516ZM2.4016 41.4039C2.48653 41.3266 2.29241 41.1957 2.24388 41.2374 2.15896 41.3147 2.35307 41.4455 2.4016 41.4039ZM11.7799 41.9807C11.8648 41.9034 11.6707 41.7726 11.6222 41.8142 11.5373 41.8915 11.7314 42.0224 11.7799 41.9807ZM31.8407 42.6825C31.8164 42.5041 31.683 42.5873 31.6769 42.6825 31.7012 42.8609 31.8346 42.7776 31.8407 42.6825ZM33.9335 43.2177C34.0185 43.1404 33.8243 43.0096 33.7758 43.0571 33.6909 43.1345 33.885 43.2593 33.9335 43.2177ZM41.2008 44.0503C41.2857 43.973 41.0916 43.8422 41.0431 43.8838 40.9582 43.9611 41.1523 44.0919 41.2008 44.0503ZM3.15987 42.5754C3.2448 42.4981 3.05068 42.3673 3.00215 42.4089 2.91723 42.4862 3.11134 42.6171 3.15987 42.5754ZM44.7495 44.4666C44.8344 44.3893 44.6403 44.2584 44.5918 44.3001 44.5069 44.3774 44.701 44.5082 44.7495 44.4666ZM11.24 43.8659C11.3249 43.7886 11.1308 43.6637 11.0823 43.7054 10.9974 43.7827 11.1915 43.9135 11.24 43.8659ZM30.8155 44.5617C30.9005 44.4844 30.7063 44.3536 30.6578 44.3952 30.5729 44.4725 30.767 44.6034 30.8155 44.5617ZM43.2694 45.2159C43.3543 45.1386 43.1602 45.0078 43.1117 45.0494 43.0267 45.1267 43.2208 45.2575 43.2694 45.2159ZM31.7801 44.9067C31.865 44.8293 31.6709 44.6985 31.6223 44.7401 31.5374 44.8175 31.7315 44.9483 31.7801 44.9067ZM30.0027 44.8591C30.0876 44.7818 29.8935 44.6509 29.8449 44.6926 29.76 44.7699 29.9541 44.9007 30.0027 44.8591ZM32.2472 45.5489C32.3321 45.4716 32.138 45.3408 32.0894 45.3884 32.0045 45.4657 32.1986 45.5906 32.2472 45.5489ZM43.2451 46.0128C43.2208 45.8284 43.0874 45.9177 43.0813 46.0128 43.1056 46.1912 43.239 46.102 43.2451 46.0128ZM42.7598 45.995C42.7355 45.8106 42.6021 45.8998 42.596 45.995 42.6203 46.1734 42.7537 46.0842 42.7598 45.995ZM10.7487 44.5023C10.8336 44.425 10.6395 44.2941 10.5909 44.3358 10.506 44.4131 10.7001 44.5439 10.7487 44.5023ZM10.87 45.6025C10.9549 45.5252 10.7608 45.3943 10.7123 45.4359 10.6273 45.5133 10.8214 45.6441 10.87 45.6025ZM42.4201 46.6253C42.505 46.548 42.3109 46.4172 42.2624 46.4648 42.1775 46.5421 42.3716 46.667 42.4201 46.6253ZM41.9348 46.6075C42.0197 46.5302 41.8256 46.3994 41.7771 46.4469 41.6922 46.5242 41.8863 46.6491 41.9348 46.6075ZM42.7416 46.7919C42.8265 46.7146 42.6324 46.5837 42.5839 46.6253 42.499 46.7027 42.6931 46.8335 42.7416 46.7919ZM10.3725 45.9117C10.4575 45.8344 10.2634 45.7036 10.2148 45.7452 10.1299 45.8225 10.324 45.9533 10.3725 45.9117ZM11.1551 46.7264C11.24 46.6491 11.0459 46.5183 10.9974 46.5599 10.9124 46.6372 11.1066 46.7681 11.1551 46.7264ZM43.6576 48.7187C43.7425 48.6414 43.5484 48.5165 43.4999 48.5581 43.415 48.6354 43.6091 48.7663 43.6576 48.7187ZM30.7003 48.683C30.7852 48.6057 30.5911 48.4749 30.5426 48.5224 30.4576 48.5998 30.6517 48.7246 30.7003 48.683ZM40.7277 49.1171C40.8126 49.0398 40.6185 48.909 40.5699 48.9506 40.485 49.0279 40.6791 49.1588 40.7277 49.1171ZM10.4514 48.7722C10.4514 48.6176 10.2573 48.6414 10.1299 48.6057 10.1299 48.7603 10.324 48.7365 10.4514 48.7722ZM32.9387 49.7C32.9144 49.5156 32.781 49.6048 32.7749 49.7 32.7992 49.8784 32.9326 49.7892 32.9387 49.7ZM43.1298 50.1341C43.2148 50.0568 43.0207 49.9259 42.9721 49.9735 42.8872 50.0508 43.0813 50.1757 43.1298 50.1341ZM7.18781 49.581C7.27273 49.5037 7.07862 49.3788 7.03009 49.4204 6.94516 49.4978 7.13928 49.6286 7.18781 49.581ZM42.6203 51.0737C42.596 50.8953 42.4626 50.9845 42.4565 51.0737 42.4808 51.2581 42.6142 51.1689 42.6203 51.0737ZM31.4403 51.2462C31.5253 51.1689 31.3312 51.038 31.2826 51.0797 31.1977 51.157 31.3918 51.2878 31.4403 51.2462ZM32.3745 51.157C32.4595 51.0797 32.2653 50.9488 32.2168 50.9964 32.1319 51.0737 32.326 51.1986 32.3745 51.157ZM4.33671 36.0575C3.83322 36.4798 4.79167 35.5877 4.33671 36.0575V36.0575ZM6.91483 48.5343C6.56906 47.9158 6.97549 48.9625 7.06649 48.8555 7.20601 48.6949 6.93303 48.5641 6.91483 48.5343ZM51.4708 37.0388C51.4466 36.8604 51.3131 36.9436 51.307 37.0388 51.3313 37.2172 51.4648 37.1339 51.4708 37.0388ZM49.8572 35.9564C49.9422 35.8791 49.748 35.7483 49.6995 35.7899 49.6146 35.8672 49.8087 35.9981 49.8572 35.9564ZM50.5002 36.1289C50.5852 36.0516 50.391 35.9207 50.3425 35.9683 50.2576 36.0456 50.4517 36.1705 50.5002 36.1289ZM39.1747 35.8196C39.2596 35.7423 39.0655 35.6115 39.017 35.6591 38.9321 35.7364 39.1262 35.8613 39.1747 35.8196ZM37.8766 35.7899C37.9615 35.7126 37.7674 35.5818 37.7188 35.6293 37.6339 35.7066 37.828 35.8315 37.8766 35.7899ZM52.7629 36.3549C52.8479 36.2776 52.6537 36.1467 52.6052 36.1884 52.5203 36.2657 52.7144 36.3965 52.7629 36.3549ZM41.771 41.2255C40.8126 41.3563 40.1089 41.3682 39.5083 41.166 39.5569 41.8499 40.0543 41.392 40.303 41.6655 40.7216 41.4455 41.6982 41.8083 41.771 41.2314V41.2255ZM37.5429 36.2538C37.6278 36.1765 37.4337 36.0516 37.3852 36.0932 37.3003 36.1705 37.4944 36.3013 37.5429 36.2538ZM38.9867 36.6106C39.0716 36.5333 38.8775 36.4024 38.8289 36.45 38.744 36.5273 38.9381 36.6522 38.9867 36.6106ZM39.3082 36.7771C39.3931 36.6998 39.199 36.569 39.1504 36.6106 39.0655 36.6879 39.2596 36.8187 39.3082 36.7771ZM67.4673 39.3165C67.4431 39.1381 67.3096 39.2213 67.3035 39.3165 67.3278 39.4949 67.4613 39.4116 67.4673 39.3165ZM53.6971 37.6454C53.782 37.5681 53.5879 37.4372 53.5394 37.4789 53.4545 37.5562 53.6486 37.687 53.6971 37.6454ZM52.405 37.6097C52.4899 37.5324 52.2958 37.4015 52.2473 37.4432 52.1624 37.5205 52.3565 37.6513 52.405 37.6097ZM67.0245 38.579C67.1094 38.5017 66.9153 38.3709 66.8668 38.4125 66.7818 38.4898 66.9759 38.6207 67.0245 38.579ZM37.0152 37.6692C37.1001 37.5918 36.906 37.461 36.8574 37.5086 36.7725 37.5859 36.9666 37.7108 37.0152 37.6692ZM68.2013 40.0182C68.2499 40.2264 68.4804 40.2739 68.5107 40.4999 68.9171 40.4464 68.535 39.8874 68.2013 40.0182ZM51.7377 38.2282C51.8227 38.1509 51.6285 38.026 51.58 38.0676 51.4951 38.1449 51.6892 38.2758 51.7377 38.2282ZM42.0258 38.1211C42.1107 38.0438 41.9166 37.913 41.8681 37.9546 41.7832 38.0319 41.9773 38.1628 42.0258 38.1211ZM68.0739 38.9894C68.1589 38.9121 67.9647 38.7812 67.9162 38.8288 67.8313 38.9061 68.0254 39.031 68.0739 38.9894ZM53.6607 39.0727C53.7456 38.9953 53.5515 38.8705 53.503 38.9121 53.4181 38.9894 53.6122 39.1202 53.6607 39.0727ZM49.6085 39.1262C49.5843 38.9478 49.4508 39.031 49.4447 39.1262 49.469 39.3046 49.6025 39.2213 49.6085 39.1262ZM49.287 39.1143C49.2264 38.6742 48.7107 39.3343 48.9473 39.5841 48.9716 39.6079 49.2749 39.0548 49.287 39.1143ZM51.7074 39.3403C51.7074 39.1856 51.5133 39.2154 51.3859 39.1737 51.3859 39.3284 51.58 39.2986 51.7074 39.3403ZM38.4346 38.9775C38.4104 38.7991 38.2769 38.8824 38.2709 38.9775 38.2951 39.1559 38.4286 39.0727 38.4346 38.9775ZM42.6385 39.2511C42.7234 39.1738 42.5293 39.0429 42.4808 39.0845 42.3958 39.1619 42.59 39.2927 42.6385 39.2511ZM48.7835 39.5781C48.8685 39.5008 48.6743 39.37 48.6258 39.4176 48.5409 39.4949 48.735 39.6198 48.7835 39.5781ZM68.2074 45.1564C68.2923 45.0791 68.0982 44.9542 68.0497 44.9959 67.9647 45.0732 68.1589 45.204 68.2074 45.1564ZM52.1745 39.9885C52.2594 39.9112 52.0653 39.7803 52.0168 39.822 51.9319 39.8993 52.126 40.0301 52.1745 39.9885ZM49.099 39.9052C49.1839 39.8279 48.9898 39.6971 48.9412 39.7387 48.8563 39.816 49.0504 39.9469 49.099 39.9052ZM35.0194 39.5187C35.1043 39.4414 34.9102 39.3105 34.8617 39.3522 34.7767 39.4295 34.9709 39.5603 35.0194 39.5187ZM44.2339 40.0896C44.3188 40.0123 44.1247 39.8814 44.0762 39.9231 43.9913 40.0004 44.1854 40.1312 44.2339 40.0896ZM70.1243 40.9519C70.2092 40.8746 70.0151 40.7438 69.9666 40.7913 69.8816 40.8686 70.0758 40.9935 70.1243 40.9519ZM42.6021 40.5237C42.687 40.4464 42.4929 40.3156 42.4444 40.3572 42.3595 40.4345 42.5536 40.5653 42.6021 40.5237ZM51.8166 41.2493C51.9015 41.1719 51.7074 41.0411 51.6589 41.0887 51.574 41.166 51.7681 41.2909 51.8166 41.2493ZM49.8754 41.1957C49.9604 41.1184 49.7662 40.9876 49.7177 41.0352 49.6328 41.1125 49.8269 41.2374 49.8754 41.1957ZM51.8045 41.725C51.8894 41.6477 51.6953 41.5169 51.6467 41.5644 51.5618 41.6418 51.7559 41.7666 51.8045 41.725ZM68.171 46.7562C68.2559 46.6789 68.0618 46.548 68.0133 46.5956 67.9283 46.6729 68.1225 46.7978 68.171 46.7562ZM69.7846 46.9584C69.8695 46.8811 69.6754 46.7562 69.6269 46.7978 69.5419 46.8751 69.7361 47.006 69.7846 46.9584ZM67.0305 47.0416C67.1155 46.9643 66.9213 46.8335 66.8728 46.8751 66.7879 46.9524 66.982 47.0833 67.0305 47.0416ZM68.9596 47.5709C68.9353 47.3925 68.8019 47.4758 68.7958 47.5709 68.8201 47.7493 68.9535 47.6661 68.9596 47.5709ZM68.1528 47.5471C68.2377 47.4698 68.0436 47.339 67.9951 47.3866 67.9101 47.4639 68.1043 47.5888 68.1528 47.5471ZM68.7655 43.295C68.8504 43.2177 68.6563 43.0869 68.6078 43.1345 68.5228 43.2118 68.7169 43.3366 68.7655 43.295ZM52.2534 42.849C52.2291 42.6706 52.0956 42.7538 52.0896 42.849 52.1138 43.0274 52.2473 42.9442 52.2534 42.849ZM45.1317 42.8133C45.2166 42.736 45.0225 42.6111 44.974 42.6528 44.889 42.7301 45.0832 42.8609 45.1317 42.8133ZM44.1611 42.629C43.9609 42.6944 43.8214 42.8252 43.8214 43.0988 44.0216 43.0334 44.1611 42.9025 44.1611 42.629ZM51.2706 43.295C51.2706 43.1404 51.0765 43.1701 50.9491 43.1285 50.9491 43.2831 51.1433 43.2534 51.2706 43.295ZM49.651 43.2534C49.651 43.0988 49.4569 43.1285 49.3295 43.0869 49.3295 43.2415 49.5236 43.2118 49.651 43.2534ZM42.3716 43.0571C42.4565 42.9798 42.2624 42.849 42.2139 42.8966 42.1289 42.9739 42.323 43.0988 42.3716 43.0571ZM69.2326 43.9432C69.3175 43.8659 69.1234 43.7351 69.0748 43.7767 68.9899 43.854 69.184 43.9849 69.2326 43.9432ZM45.6048 43.301C45.6898 43.2237 45.4957 43.0928 45.4471 43.1345 45.3622 43.2118 45.5563 43.3426 45.6048 43.301ZM32.6536 42.9501C32.7385 42.8728 32.5444 42.742 32.4959 42.7836 32.4109 42.8609 32.6051 42.9917 32.6536 42.9501ZM51.2646 43.6162C51.3495 43.5389 51.1554 43.408 51.1069 43.4556 51.0219 43.5329 51.2161 43.6578 51.2646 43.6162ZM53.5151 44.1514C53.6001 44.0741 53.4059 43.9432 53.3574 43.9908 53.2725 44.0681 53.4666 44.193 53.5151 44.1514ZM49.7905 44.0503C49.8754 43.973 49.6813 43.8422 49.6328 43.8897 49.5479 43.967 49.742 44.0919 49.7905 44.0503ZM52.866 44.2941C52.951 44.2168 52.7568 44.086 52.7083 44.1276 52.6234 44.2049 52.8175 44.3358 52.866 44.2941ZM30.8459 43.854C30.9308 43.7767 30.7367 43.6459 30.6881 43.6935 30.6032 43.7708 30.7973 43.8957 30.8459 43.854ZM51.8712 44.9007C51.9561 44.8234 51.762 44.6926 51.7135 44.7401 51.6285 44.8175 51.8227 44.9423 51.8712 44.9007ZM33.885 45.204C33.9699 45.1267 33.7758 44.9959 33.7273 45.0434 33.6424 45.1208 33.8365 45.2456 33.885 45.204ZM45.6898 45.8463C45.6655 45.6679 45.5321 45.7511 45.526 45.8463 45.5503 46.0247 45.6837 45.9414 45.6898 45.8463ZM44.5554 45.9712C44.5311 45.7928 44.3977 45.876 44.3916 45.9712 44.4159 46.1555 44.5493 46.0663 44.5554 45.9712ZM41.7771 46.8513C41.862 46.774 41.6679 46.6432 41.6194 46.6848 41.5345 46.7621 41.7286 46.893 41.7771 46.8513ZM45.6594 46.9584H45.3379C45.3379 47.0535 45.3379 47.1606 45.3319 47.2676H45.6534C45.6534 47.1725 45.6534 47.0654 45.6594 46.9584ZM49.3537 48.011C49.4387 47.9337 49.2445 47.8029 49.196 47.8504 49.1111 47.9277 49.3052 48.0526 49.3537 48.011ZM31.5677 47.0357C31.6527 46.9584 31.4585 46.8275 31.41 46.8751 31.3251 46.9524 31.5192 47.0773 31.5677 47.0357ZM48.8684 48.1537C48.9534 48.0764 48.7593 47.9456 48.7107 47.9872 48.6258 48.0645 48.8199 48.1954 48.8684 48.1537ZM51.2888 48.3797C51.3738 48.3024 51.1797 48.1716 51.1311 48.2191 51.0462 48.2965 51.2403 48.4213 51.2888 48.3797ZM44.974 48.3678C45.0589 48.2905 44.8648 48.1656 44.8162 48.2073 44.7313 48.2846 44.9254 48.4154 44.974 48.3678ZM51.2828 48.6949C51.2585 48.5165 51.1251 48.5998 51.119 48.6949 51.1433 48.8733 51.2767 48.7901 51.2828 48.6949ZM49.8208 48.8138C49.9058 48.7365 49.7116 48.6057 49.6631 48.6533 49.5782 48.7306 49.7723 48.8555 49.8208 48.8138ZM40.9824 50.4017C40.8247 50.4017 40.855 50.592 40.8126 50.7169 40.7762 50.8953 40.6488 50.8001 40.6488 50.7169 40.4729 50.7526 40.5335 51.0261 40.3151 51.0261 40.3576 51.2402 40.7155 51.1689 40.9582 51.2045L40.9824 50.4136V50.4017ZM28.6135 48.3976C28.6984 48.3202 28.5043 48.1894 28.4558 48.231 28.3709 48.3083 28.565 48.4392 28.6135 48.3976ZM44.792 48.9982C44.8769 48.9209 44.6828 48.7901 44.6343 48.8376 44.5493 48.9149 44.7435 49.0398 44.792 48.9982ZM51.5861 49.3372C51.671 49.2599 51.4769 49.135 51.4284 49.1766 51.3434 49.2539 51.5376 49.3848 51.5861 49.3372ZM44.3006 49.1409C44.3856 49.0636 44.1914 48.9387 44.1429 48.9804 44.058 49.0577 44.2521 49.1885 44.3006 49.1409ZM29.6812 47.7434C29.7661 47.6661 29.572 47.5412 29.5234 47.5828 29.4385 47.6601 29.6326 47.791 29.6812 47.7434ZM44.1247 49.7713C44.2096 49.694 44.0155 49.5632 43.967 49.6107 43.8821 49.6881 44.0762 49.8129 44.1247 49.7713ZM29.8813 49.3848C29.9663 49.3075 29.7722 49.1766 29.7236 49.2242 29.6387 49.3015 29.8328 49.4264 29.8813 49.3848ZM29.39 49.5275C29.4749 49.4502 29.2808 49.3253 29.2323 49.3669 29.1473 49.4442 29.3415 49.5751 29.39 49.5275ZM42.6506 50.366C42.7356 50.2887 42.5414 50.1579 42.4929 50.1995 42.408 50.2768 42.6021 50.4076 42.6506 50.366ZM33.7455 50.1222C33.8304 50.0449 33.6363 49.914 33.5878 49.9557 33.5028 50.033 33.697 50.1638 33.7455 50.1222ZM51.5375 51.0856C51.6225 51.0083 51.4284 50.8775 51.3798 50.9191 51.2949 50.9964 51.489 51.1272 51.5375 51.0856ZM50.8885 51.0678C50.9734 50.9904 50.7793 50.8596 50.7308 50.9012 50.6458 50.9786 50.8399 51.1094 50.8885 51.0678ZM51.0341 51.7041C51.119 51.6268 50.9249 51.5019 50.8763 51.5435 50.7914 51.6208 50.9855 51.7517 51.0341 51.7041ZM50.2273 51.6862C50.1484 51.4424 50.0574 51.6744 50.0574 51.8409 50.1363 52.0847 50.2273 51.8528 50.2273 51.6862ZM32.417 51.3592C32.3927 51.1808 32.2593 51.264 32.2532 51.3592 32.2775 51.5376 32.4109 51.4543 32.417 51.3592ZM30.6335 51.3116C30.7185 51.2343 30.5244 51.1034 30.4758 51.1451 30.3909 51.2224 30.585 51.3532 30.6335 51.3116ZM51.9804 53.6607C51.9804 53.506 51.7863 53.5358 51.6589 53.4941 51.6589 53.6488 51.853 53.619 51.9804 53.6607ZM29.8146 51.7636C29.8995 51.6863 29.7054 51.5554 29.6569 51.603 29.572 51.6803 29.7661 51.8052 29.8146 51.7636ZM31.1067 51.9598C31.1916 51.8825 30.9975 51.7576 30.949 51.7992 30.8641 51.8766 31.0582 52.0074 31.1067 51.9598ZM40.8126 52.382C40.7883 52.2036 40.6549 52.2869 40.6488 52.382 40.6731 52.5605 40.8065 52.4772 40.8126 52.382ZM51.7984 54.4457C51.8833 54.3683 51.6892 54.2375 51.6407 54.2851 51.5558 54.3624 51.7499 54.4873 51.7984 54.4457ZM51.7863 54.7668C51.8712 54.6895 51.6771 54.5587 51.6285 54.6003 51.5436 54.6776 51.7377 54.8084 51.7863 54.7668ZM52.7447 54.1364C52.7205 53.958 52.587 54.0413 52.5809 54.1364 52.6052 54.3208 52.7387 54.2316 52.7447 54.1364ZM43.1784 54.5111C43.2633 54.4338 43.0692 54.3029 43.0207 54.3505 42.9357 54.4278 43.1298 54.5527 43.1784 54.5111ZM30.6457 57.1278C30.6457 56.9731 30.4516 57.0029 30.3302 56.9612 30.3302 57.1159 30.5244 57.0861 30.6457 57.1278ZM28.9168 54.9155C29.0017 54.8382 28.8076 54.7073 28.7591 54.7549 28.6742 54.8322 28.8683 54.9571 28.9168 54.9155ZM49.0019 54.2791C48.4984 54.4219 49.1778 54.7073 49.1475 54.9214 49.651 54.7787 48.9776 54.4932 49.0019 54.2791ZM40.8793 55.5578C40.855 55.3793 40.7216 55.4626 40.7155 55.5578 40.7398 55.7362 40.8732 55.6529 40.8793 55.5578ZM12.9082 55.6351C12.9931 55.5577 12.799 55.4269 12.7505 55.4745 12.6656 55.5518 12.8597 55.6767 12.9082 55.6351ZM30.0573 55.5102C30.1422 55.4329 29.9481 55.302 29.8995 55.3437 29.8146 55.421 30.0087 55.5518 30.0573 55.5102ZM43.1359 56.0989C43.0995 55.8967 42.8205 55.9324 42.8144 56.093 42.8811 56.3249 42.96 56.0811 43.1359 56.0989ZM23.069 55.5518C23.154 55.4745 22.9598 55.3437 22.9113 55.3912 22.8264 55.4685 23.0205 55.5934 23.069 55.5518ZM12.065 54.9155C12.065 54.7608 11.8709 54.7906 11.7496 54.749 11.7496 54.9036 11.9437 54.8738 12.065 54.9155ZM30.2089 54.2732C30.1847 54.0948 30.0512 54.178 30.0451 54.2732 30.0694 54.4576 30.2029 54.3683 30.2089 54.2732ZM28.8804 56.1822C28.9654 56.1049 28.7712 55.974 28.7227 56.0216 28.6378 56.0989 28.8319 56.2238 28.8804 56.1822ZM22.8931 56.0216C22.8931 55.867 22.699 55.8967 22.5716 55.8551 22.5716 56.0097 22.7657 55.98 22.8931 56.0216ZM20.6244 55.9622C20.7093 55.8848 20.5152 55.754 20.4666 55.8016 20.3817 55.8789 20.5758 56.0038 20.6244 55.9622ZM48.6197 56.8839C48.5409 56.6342 48.4499 56.8661 48.4559 57.0386 48.5348 57.2883 48.6258 57.0504 48.6197 56.8839ZM21.7527 56.1525C21.8376 56.0751 21.6435 55.9443 21.595 55.9859 21.51 56.0632 21.7041 56.1941 21.7527 56.1525ZM31.0278 56.1168C31.1128 56.0395 30.9187 55.9086 30.8701 55.9562 30.7852 56.0335 30.9793 56.1584 31.0278 56.1168ZM22.5473 56.8066C22.5231 56.6282 22.3896 56.7115 22.3836 56.8066 22.4078 56.985 22.5413 56.9018 22.5473 56.8066ZM44.7131 57.5678C44.798 57.4905 44.6039 57.3597 44.5554 57.4013 44.4705 57.4786 44.6646 57.6095 44.7131 57.5678ZM10.8821 56.8066C10.967 56.7293 10.7729 56.5985 10.7244 56.6461 10.6395 56.7234 10.8336 56.8482 10.8821 56.8066ZM9.11078 58.5253C9.17751 58.7216 9.31097 58.8583 9.59001 58.8524 9.67494 58.5194 9.36556 58.5431 9.11078 58.5253ZM53.2785 58.1209C53.3635 58.0436 53.1694 57.9187 53.1208 57.9603 53.0359 58.0377 53.23 58.1685 53.2785 58.1209ZM32.3927 57.8652C32.4777 57.7879 32.2835 57.657 32.235 57.7046 32.1501 57.7819 32.3442 57.9068 32.3927 57.8652ZM12.2409 56.3665C12.3259 56.2892 12.1317 56.1584 12.0832 56.2 11.9983 56.2773 12.1924 56.4082 12.2409 56.3665ZM6.10196 58.894C6.18689 58.8167 5.99278 58.6859 5.94425 58.7275 5.85932 58.8048 6.05344 58.9356 6.10196 58.894ZM9.14111 57.324C9.22604 57.2467 9.03192 57.1218 8.9834 57.1634 8.89847 57.2407 9.09258 57.3716 9.14111 57.324ZM7.46079 57.663C7.54572 57.5857 7.35159 57.4608 7.30306 57.5024 7.21814 57.5797 7.41226 57.7106 7.46079 57.663ZM32.3745 58.6621C32.4595 58.5848 32.2653 58.4539 32.2168 58.5015 32.1319 58.5788 32.326 58.7037 32.3745 58.6621ZM16.3538 58.0674H16.0323C16.0323 58.1625 16.0323 58.2696 16.0262 58.3766H16.3477C16.3477 58.2815 16.3477 58.1744 16.3538 58.0674ZM15.7047 58.2042C15.6683 58.002 15.3893 58.0377 15.3832 58.1982 15.4499 58.4302 15.5288 58.1863 15.7047 58.2042ZM52.3868 59.7088C52.4596 59.3995 51.6589 59.459 51.8955 59.8515H52.217C52.1927 59.7266 52.2837 59.7147 52.3808 59.7088H52.3868ZM11.9619 58.7394C11.9376 58.561 11.8042 58.6442 11.7981 58.7394 11.8224 58.9178 11.9558 58.8346 11.9619 58.7394ZM7.04222 58.4718C7.12715 58.3945 6.93303 58.2636 6.8845 58.3053 6.79957 58.3826 6.99369 58.5134 7.04222 58.4718ZM61.3102 60.5592C61.3951 60.4819 61.201 60.351 61.1524 60.3986 61.0675 60.4759 61.2616 60.6008 61.3102 60.5592ZM31.3675 59.905C31.3433 59.7266 31.2098 59.8099 31.2038 59.905 31.228 60.0894 31.3615 60.0002 31.3675 59.905ZM54.9892 60.7079C55.0741 60.6305 54.88 60.4997 54.8315 60.5413 54.7465 60.6186 54.9407 60.7495 54.9892 60.7079ZM43.8214 60.4046C43.785 60.2024 43.506 60.2321 43.4999 60.3986 43.5666 60.6305 43.6455 60.3867 43.8214 60.4046ZM34.1095 60.1369C34.0427 59.905 33.9639 60.1488 33.788 60.131 33.8244 60.3332 34.1034 60.2975 34.1095 60.1369ZM11.1308 59.5125C11.2157 59.4352 11.0216 59.3044 10.9731 59.346 10.8882 59.4233 11.0823 59.5541 11.1308 59.5125ZM5.13137 58.8227C5.2163 58.7453 5.02219 58.6145 4.97366 58.6561 4.88873 58.7335 5.08284 58.8643 5.13137 58.8227ZM17.9249 59.8574C18.0099 59.7801 17.8157 59.6493 17.7672 59.6969 17.6823 59.7742 17.8764 59.8991 17.9249 59.8574ZM21.6435 60.1191C21.7284 60.0418 21.5343 59.911 21.4858 59.9526 21.4008 60.0299 21.595 60.1607 21.6435 60.1191ZM61.7712 61.5226C61.8561 61.4453 61.662 61.3204 61.6135 61.362 61.5285 61.4393 61.7226 61.5702 61.7712 61.5226ZM34.4128 60.9398C34.4977 60.8625 34.3036 60.7316 34.2551 60.7733 34.1701 60.8506 34.3642 60.9814 34.4128 60.9398ZM36.3479 61.1539C36.4328 61.0766 36.2387 60.9457 36.1902 60.9933 36.1052 61.0706 36.2993 61.1955 36.3479 61.1539ZM8.18873 60.3867C8.27365 60.3094 8.07953 60.1786 8.031 60.2262 7.94607 60.3035 8.1402 60.4284 8.18873 60.3867ZM5.75619 62.7477C5.84112 62.6704 5.647 62.5395 5.59847 62.5871 5.51355 62.6644 5.70766 62.7893 5.75619 62.7477ZM49.9422 61.6832C50.0271 61.6059 49.833 61.475 49.7844 61.5166 49.6995 61.594 49.8936 61.7248 49.9422 61.6832ZM6.25362 59.7028C6.33855 59.6255 6.14443 59.4947 6.0959 59.5363 6.01098 59.6136 6.20509 59.7444 6.25362 59.7028ZM30.9854 59.0367C30.9854 58.8821 30.7913 58.9119 30.6639 58.8702 30.6639 59.0249 30.858 58.9951 30.9854 59.0367ZM53.6546 62.0995C53.6304 61.921 53.4969 62.0043 53.4909 62.0995 53.5151 62.2838 53.6486 62.1946 53.6546 62.0995ZM32.6051 61.8437C32.69 61.7664 32.4959 61.6356 32.4473 61.6832 32.3624 61.7605 32.5565 61.8854 32.6051 61.8437ZM7.25453 61.5642C7.33946 61.4869 7.14535 61.3561 7.09682 61.3977 7.01189 61.475 7.206 61.6059 7.25453 61.5642ZM32.7506 62.3254C32.8356 62.2481 32.6414 62.1232 32.5929 62.1649 32.508 62.2422 32.7021 62.373 32.7506 62.3254ZM51.0401 62.9796C51.0037 62.7774 50.7247 62.8071 50.7186 62.9737 50.7854 63.2056 50.8642 62.9618 51.0401 62.9796ZM50.0635 62.9558C50.1484 62.8785 49.9543 62.7477 49.9058 62.7893 49.8208 62.8666 50.015 62.9975 50.0635 62.9558ZM31.4525 62.4503C31.5374 62.373 31.3433 62.2422 31.2948 62.2838 31.2098 62.3611 31.4039 62.492 31.4525 62.4503ZM30.3242 62.4146C30.4091 62.3373 30.215 62.2065 30.1665 62.2481 30.0815 62.3254 30.2756 62.4563 30.3242 62.4146ZM16.2325 62.3492C16.3174 62.2719 16.1233 62.1411 16.0747 62.1827 15.9898 62.26 16.1839 62.3909 16.2325 62.3492ZM62.032 63.7587C62.117 63.6814 61.9228 63.5505 61.8743 63.5981 61.7894 63.6754 61.9835 63.8003 62.032 63.7587ZM51.4951 63.943C51.58 63.8657 51.3859 63.7349 51.3374 63.7825 51.2524 63.8598 51.4466 63.9846 51.4951 63.943ZM31.2644 63.3959C31.3494 63.3186 31.1552 63.1878 31.1067 63.2353 31.0218 63.3126 31.2159 63.4375 31.2644 63.3959ZM32.7203 63.5922C32.8052 63.5148 32.6111 63.384 32.5626 63.4256 32.4777 63.5029 32.6718 63.6338 32.7203 63.5922ZM61.201 64.5258C61.2859 64.4485 61.0918 64.3177 61.0432 64.3653 60.9583 64.4426 61.1524 64.5675 61.201 64.5258ZM20.2422 63.7289C20.3271 63.6516 20.133 63.5208 20.0845 63.5624 19.9996 63.6397 20.1937 63.7706 20.2422 63.7289ZM17.5913 64.0382C17.6762 63.9609 17.4821 63.83 17.4336 63.8717 17.3486 63.949 17.5428 64.0798 17.5913 64.0382ZM11.3371 63.6457C11.422 63.5684 11.2279 63.4375 11.1793 63.4851 11.0944 63.5624 11.2885 63.6873 11.3371 63.6457ZM32.5323 64.3831C32.6172 64.3058 32.4231 64.175 32.3745 64.2166 32.2896 64.2939 32.4837 64.4247 32.5323 64.3831ZM18.7681 64.3236C18.8531 64.2463 18.6589 64.1214 18.6104 64.1631 18.5255 64.2404 18.7196 64.3712 18.7681 64.3236ZM17.6944 62.9856C17.6701 62.8072 17.5367 62.8904 17.5306 62.9856 17.5549 63.164 17.6883 63.0807 17.6944 62.9856ZM52.0956 65.5487C52.1806 65.4714 51.9864 65.3406 51.9379 65.3881 51.853 65.4655 52.0471 65.5903 52.0956 65.5487ZM7.58211 64.6567C7.66704 64.5794 7.47291 64.4485 7.42438 64.4961 7.33946 64.5734 7.53358 64.6983 7.58211 64.6567ZM32.0166 65.4774C32.1016 65.4 31.9074 65.2752 31.8589 65.3168 31.774 65.3941 31.9681 65.5249 32.0166 65.4774ZM20.036 65.3108C20.1209 65.2335 19.9268 65.1027 19.8782 65.1443 19.7933 65.2216 19.9874 65.3525 20.036 65.3108ZM18.7378 65.4357C18.8227 65.3584 18.6286 65.2276 18.5801 65.2752 18.4951 65.3525 18.6893 65.4774 18.7378 65.4357ZM17.6944 64.7578C17.7793 64.6805 17.5852 64.5496 17.5367 64.5913 17.4518 64.6686 17.6459 64.7994 17.6944 64.7578ZM16.7178 64.2463C16.6935 64.0679 16.56 64.1512 16.554 64.2463 16.5782 64.4247 16.7117 64.3415 16.7178 64.2463ZM19.4597 64.6686C18.9258 64.2701 19.8358 65.2097 19.4597 64.6686V64.6686ZM52.223 38.4006C51.7438 37.9546 52.6477 38.8942 52.223 38.4006V38.4006ZM69.8513 39.1975C69.3721 38.7515 70.282 39.6911 69.8513 39.1975V39.1975ZM50.2576 38.9834C50.0938 38.3709 49.5964 39.5603 49.9179 39.4533 50.1666 39.8874 49.7784 39.037 50.2576 38.9834ZM70.7188 42.8728C70.0697 43.1642 69.8756 43.0512 69.4024 43.6281 69.6329 43.8005 70.5975 43.3485 70.7188 42.8728ZM53.7517 52.8935C53.2725 52.4475 54.1763 53.3871 53.7517 52.8935V52.8935ZM30.676 60.6543C30.8034 60.4165 30.579 60.5354 30.5122 60.6543 30.397 60.8625 30.6093 61.0112 30.6699 60.8208 30.6821 60.7792 30.6517 60.7019 30.6699 60.6603L30.676 60.6543ZM17.385 61.588C17.3608 61.4037 17.2273 61.4929 17.2213 61.588 17.0575 61.481 17.0635 61.2193 16.7481 61.255 16.7724 61.3858 16.9058 61.4156 16.8997 61.5761 16.924 61.7129 16.833 61.7248 16.736 61.7307 16.7724 62.1054 17.1727 61.5583 17.385 61.588ZM9.72953 63.8419C9.70527 63.6635 9.57181 63.7468 9.56574 63.8419 9.43835 63.7527 9.3049 63.6695 9.08045 63.6695 9.21391 63.9073 9.31096 64.1809 9.71739 64.1631 9.75379 64.0263 9.65674 64.0084 9.55968 64.0025 9.53541 63.8657 9.62641 63.8538 9.72347 63.8479L9.72953 63.8419Z" clip-rule="evenodd"/></svg>