<svg width="77" height="40" viewBox="0 0 77 40" fill="none" xmlns="http://www.w3.org/2000/svg">
<path d="M76.7909 33.6828C76.8875 33.7787 76.9787 33.8745 76.9948 33.8585C77.0108 33.8425 76.9143 33.752 76.8177 33.6562C76.8177 33.6562 76.8338 33.6402 76.8499 33.6296C76.8499 33.6296 76.866 33.6136 76.7695 33.5231C76.6729 33.4273 76.689 33.4167 76.7051 33.4007C76.8017 33.4965 76.7212 33.3847 76.6086 33.3049C76.512 33.209 76.4208 33.1132 76.4315 33.1026C76.4315 33.1026 76.335 33.0068 76.2438 32.9109C76.0561 32.7193 75.9595 32.6288 75.8308 32.5596C75.6698 32.5223 75.5304 32.4691 75.7181 32.6607C75.7181 32.6607 75.7986 32.7672 75.7825 32.7832C75.7664 32.7991 75.6538 32.7193 75.6538 32.7193C75.5572 32.6235 75.4928 32.682 75.4177 32.7512C75.3212 32.8364 75.2729 32.879 75.1656 32.7991C75.053 32.7193 75.0369 32.7353 75.0369 32.7353C75.1334 32.8311 75.0369 32.9163 74.9242 33.0174C74.8116 33.1185 74.7043 33.2197 74.7955 33.3102C74.7794 33.3262 74.7633 33.3368 74.7633 33.3368C74.6668 33.241 74.6346 33.2729 74.6024 33.2995C74.6668 33.422 74.6346 33.4539 74.6346 33.4539C74.538 33.3581 74.5219 33.3741 74.4898 33.4007C74.4576 33.4273 74.4415 33.4433 74.538 33.5391C74.522 33.5551 74.4093 33.6562 74.2699 33.603C74.1572 33.5231 74.2377 33.6296 74.3181 33.7414C74.4147 33.8372 74.4951 33.9437 74.479 33.9597C74.479 33.9597 74.3825 33.8638 74.2913 33.768C74.2377 33.697 74.2001 33.6704 74.1787 33.6882L74.1465 33.7148C74.243 33.8106 74.1626 33.8798 74.0499 33.981C73.9051 34.1087 73.8622 34.1513 73.9534 34.2471C74.0446 34.343 74.0338 34.3536 73.889 34.3057C73.6351 34.1744 73.535 34.1442 73.5886 34.2152C73.5886 34.2152 73.7013 34.295 73.7925 34.3909C73.9802 34.5825 73.9695 34.5932 73.7603 34.4175C73.5725 34.2258 73.4277 34.5399 73.5993 34.7422C73.6637 34.8061 73.6315 34.7742 73.5028 34.6464C73.4062 34.5506 73.3902 34.5665 73.3258 34.6251C73.2936 34.6517 73.2775 34.6677 73.2775 34.6677C73.4652 34.8593 73.2775 34.8487 73.181 34.7529C73.1059 34.6996 73.0576 34.6819 73.0361 34.6996C73.181 34.9339 73.0039 34.9072 72.9074 34.8167C72.9074 34.8167 72.8913 34.8327 72.8752 34.8434C72.9557 34.9498 72.9235 34.9818 72.9074 34.9977C72.8591 35.0403 72.843 35.0563 72.9557 35.1361C73.0522 35.232 73.1434 35.3278 73.1327 35.3384L73.0361 35.2426C72.9396 35.1468 72.8913 35.1894 72.8323 35.2479C72.7518 35.3171 72.7197 35.3491 72.6124 35.2692L72.6928 35.3757C72.7733 35.4822 72.7572 35.4981 72.6607 35.4023C72.548 35.3225 72.4836 35.381 72.548 35.5035C72.5319 35.5194 72.5158 35.5301 72.5158 35.5301C72.312 35.3544 72.2637 35.397 72.4354 35.5993C72.3388 35.5035 72.3227 35.5194 72.3066 35.5354C72.371 35.6579 72.3066 35.7164 72.2101 35.6206L72.194 35.6366C72.2744 35.743 72.2583 35.759 72.2423 35.775C72.2262 35.7909 72.2101 35.8016 72.2905 35.9134C72.371 36.0198 72.3549 36.0358 72.3549 36.0358C72.3388 36.0518 72.2584 35.94 72.1779 35.8335C72.1135 35.7111 72.0652 35.7537 72.2101 35.9879C72.3066 36.1441 72.3013 36.1494 72.194 36.0039C72.1135 35.8974 72.0331 35.7856 72.0974 35.9081C72.0974 35.9081 72.0652 35.9347 72.1618 36.0305L72.1135 36.0731C71.9848 36.0092 71.9687 36.0199 71.9526 36.0358C72.0062 36.1068 71.9955 36.1157 71.9204 36.0624C71.8239 35.9666 71.8078 35.9826 72.0009 36.1689C72.0813 36.2754 72.0652 36.2914 71.9526 36.2115C71.7649 36.0199 71.7488 36.0358 71.84 36.1316C71.9204 36.2381 71.9043 36.2541 71.9043 36.2541C71.8078 36.1583 71.6683 36.286 71.5235 36.4191C71.5074 36.4351 71.5879 36.5416 71.6844 36.6374C71.8721 36.829 71.781 36.7332 71.6683 36.6533C71.3679 36.3818 71.3357 36.4138 71.6361 36.68C71.772 36.7971 71.7667 36.8024 71.62 36.6959C71.5449 36.6427 71.5342 36.6516 71.5879 36.7226C71.6844 36.8184 71.6683 36.829 71.5718 36.7385C71.4591 36.6587 71.3518 36.5788 71.443 36.6746C71.443 36.6746 71.4269 36.6906 71.3143 36.6108C71.3357 36.3552 71.3143 36.2008 71.1695 36.2008C71.1695 36.2008 71.0354 36.0199 71.0354 35.8335C71.0354 35.6525 71.1695 35.4662 71.1695 35.4662C71.3036 35.4662 71.3036 34.7369 71.3036 33.8212C71.3036 32.7246 71.3036 32.1763 71.4377 31.9953C71.5718 31.8143 71.5718 31.628 71.5718 31.628C71.4377 31.628 71.4377 30.5313 71.4323 29.2484C71.4323 28.6308 71.4162 27.9175 71.3894 27.4064C71.3465 26.89 71.2767 26.544 71.2124 26.5493C71.1963 26.3524 71.1802 26.1554 71.1802 26.1554C71.3197 26.1448 71.2714 25.7455 71.2177 25.3515C71.1266 25.1599 71.0622 24.9683 71.0246 24.8245C70.9817 24.6808 70.9603 24.5796 70.9603 24.5796C71.0944 24.5583 71.0568 24.3614 70.9764 23.9621C70.9013 23.5682 70.8476 23.3712 70.7135 23.4031C70.6867 23.3073 70.5848 22.9187 70.4882 22.4715C70.3595 22.035 70.2415 21.5399 70.1932 21.2312C70.2415 20.9969 70.0377 20.8479 69.8392 20.7095C69.7158 20.7574 69.512 20.6243 69.4369 20.438L69.6836 20.3315C69.8821 20.4699 69.8982 20.4646 69.7212 20.0919L69.5442 19.7193C69.4154 19.7778 69.0078 18.8409 68.1978 17.6538C67.6721 16.8978 67.2806 16.424 67.0124 16.1472C66.7549 15.8651 66.6208 15.7799 66.5725 15.8225C66.4706 15.913 66.3365 15.7692 66.0093 15.2369C65.4085 14.1136 65.3764 14.1083 65.1403 14.0817C65.2959 14.2095 65.2101 14.3106 65.1189 14.4117C64.9419 14.614 64.7917 14.4863 64.8078 14.1562C64.8507 14.103 64.7327 13.9539 64.5235 13.7516C64.3089 13.56 63.9925 13.3311 63.6706 13.1128C63.338 12.9052 62.984 12.7189 62.6997 12.5911C62.4101 12.474 62.1848 12.4101 62.1097 12.442C62.1258 12.4101 62.1472 12.3782 62.1794 12.3249C62.2438 12.2185 62.0829 12.0907 61.3695 11.7234C61.0154 11.5371 60.8384 11.4466 60.8384 11.4466C60.7151 11.6861 59.7066 11.0579 59.7495 10.9515C59.6637 10.8202 59.4974 10.703 59.2507 10.6001C58.5963 10.6214 57.7166 10.1742 57.7595 10.0518C57.7595 10.0518 57.5718 9.98791 57.384 9.92935C57.1534 9.99323 56.7779 9.88144 56.5902 9.82821C56.0216 9.66318 55.8338 9.61527 55.9894 9.79627C55.9518 9.92403 55.9197 10.0518 55.7319 10.0039L55.7695 9.87612C55.7909 9.80159 55.5764 9.70577 55.2223 9.60994C55.1204 9.40765 55.0131 9.216 54.9488 9.0563C54.8683 8.89127 54.8254 8.77415 54.8844 8.73689L54.7449 8.52927C54.6216 8.46007 54.4714 8.3536 54.3105 8.20986C54.1603 8.06613 53.9833 7.9011 53.8062 7.73075C53.64 7.56039 53.463 7.39004 53.302 7.22501C53.1465 7.06531 53.007 6.90028 52.8997 6.78849C52.5564 6.53296 52.3794 6.40519 51.9557 6.26678C51.5373 6.12305 51.5373 6.14966 51.43 5.92608C51.5051 5.81428 50.4859 5.07432 50.3626 5.31387C50.3626 5.31387 50.3626 5.30855 50.2446 5.10626C50.1212 4.90396 49.8798 4.9359 49.8208 5.05835C49.7028 5.2979 49.5258 5.21805 49.5151 4.77088C49.6277 4.53132 49.4453 4.44082 49.3863 4.56326C49.1449 4.60052 48.9089 4.63247 48.7802 4.4355C48.5978 4.36629 48.4101 4.29708 48.3082 4.54197C48.2599 4.66441 48.0775 4.5952 47.8951 4.526C47.9434 4.40355 47.9434 4.40355 48.1794 4.345C48.3618 4.4142 48.1794 4.345 47.8093 4.20658C47.6269 4.13738 47.3051 3.8712 47.348 3.74876C47.2085 3.55179 47.0208 3.50388 47.1174 3.81265C47.0566 3.97945 46.9046 4.02559 46.6614 3.95106C46.479 3.8925 46.2913 3.83394 46.3342 3.7115C46.3628 3.62632 46.252 3.5447 46.0016 3.46662C45.4438 3.2803 44.7733 3.53582 44.5212 3.74876C44.4515 4.00429 44.4515 4.00962 44.3388 3.70085C44.371 3.57309 44.1886 3.52518 44.0062 3.47726C43.8239 3.42935 43.9741 3.60503 44.0062 3.47726C44.0384 3.3495 44.2262 3.39741 44.4085 3.44532L44.4461 3.31756C44.3281 3.01412 44.1403 2.96088 43.8882 3.17383C43.6683 3.25368 43.6683 3.25368 43.5181 3.078C43.3626 2.90765 43.207 2.7373 43.1748 2.87039C43.1748 2.87039 42.8047 2.79053 42.6438 2.62018C42.2683 2.54033 42.0806 2.50306 42.0538 2.63083C42.0269 2.76391 41.8392 2.72133 41.6515 2.68406C41.4637 2.6468 41.2813 2.61486 41.2545 2.74794C41.2277 2.88103 41.0185 2.97686 40.6484 2.91297C40.2515 2.97686 40.2568 2.97686 40.1174 2.68406C40.1388 2.55097 39.9564 2.51903 39.7687 2.48709C39.7687 2.48709 39.581 2.44983 39.42 2.29545C39.2538 2.13574 39.2323 2.26883 39.2108 2.40192C39.1894 2.535 39.1679 2.66809 39.1679 2.66809C38.9856 2.64147 38.8407 2.34868 38.8622 2.21559C38.7656 2.0204 38.7031 2.01153 38.6744 2.18898C38.653 2.32206 38.4492 2.42853 38.0951 2.24221C37.725 2.18898 37.3495 2.13574 37.371 2.00265C37.2047 1.84827 36.9955 1.96007 36.9955 1.96007C36.7917 2.07186 36.6039 2.05057 36.0622 1.84827C35.161 1.4703 35.1557 1.47563 35.1288 1.7418C35.1128 1.87489 35.102 2.00798 34.9411 1.72583C34.7695 1.57677 34.5656 1.68857 34.1794 1.78971C33.981 1.90683 33.9541 2.17301 33.938 2.30609C33.9202 2.48354 33.7932 2.51548 33.5572 2.40192C33.3748 2.38595 33.1978 2.23156 33.2139 2.09848C33.2246 1.96539 33.4124 1.98136 33.4124 1.98136L33.6001 1.99733C33.6108 1.86424 33.6269 1.73115 33.2515 1.69389C33.0798 1.53951 32.8921 1.52886 32.8813 1.66195C32.7043 1.51289 32.3342 1.48627 31.9587 1.45966C31.5833 1.43304 31.0254 1.38513 30.8484 1.24139C30.4729 1.2201 30.2905 1.20945 30.2798 1.34254C30.2637 1.60871 30.076 1.59807 30.0867 1.46498C30.0009 1.32657 29.3572 1.18816 28.7028 1.11895C28.0538 1.06039 27.3994 1.06572 27.2974 1.19348C27.2974 1.19348 27.1097 1.18816 26.9273 1.17751C26.5626 1.02313 25.4415 0.996511 25.2538 1.12428C25.2538 1.12428 25.066 1.12428 24.6959 1.1083C24.3258 0.96457 24.138 0.959247 23.9503 1.09233C23.7626 1.22542 23.7572 1.35851 23.7626 1.22542C23.7626 1.09233 23.3925 1.08701 22.6469 1.07636C22.1498 1.06927 21.9638 1.11185 22.089 1.20413C21.3434 1.33189 21.3434 1.20413 21.3488 1.06572C21.5365 0.799541 21.1664 0.799541 20.9733 1.1988C20.7856 1.46498 20.4154 1.46498 20.4154 1.33189C20.4154 1.1988 20.6032 1.1988 20.7856 1.1988C20.7856 1.1988 20.7856 1.06572 20.7856 0.932629C20.6604 0.932629 20.5352 0.976992 20.4101 1.06572C20.4101 1.06572 20.4101 1.09233 20.4101 1.1083C20.4101 1.09766 20.4101 1.09233 20.4101 1.06572C20.4101 1.06572 20.2223 1.06572 20.04 1.1988C19.8522 1.33189 19.8522 1.46498 20.04 1.59807C20.2277 1.73115 20.04 1.73115 19.8522 1.73115C19.4821 1.59807 19.4821 1.46498 19.6698 1.33189C19.8576 1.33189 19.8576 1.1988 19.8576 1.06572C19.8576 0.932629 18.9296 1.20413 18.7419 1.47563C18.7419 1.56435 18.7419 1.51999 18.7419 1.34254C18.7419 1.20945 18.3718 1.20945 17.9963 1.21477C17.6262 1.21477 17.4384 1.2201 17.4384 1.35319C17.4384 1.48627 17.4384 1.61936 17.2561 1.62468C17.4438 1.62468 17.4438 1.75777 17.4438 1.89086C17.4438 1.89086 17.0737 1.7631 16.8859 1.63533C16.5105 1.37448 16.1403 1.24672 15.3948 1.26269C15.0246 1.27333 14.4668 1.2893 14.279 1.15622C13.9089 1.16686 13.7212 1.17219 13.7266 1.30527L13.3564 1.31592C13.1687 1.18816 12.7986 1.20413 12.7986 1.33722C12.6162 1.47563 12.4285 1.34786 12.2407 1.35851C11.9868 1.18816 11.926 1.23429 12.0584 1.49692C12.0584 1.63001 12.4392 1.75245 12.6216 1.74713L13.1794 1.72583L12.6269 1.88021C12.4392 1.88554 12.0744 2.03459 12.0798 2.16768C12.0798 2.16768 12.0798 2.30077 11.8974 2.30609C11.8974 2.30609 11.8974 2.17301 11.8867 2.03992C12.0691 1.90151 12.0637 1.76842 12.0584 1.63001C11.8652 1.36916 11.302 1.25736 11.3128 1.52354C11.1876 1.52709 11.0624 1.48805 10.9373 1.40642C10.9373 1.27333 10.7442 1.27866 10.5725 1.55548C10.3955 1.8323 10.2131 1.83763 10.0147 1.57677C9.63383 1.32657 8.88824 1.36383 8.89897 1.49692C8.90969 1.7631 8.3572 1.78971 8.1641 1.66727C7.971 1.54483 7.78862 1.55548 7.60625 1.69921C7.60088 1.56613 7.40778 1.44369 7.23077 1.58742C7.23077 1.58742 7.04303 1.59807 7.23613 1.72051C7.23613 1.72051 7.05912 1.86424 6.88211 2.00798C7.06448 1.99733 7.07521 2.13042 7.08058 2.26351C7.08594 2.39659 6.34035 2.30609 5.94878 1.92812L5.56257 1.68324L5.57866 1.94942C5.39628 1.96007 5.20855 1.97071 5.19782 1.83763C5.18709 1.70454 5.18709 1.70454 5.00471 1.71518C5.00471 1.71518 4.81697 1.72583 4.8277 1.85892C4.83843 2.03637 4.77943 2.08428 4.65069 2.00265C4.44686 1.74713 4.26448 1.7631 4.0982 2.03992C4.10893 2.21737 4.04635 2.22092 3.91046 2.05057C3.89973 1.91748 3.70663 1.79504 3.52425 1.81101L3.53498 1.9441C3.55107 2.21027 3.3687 2.22624 3.1756 2.1038C3.16487 1.97071 2.98249 1.98136 2.61774 2.14639C2.24763 2.17301 2.05989 2.18898 2.05452 2.05589C2.04022 1.87844 1.97943 1.88376 1.87215 2.07186C1.75414 2.17123 1.56819 2.18543 1.31429 2.11445C1.18198 2.03637 1.05861 2.04702 0.944178 2.14639C0.965633 2.41256 0.976362 2.54565 1.1641 2.52968C1.28568 2.51903 1.35005 2.55807 1.3572 2.6468L0.987089 2.67874C0.804714 2.69471 0.616974 2.71068 0.257587 2.87571C-0.1018 3.04074 -0.0803436 3.30691 0.279043 3.14188L0.477511 3.259C0.509695 3.65826 0.87981 3.62632 0.847626 3.22706C0.82617 2.96088 0.883386 2.9112 1.01927 3.078C1.04073 3.34418 1.2231 3.32821 1.41084 3.31224C1.53243 3.30159 1.5968 3.34063 1.60395 3.42935C1.61468 3.56244 1.80778 3.67956 1.99015 3.66891C2.11174 3.65826 2.16895 3.60858 2.1618 3.51985C1.9687 3.40274 2.33881 3.37079 2.53728 3.62632C2.66602 3.7044 2.72502 3.65472 2.71429 3.47726C2.69284 3.21109 3.06295 3.18447 3.26678 3.43468C3.26678 3.43468 3.44916 3.41871 3.6369 3.40806C3.81927 3.39209 3.81391 3.259 3.80318 3.12591C3.79245 2.94846 3.85146 2.89878 3.98019 2.97686C4.1733 3.0993 4.18402 3.23238 4.18402 3.23238C4.19475 3.36547 4.37713 3.35482 4.5595 3.33885C4.74188 3.32821 5.11199 3.30159 5.10127 3.1685C5.0959 3.03541 5.10127 3.1685 5.11199 3.30159C5.29437 3.29094 5.3051 3.42403 5.29437 3.29094C5.29437 3.29094 5.47674 3.28029 5.85222 3.39209C6.2277 3.50388 6.7641 3.20044 6.19552 2.97153C6.24379 2.97153 6.3028 2.96621 6.37789 2.96088C6.56027 2.95024 6.55491 2.81715 6.55491 2.81715C6.54954 2.68406 6.73192 2.67342 6.91429 2.66277C6.91429 2.66277 6.91966 2.79586 6.93038 2.92894C6.76946 3.33885 7.14494 3.45065 7.30586 3.04074C7.30586 3.078 7.30586 3.12059 7.31123 3.17383C7.31659 3.30691 7.50433 3.29627 7.86372 3.14188C8.04609 3.13124 8.21774 2.85441 8.21238 2.72133C8.20701 2.58824 8.38939 2.57759 8.38939 2.57759C8.51097 2.57049 8.57534 2.61131 8.58249 2.70003C8.59322 2.96621 8.96334 2.95024 9.13498 2.67342V2.8065C9.14571 2.93959 9.33881 3.06203 10.2507 2.88636C10.9909 2.85441 11.5434 2.83312 11.5434 2.96621C11.5434 3.0993 12.2783 2.8065 12.6377 2.52436C12.6377 2.65744 12.8254 2.65212 13.1955 2.64147C13.748 2.62018 13.748 2.6255 13.7534 2.75859C13.6354 2.93959 13.6962 2.93959 13.9357 2.75859C14.1128 2.48709 14.6706 2.60421 14.676 2.87039C14.676 3.00347 14.8637 2.99815 15.2338 2.9875C15.4162 2.84909 15.7863 2.83844 16.1511 2.83312C16.5194 2.82602 16.7018 2.73375 16.6982 2.5563C16.6982 2.29012 16.8806 2.2848 17.2507 2.27948C17.4331 2.27948 17.6208 2.27415 17.6208 2.40724C17.6208 2.40724 17.8085 2.54033 17.9909 2.535C18.1733 2.535 18.361 2.535 18.361 2.66809C18.361 2.66809 18.5434 2.80118 18.9135 2.79586C19.2836 2.79053 19.6538 2.79053 19.6484 2.92362C19.77 2.92362 19.8308 2.87926 19.8308 2.79053C19.8308 2.65744 20.0185 2.52436 20.7534 2.65744C21.1235 2.65744 21.676 2.65744 21.676 2.52436C21.7976 2.52436 21.8584 2.56872 21.8584 2.65744C21.8584 2.92362 22.2231 2.92894 22.5986 2.66809C22.5986 2.535 22.7863 2.535 22.9687 2.67342C22.9687 2.67342 23.1511 2.67342 23.3388 2.54565C23.464 2.45693 23.6481 2.46048 23.8913 2.5563C23.8913 2.68939 24.0737 2.68939 24.2561 2.69471C24.6262 2.57227 26.6591 2.62018 26.8361 2.77456C26.9613 2.68939 27.0865 2.65035 27.2116 2.65744C27.3833 2.93427 27.571 2.8065 27.5871 2.54033H27.4047L27.2223 2.52436C27.2331 2.25818 27.7909 2.27948 27.7695 2.67874C27.8839 2.86329 28.0073 2.86861 28.1396 2.69471C28.338 2.43386 28.5258 2.43918 28.6921 2.72133C28.6813 2.89878 28.7421 2.90233 28.8744 2.73197C29.2714 2.22092 29.84 2.11977 29.8024 2.65212C29.7863 2.9183 29.958 3.06203 30.1457 3.07268C30.3335 3.08333 30.3388 2.95024 30.3495 2.81715C30.1833 2.54033 30.371 2.55097 30.7197 2.83844C31.2453 3.27497 31.6101 3.30691 32.184 3.08333C32.9457 2.87039 33.4982 2.92362 32.9189 3.13656C32.6578 3.29627 32.6543 3.34063 32.9082 3.26965C33.2729 3.30159 33.643 3.33885 33.8254 3.35482C34.0078 3.37079 34.2062 3.259 34.2223 3.12591C34.3779 3.40806 34.7319 3.57841 35.1235 3.3495L35.4882 3.39209C35.6098 3.40628 35.7368 3.37612 35.8691 3.30159C36.0676 3.1898 36.2338 3.34418 36.4001 3.49856C36.5664 3.65294 36.7327 3.80732 36.7488 3.67423C36.7649 3.54115 37.1511 3.45065 37.3495 3.34418C37.5534 3.23771 37.7143 3.39741 37.5158 3.50388C37.5015 3.59261 37.6106 3.69908 37.843 3.82329C38.0254 3.84991 38.3902 3.90315 38.4116 3.77006C38.4331 3.63697 39.5273 3.79135 39.6882 3.96703C39.6882 3.96703 39.8706 3.99897 40.053 4.03091C40.2354 4.06285 40.4392 3.9617 40.6216 3.99364C40.6216 3.99364 40.8039 4.02559 41.0131 3.92444C41.1955 3.95638 41.3779 3.98832 41.3511 4.12141C41.5871 3.89782 41.5871 3.89782 41.7105 4.20126C41.6747 4.37516 41.7355 4.38758 41.8928 4.23853C42.0323 4.17819 42.1521 4.20481 42.2522 4.31838C42.2254 4.45147 42.4024 4.48873 42.4346 4.35564C42.676 4.13206 43.2499 4.12141 43.1909 4.38226C43.1909 4.38226 43.3679 4.43017 43.5825 4.345C43.8292 4.13206 43.8292 4.13206 43.7649 4.39291C43.8775 4.69635 44.0545 4.74426 44.3066 4.53132C44.3066 4.53132 44.5212 4.44614 44.666 4.62182C44.9986 4.82411 46.007 5.30855 45.9158 4.98914L46.2698 5.10093C46.581 5.33517 46.758 5.39373 46.9779 5.34049L47.1978 5.28193C47.1495 5.4097 47.2783 5.59602 47.4499 5.66523C47.5644 5.70781 47.6395 5.68829 47.6752 5.60667C47.5518 5.41502 47.7235 5.48423 47.9005 5.54811C48.0775 5.61199 48.2009 5.80364 48.1472 5.92608C48.1472 5.92608 48.1472 5.92075 48.3189 6.00061C48.4262 5.75572 48.5978 5.83558 48.5442 5.95802C48.6568 6.16031 48.8285 6.23484 48.9948 6.31469C49.0538 6.19225 49.1664 6.39455 48.9948 6.31469L48.9357 6.43713C49.043 6.6341 49.102 6.51699 49.161 6.39455C49.161 6.39455 49.3327 6.4744 49.499 6.54893C49.6706 6.61813 49.8262 6.7246 49.7296 6.51166C49.794 6.39455 49.853 6.27743 50.0193 6.36793C50.0836 6.25081 50.1856 6.46375 50.0193 6.36793C49.9549 6.48505 49.8905 6.60216 50.0515 6.69799C50.2177 6.79381 50.148 6.9056 50.148 6.9056C49.853 7.04401 50.5557 7.29422 50.797 7.27825C51.2584 7.25695 51.4139 7.39004 51.2584 7.59766C51.1028 7.81592 51.5534 7.8106 51.961 7.61363L52.3741 7.41666L52.1166 7.72542C51.9342 8.25245 51.9128 8.2418 52.5243 8.42812C52.889 8.6038 52.889 8.61445 52.7924 8.70495C52.7227 8.76883 52.771 8.84868 52.9212 9.035C52.889 9.05097 52.8461 9.07227 52.7549 9.11486C52.5403 9.216 52.3526 9.18939 52.3741 9.0563C52.2024 8.89127 51.43 8.7848 51.0277 8.88062L50.6415 8.83803C50.4806 8.55589 49.8905 8.50265 49.6813 8.75286C49.6921 8.61977 49.499 8.60912 49.3059 8.59315C48.9089 8.69962 48.1419 8.66236 48.1472 8.5346H47.9541C47.7557 8.65704 47.5626 8.64639 47.3695 8.64639C47.1764 8.64639 46.9833 8.64639 46.7902 8.77415C46.5971 8.90724 46.4093 8.90724 46.4093 8.90724C46.2162 8.90724 46.4093 8.76883 46.6024 8.64107C46.9886 8.50798 46.4093 8.50265 45.8354 8.7848C45.4563 8.96935 45.3919 8.96935 45.6423 8.7848C45.83 8.64639 46.0231 8.50798 45.6423 8.65171C45.6423 8.65171 45.2561 8.66236 45.2614 8.79545L44.6875 8.82206C44.2959 8.70495 44.1028 8.72092 43.9151 8.73156C43.7327 8.88062 43.7327 8.88062 43.5289 8.75818C43.5181 8.62509 43.325 8.63574 43.3465 8.90724C43.1641 9.0563 42.9764 9.07759 42.7725 8.96048C42.7511 8.6943 42.558 8.71027 42.5687 8.84336C42.3917 8.99242 42.1986 9.01371 42.1986 9.01371C42.1879 8.88595 40.4607 9.0563 38.7549 9.40233C38.5672 9.43959 38.4009 9.60994 38.4277 9.73771C38.4813 9.99856 38.4545 9.86547 38.24 9.77497C37.9718 9.42362 37.5909 9.5088 37.8645 9.86015C38.029 10.0057 37.9664 10.0199 37.6767 9.90274C37.4622 9.81756 37.4568 9.81224 37.3013 9.98791C37.3335 10.1157 37.1457 10.1636 37.1135 10.0358C36.8936 9.95065 36.6737 9.87079 36.7059 9.99856C36.7059 9.99856 36.5181 10.0411 36.2982 9.96662C36.0729 9.89209 35.9227 10.0731 35.7725 10.2541C35.2898 10.6693 35.1074 10.7385 35.2147 10.4191C35.322 10.105 34.4262 10.5256 34.3296 10.8503C34.2331 11.1644 34.2331 11.1644 34.1902 11.042C34.1472 10.9142 33.9595 10.9781 33.9595 10.9781C33.7771 11.042 33.5948 11.1165 33.5465 10.9887C33.5465 10.9887 33.3587 11.0579 33.0476 11.3241C32.7848 11.7234 32.2001 11.8245 31.9051 11.6755L31.5993 11.9629C31.535 12.2877 31.4277 12.5006 31.3043 12.261C31.2453 12.1439 31.181 12.0215 31.2453 12.1439C31.1863 12.4633 30.43 12.7348 30.2905 12.5113C30.2476 12.4332 30.1654 12.4279 30.0438 12.4953L30.1135 12.6124C30.1833 12.7295 30.2476 12.8413 30.0813 12.9478C29.9097 13.0543 29.738 13.166 29.663 13.0543C29.4162 13.0489 29.1641 13.0649 29.2446 13.1767C29.2446 13.1767 29.0729 13.2991 28.8208 13.3151C28.6492 13.4375 28.4775 13.5813 28.1396 13.8581C28.0591 14.1083 27.7426 14.4064 27.6461 14.3159C27.6461 14.3159 27.3243 14.6566 27.2706 14.9122C26.9756 15.2795 26.8308 15.4711 26.7235 15.3913C26.6162 15.3114 26.6108 15.3114 26.584 15.5989C26.6967 15.6734 26.5626 15.8757 26.4338 16.094C26.3212 16.3229 26.2085 16.5571 26.2085 16.5571C26.3373 16.6157 26.3212 16.605 26.2354 16.8499C26.1925 16.9777 26.0637 17.2013 25.9672 17.4568C25.8813 17.7176 25.7794 17.9785 25.7794 18.1222C25.7472 18.5428 25.7419 18.7557 25.7687 18.8196C25.7902 18.8888 25.817 18.8196 25.8813 18.6812C25.9082 18.4097 25.9993 18.4097 25.8974 18.9527C25.8867 19.2082 25.9243 20.1079 26.1764 20.7201C26.5518 21.5932 26.5948 21.5772 26.702 21.5186C26.8254 21.1939 26.938 21.3909 26.82 21.7262C26.8254 22.2746 27.0078 22.4769 27.1043 22.397C27.3511 22.5141 27.3564 22.5088 27.512 22.6898C27.4101 22.7696 27.5549 22.9826 28.0055 23.2115C28.1199 23.3215 28.1467 23.4085 28.0859 23.4724C28.0859 23.4724 28.2683 23.6267 28.4561 23.7758C28.7243 23.829 29.1266 24.0633 29.4913 24.2868C29.8561 24.5211 30.194 24.7287 30.2691 24.8405C30.2691 24.8405 30.4836 24.931 30.7411 24.8831C31.0469 24.7127 31.24 24.7766 31.1595 25.0321C31.0737 25.2877 31.079 25.2877 31.3687 25.096C31.6208 25.0534 32.6507 25.2717 32.3932 25.4846L32.3396 25.7455C32.581 25.655 32.7955 25.6923 32.7955 25.6923C32.817 25.5645 33.0315 25.5964 33.6591 25.671C34.0829 25.7135 34.9143 25.623 35.3166 25.6071C35.7243 25.6071 36.3304 25.5751 36.5396 25.6923C36.738 25.671 36.9472 25.6656 37.3281 25.4846C37.5105 25.3303 37.9074 25.2823 37.9235 25.4101L38.122 25.3835C38.4974 25.1972 38.6905 25.1599 38.6905 25.1599C38.712 25.293 38.9319 25.3888 39.1036 25.2238C39.0821 25.0907 39.2752 25.0588 39.6561 24.9789C39.8652 25.0162 41.5495 24.6701 43.1158 24.1165C44.6875 23.5841 46.125 22.8548 46.0928 22.7963C46.0928 22.7963 46.2698 22.7217 46.6185 22.5407C46.7902 22.4556 47.1388 22.2799 47.1388 22.2799C47.2622 22.5194 48.0721 21.9392 48.5013 21.5239C48.5978 21.3057 48.7641 21.2099 48.9304 21.1087C49.0698 21.3323 49.5741 21.0235 49.8262 20.6828C49.8369 20.3528 49.9978 20.241 50.1534 20.4592C50.3089 20.6828 50.6361 20.438 50.7112 19.8843C50.7863 19.6554 50.7863 19.6554 51.0223 19.6394C51.3442 19.7299 51.5051 19.5968 51.4193 19.4957C51.4032 19.1603 51.548 19.0379 51.8806 19.1071C52.358 19.0379 52.3633 19.0325 52.3312 18.6972C52.299 18.3671 52.8568 17.7975 53.1948 17.8188C53.3342 17.6697 53.5702 17.5899 53.4683 17.5047L53.7097 17.4302C53.8492 17.2705 53.9725 17.0948 53.9725 17.0948L53.8652 17.0149C53.9833 16.8499 54.9327 15.9449 55.4852 14.3479C55.9036 13.0915 55.8606 12.2025 55.8016 11.766C55.7534 11.3188 55.6783 11.2656 55.6461 11.3986C55.453 11.6329 55.3725 11.3294 55.4798 11.0473C55.8285 11.1271 56.2576 11.2443 56.7243 11.388C57.9741 11.7713 58.8323 12.1493 58.8859 12.0215C58.8859 12.0215 59.0576 12.096 59.4062 12.2398C59.7495 12.3941 60.1465 12.4367 60.3181 12.5166C60.5488 12.474 60.7151 12.5698 60.4898 12.6018C60.4308 12.7189 60.3664 12.8413 60.5327 12.9265C60.8652 13.1022 60.9296 12.985 60.994 12.8679C61.0584 12.7508 61.23 12.8413 61.23 12.8413C61.3963 12.9318 61.3963 12.9318 61.3319 13.0489L61.1978 13.2832L61.3587 13.379C61.4231 13.2619 61.5894 13.3577 61.5894 13.3577C61.6967 13.4216 61.7038 13.5298 61.6108 13.6824C61.4714 13.9113 61.6269 14.0018 61.9327 13.8687L62.3189 13.9592C62.3189 14.2893 62.7909 14.2574 63.0162 14.268C63.0108 14.5981 63.1557 14.7045 63.4721 14.6034C63.5526 14.4969 63.7135 14.6034 63.7725 14.8323C63.8315 15.0559 63.9764 15.173 64.266 15.4126C64.4913 15.4339 65.5105 16.2909 66.4492 17.4781C67.5005 18.8143 67.9833 19.847 68.1174 19.7778C68.2139 19.9429 68.2032 19.9482 68.171 20.1771C68.053 20.2357 68.1281 20.4007 68.4553 20.4592C68.6591 20.5764 68.7825 20.5231 68.5357 20.6296C68.4177 20.6828 68.5733 21.0235 68.8469 21.7262C69.0346 22.2586 69.2706 22.9666 69.3886 22.9347C69.5388 23.1547 69.5549 23.215 69.4369 23.1157C69.1204 23.0092 69.2545 23.9248 69.6032 24.4253C69.6407 24.6063 69.6729 24.7926 69.5442 24.8139C69.5871 24.9949 69.6032 25.1759 69.8124 25.7135C69.8499 25.8945 69.9143 26.6398 69.9358 27.0125C69.9733 27.3851 70.102 27.7524 70.102 27.7524C70.102 27.8217 70.102 27.8909 70.102 27.9388C69.9733 27.9441 69.9894 28.8704 69.984 30.148C69.984 31.431 69.984 32.5276 69.8553 32.7086C69.8553 32.7086 69.8553 32.8896 69.9894 33.076C70.2576 33.2623 70.2576 33.4433 70.1235 33.6243C69.8553 33.8053 69.8553 34.5399 70.1235 34.7209C70.0859 34.7209 70.043 34.7209 69.9894 34.7209C69.7212 34.9019 69.8553 35.4502 70.1235 35.6366C69.9894 35.8176 69.8553 36.0039 69.9894 36.1849C69.9894 36.3055 69.9 36.3659 69.7212 36.3659C69.6461 36.3659 69.5764 36.3659 69.5227 36.3978C69.5013 36.3872 69.4584 36.4031 69.3886 36.4777L69.4691 36.3659C69.5495 36.2541 69.4423 36.3339 69.3457 36.4298C69.1526 36.6161 69.1419 36.6054 69.4101 36.302C69.6032 36.1157 69.5871 36.0997 69.4905 36.1902C69.3779 36.2701 69.2706 36.3499 69.3511 36.2381C69.335 36.2221 69.3243 36.2062 69.1311 36.3978C69.0346 36.4936 69.0239 36.4777 69.0078 36.4617C69.0721 36.3978 69.1401 36.3393 69.2116 36.286C69.2116 36.286 69.2116 36.286 69.1848 36.2541C69.1687 36.2381 69.2384 36.1104 69.3296 36.0199C69.4101 35.9081 69.394 35.8921 69.2223 36.0997C69.0936 36.2239 69.0203 36.2772 69.0024 36.2594C69.0024 36.2594 68.9756 36.2275 69.0668 36.1316C69.158 36.0358 69.1633 36.0358 69.1311 36.0039C69.0882 35.956 68.761 36.1902 68.5518 36.3659C68.4231 36.4901 68.4177 36.4848 68.5357 36.3499C68.6323 36.2541 68.6162 36.2381 68.6001 36.2221C68.5036 36.318 68.584 36.2062 68.6001 36.2221C68.6967 36.1263 68.7074 36.1423 68.7235 36.1583L68.82 36.0624C68.9971 35.8601 68.981 35.8442 68.7771 36.0145C68.7056 36.0678 68.6967 36.0571 68.7503 35.9826C68.8308 35.8708 68.9112 35.7643 68.8147 35.8548C68.8147 35.8548 68.7879 35.8229 68.8683 35.7111C68.8415 35.6791 68.8254 35.6632 68.7289 35.759C68.6323 35.8548 68.6216 35.8389 68.6055 35.8229C68.5894 35.8069 68.5787 35.7909 68.4821 35.8868C68.3856 35.9826 68.2783 36.0624 68.2461 36.0305C68.1638 36.0731 68.1817 36.0252 68.2997 35.8868C68.3963 35.7909 68.3802 35.775 68.3641 35.759C68.3641 35.759 68.348 35.743 68.4285 35.6312C68.5089 35.5194 68.4124 35.6153 68.3158 35.7111C68.2193 35.8069 68.1227 35.8974 68.1227 35.8974C68.1066 35.8814 68.2836 35.6791 68.3802 35.5833C68.4982 35.4485 68.4928 35.4431 68.3641 35.5674C68.2675 35.6632 68.1603 35.743 68.2246 35.6153C68.1978 35.5833 68.1656 35.5514 68.2622 35.4556C68.3426 35.3438 68.2354 35.4236 68.2354 35.4236C68.1281 35.5035 68.112 35.4875 68.1656 35.3438C68.2443 35.1663 68.2211 35.1397 68.0959 35.2639C67.9993 35.3597 67.9028 35.4502 68.0798 35.2479C68.1603 35.1361 68.053 35.216 67.9243 35.2799C67.8116 35.3597 67.6239 35.5461 67.5273 35.6419C67.3986 35.7661 67.3575 35.7874 67.4039 35.7058C67.4039 35.7058 67.4683 35.578 67.5649 35.4875C67.6614 35.3917 67.6775 35.4076 67.6775 35.4076L67.6936 35.4236C67.7902 35.3278 67.8867 35.2373 67.8545 35.2054C67.935 35.0936 67.9189 35.0776 67.8277 35.1734C67.9082 35.0616 67.8813 35.0297 67.8492 34.9977C67.8223 34.9658 67.7794 34.9179 67.8599 34.8114C67.8331 34.7795 67.817 34.7635 67.7204 34.8593C67.5273 35.0457 67.5166 35.035 67.6131 34.9392C67.7902 34.7369 67.699 34.4335 67.4898 34.6091C67.4898 34.6091 67.4737 34.5932 67.463 34.5772C67.5273 34.4494 67.4415 34.3589 67.3342 34.4334L67.2913 34.3855C67.3557 34.2578 67.3449 34.2418 67.2323 34.3217C67.125 34.4015 67.0285 34.4973 67.125 34.4015C67.2216 34.3057 67.1894 34.2737 67.1357 34.2152C67.0964 34.1726 67.0499 34.1886 66.9963 34.2631C66.8407 34.295 66.9373 34.1992 67.0338 34.1034C67.2377 33.933 67.2108 33.9011 66.9105 34.1673C66.7066 34.343 66.6744 34.311 66.771 34.2152C66.8676 34.1194 66.8783 34.1353 66.8944 34.1513L67.0875 33.965C67.0875 33.965 67.0714 33.949 66.9641 34.0289C66.9641 34.0289 66.948 34.0129 66.8407 34.0927C66.7335 34.1726 66.6369 34.2684 66.5564 34.3749C66.476 34.4814 66.4599 34.4707 66.4438 34.4547C66.5082 34.327 66.6047 34.2365 66.7174 34.1566C66.7334 34.1726 66.8246 34.0768 66.9212 33.981C67.0177 33.8851 66.7549 33.9969 66.5511 34.1673C66.5779 34.1407 66.6047 34.114 66.6476 34.0715C66.7442 33.9756 66.712 33.9437 66.6852 33.9117C66.6584 33.8798 66.6423 33.8638 66.5457 33.9597C66.4492 34.0555 66.3526 34.146 66.3419 34.1353C66.358 34.1513 66.2614 34.2471 66.1649 34.3376C66.1649 34.3376 66.2292 34.2099 66.3097 34.1034C66.4706 33.8851 66.5403 33.7574 66.4813 33.6935C66.4545 33.6615 66.4116 33.6136 66.4921 33.5072C66.4652 33.4752 66.4492 33.4592 66.3526 33.5551L66.3258 33.5231C66.4062 33.4113 66.3794 33.3794 66.2829 33.4752C66.1702 33.5551 66.2561 33.4433 66.24 33.4273C66.3472 33.2818 66.3115 33.3084 66.1327 33.5072C66.0361 33.603 65.9718 33.7254 65.9879 33.7414L66.0308 33.7893L65.8913 33.8372C65.8913 33.8372 65.7518 33.8851 65.6553 33.981C65.6553 33.981 65.5587 34.0768 65.548 34.0608C65.548 34.0608 65.6446 33.965 65.7411 33.8745C65.8484 33.7946 65.9449 33.6988 66.0415 33.6083C66.2185 33.406 66.2721 33.2623 66.079 33.4486C66.079 33.4486 66.1005 33.406 66.1434 33.3208C66.24 33.225 66.2239 33.209 66.02 33.3847C65.8162 33.5604 65.8001 33.5444 65.9771 33.3368C66.138 33.1185 66.079 33.0547 65.9879 33.1505C65.7947 33.3368 65.7518 33.2942 65.8323 33.1824C65.9128 33.0706 65.8967 33.0547 65.7894 33.1345C65.8859 33.0387 65.9664 32.9322 65.8538 33.0068C65.8538 33.0068 65.8377 32.9908 65.7572 33.1026C65.7572 33.1026 65.6499 33.1824 65.5373 33.2623C65.5534 33.2782 65.4568 33.3741 65.3603 33.4646C65.2637 33.5604 65.3013 33.4007 65.5587 33.0866L65.7197 32.8683C65.6231 32.9642 65.5266 33.0547 65.5266 33.0547C65.5105 33.0387 65.4997 33.0227 65.5909 32.9269C65.6553 32.863 65.6821 32.8258 65.6714 32.8151C65.6714 32.8151 65.6553 32.7991 65.5641 32.895C65.4354 33.0192 65.3978 33.0458 65.4515 32.9748C65.6285 32.7725 65.6124 32.7565 65.4085 32.9269C65.2798 33.0511 65.2744 33.0458 65.3925 32.9109C65.489 32.8151 65.5695 32.7086 65.5534 32.6927L65.4568 32.7885C65.2637 32.9748 65.253 32.9642 65.3335 32.8524C65.43 32.7565 65.4139 32.7406 65.2905 32.8045C65.2637 32.7725 65.2476 32.7565 65.3442 32.6607C65.4729 32.5365 65.4676 32.5312 65.3281 32.6448C65.2566 32.698 65.2423 32.682 65.2852 32.5968C65.3281 32.5117 65.3191 32.501 65.2584 32.5649C65.0653 32.7512 64.9741 32.847 64.9848 32.863C64.9848 32.863 64.958 32.9003 64.9043 32.9748L64.8775 32.9429C64.8775 32.9429 64.8507 32.9109 64.722 32.9748C64.5986 33.0387 64.4055 33.225 64.5289 33.1611L64.4484 33.2729C64.1641 33.5551 64.1909 33.587 64.4752 33.3049C64.6647 33.1168 64.7005 33.0902 64.5825 33.225C64.3894 33.4113 64.4055 33.4273 64.4216 33.4433C64.4216 33.4433 64.3948 33.4805 64.3411 33.5551C64.2446 33.6509 64.1641 33.7574 64.1802 33.7733C64.1802 33.7733 64.2177 33.7467 64.2928 33.6935C64.3733 33.5817 64.4001 33.6136 64.2285 33.8212C64.1748 33.8958 64.2106 33.8692 64.3357 33.7414C64.5289 33.5551 64.5557 33.5817 64.3787 33.7893C64.3787 33.7893 64.3948 33.8053 64.4055 33.8212C64.4162 33.8372 64.5128 33.7414 64.6093 33.6456C64.738 33.5214 64.7738 33.4947 64.7166 33.5657C64.6361 33.6775 64.5396 33.768 64.5396 33.768C64.443 33.8638 64.4591 33.8798 64.4752 33.8958C64.4913 33.9117 64.5181 33.9437 64.6147 33.8479C64.5879 33.8745 64.5557 33.9064 64.5181 33.9437C64.5342 33.9597 64.4377 34.0555 64.5342 33.9597C64.5342 33.9597 64.5503 33.9756 64.4806 34.1034C64.4108 34.2312 64.6469 34.0874 64.7971 33.8532C64.7971 33.8532 64.8024 33.8585 64.8131 33.8692L64.9204 33.7893C65.017 33.6935 65.0331 33.7095 65.0438 33.7254L64.8507 33.9117C64.5503 34.1779 64.4859 34.3057 64.7863 34.0395C64.7595 34.0661 64.7273 34.0981 64.6898 34.1353C64.5932 34.2312 64.6093 34.2471 64.7327 34.1832C64.7488 34.1992 64.9526 34.0235 65.0492 33.933C65.1457 33.8425 65.1564 33.8532 65.1564 33.8532C65.1564 33.8532 65.1296 33.8905 65.076 33.965C64.8829 34.1513 64.9151 34.1832 65.1189 34.0129L65.0223 34.1087C64.9258 34.2045 64.8453 34.311 65.0116 34.295C65.0706 34.3589 65.1135 34.4068 65.017 34.4973C64.9204 34.5932 65.1725 34.4654 65.3871 34.311C65.2905 34.4068 65.3066 34.4228 65.3335 34.4547C65.3621 34.4867 65.3442 34.5346 65.2798 34.5985C65.1439 34.7156 65.1493 34.7209 65.2959 34.6144C65.4997 34.4388 65.4515 34.5825 65.2584 34.7742C65.1618 34.87 65.1779 34.8859 65.2047 34.9179C65.3174 34.838 65.3442 34.87 65.371 34.9019C65.3996 34.9339 65.4783 34.8859 65.607 34.7582C65.8001 34.5719 65.8108 34.5825 65.843 34.6144C65.8591 34.6304 65.8698 34.6464 65.7787 34.7422C65.7787 34.7422 65.6982 34.854 65.7143 34.87C65.7304 34.8859 65.7411 34.9019 65.6499 34.9977C65.6499 34.9977 65.5695 35.1095 65.5963 35.1415C65.6231 35.1734 65.6553 35.2054 65.5587 35.3012C65.5587 35.3012 65.5945 35.2746 65.666 35.2213C65.7626 35.1255 65.8699 35.0457 65.8323 35.2054C65.8591 35.2373 65.902 35.2852 65.9986 35.1894C65.9986 35.1894 65.9718 35.2267 65.9181 35.3012C65.725 35.4875 65.7572 35.5194 65.9771 35.3651C66.0737 35.2692 66.0898 35.2852 66.004 35.397C66.004 35.397 66.02 35.413 66.1273 35.3331C66.1988 35.2799 66.2131 35.2959 66.1702 35.381C66.0737 35.4769 66.0898 35.4928 66.1059 35.5088C66.2292 35.4449 66.3902 35.6206 66.3097 35.7271C66.3848 35.6738 66.4259 35.6525 66.4331 35.6632C66.2561 35.8655 66.3687 35.7909 66.5564 35.5993L66.5403 35.5833L66.5243 35.5674C66.7174 35.381 66.7603 35.4236 66.4706 35.7111C66.3526 35.8459 66.3615 35.8566 66.4974 35.743C66.7013 35.5674 66.7174 35.5833 66.5403 35.7909C66.4116 35.9152 66.417 35.9205 66.5564 35.8069C66.9695 35.4609 67.1036 35.413 66.7227 35.7909C66.5296 35.9773 66.4492 36.0891 66.4652 36.105C66.4813 36.121 66.5725 36.0252 66.6691 35.9293C66.8461 35.7271 66.8622 35.743 66.6959 35.9613C66.4545 36.2914 66.4813 36.3233 66.7174 36.1796C66.9641 36.0518 67.007 36.0997 66.7764 36.2434C66.6297 36.3499 66.5976 36.3818 66.6798 36.3393C66.7066 36.3712 66.7388 36.4031 66.7495 36.4191C66.7656 36.4351 66.8729 36.3552 66.9695 36.2594C66.7924 36.4617 66.7281 36.5895 66.948 36.4351C66.9641 36.4511 66.9748 36.467 66.9748 36.467C66.9748 36.467 67.016 36.4457 67.0982 36.4031C67.2108 36.3233 67.125 36.4351 67.0446 36.5469C66.9641 36.6587 66.8836 36.7651 66.9802 36.6746C67.0767 36.5788 67.2001 36.5149 67.3074 36.4404C67.4147 36.3606 67.3342 36.4723 67.2269 36.5522C67.1626 36.6161 67.1089 36.6888 67.066 36.7705C67.066 36.7705 67.1089 36.8184 67.2055 36.7226C67.302 36.6267 67.3879 36.7226 67.3074 36.8343L67.3342 36.8663C67.3342 36.8663 67.4576 36.8024 67.4737 36.8184C67.4737 36.8184 67.4898 36.8343 67.597 36.7545C67.6131 36.7705 67.6239 36.7864 67.5327 36.8823C67.6686 36.7687 67.6775 36.7793 67.5595 36.9142C67.4308 37.0384 67.4361 37.0437 67.5756 36.9302C67.6471 36.8769 67.6561 36.8876 67.6024 36.9621C67.5059 37.0579 67.5219 37.0739 67.6185 36.9781C67.8223 36.8024 67.9618 36.7598 67.7741 36.9461C67.7741 36.9461 67.7902 36.9621 67.8974 36.8823C68.0333 36.7651 68.0387 36.7705 67.9135 36.8982C67.7365 37.1005 67.7526 37.1165 67.9564 36.9461C67.9564 36.9461 68.0637 36.8663 67.9833 36.9781C67.9189 37.1058 67.9082 37.2922 68.0852 37.0899L68.112 37.1218C68.0476 37.2496 68.0583 37.2656 68.171 37.1857L68.2836 37.1058C68.1871 37.2017 68.1066 37.3081 68.1227 37.3241C68.1227 37.3241 68.1603 37.2975 68.2354 37.2443C68.3158 37.1325 68.3319 37.1484 68.3426 37.1644C68.3534 37.1804 68.2783 37.2922 68.1817 37.3827L68.1978 37.3986C68.3909 37.2123 68.4016 37.223 68.3105 37.3188C68.23 37.4306 68.2461 37.4466 68.2568 37.4625C68.2729 37.4785 68.3534 37.3667 68.2568 37.4625L68.1603 37.5583C68.0798 37.6701 68.1764 37.5743 68.2675 37.4785L68.2944 37.5104C68.2944 37.5104 68.3212 37.5424 68.407 37.4306C68.5036 37.3348 68.6001 37.2443 68.6108 37.2549C68.6269 37.2709 68.7074 37.1591 68.6108 37.2549C68.5143 37.3507 68.4177 37.4412 68.4338 37.4572C68.4499 37.4732 68.3534 37.569 68.3534 37.569C68.1495 37.7447 68.2997 37.7127 68.4124 37.6329C68.6323 37.4732 68.6484 37.4891 68.4553 37.6808C68.2622 37.8671 68.4821 37.7127 68.7825 37.4466L69.0829 37.1804L68.7986 37.4625C68.5554 37.7251 68.5107 37.8085 68.6645 37.7127C68.7467 37.6701 68.7557 37.6808 68.6913 37.7447C68.5947 37.8405 68.6108 37.8565 68.6538 37.9044C68.6967 37.9523 68.7128 37.9683 68.8093 37.8724C68.8093 37.8724 68.8254 37.8884 68.8361 37.9044C68.6591 38.1067 68.7825 38.0481 68.9595 37.8405L68.9863 37.8724L68.8898 37.9683C68.7932 38.0588 68.8254 38.096 68.938 38.2185C69.0614 38.3515 69.0721 38.3675 69.2438 38.1546C69.4262 37.9576 69.4315 37.9683 69.2653 38.1812C69.1794 38.2877 69.1151 38.4101 69.1955 38.3036C69.1955 38.3036 69.2223 38.3303 69.1526 38.458C69.0346 38.7242 69.1311 38.6337 69.2062 38.5166C69.3457 38.277 69.2813 38.4048 69.2223 38.5325C69.158 38.6603 69.1043 38.7934 69.1741 38.6763C69.2653 38.5805 69.4101 38.5432 69.276 38.7881C69.276 38.7881 69.2921 38.804 69.3028 38.82C69.3672 38.6976 69.394 38.7242 69.4262 38.7561C69.453 38.7881 69.4691 38.804 69.4101 38.9318C69.335 39.0436 69.3511 39.0649 69.4423 38.9638C69.4584 38.9797 69.5871 38.7295 69.5978 38.7455C69.6515 38.6124 69.7212 38.49 69.7319 38.5006L69.6783 38.6337C69.6246 38.7668 69.571 38.9052 69.571 38.9052C69.5871 38.9212 69.5978 38.9371 69.6515 38.7987C69.6139 38.9531 69.63 38.9691 69.6515 38.9957C69.6783 39.0276 69.7105 39.0596 69.7641 38.9265C69.689 39.2299 69.7856 39.3311 69.8714 39.0436C69.9089 38.8945 69.9197 38.9052 69.8982 39.0755C69.8767 39.2459 69.8767 39.2459 69.925 39.1075C69.9733 38.9691 69.9518 39.1341 69.9358 39.3098C69.8875 39.6398 69.9036 39.6611 69.9518 39.5174C70.0108 39.3896 70.0377 39.4216 70.0538 39.4375C70.1074 39.3045 70.1181 39.3151 70.1289 39.1394C70.1503 38.9744 70.1879 38.82 70.1879 38.82C70.2308 38.6763 70.2093 38.8466 70.1986 38.8307C70.1557 38.9744 70.1664 38.985 70.1557 39.166C70.1449 39.347 70.1771 39.379 70.1879 39.395C70.2039 39.4109 70.2308 39.4375 70.2415 39.4535C70.2683 39.6718 70.2844 39.6931 70.2951 39.5121C70.2951 39.4375 70.3059 39.379 70.3059 39.3364C70.2951 39.7037 70.4668 39.8847 70.4775 39.5227C70.4775 39.576 70.4775 39.6398 70.4775 39.709C70.4775 39.7676 70.4775 39.8102 70.4775 39.8368C70.4829 39.8954 70.499 39.8847 70.5151 39.8634C70.5312 39.8475 70.5848 39.6132 70.6277 39.576C70.6813 39.528 70.7296 39.4855 70.7135 39.3151C70.7135 39.3151 70.7225 39.3683 70.7403 39.4748C70.7403 39.6611 70.7564 39.6505 70.7725 39.6345C70.7886 39.6185 70.7725 39.4482 70.7511 39.2778C70.735 39.1075 70.7457 39.0968 70.794 39.2406C70.8423 39.3843 70.9013 39.3311 70.9013 39.1447C70.9174 39.1341 70.9281 39.1235 70.9549 39.2832C70.9978 39.4322 71.0622 39.56 71.0246 39.2193C71.0246 39.2193 71.0407 39.2672 71.0729 39.363C71.1212 39.5068 71.1587 39.6558 71.1051 39.3364C71.1051 39.1554 71.1426 39.1181 71.2124 39.2406C71.2285 39.2246 71.2446 39.214 71.2017 39.0649C71.1856 39.0117 71.1695 38.9584 71.1587 38.9212C71.2607 39.2033 71.2607 39.198 71.1856 38.8945C71.1426 38.7508 71.1534 38.7402 71.2017 38.8839C71.2607 39.017 71.2767 39.001 71.2767 39.001C71.2928 38.985 71.3143 38.7827 71.384 38.7242C71.4967 38.623 71.5396 38.5858 71.4698 38.4633C71.4162 38.3303 71.4162 38.3303 71.4967 38.442C71.5771 38.5538 71.5932 38.5379 71.6093 38.5272C71.6254 38.5166 71.6361 38.5006 71.7112 38.6177C71.6522 38.4846 71.6522 38.49 71.6683 38.474C71.7434 38.5911 71.7595 38.5751 71.6951 38.4474C71.5557 38.2078 71.5557 38.2078 71.7112 38.4367C71.7863 38.5538 71.9097 38.623 71.8185 38.5219C71.738 38.4101 71.7702 38.3835 71.7005 38.261C71.7112 38.2504 71.7273 38.2398 71.8078 38.3462C71.9043 38.442 71.899 38.2664 71.8185 38.1546C71.7327 38.0534 71.7434 38.0428 71.8346 38.1439C71.9258 38.2451 71.9365 38.2344 71.9526 38.2185C71.8775 38.1067 71.9687 38.2078 72.0599 38.3036C72.135 38.4154 72.1511 38.4048 72.1833 38.3728C72.1082 38.261 72.1672 38.2078 72.2154 38.1652C72.2959 38.096 72.2154 37.9842 72.0545 37.766L71.8775 37.5637L72.0653 37.7553C72.1618 37.8511 72.3656 38.0268 72.3656 38.0268C72.3817 38.0108 72.2852 37.9203 72.1886 37.8245C72.0921 37.7287 72.1082 37.7181 72.2369 37.7819C72.3656 37.8458 72.3817 37.8352 72.3013 37.7234C72.3174 37.7074 72.3335 37.6968 72.4461 37.7766C72.4461 37.7766 72.4193 37.7411 72.3656 37.6701C72.2691 37.5743 72.2852 37.5637 72.3978 37.6435C72.6016 37.8192 72.6499 37.7766 72.5587 37.6808C72.4622 37.585 72.4783 37.5743 72.4944 37.5583C72.5105 37.5424 72.5266 37.5317 72.4461 37.4199C72.4622 37.404 72.4783 37.3933 72.4783 37.3933C72.4944 37.3773 72.5748 37.4891 72.5587 37.4998L72.6714 37.5796C72.7036 37.553 72.7197 37.5371 72.6392 37.4253C72.5212 37.2904 72.5266 37.2851 72.6553 37.4093C72.7518 37.5051 72.8591 37.585 72.784 37.4732C72.6124 37.2709 72.7197 37.3507 72.8162 37.4466C72.9342 37.5814 72.9503 37.5672 72.8645 37.404C72.8967 37.3773 72.8645 37.223 72.9128 37.1804C72.9771 37.1218 73.0093 37.0952 73.1166 37.1751C73.1434 37.2017 73.1541 37.2123 73.1756 37.2283C73.0361 37.0846 73.0415 37.0579 73.0844 37.0207C73.2292 37.0739 73.1649 36.9515 73.0844 36.8397C73.0683 36.8556 73.0522 36.8663 73.0522 36.8663C72.8645 36.6746 72.8752 36.664 73.004 36.7279C73.02 36.7119 73.1166 36.8077 73.2078 36.9036C73.3043 36.9994 73.4116 37.0792 73.4277 37.0633C73.4438 37.0473 73.4599 37.0366 73.3472 36.9568C73.2829 36.8929 73.2561 36.8574 73.2668 36.8503C73.2668 36.8503 73.299 36.8237 73.2185 36.7119C73.122 36.6161 73.138 36.6054 73.1541 36.5895C73.2668 36.6693 73.299 36.6427 73.299 36.6427L73.3955 36.7385C73.4921 36.8343 73.5993 36.9142 73.5993 36.9142C73.6154 36.8982 73.5189 36.8077 73.5189 36.8077C73.4223 36.7119 73.8032 36.3712 73.8515 36.3286C73.9802 36.3925 74.0285 36.3499 73.9158 36.2701C73.8193 36.1742 73.8997 36.105 73.9963 36.0199C74.1089 35.9187 74.184 35.8495 74.0928 35.7537C74.0928 35.7537 74.1089 35.7377 74.1411 35.7111C74.1733 35.6845 74.1089 35.5567 74.125 35.5461C74.0446 35.4396 74.0607 35.4236 74.1411 35.5301C74.2377 35.6259 74.3289 35.7217 74.3449 35.7058C74.3771 35.6791 74.2806 35.5833 74.184 35.4875C74.0875 35.3917 74.1036 35.381 74.1036 35.381C74.1036 35.381 74.1411 35.4076 74.2162 35.4609C74.3128 35.5567 74.404 35.6525 74.404 35.6525L74.42 35.6366C74.3235 35.5407 74.3396 35.5301 74.3396 35.5301C74.3396 35.5301 74.4075 35.5886 74.5434 35.7058C74.7311 35.8974 74.7472 35.8814 74.5756 35.6791L74.5112 35.5567C74.7151 35.7324 74.5595 35.5141 74.479 35.4023C74.6829 35.578 74.699 35.562 74.5273 35.3597C74.4308 35.2639 74.4469 35.2533 74.5595 35.3331C74.6721 35.413 74.6882 35.397 74.7204 35.3704C74.64 35.2639 74.7526 35.1628 74.8813 35.0456C75.0262 34.9179 75.1174 34.8327 75.0262 34.7369C75.0262 34.7369 75.0691 34.7582 75.1549 34.8008C75.2515 34.8966 75.2675 34.8806 75.0905 34.6783C75.0101 34.5719 74.9135 34.476 75.1066 34.6624C75.2032 34.7582 75.2354 34.7262 75.2944 34.673C75.3426 34.6304 75.407 34.5719 75.3105 34.476C75.2675 34.3944 75.2729 34.3891 75.3265 34.4601C75.5036 34.6624 75.6752 34.689 75.5304 34.4547C75.5465 34.4388 75.5626 34.4281 75.6591 34.5186C75.6752 34.5027 75.6913 34.492 75.643 34.3536C75.6591 34.3376 75.7235 34.2844 75.7557 34.2525C75.7878 34.2258 75.7235 34.0981 75.7235 34.0981C75.7396 34.0821 75.7557 34.0715 75.7396 34.0821C75.8361 34.1779 75.9166 34.1034 76.0239 34.0022C76.1311 33.9011 76.2277 33.8159 76.3403 33.8958C76.3403 33.8958 76.3564 33.8798 76.276 33.7733C76.099 33.571 76.1151 33.5551 76.2277 33.6349C76.4315 33.8106 76.4959 33.752 76.3242 33.5497C76.2277 33.4539 76.3243 33.5497 76.4208 33.6456C76.6246 33.8212 76.5817 33.6828 76.4047 33.4805C76.5174 33.5604 76.6246 33.6402 76.5495 33.5338C76.5495 33.5338 76.6175 33.5923 76.7534 33.7095L76.7909 33.6828ZM3.40625 2.75859L3.21314 2.63615C3.20241 2.50306 3.39015 2.48709 3.57253 2.47645C3.69411 2.4658 3.75848 2.50661 3.76563 2.59889C3.76563 2.59889 3.58862 2.74794 3.40625 2.75859ZM5.79858 2.4658C5.79322 2.33271 5.61621 2.47645 5.80395 2.59889L5.82004 2.86506C5.63766 2.87571 5.44456 2.75327 5.43383 2.62018C5.30152 2.44983 5.35874 2.35755 5.60548 2.34336C5.78786 2.33271 5.97559 2.32206 5.98096 2.45515L5.79858 2.4658ZM6.13115 2.98218C6.13115 2.98218 6.14724 2.98218 6.15797 2.98218C6.14724 2.98218 6.13652 2.98218 6.13115 2.98218ZM16.1564 2.57227C15.9741 2.57227 15.7863 2.57759 15.7863 2.57759C15.7863 2.4445 16.1511 2.30609 16.3388 2.30077C16.5212 2.30077 16.5266 2.43386 16.1564 2.57227ZM25.2269 1.79504L25.0392 1.9228L24.8568 1.78439C24.8568 1.6513 25.0446 1.65663 25.2323 1.66195V1.79504H25.2269ZM26.1388 2.08783C26.1388 2.22092 26.1281 2.354 25.7526 2.47645C25.5702 2.47645 25.3825 2.4658 25.3825 2.4658C25.3825 2.4658 25.5702 2.33803 25.7633 2.21027C26.0208 1.95119 26.146 1.91038 26.1388 2.08783ZM30.2369 1.88021C30.0438 2.00265 29.8507 2.12509 29.8507 2.12509C29.663 2.11445 29.8614 1.99201 30.0599 1.73648C30.3138 1.66195 30.3728 1.70986 30.2369 1.88021ZM31.4867 2.63083L31.3043 2.61486C31.3151 2.48177 31.5082 2.36465 31.5082 2.36465L31.6905 2.38062C31.6798 2.51371 31.6691 2.6468 31.4867 2.63083ZM35.3273 3.24303C35.1449 3.22174 34.9465 3.33885 34.9572 3.20577C34.7748 3.1898 35.1557 3.08865 35.338 3.10994L35.322 3.24303H35.3273ZM36.8829 2.75327C36.7613 2.73907 36.6379 2.72488 36.5128 2.71068C36.5289 2.57759 36.5449 2.4445 36.7327 2.4658C36.9365 2.354 37.1028 2.50839 36.8829 2.75327ZM38.5618 2.84909L38.3794 2.82247L38.2131 2.66277L38.4009 2.68939C38.5225 2.70713 38.5779 2.76037 38.5672 2.84909H38.5618ZM41.5871 3.90847C41.4047 3.86588 41.2492 3.70618 41.2492 3.70618C41.276 3.57309 41.4584 3.61035 41.4584 3.61035C41.6407 3.64762 41.8231 3.6902 41.7963 3.81797C41.7963 3.81797 41.7695 3.95106 41.5871 3.90847ZM45.063 4.58988C45.0254 4.71764 44.8806 4.54197 44.7036 4.49405C44.607 4.37694 44.6803 4.35032 44.9235 4.4142C45.1059 4.46211 45.0683 4.58988 45.0683 4.58988H45.063ZM47.9541 5.42567C47.9541 5.42567 47.8254 5.23402 47.879 5.11158C47.9273 4.98914 48.1097 5.05302 48.1848 5.37243C48.149 5.45406 48.0739 5.47358 47.9595 5.43099L47.9541 5.42567ZM49.1718 5.95269L49.0591 5.7504L49.2898 5.70781L49.4668 5.78767C49.4078 5.91011 49.3488 6.02722 49.1771 5.94737L49.1718 5.95269ZM26.6859 18.6972L26.6967 18.4683C26.8308 18.4736 26.9649 18.4842 26.9541 18.6972L26.9702 18.9101C26.8361 18.9208 26.6859 18.6972 26.6859 18.6972ZM48.4852 9.49283C48.6729 9.50347 48.6675 9.63656 48.6675 9.63656C48.6675 9.63656 48.6622 9.76965 48.4744 9.759C48.4744 9.759 48.2921 9.62059 48.2974 9.4875H48.4852V9.49283ZM46.597 9.72706C46.7222 9.72706 46.7848 9.77142 46.7848 9.86015H46.597L46.4093 9.72706H46.597ZM44.725 9.77497C44.9128 9.76432 44.9128 9.76432 44.9181 9.90274L44.7304 9.91338L44.5373 9.78562L44.725 9.77497ZM43.2285 9.87612C43.4055 9.72174 43.5932 9.71641 43.6039 9.84418C43.6111 9.9329 43.5521 9.98081 43.4269 9.98791C43.1802 10.0092 43.114 9.97017 43.2285 9.87079V9.87612ZM41.8177 9.07759L42.0108 9.0563C42.0269 9.18939 42.0377 9.32247 41.8499 9.34377L41.6461 9.23197L41.8231 9.07759H41.8177ZM39.5595 9.54074C39.6847 9.51944 39.7544 9.55316 39.7687 9.64188C39.7687 9.64188 39.7902 9.77497 39.6024 9.80691L39.3932 9.70577C39.3718 9.57268 39.5595 9.54074 39.5595 9.54074ZM32.2216 24.372C31.8354 24.2815 31.8354 24.2762 31.8729 24.1484C31.9105 24.026 32.2859 24.1112 32.4737 24.1591C32.6346 24.3348 32.4147 24.4199 32.2216 24.372ZM45.2292 22.3278L45.0576 22.4023C45.0039 22.2799 44.9503 22.1574 45.122 22.0829L45.3472 22.1308L45.2292 22.3278ZM47.82 21.9339L47.6484 22.0297C47.584 21.9126 47.5197 21.7954 47.6913 21.6996L47.8576 21.6038C47.922 21.7209 47.82 21.9339 47.82 21.9339ZM49.8369 19.3839C49.7564 19.2774 49.8262 19.0592 49.8262 19.0592C49.9764 18.9474 49.9871 19.2721 50.0675 19.3786C49.9638 19.4531 49.887 19.4531 49.8369 19.3786V19.3839ZM53.125 16.2324C53.0177 16.1525 52.9105 16.0727 53.0231 15.9183L53.243 15.8384V16.0727L53.1304 16.2271L53.125 16.2324ZM54.1656 12.9425C54.0315 13.7836 53.8116 14.2095 53.7472 14.465C53.6721 14.7152 53.7043 14.7844 53.8277 14.8483C53.9833 15.1464 53.8813 15.3274 53.6453 15.189C53.5273 15.1251 53.3128 15.2156 53.4308 15.2848C53.4308 15.2848 53.2377 15.6149 53.0124 15.6894C52.476 15.9928 52.4653 16.2004 52.5725 16.2909C52.8944 16.3069 52.6798 16.3814 52.4545 16.4347C52.2292 16.4932 52.0093 16.5411 52.1112 16.6316C52.1059 16.7488 51.9288 17.0256 51.7357 17.2598C51.5319 17.4834 51.312 17.6538 51.2154 17.5579L50.9419 17.8028C51.0331 17.904 50.7595 18.1488 50.4698 18.3831C50.1856 18.6173 50.0354 18.7291 49.9549 18.6226C50.0139 18.4044 49.8744 18.5215 49.6652 18.8462C49.5151 18.9527 49.5258 19.2828 49.3756 19.3892C49.4561 19.501 49.3756 19.714 49.22 19.8204L49.1449 19.7086C49.0698 19.5968 48.9948 19.485 48.9948 19.485C48.8446 19.5915 48.689 19.6927 48.7641 19.8045C48.5335 19.7938 48.3833 19.895 48.0668 20.0866C47.7503 20.2782 47.4338 20.4646 47.3373 20.6722C47.0476 20.5391 46.0767 21.0502 46.0231 21.3642C46.0821 21.4814 45.9158 21.5719 45.6905 21.5293C45.4652 21.4867 45.4653 21.4867 45.3526 21.689C45.24 21.8913 45.0147 21.8434 44.7894 21.7954C44.5105 21.6251 44.3495 21.6996 44.2315 21.8913C43.9419 22.1574 43.5986 22.2959 43.4269 22.3544C43.1319 22.6153 42.9495 22.6738 43.1748 22.7377C43.2231 22.8655 43.089 23.0518 43.089 23.0518C42.7779 23.302 42.735 23.1796 42.912 23.1157C43.2231 22.8655 43.0461 22.9294 42.8208 22.8655C42.6009 22.8016 42.2522 22.9187 42.0752 22.9773C41.8982 23.0358 41.5442 23.1476 41.3672 23.1955C40.7986 23.2275 40.6162 23.2647 40.6538 23.3978C40.6752 23.4777 40.6859 23.5256 40.6967 23.5575C40.6967 23.5469 40.6967 23.5416 40.6859 23.5256C40.5626 23.4244 40.0047 23.499 39.463 23.6108C38.9212 23.7332 38.3848 23.8823 38.3097 24.0366C38.3043 23.9994 38.299 23.9568 38.2882 23.9036C38.2668 23.7705 38.0844 23.7971 37.7197 23.8556C37.5373 23.8823 36.8185 24.1005 36.2553 24.1378C35.5097 24.1804 34.9518 24.1644 34.9465 24.3028C34.8213 24.2993 34.7605 24.2531 34.7641 24.1644C34.9518 24.0366 34.7641 24.0313 34.5871 24.026C34.4047 24.0207 34.394 24.1538 34.3833 24.2868C34.3779 24.4199 34.1794 24.404 33.82 24.2443C33.4553 24.0739 32.7258 23.9674 32.3235 23.9994C32.1411 23.9568 31.9534 23.9089 31.9909 23.7811C31.8407 23.5948 31.5457 23.3765 31.1005 23.483C30.9235 23.4191 30.9289 23.4085 30.9825 23.2914C30.8698 23.0891 30.9342 22.9719 30.6499 23.137C30.2584 23.0997 29.7541 22.7963 29.5557 22.4556C29.4108 22.3384 29.266 22.2267 29.1802 22.3225C29.089 22.4236 28.9978 22.5194 29.089 22.4236C29.1319 22.0936 29.1426 22.1042 28.8101 22.1574C28.7135 22.2533 28.5741 22.1095 28.676 22.019C28.6492 21.7848 28.5312 21.6464 28.5312 21.6464C28.4721 21.5719 28.2737 21.3696 28.0484 21.0608C27.8231 20.752 27.5817 20.3315 27.4423 19.8737C27.1902 19.1337 27.2331 18.5694 27.2492 18.2287C27.2974 17.888 27.3028 17.7336 27.2331 17.7123C27.1687 17.4834 27.1741 17.4728 27.3672 17.329C27.5549 17.1853 27.6568 17.0256 27.7373 16.8499C27.8285 16.6796 27.9411 16.5252 28.0538 16.5944C28.043 16.3601 28.043 16.3548 28.161 16.2058C28.2683 16.2856 28.381 16.1419 28.3971 15.9076C28.3273 15.5936 28.3273 15.5882 28.5258 15.7692C28.6277 15.8544 29.1051 15.551 28.8798 15.5882C28.7833 15.4924 29.0622 15.2369 29.1105 15.008C29.2553 14.8855 29.4055 14.7684 29.4913 14.8696C29.7112 14.8429 30.3925 14.2041 30.489 13.9965C30.4193 13.8847 30.5802 13.7836 30.6499 13.8954C30.7197 14.0072 30.8752 13.906 31.0415 13.8208C31.138 13.6132 31.2024 13.7303 31.2721 13.8421C31.181 14.0497 31.3365 13.9539 31.6584 13.7782C31.7549 13.5706 32.4147 13.2353 32.9243 13.0117C33.7718 12.6497 33.9005 12.4687 34.158 12.0854L34.2438 11.7713L34.335 12.0215C34.3779 12.1493 34.6461 12.3409 34.6461 12.3409C34.8231 12.2823 34.7748 12.1546 34.7319 12.0268C34.689 11.9044 34.866 11.8352 35.263 11.8511C35.6599 11.8671 35.8315 11.8139 35.9764 11.6276C36.1534 11.5796 36.3357 11.5264 36.5503 11.6063C36.6683 11.5743 36.7166 11.514 36.6951 11.4253C36.6576 11.2975 36.84 11.2443 37.0545 11.3294C37.3013 11.5424 37.8377 11.4093 37.8055 11.2815C37.7733 11.1538 37.9557 11.1112 38.138 11.0686C38.3204 11.0313 38.4974 10.9834 38.653 10.8184C38.8354 10.7811 39.0177 10.7492 39.0177 10.7492C39.2001 10.7119 39.0446 10.8823 38.8622 10.9142L39.0714 11.01C39.4361 10.9408 39.6131 10.9036 39.7741 10.7438C39.9135 10.4511 39.9135 10.4511 39.9564 10.7119C39.9779 10.845 40.1817 10.9461 40.3426 10.7811C40.4821 10.483 40.6913 10.5948 40.7074 10.7226C40.5679 11.0153 40.5626 11.0153 41.2599 10.6427C41.6246 10.5948 42.3434 10.3659 42.9013 10.318C43.6415 10.2434 44.0116 10.2328 44.2047 10.3499C44.2047 10.3765 44.2101 10.3978 44.2154 10.4244C44.2315 10.2168 44.43 10.2009 44.9396 10.1796C45.4974 10.286 45.8675 10.1529 46.0499 10.0145C45.8622 10.0145 45.6798 10.0199 45.6798 10.0199C45.6744 9.75368 45.8622 9.74835 46.2377 9.87612C46.4254 9.87612 46.4254 10.0039 46.4254 10.1423C46.4254 10.2754 46.6078 10.4085 46.7955 10.4085C46.9779 10.4085 47.1656 10.4085 46.9833 10.2754C46.9833 10.1867 47.0458 10.1423 47.171 10.1423C47.3587 10.1423 47.5411 10.1423 47.7342 10.0199C47.7342 9.88676 47.9273 9.89209 48.1097 9.89741C48.2921 10.0358 48.6622 10.0518 48.6622 10.0518C48.6622 10.0891 48.6622 10.1316 48.6568 10.1849C48.6515 10.318 48.8285 10.4617 48.8285 10.4617C49.0108 10.4724 49.0216 10.3393 49.0216 10.3393C49.0216 10.2754 50.1373 10.2967 51.3174 10.4298C52.4921 10.5575 53.7258 10.7864 53.9993 10.8556C54.0959 10.9142 54.2085 10.9621 54.3158 11.0047C54.2997 11.0047 54.2729 11.0153 54.1978 11.0366C54.1281 11.0579 54.1442 11.1538 54.171 11.4412C54.2085 11.7234 54.2836 12.2025 54.1817 12.9584L54.1656 12.9425ZM48.6515 10.0145C48.6515 9.98259 48.6515 9.98259 48.6515 10.0145V10.0145ZM55.8928 10.8876C55.8928 10.8876 55.6783 10.9674 55.7105 10.8343L55.748 10.7066C55.9679 10.6321 56.1879 10.5522 56.1503 10.68C56.1503 10.68 56.1128 10.8077 55.8928 10.8876ZM62.3243 12.8733C62.2545 12.985 62.0131 13.001 61.8469 12.9052C61.6806 12.8094 61.8147 12.5751 62.2223 12.6603C62.3368 12.7277 62.369 12.7987 62.3189 12.8733H62.3243ZM70.0913 27.9707C70.0913 27.9707 70.0913 27.992 70.0913 27.9973C70.0913 27.992 70.0913 27.9814 70.0913 27.9707ZM66.5135 34.2099C66.4813 34.2418 66.4813 34.2418 66.5135 34.2099V34.2099ZM64.9526 33.2303C65.0492 33.1345 65.0652 33.1505 65.076 33.1665C65.0867 33.1824 65.0921 33.1824 64.9955 33.2782C64.9955 33.2782 64.8829 33.3581 64.8721 33.3421L64.9526 33.2303ZM65.1672 33.4646L65.1511 33.4486C65.2476 33.3528 65.135 33.4326 65.0545 33.5444C64.958 33.6402 64.8614 33.7307 64.8614 33.7307C64.8453 33.7148 64.9258 33.603 65.0223 33.5125C65.1403 33.3776 65.2083 33.3191 65.2262 33.3368C65.2262 33.3368 65.253 33.3687 65.1618 33.4646H65.1672ZM65.5802 34.7103L65.5534 34.6783C65.6499 34.5825 65.7733 34.5186 65.7894 34.5346C65.8055 34.5506 65.7089 34.6464 65.5856 34.7103H65.5802ZM66.7442 35.1841C66.6476 35.2799 66.5511 35.3704 66.4277 35.4343C66.4116 35.4183 66.4009 35.4023 66.4009 35.4023L66.6208 35.2426C66.8318 35.0758 66.8729 35.0545 66.7442 35.1787V35.1841ZM66.8622 34.9179L66.7549 34.9977L66.8354 34.8859C66.9319 34.7901 66.9426 34.8061 66.9587 34.8221L66.8622 34.9179ZM66.9695 35.8335L66.9534 35.8176C67.0499 35.7217 67.1572 35.6419 67.1572 35.6419L67.1733 35.6579C67.0767 35.7537 66.9802 35.8442 66.9695 35.8282V35.8335ZM67.0821 36.3552C67.0821 36.3552 66.9587 36.4191 67.0553 36.3233C67.0392 36.3073 67.1626 36.2434 67.1787 36.2594L67.0821 36.3552ZM67.125 35.413C67.125 35.413 67.2216 35.3172 67.4254 35.1468C67.5077 35.1042 67.4808 35.1415 67.3449 35.2586L67.125 35.4183V35.413ZM67.6721 36.0092L67.6453 35.9773C67.7419 35.8814 67.8384 35.7909 67.8492 35.8016C67.9564 35.7217 67.876 35.8335 67.6721 36.0039V36.0092ZM67.8706 36.6214C67.8706 36.6214 67.7741 36.7172 67.7633 36.7013C67.7472 36.6853 67.8277 36.5735 67.8277 36.5735C67.9242 36.4777 67.935 36.4936 67.935 36.4936C67.9511 36.5096 67.9618 36.5256 67.8706 36.6214ZM67.8974 36.0571L67.8813 36.0411L67.9618 35.9293L67.9779 35.9453C67.9779 35.9453 67.994 35.9613 67.8974 36.0571ZM68.1334 36.9089C68.0369 37.0047 68.1174 36.8929 68.1066 36.8769C68.1603 36.8024 68.196 36.7758 68.2139 36.7971L68.1334 36.9089ZM68.4606 37.0686C68.4606 37.0686 68.5411 36.9568 68.6377 36.8663C68.7342 36.7705 68.7503 36.7864 68.5733 36.9941C68.5089 37.0579 68.4714 37.0846 68.4606 37.0739V37.0686ZM68.5626 37.1804L68.643 37.0686L68.7503 36.9887L68.7664 37.0047C68.6698 37.1005 68.5733 37.191 68.5626 37.1804ZM71.4001 36.7492C71.5449 36.9834 71.5289 36.9941 71.3518 36.7918C71.3411 36.7811 71.3357 36.7758 71.3304 36.7651C71.3304 36.7279 71.3411 36.6959 71.3411 36.664C71.3572 36.6906 71.3787 36.7172 71.4001 36.7492ZM71.2338 37.2975C71.3143 37.3933 71.325 37.4199 71.2338 37.3241C71.2338 37.3135 71.2338 37.3081 71.2338 37.2975ZM71.2553 37.1804C71.2607 37.1484 71.266 37.1165 71.2714 37.0899C71.3357 37.191 71.3197 37.2123 71.2553 37.1804ZM70.794 36.3765C70.9281 36.3765 71.0622 36.3765 71.0622 36.5628C71.3304 36.9302 71.0622 36.9302 70.794 36.5628C70.6152 36.4386 70.6152 36.3783 70.794 36.3819V36.3765ZM70.1342 34.7262C70.1771 34.7262 70.1825 34.7262 70.1342 34.7262V34.7262ZM69.7212 36.7385V36.7598C69.7212 36.7598 69.6997 36.7438 69.6944 36.7385C69.7051 36.7385 69.7105 36.7385 69.7212 36.7385ZM69.276 38.3515L69.3403 38.2291L69.4315 38.1333L69.4423 38.1439C69.3618 38.2557 69.2867 38.3675 69.276 38.3515ZM69.4584 36.5948C69.4584 36.5948 69.4584 36.6321 69.4691 36.648C69.4047 36.68 69.4047 36.6693 69.4584 36.5948ZM69.7158 38.442C69.6568 38.5751 69.5871 38.6923 69.5871 38.6923C69.5764 38.6763 69.7051 38.4314 69.7587 38.2983C69.7587 38.2983 69.7426 38.3462 69.7105 38.442H69.7158ZM70.0538 38.8147L70.0752 38.6443L70.1181 38.5006L70.1289 38.5113C70.0967 38.671 70.0645 38.8253 70.0538 38.8147ZM70.1557 37.7606C70.1664 37.7234 70.1825 37.6861 70.1932 37.6488H70.2039C70.1825 37.7181 70.1664 37.7713 70.161 37.766H70.1557V37.7606ZM70.5097 39.4801C70.5097 39.395 70.5097 39.4163 70.5097 39.4801V39.4801ZM70.8959 38.9797C70.8584 38.8253 70.8423 38.655 70.853 38.6443C70.853 38.6443 70.8691 38.6923 70.9013 38.7881C70.9281 38.9478 70.9013 38.9691 70.8905 38.9797H70.8959ZM71.3626 38.3835C71.3036 38.2557 71.2499 38.1173 71.2499 38.1173L71.2607 38.1067C71.325 38.2344 71.384 38.3622 71.3733 38.3728L71.3626 38.3835ZM71.4538 37.0526C71.3572 36.9568 71.3411 36.9728 71.3411 36.9728C71.3304 36.9834 71.3197 36.9887 71.2982 36.9728C71.3036 36.9355 71.3089 36.9036 71.3143 36.8663C71.3304 36.8876 71.3518 36.9142 71.3733 36.9408C71.4913 37.0757 71.5181 37.1112 71.4538 37.0473V37.0526ZM71.899 36.6533C71.8024 36.5575 71.8185 36.5469 71.8185 36.5469C71.8185 36.5469 71.8561 36.5735 71.9312 36.6267C71.9312 36.6267 72.0277 36.7226 72.0116 36.7332L71.899 36.6533ZM71.9955 36.3872L71.9151 36.2807L71.9312 36.2647C72.0277 36.3606 72.1189 36.4564 72.1082 36.467L71.9955 36.3872ZM72.8055 36.9195C72.784 36.9373 72.7465 36.9107 72.6928 36.8397C72.6124 36.7332 72.6285 36.7172 72.725 36.8131C72.7894 36.8769 72.8162 36.9124 72.8055 36.9195ZM72.9181 36.8184L72.8055 36.7385L72.8216 36.7226C72.8216 36.7226 72.8377 36.7066 72.9342 36.8024L72.9181 36.8184ZM73.079 36.6746L72.9664 36.5948L72.9825 36.5788C72.9825 36.5788 72.9986 36.5628 73.0951 36.6587L73.079 36.6746ZM72.9342 36.2594L72.9503 36.2434L73.063 36.3233C73.063 36.3233 73.1595 36.4191 73.1434 36.4298C73.1434 36.4298 73.0308 36.3499 72.9396 36.2541L72.9342 36.2594ZM73.7603 35.8761L73.6637 35.7803C73.5833 35.6738 73.5028 35.562 73.5993 35.6579C73.5993 35.6579 73.6959 35.7537 73.7764 35.8601C73.7764 35.8601 73.8568 35.9666 73.7603 35.8761ZM73.7442 34.8061C73.7442 34.8061 73.7603 34.7901 73.8568 34.8859C73.9534 34.9818 74.0338 35.0882 74.0177 35.1042C74.0016 35.1202 73.8139 34.9285 73.7495 34.8061H73.7442ZM76.0453 32.9109C75.9488 32.8151 75.8576 32.7193 75.8683 32.7086C75.7074 32.4904 75.9005 32.682 76.0561 32.9003C76.1741 33.0351 76.1687 33.0405 76.04 32.9163L76.0453 32.9109Z" fill="white"/>
</svg>
