<svg xmlns="http://www.w3.org/2000/svg" fill="none" viewBox="0 0 207 24"><path fill="#fff" d="M204.128 18.9589C203.298 19.0487 202.647 19.6545 202.423 20.3276C202.086 21.2923 202.557 22.1898 203.051 22.6161C204.352 23.7155 206.618 22.9975 206.618 21.068C206.618 20.709 206.573 20.4397 206.394 20.0808C206.08 19.4525 205.272 18.8243 204.15 18.9589H204.128ZM204.487 22.661C203.477 22.661 202.804 21.8308 202.894 20.866C202.961 20.2378 203.32 19.7891 203.769 19.5647C203.926 19.475 204.038 19.475 204.307 19.4301C205.317 19.3179 206.057 20.0808 206.057 21.0007C206.057 21.9206 205.407 22.6385 204.509 22.6385L204.487 22.661Z"/><path fill="#fff" d="M205.385 20.7314C205.542 19.7666 204.375 19.8788 203.657 19.991 203.657 20.6865 203.635 21.4494 203.657 22.1H204.151V21.2923C204.869 21.1353 204.756 21.741 204.958 22.1H205.474C205.34 21.741 205.34 21.2474 205.026 21.0455 205.183 20.9782 205.295 20.866 205.385 20.709V20.7314ZM204.151 20.8885V20.3724C204.465 20.3051 204.824 20.35 204.846 20.5743 204.869 20.866 204.532 20.9109 204.151 20.8885ZM5.85595.650635H0V22.7955H14.5613L16.4236 19.7666H5.85595V.650635ZM26.251 3.70201H35.4275L37.3122.650635H20.395V22.7955H35.45L37.3346 19.7666H26.251V12.9683H35.45L37.3346 9.91695H26.251V3.70201ZM51.3123 12.9683H57.7292V20.2154C51.4021 21.2475 46.9372 18.1063 46.9372 11.7568 46.9372 5.40722 51.6938 3.05138 56.1138 3.05138 58.7164 3.05138 61.4312 3.63473 63.4281 4.57706V.717971C61.521.269239 58.6267 0 55.8445 0 44.9628 0 40.3633 5.63158 40.3633 11.3305 40.3633 19.4525 47.0943 23.4462 56.1811 23.4462 59.8158 23.4462 62.5531 22.661 63.6749 22.302V9.89454H53.2194L51.3348 12.9459 51.3123 12.9683ZM73.9512 3.70201H83.1277L85.0124.650635H68.0952V22.7955H83.1502L85.0348 19.7666H73.9512V12.9683H83.1502L85.0348 9.91695H73.9512V3.70201ZM109.647.650635H106.035V15.0998L94.3457.650635H89.3872V22.7955H93.0219V8.32395L105.093 22.7955H109.647V.650635ZM125.286.650635H114.068V22.818H122.616C130.559 22.818 137.559 18.4877 137.559 10.2759 137.559 4.59948 133.745.650635 125.286.650635ZM122.235 19.7666H119.924V3.70201H123.783C129.459 3.70201 131.03 7.44892 131.03 11.4426 131.03 17.9492 125.914 19.7666 122.212 19.7666H122.235ZM146.219.650635 137.11 22.818H140.7L143.123 16.9845H151.514L153.848 22.818H160.175L151.021.650635H146.219ZM144.312 13.9331 147.319 6.34953 150.235 13.9331H144.312ZM182.23 5.69887C182.23 3.29815 180.771.650635 174.983.650635H163.585V22.818H169.441V13.0356H170.54L176.957 22.818H183.823L176.508 12.1382C177.765 11.8465 182.252 10.074 182.252 5.7213L182.23 5.69887ZM171.303 10.1413H169.418V3.70201H171.954C173.704 3.70201 176.06 4.08343 176.06 6.64121 176.06 9.19898 173.502 10.1413 171.303 10.1413ZM203.006.650635 196.791 10.2984 190.778.650635H184.025L192.685 14.2248V22.7955H198.519V13.9555L207 .650635H203.006Z"/></svg>