<svg xmlns="http://www.w3.org/2000/svg" fill="none" viewBox="0 0 174 40"><g clip-path="url(#a)"><path fill="#fff" fill-rule="evenodd" d="M28.5255 8.63251C19.7562 8.63251 16.1415 15.1391 16.1415 20.1314C16.1415 26.337 21.0922 31.3675 27.1942 31.3675C33.2962 31.3675 38.247 26.337 38.247 20.1314C38.247 18.058 37.7258 16.128 36.6741 14.3461C41.8049 15.8701 46.8835 20.0119 48.0916 21.2684C44.728 29.0935 37.0199 34.2482 27.2321 34.2482C17.4443 34.2482 9.64627 29.0696 5.45826 20.3846C8.77456 11.4845 17.7143 4.92058 28.5255 4.92058C35.845 4.92058 44.3442 7.3522 50.9815 12.5642C51.8248 9.67395 51.7964 7.03213 51.7964 7.03213C51.7964 7.03213 41.9896 0 28.5302 0C12.9294 0 3.08948 10.7584 0.370117 20.3846C3.51112 29.8053 13.0621 39.1592 27.199 39.1592C41.3359 39.1592 50.8299 29.8053 54.0373 20.3846C47.9542 13.5244 38.5407 8.63251 28.5302 8.63251M27.199 26.4517C23.7642 26.4517 20.9833 23.6236 20.9833 20.1362C20.9833 16.6488 23.769 13.8158 27.199 13.8158C30.629 13.8158 33.4146 16.644 33.4146 20.1362C33.4146 23.6283 30.6337 26.4517 27.199 26.4517ZM165.138 35.2275L166.493 33.0061C167.545 33.8278 168.658 34.3389 169.62 34.3389C170.491 34.3389 170.866 33.9185 170.866 33.4313V33.3883C170.866 32.7003 169.989 32.4089 168.724 31.8548C167.066 31.1191 165.64 30.2783 165.64 28.2575V28.2145C165.64 25.9262 167.388 24.5742 169.662 24.5742C170.927 24.5742 172.353 25.0185 173.528 25.8593L172.282 28.1285C171.41 27.5505 170.449 27.1062 169.62 27.1062C168.876 27.1062 168.483 27.4836 168.483 27.9517V27.9947C168.483 28.6158 169.354 28.9693 170.6 29.5521C172.306 30.3738 173.703 31.2385 173.703 33.1303V33.1781C173.703 35.6431 171.913 36.8852 169.572 36.8852C167.9 36.8661 166.422 36.3215 165.138 35.2418M153.63 24.7558H156.733V26.3561C157.411 25.4007 158.264 24.536 159.747 24.536C161.935 24.536 163.2 26.0886 163.2 28.5537V36.6607H160.097V29.4853C160.097 28.0855 159.486 27.3737 158.439 27.3737C157.392 27.3737 156.733 28.0855 156.733 29.4853V36.6607H153.63V24.7558ZM141.066 30.8659V30.6222C141.066 27.0918 143.426 24.536 146.595 24.536C149.765 24.536 152.081 27.0488 152.081 30.5984V30.842C152.081 34.3724 149.741 36.9282 146.576 36.9282C143.411 36.9282 141.071 34.4154 141.071 30.8659M149.025 30.8229V30.6652C149.025 28.7352 148.064 27.2686 146.576 27.2686C145.089 27.2686 144.127 28.7113 144.127 30.6461V30.799C144.127 32.7099 145.107 34.1956 146.595 34.1956C148.083 34.1956 149.021 32.7529 149.021 30.8181M135.893 23.4898H139.129V20.6234H135.893V23.4898ZM135.959 36.6607H139.062V24.7558H135.959V36.6607ZM128.128 33.6845V27.4215H126.948V24.7558H128.128V21.7126H131.231V24.7558H133.548V27.4215H131.231V33.0395C131.231 33.7275 131.539 34.0571 132.193 34.0571C132.671 34.0571 133.131 33.9233 133.524 33.7275V36.2403C132.818 36.6607 132.056 36.8661 131.231 36.8613C129.436 36.8613 128.128 36.1495 128.128 33.6845ZM121.775 23.4898H125.011V20.6234H121.775V23.4898ZM121.841 36.6607H124.944V24.7558H121.841V36.6607ZM108.33 30.885V30.5315C108.33 26.466 110.452 24.536 112.788 24.536C114.361 24.536 115.28 25.4007 115.957 26.2893V20.6234H119.06V36.6607H115.957V35.0173C115.28 36.0205 114.342 36.8852 112.788 36.8852C110.471 36.8852 108.33 34.9504 108.33 30.8898M116 30.8229V30.6031C116 28.5823 114.996 27.2925 113.702 27.2925C112.409 27.2925 111.428 28.5823 111.428 30.6031V30.8229C111.428 32.8437 112.414 34.1287 113.702 34.1287C114.991 34.1287 116 32.8389 116 30.8229ZM96.8885 30.8468V30.6461C96.8885 27.1157 99.0536 24.536 102 24.536C105.345 24.536 106.984 27.3116 106.984 30.8659C106.984 31.0426 106.984 31.42 106.961 31.8834H99.968C100.233 33.4599 101.195 34.2864 102.503 34.2864C103.464 34.2864 104.208 33.8421 104.947 33.1112L106.544 35.0221C105.473 36.2212 104.118 36.933 102.37 36.933C99.2668 36.933 96.8838 34.5539 96.8838 30.8468M103.985 29.8005C103.853 28.1572 103.156 27.1348 101.996 27.1348C100.835 27.1348 100.115 28.1094 99.9395 29.8005H103.985ZM84.8078 24.7605H87.9109V26.4039C88.5883 25.4007 89.5264 24.536 91.0803 24.536C93.397 24.536 95.5383 26.466 95.5383 30.5315V30.885C95.5383 34.9504 93.4207 36.8804 91.0803 36.8804C89.5074 36.8804 88.5646 36.0158 87.9109 35.1272V40.0143H84.8078V24.7558V24.7605ZM92.4352 30.8229V30.6031C92.4352 28.5823 91.4498 27.2925 90.1612 27.2925C88.8726 27.2925 87.8682 28.5823 87.8682 30.6031V30.8229C87.8682 32.8437 88.8726 34.1287 90.1612 34.1287C91.4498 34.1287 92.4352 32.8389 92.4352 30.8229ZM77.6683 28.2432L79.5254 24.7558H82.7374L79.3501 30.5506L82.8654 36.6607H79.568L77.6209 32.9535L75.6548 36.6607H72.419L75.9154 30.5984L72.5469 24.7558H75.8253L77.6588 28.2432M61.1247 21.1155H70.9788V24.0248H64.2704V27.3785H70.1687V30.2878H64.2704V33.7561H71.0641V36.6655H61.1199V21.0964M133.278 10.9065V10.5482C133.278 6.48752 135.395 4.55273 137.736 4.55273C139.309 4.55273 140.228 5.41741 140.905 6.30598V0.640153H144.008V16.6774H140.905V15.034C140.228 16.0325 139.285 16.9019 137.736 16.9019C135.419 16.9019 133.278 14.9672 133.278 10.9065ZM140.948 10.8396V10.6198C140.948 8.59907 139.944 7.30921 138.655 7.30921C137.366 7.30921 136.381 8.59907 136.381 10.6198V10.8396C136.381 12.8604 137.366 14.1502 138.655 14.1502C139.944 14.1502 140.948 12.8604 140.948 10.8396ZM121.6 13.2808V13.147C121.6 10.5243 123.282 9.3491 125.688 9.3491C126.536 9.3491 127.351 9.50675 128.138 9.83638V9.48286C128.138 8.10223 127.327 7.3952 125.93 7.3952C124.835 7.3952 123.964 7.74872 123.244 8.05924L122.391 5.59417C123.642 4.93491 124.978 4.61483 126.389 4.63872C127.986 4.63872 129.185 5.083 129.952 5.8617C130.762 6.68339 131.155 7.92547 131.155 9.45897V16.6774H128.119V15.3876C127.417 16.3191 126.46 16.8972 125.082 16.8972C123.158 16.8972 121.604 15.5882 121.604 13.276M128.18 12.7648V11.7664C127.631 11.5132 127.057 11.389 126.451 11.389C125.314 11.389 124.594 11.967 124.594 13.0563V13.0992C124.594 14.0738 125.205 14.5659 126.105 14.5898C127.304 14.6089 128.18 13.8541 128.18 12.7696V12.7648ZM115.986 16.6726H119.089V0.640153H115.986V16.6774V16.6726ZM106.416 15.1391V16.6726H103.313V0.640153H106.416V6.41586C107.093 5.41741 108.031 4.54795 109.585 4.54795C111.902 4.54795 114.043 6.48274 114.043 10.5434V10.9017C114.043 14.9672 111.926 16.8972 109.585 16.8972C108.012 16.8972 107.074 16.0277 106.416 15.1439V15.1391ZM110.94 10.83V10.6103C110.94 8.58951 109.955 7.29965 108.666 7.29965C107.378 7.29965 106.373 8.58951 106.373 10.6103V10.83C106.373 12.8508 107.378 14.1407 108.666 14.1407C109.955 14.1407 110.94 12.8508 110.94 10.83ZM89.8675 10.8969V10.5386C89.8675 6.47796 91.9852 4.54317 94.3255 4.54317C95.8984 4.54317 96.8175 5.40786 97.495 6.29643V0.640153H100.598V16.6774H97.495V15.034C96.8175 16.0325 95.8795 16.9019 94.3255 16.9019C92.0089 16.9019 89.8675 14.9672 89.8675 10.9065V10.8969ZM97.5376 10.83V10.6103C97.5376 8.58951 96.5332 7.29965 95.2446 7.29965C93.956 7.29965 92.9706 8.58951 92.9706 10.6103V10.83C92.9706 12.8508 93.956 14.1407 95.2446 14.1407C96.5332 14.1407 97.5376 12.8508 97.5376 10.83ZM78.5494 4.76771H81.6525V6.36331C82.33 5.40786 83.1828 4.54317 84.6656 4.54317C86.8544 4.54317 88.1193 6.09578 88.1193 8.56085V16.6679H85.0162V9.49242C85.0162 8.09268 84.4051 7.38087 83.3581 7.38087C82.3111 7.38087 81.6525 8.0879 81.6525 9.49242V16.6679H78.5494V4.77248M72.4095 3.50651H75.6406V0.640153H72.4095V3.50651ZM72.4759 16.6774H75.579V4.77248H72.4759V16.6774ZM61.1294 1.12743H64.2988V13.7251H70.4814V16.6774H61.1294V1.12743Z" clip-rule="evenodd"/></g><defs><clipPath id="a"><path fill="#fff" d="M0 0H173.333V40H0z" transform="translate(.370117)"/></clipPath></defs></svg>