<svg width="24" height="23" viewBox="0 0 24 23" fill="none" xmlns="http://www.w3.org/2000/svg">
<path d="M0.43125 8.1376H5.30625V22.8751H0.43125V8.1376ZM17.8875 7.6501C15.75 7.6501 14.475 8.4376 13.125 10.1626V8.1376H8.25V22.8751H13.1625V14.8876C13.1625 13.2001 14.025 11.5501 15.975 11.5501C17.925 11.5501 19.0875 13.2001 19.0875 14.8501V22.8751H24V14.5126C24 8.7001 20.0625 7.6501 17.8875 7.6501ZM2.8875 0.975098C1.275 0.975098 0 2.1376 0 3.5626C0 4.9876 1.275 6.1501 2.8875 6.1501C4.5 6.1501 5.775 4.9876 5.775 3.5626C5.775 2.1376 4.5 0.975098 2.8875 0.975098Z" fill="white"/>
</svg>
