<svg xmlns="http://www.w3.org/2000/svg" fill="none" viewBox="0 0 150 40"><g fill="#fff" clip-path="url(#a)"><path d="M68.4531 0C69.6774.018377 70.898-.018377 72.1223.018377 72.1003 1.02178 72.1186 2.02518 72.1113 3.02858 70.8943 3.02858 69.6737 3.02858 68.4605 3.03225 68.4568 2.0215 68.4605 1.01075 68.4568 0M88.2573.011026C89.4779-.003675 90.6985.014702 91.9192 0 91.9118 6.11964 91.9118 12.2356 91.9192 18.3552 90.7022 18.3479 89.4889 18.3442 88.2757 18.3552 88.2463 12.2393 88.2757 6.12331 88.2573.007351M137.544.058854C137.914-.014655 138.291-.003629 138.669.003722 142.327.007398 145.985-.003629 149.643.007398 149.856-.033032 149.904.187495 149.885.35289 149.885 12.515 149.885 24.6734 149.885 36.8355 149.86 37.769 149.944 38.7063 149.838 39.6362 145.839 39.6325 141.839 39.6362 137.84 39.6362 137.576 39.695 137.507 39.3789 137.54 39.1878 137.547 26.1436 137.54 13.1031 137.544.058854ZM118.92.246239C119.052.084519 119.308.029387 119.433.231537 124.788 5.60505 130.143 10.9786 135.495 16.3521 135.645 16.466 135.612 16.6572 135.631 16.8262 132.837 19.5902 130.07 22.3835 127.303 25.1732 127.2 25.3165 127.068 25.3606 126.907 25.3055 121.771 20.1488 116.625 14.9995 111.501 9.83918 111.189 9.54882 110.867 9.26213 110.614 8.91664 110.456 8.70346 110.691 8.51602 110.823 8.37267 113.524 5.66386 116.218 2.95138 118.916.242563M37.9522 1.0879C39.1875 1.10995 40.4228 1.05482 41.6544 1.1173 41.4858 2.39636 41.7423 3.69012 41.5591 4.97285 42.4424 5.18235 43.3771 5.01328 44.2789 5.06474 44.2789 5.87702 44.2789 6.68929 44.2825 7.49789 43.4285 7.50157 42.5707 7.47584 41.7167 7.50524 41.6837 7.53097 41.614 7.5861 41.5811 7.61183 41.6544 8.40573 41.5297 9.2033 41.603 9.9972 41.6947 10.8279 41.5151 11.6585 41.5994 12.4892 41.6764 13.25 41.5811 14.0145 41.6654 14.7753 41.746 15.1502 42.0319 15.5471 42.4388 15.5839 43.0509 15.6427 43.6704 15.6059 44.2862 15.5545 44.2752 16.5064 44.2862 17.4584 44.2789 18.4103 43.2085 18.5096 42.1309 18.5426 41.0569 18.4655 40.2578 18.3883 39.4038 18.2082 38.7989 17.6422 38.1868 17.0651 37.9449 16.194 37.9559 15.3707 37.9559 12.7464 37.9595 10.1222 37.9559 7.49789 37.2228 7.49789 36.4934 7.49422 35.7603 7.50157 35.7603 6.68929 35.7603 5.87334 35.7603 5.06106 36.4897 5.06841 37.2191 5.06474 37.9486 5.06841 37.9559 3.74157 37.9559 2.41473 37.9486 1.0879M6.85088 4.88832C8.0385 4.57591 9.33975 4.65309 10.4614 5.15295 11.1798 5.50947 11.7626 6.12695 12.0889 6.86204 12.6607 6.18208 13.2838 5.5058 14.1049 5.13458 15.3072 4.57591 16.7001 4.61634 17.9647 4.92875 19.1083 5.20073 20.1346 6.03874 20.5415 7.15608 20.8164 7.78826 20.9447 8.47924 20.963 9.17023 20.963 12.2319 20.9594 15.2899 20.9667 18.3515 19.7534 18.3515 18.5438 18.3515 17.3305 18.3515 17.3855 17.0798 17.2499 15.8081 17.3379 14.5364 17.3379 13.9483 17.2792 13.3566 17.3195 12.7722 17.3818 12.1216 17.2352 11.4747 17.3269 10.8279 17.2535 9.94942 17.3415 8.9497 16.7367 8.22931 16.3079 7.64491 15.5234 7.542 14.849 7.58611 13.9876 7.60081 13.1885 8.22564 12.9173 9.03791 12.7303 9.61128 12.6607 10.2177 12.668 10.8205 12.6717 13.3308 12.668 15.8412 12.6717 18.3515 11.4511 18.3515 10.2341 18.3331 9.01352 18.3625 8.99153 15.5361 9.01352 12.706 9.00253 9.87959 8.9732 9.27314 8.88523 8.60053 8.41605 8.1705 7.84423 7.50525 6.83989 7.46849 6.05914 7.7074 5.01814 8.10802 4.37668 9.18125 4.35468 10.2765 4.32902 12.9707 4.35835 15.6648 4.34002 18.3625 3.13041 18.3368 1.91713 18.3625.70752 18.3478.722181 13.9189.703854 9.49367.711185 5.06474 1.85848 5.06474 3.00945 5.07944 4.15675 5.05372 4.16041 5.65282 4.14575 6.25559 4.17141 6.85469 4.82753 5.94318 5.74757 5.16398 6.85088 4.88832ZM24.6028 5.88439C26.0873 4.78176 28.0337 4.66782 29.8151 4.7156 31.2776 4.80748 32.9051 4.98023 34.0011 6.07184 34.6682 6.61948 34.9211 7.5163 34.9358 8.3543 34.9468 10.8683 34.9285 13.386 34.9431 15.9 34.9981 16.727 35.0164 17.5907 35.3867 18.3515 34.1514 18.3515 32.9124 18.3479 31.6772 18.3552 31.5635 17.9583 31.4829 17.5503 31.4536 17.1386 30.8085 17.6863 30.101 18.1972 29.2689 18.3993 27.5902 18.8624 25.6731 18.8992 24.1226 18.0134 23.5618 17.5723 22.9826 17.0615 22.7627 16.3558 22.3192 15.1318 22.3778 13.6947 23.0266 12.5517 23.4738 11.9857 24.031 11.4711 24.7274 11.2359 26.3915 10.5816 28.2206 10.6588 29.9434 10.2398 30.4419 10.1075 31.0394 9.9274 31.2263 9.38343 31.3839 8.80638 31.2776 8.13377 30.8891 7.67067 30.134 7.04951 29.0637 7.13037 28.151 7.23329 27.2273 7.35458 26.5711 8.22566 26.5272 9.12615 25.3066 9.12615 24.0823 9.12615 22.8617 9.12615 22.9533 7.86914 23.5288 6.58273 24.6064 5.88439M26.89 13.1361C26.091 13.5698 25.97 14.6871 26.3329 15.4479 26.6261 16.0066 27.2969 16.172 27.8724 16.2455 28.8804 16.3374 30.0607 16.172 30.7058 15.3009 31.4792 14.3563 31.2666 13.0552 31.2886 11.9232 29.9361 12.7024 28.2133 12.2797 26.89 13.1361ZM50.3968 4.76345C52.0426 4.56865 53.8387 4.83696 55.1693 5.89181 57.0643 7.30319 57.8341 9.76942 57.8524 12.0592 57.8084 12.221 57.9477 12.6032 57.6618 12.5701 54.5242 12.5848 51.3865 12.5701 48.2488 12.5738 48.2708 13.5074 48.4651 14.5475 49.2165 15.176 49.715 15.7567 50.5068 15.9038 51.2289 15.9736 52.4861 16.0508 53.8717 15.4223 54.3849 14.2204 55.4405 14.213 56.4962 14.2167 57.5519 14.2204 57.068 15.9515 55.8877 17.5504 54.1906 18.2303 52.4568 18.8735 50.5031 18.8809 48.751 18.3038 46.5077 17.5504 44.9389 15.3671 44.6823 13.0443 44.4001 11.1404 44.708 9.08578 45.8333 7.49064 46.845 5.95797 48.5787 4.94722 50.3968 4.76345ZM49.2385 8.16692C48.6007 8.65943 48.3038 9.46803 48.2415 10.2509 50.2172 10.2436 52.1892 10.2436 54.1649 10.2509 53.9377 9.21443 53.4832 8.01255 52.3945 7.6303 51.3535 7.31054 50.0596 7.37302 49.2422 8.16692M79.4311 4.73025C80.67 4.66042 81.9273 4.71923 83.1369 5.00224 84.0899 5.22644 85.0136 5.7263 85.5781 6.54593 86.007 7.14503 86.1243 7.90585 86.128 8.62624 86.1243 11.0116 86.128 13.397 86.128 15.7824 86.1243 16.6534 86.2013 17.5429 86.5385 18.3552 85.3032 18.3368 84.0679 18.3552 82.8327 18.3478 82.7374 17.9362 82.6641 17.5245 82.5944 17.1129 81.3482 18.414 79.4531 18.7889 77.7193 18.7043 76.704 18.6272 75.6263 18.3846 74.8602 17.6679 73.8925 16.907 73.5956 15.5839 73.6616 14.4077 73.7276 13.5403 73.9658 12.5957 74.6586 12.015 75.8023 10.9124 77.4774 10.7984 78.9656 10.5853 80.0322 10.3941 81.2345 10.4346 82.1362 9.75093 82.829 9.00481 82.4038 7.54933 81.3958 7.30307 80.5637 7.1046 79.6327 7.06784 78.8226 7.38026 78.1152 7.65959 77.7816 8.40204 77.679 9.1114 76.4657 9.13713 75.2488 9.1261 74.0355 9.11507 74.1125 7.77721 74.7759 6.43199 75.9599 5.74468 76.9716 5.03899 78.2252 4.82949 79.4311 4.72658M77.9172 13.2206C77.2501 13.6873 77.1988 14.6393 77.4591 15.3486 77.7046 15.9955 78.4634 16.1867 79.0829 16.2455 80.1055 16.3263 81.3445 16.1462 81.931 15.1906 82.6494 14.2534 82.4295 13.0074 82.4661 11.9084 81.0659 12.717 79.2552 12.2466 77.9209 13.2206M59.1646 5.06843C60.3302 5.06107 61.4958 5.06843 62.6578 5.06108 62.6578 5.50581 62.6541 5.95054 62.6761 6.39527 63.2772 6.03875 63.7721 5.4911 64.4502 5.25955 65.4399 4.93243 66.4955 5.10518 67.5145 5.06108 67.5145 6.09388 67.5145 7.13036 67.5145 8.16316 66.3489 8.23299 65.0843 7.93896 64.0067 8.51233 63.094 8.93868 62.6908 10.0046 62.6614 10.9565 62.6578 13.4191 62.6578 15.8853 62.6614 18.3479 61.5141 18.3405 60.3632 18.3626 59.2159 18.3368 59.2049 18.289 59.1792 18.1898 59.1646 18.142 59.1646 13.7829 59.1646 9.42384 59.1646 5.06475M68.4568 5.05371C69.6737 5.07576 70.8907 5.05739 72.1076 5.06474 72.1003 9.49734 72.1223 13.9263 72.0966 18.3589 70.8833 18.3442 69.6664 18.3478 68.4531 18.3589 68.4531 13.9226 68.4531 9.48999 68.4531 5.05371M104.268 16.1242C107.769 16.0911 111.273 16.1205 114.774 16.1095 115.382 16.1279 115.994 16.0617 116.599 16.1646 116.614 23.839 116.599 31.5133 116.607 39.1877 116.607 39.3568 116.559 39.5111 116.46 39.6471 112.406 39.6251 108.352 39.6471 104.298 39.6361 104.265 39.3935 104.243 39.1509 104.246 38.9083 104.268 31.3149 104.224 23.7177 104.268 16.1242ZM35.7642 39.6398C35.7605 33.5055 35.7568 27.3748 35.7642 21.2442 36.9555 21.2442 38.1504 21.2626 39.3454 21.2332 39.5213 21.88 39.3857 22.5563 39.4187 23.2142 39.47 24.0853 39.3344 24.9564 39.4187 25.8275 39.481 26.5479 39.2867 27.2719 39.47 27.985 39.7082 27.4667 40.1408 27.0735 40.6283 26.7941 42.7616 25.3754 45.9579 25.787 47.5267 27.8637 48.0436 28.4076 48.3515 29.1023 48.6007 29.8043 49.3705 32.0758 49.2898 34.6412 48.3295 36.8391 47.622 38.471 46.0715 39.717 44.2974 39.9486 42.9229 40.0919 41.4677 39.8971 40.2874 39.1363 39.8109 38.8606 39.5543 38.3571 39.2134 37.9455 39.2134 38.5078 39.2171 39.0701 39.2134 39.6325 38.0624 39.6325 36.9115 39.6288 35.7568 39.6325M41.6619 28.8046C41.3064 28.9075 40.9655 29.0766 40.6759 29.3081 39.7852 29.9513 39.459 31.0981 39.327 32.1419 39.1987 33.5533 39.3234 35.119 40.2397 36.2658 41.3137 37.6294 43.7256 37.5301 44.642 36.0379 45.551 34.5714 45.6867 32.6859 45.1625 31.0577 44.9206 30.3005 44.5284 29.5213 43.7953 29.1427 43.1721 28.7311 42.384 28.6465 41.6656 28.8083M79.314 21.2478C80.5346 21.2478 81.7515 21.2478 82.9721 21.2478 82.9868 24.519 82.9538 27.7901 82.9868 31.0576 83.5549 30.5945 83.9728 29.9807 84.5153 29.4882 85.549 28.4481 86.5313 27.3528 87.5723 26.3273 89.0129 26.3053 90.4534 26.3273 91.8976 26.32 90.2665 27.9702 88.5473 29.5397 86.9309 31.2046 87.0812 31.642 87.433 31.9765 87.6493 32.3845 89.2511 34.7992 90.8383 37.2177 92.4401 39.6325 90.9592 39.6325 89.482 39.6325 87.9975 39.6325 87.0885 38.1476 86.1941 36.6553 85.2667 35.1815 84.9662 34.6963 84.7499 34.145 84.3174 33.7628 83.9068 34.2369 83.3863 34.6081 82.9868 35.0786 82.9428 36.5929 82.9868 38.1145 82.9685 39.6288 81.7479 39.6288 80.5272 39.6288 79.3066 39.6288 79.3066 33.4981 79.3066 27.3711 79.3066 21.2405M51.991 27.2939C53.6038 26.0884 55.7224 25.8568 57.6761 26.0002 59.0544 26.0553 60.4802 26.3971 61.5725 27.2829 62.181 27.9261 62.5586 28.8009 62.5512 29.694 62.5586 31.936 62.5512 34.1818 62.5512 36.4275 62.5402 37.508 62.5622 38.6327 62.9838 39.6435 61.7522 39.6325 60.5242 39.6398 59.2926 39.6435 59.1607 39.2318 59.0837 38.8092 59.0617 38.3791 57.9804 39.4707 56.4225 39.9596 54.916 39.9963 53.6074 40.0735 52.2182 39.7795 51.1992 38.9157 49.7367 37.4786 49.6414 34.8764 51.0086 33.3474 51.716 32.7299 52.5958 32.322 53.5158 32.1492 54.8134 31.8809 56.1476 31.8515 57.4452 31.5795 57.9914 31.4729 58.5302 31.1826 58.8088 30.6827 59.0287 29.9917 58.7868 29.1721 58.193 28.7494 57.7531 28.4664 57.2033 28.4591 56.7011 28.4297 56.001 28.4223 55.2019 28.5068 54.7034 29.0618 54.3149 29.422 54.1976 29.9587 54.1316 30.4622 52.911 30.4548 51.6904 30.4622 50.4698 30.4585 50.5431 29.2566 51.0196 28.0548 51.9873 27.3013M55.4805 34.02C55.026 34.134 54.5495 34.281 54.2122 34.6265 53.7064 35.0822 53.6074 35.8541 53.8017 36.4789 54.0253 37.1111 54.7034 37.4676 55.3412 37.5154 56.3382 37.644 57.4819 37.475 58.204 36.7105 58.9957 35.7181 58.9224 34.3766 58.9224 33.1784 57.8667 33.7627 56.6241 33.7223 55.4805 34.0164M68.0788 28.2165C68.9109 26.8382 70.4797 25.9855 72.0779 25.9561 73.2728 25.9671 74.5741 26.1251 75.5161 26.9411 76.4032 27.599 76.7257 28.731 76.9053 29.7712 77.0373 30.9289 76.9787 32.0977 76.9933 33.2592 76.9897 35.3873 77.0043 37.5154 76.9896 39.6435 75.7837 39.6361 74.5778 39.6435 73.3755 39.6435 73.3681 37.1956 73.3718 34.7477 73.3755 32.2999 73.3461 31.4288 73.3168 30.5026 72.866 29.7307 72.4591 29.0471 71.5867 28.8486 70.8426 28.8891 70.0545 28.9221 69.1638 29.2015 68.7863 29.9586 68.1302 31.0319 68.2255 32.3403 68.2218 33.5459 68.2218 35.5784 68.2218 37.6109 68.2218 39.6435 67.0048 39.6435 65.7879 39.6435 64.571 39.6435 64.571 35.2072 64.5673 30.7672 64.571 26.3273 65.7256 26.3273 66.8802 26.3309 68.0349 26.3273 68.0642 26.9595 67.9799 27.599 68.0825 28.2238"/></g><defs><clipPath id="a"><path fill="#fff" d="M0 0H149.189V40H0z" transform="translate(.703613)"/></clipPath></defs></svg>