<svg width="71" height="80" viewBox="0 0 71 80" fill="none" xmlns="http://www.w3.org/2000/svg">
<path d="M3.9732 48.4297C3.9732 41.151 7.39332 38.4106 8.07295 31.4826C7.13023 37.5555 3.11816 42.4445 3.11816 48.4297C3.11816 50.7317 3.46895 52.7926 3.9732 54.678C6.45059 63.0749 13.9924 67.6789 21.1834 69.5643C10.1338 66.7361 3.9732 57.3308 3.9732 48.4297ZM67.7496 48.4297C67.7496 44.6589 66.7192 41.6772 65.601 38.9367C64.2418 35.692 62.7729 32.6884 62.7729 29.0052C62.7729 37.8186 66.9603 40.3837 66.9603 48.4297C66.9603 57.3308 60.8874 66.7361 49.7501 69.5643C59.7912 66.9992 67.7496 59.6328 67.7496 48.4297Z" fill="white"/>
<path d="M64.0665 13.1762C61.7645 12.4966 60.1202 10.7865 59.1117 8.04607L57 1L55.7793 5.72214C57.9936 15.5659 66.0397 16.2456 66.0397 16.2456L69.2844 14.7109L64.0665 13.1762ZM25.8972 49.0217L21.7097 42.5103L16.9961 46.0181C16.9961 46.0181 18.6185 46.1058 18.6185 47.8159V60.0494L21.9509 57.572V48.934L25.7218 54.7438L29.2296 52.091V36.8759L25.8972 39.3533V49.0217ZM39.4242 34.815L35.6533 37.6432V31.9869L30.6108 35.7578C30.6108 35.7578 32.2331 35.8455 32.2331 37.5555V49.789L35.6533 47.2239V41.6553L39.4242 38.8271V44.4834L42.6689 42.0937V26.769L39.4242 29.2464V34.815ZM48.8295 33.4558V22.0773L43.787 25.8482C43.787 25.8482 45.4094 25.9359 45.4094 27.646V39.8794L54.8147 32.7761C54.6393 30.3864 54.8147 28.9175 54.8147 28.9175L48.8295 33.4558Z" fill="white"/>
<path d="M5.85913 29.0053C5.85913 37.6432 1.58398 39.3533 1.58398 48.4298C1.58398 51.1702 2.14497 54.198 3 56.5C3.26309 55.9958 4.06152 55.3289 4.5 55C3.90806 53.1146 3.14058 50.7318 3.14058 48.4298C3.14058 42.5323 7.15264 37.5556 8.09536 31.4827C8.18305 30.7153 8.18306 29.8603 8.18306 29.0053C8.27076 22.0773 4.93834 16.2456 4.93834 16.2456L1.6936 14.7109L3.90792 19.7534C5.00411 22.3185 5.85913 25.4975 5.85913 29.0053Z" fill="white"/>
<path d="M62.7729 29.0053C62.7729 32.6885 64.2199 35.6043 65.6011 38.9368L67.3989 38.8491C66.2808 36.1086 65.1846 33.4558 65.1846 29.0053C65.1846 25.4975 66.0396 22.3404 67.1577 19.7534L69.5 14.5L66.0396 16.2456C66.0396 16.2456 62.7729 22.0773 62.7729 29.0053Z" fill="white"/>
<path d="M32.9132 72.217C30.2604 71.2743 26.5772 70.9235 21.2717 69.5642C13.993 67.7665 6.5608 63.0529 4.06148 54.678C3.62301 55.1165 3.20645 55.6207 2.94336 56.1249C5.77153 64.171 12.9625 69.8273 20.6578 71.8662C25.6126 73.1597 27.9365 73.2255 31.6197 74.2559C32.124 74.7602 35.4783 78.4434 35.4783 78.4434V74.9356C35.4783 74.9575 33.264 72.4801 32.9132 72.217Z" fill="white"/>
<path d="M21.8631 67.1745C27.7606 68.6214 31.6192 68.7968 34.1843 70.0903C34.1843 70.0903 35.127 70.9454 35.4778 71.3838C35.8285 70.9454 36.7713 70.0903 36.7713 70.0903C39.3364 68.7968 43.1949 68.6434 49.0925 67.1745C56.5465 65.289 64.5926 58.7119 64.5926 48.4296C64.5926 41.0632 60.4051 38.3227 60.4051 29.0051C60.4051 22.6691 62.7948 17.802 62.7948 17.802C62.7948 17.802 57.3139 16.6839 54.7488 9.756C54.7488 9.756 51.0656 13.1761 46.0231 13.1761C39.6871 13.1761 35.4997 8.72559 35.4997 8.72559C35.4997 8.72559 31.3122 13.1761 24.9763 13.1761C19.9338 13.1761 16.2506 9.756 16.2506 9.756C13.6855 16.6839 8.20454 17.802 8.20454 17.802C8.20454 17.802 10.5942 22.6911 10.5942 29.0051C10.5942 38.3447 6.40678 41.0632 6.40678 48.4296C6.38486 58.7776 14.4309 65.289 21.8631 67.1745ZM61.9179 48.4296C61.9179 57.1553 54.99 62.8993 48.4786 64.6094C43.765 65.8152 38.1305 66.4071 36.3328 67.4375C35.8943 67.7006 35.4778 68.2049 35.4778 68.2049C35.4778 68.2049 34.9735 67.7006 34.6227 67.4375C32.9127 66.4948 27.1686 65.8152 22.4769 64.6094C22.3016 64.5217 22.1262 64.5217 21.9727 64.434L58.7828 36.7881C60.0324 41.2386 61.9179 44.0668 61.9179 48.4296ZM59.2651 19.3367C58.4978 21.551 57.6427 25.0807 57.6427 29.0051C57.6427 30.6275 57.7304 32.1621 57.9935 33.4556L18.5307 63.0747C13.5759 60.5096 9.2788 55.6206 9.03764 48.9558L54.398 14.8862C56.0204 17.1005 57.8181 18.4817 59.2651 19.3367ZM13.3128 29.0051C13.3128 24.9931 12.4578 21.551 11.6904 19.3367C13.4005 18.394 15.6367 16.6839 17.3468 13.7681C19.2322 14.7985 21.885 15.9166 24.9543 15.9166C29.668 15.9166 33.3512 13.8558 35.4778 12.3211C37.6263 13.8558 41.2876 15.9166 46.0012 15.9166C46.7685 15.9166 47.4482 15.8289 48.1497 15.7412L9.5419 44.6587C10.66 40.2959 13.3128 36.7004 13.3128 29.0051Z" fill="white"/>
<path d="M24.955 10.7646C31.291 10.7646 35.4784 5.37136 35.4784 5.37136V1.95124L32.146 5.19597C30.4359 6.90603 27.6955 8.28723 24.955 8.28723C22.8941 8.28723 20.9429 7.3445 19.2986 5.98523L14.1685 1.71008L15.2866 5.72214C15.1989 5.72214 20.066 10.7646 24.955 10.7646Z" fill="white"/>
<path d="M67.7499 48.4297C67.7499 59.6328 59.7915 66.9992 49.6847 69.5643C44.3791 70.9235 40.6959 71.2743 38.0431 72.217C37.6923 72.5678 35.478 74.9575 35.478 74.9575V78.4653C35.478 78.4653 38.8981 74.7821 39.3366 74.2779C43.0198 73.2475 45.3218 73.1598 50.2985 71.8882C60.3177 69.3231 69.3942 60.5974 69.3942 48.4297C69.3942 44.0669 68.4514 41.4141 67.421 38.849L65.6233 38.9367C66.7195 41.6772 67.7499 44.6588 67.7499 48.4297Z" fill="white"/>
<path d="M46.0012 10.7646C50.8902 10.7646 55.7573 5.80984 55.7573 5.80984L56.8754 1.71008L51.7453 5.98523C50.0352 7.3445 48.1498 8.28723 46.0889 8.28723C43.3484 8.28723 40.608 6.92795 38.8979 5.19597L35 1.5L35.1716 5.19597C35.084 5.26174 39.6652 10.7646 46.0012 10.7646Z" fill="white"/>
<path d="M15.5 5.5L14.168 1.71008L11.866 8.04606C10.8356 10.7865 9.21324 12.4966 6.91124 13.1762L1.69336 14.7109L4.93809 16.2456C4.91617 16.2456 13.3515 15.3438 15.5 5.5Z" fill="white"/>
<path d="M9.54228 44.6588L48.1501 15.6536C47.4705 15.7413 46.7031 15.829 46.0016 15.829C41.288 15.829 37.6048 13.7682 35.4781 12.2335C33.3296 13.7682 29.6683 15.829 24.9547 15.829C21.8635 15.829 19.2107 14.7986 17.3472 13.6805C15.6371 16.5963 13.4009 18.3064 11.6908 19.2491C12.4581 21.4634 13.3132 24.9931 13.3132 28.9175C13.3132 36.7005 10.6604 40.296 9.54228 44.6588ZM21.9512 64.4341C22.1265 64.5218 22.3019 64.5218 22.4554 64.6095C27.169 65.8153 32.8034 66.4072 34.6012 67.4376C35.0397 67.7007 35.4562 68.205 35.4562 68.205C35.4562 68.205 35.9605 67.7007 36.3113 67.4376C38.0213 66.4949 43.7653 65.8153 48.457 64.6095C54.9684 62.9871 61.8963 57.2431 61.8963 48.4297C61.8963 44.0669 60.0109 41.2387 58.7393 36.7882L21.9512 64.4341ZM4.82866 29.0052C4.82866 37.3143 0.553521 39.1998 0.553521 48.4297C0.553521 61.6936 10.8139 70.4193 20.4165 72.8967C25.2178 74.1025 26.6648 74.1902 31.0276 75.1987C31.3784 75.5495 35.4781 80 35.4781 80C35.4781 80 39.5779 75.6372 39.9287 75.1987C44.2915 74.0806 45.7385 74.0806 50.5398 72.8967C60.1205 70.4193 70.4028 61.6936 70.4028 48.4297C70.4028 39.1779 66.1276 37.3143 66.1276 29.0052C66.1276 26.0016 66.7196 23.02 68.0131 20.1918L70.7536 14.0312L64.4176 12.2335C62.4444 11.6415 61.0852 10.1726 60.1424 7.78295L57.3143 0.0876939L50.9783 5.30556C49.3559 6.66484 47.6459 7.3664 45.9358 7.3664C43.7215 7.3664 41.1345 6.24829 39.5121 4.62592L35.5001 0.613866L31.488 4.62592C29.778 6.33598 27.3006 7.3664 25.0643 7.3664C23.442 7.3664 21.7319 6.68676 20.0219 5.30556L13.6859 0L10.8577 7.69526C10.0027 10.085 8.55571 11.6415 6.58257 12.1458L0.246582 14.1189L2.98706 20.2795C4.14902 23.02 4.82866 26.0016 4.82866 29.0052ZM6.88949 13.1762C9.19149 12.4966 10.8358 10.7865 11.8443 8.04604L14.1463 1.71006L19.2764 5.9852C20.9865 7.34448 22.872 8.2872 24.9328 8.2872C27.6733 8.2872 30.4137 6.92792 32.1238 5.19594L35.4562 1.95122L38.7886 5.19594C40.4987 6.906 43.2392 8.2872 45.9797 8.2872C48.0405 8.2872 49.9917 7.34448 51.636 5.9852L56.7662 1.71006L59.0682 8.04604C60.0986 10.7865 61.7209 12.4966 64.0229 13.1762L69.2408 14.7109L67.0265 19.7534C65.9084 22.3184 65.0534 25.4097 65.0534 29.0052C65.0534 33.4557 66.1715 36.1085 67.2677 38.849C68.2981 41.4141 69.2408 44.0669 69.2408 48.4297C69.3285 60.5755 60.2521 69.3231 50.2329 71.8882C45.2781 73.1817 42.9542 73.2475 39.271 74.2779C38.7667 74.7821 35.4124 78.4653 35.4124 78.4653C35.4124 78.4653 31.9923 74.7821 31.5538 74.2779C27.8706 73.2475 25.5686 73.1598 20.5919 71.8882C12.8966 69.915 5.70561 64.2806 2.87744 56.1469C2.02241 53.7572 1.58393 51.1921 1.58393 48.4516C1.49623 39.3752 5.77139 37.6651 5.77139 29.0271C5.77139 25.5193 4.91636 22.3623 3.79824 19.7753L1.58393 14.7328L6.88949 13.1762ZM18.531 63.0748L57.9939 33.4557C57.8185 32.0965 57.6431 30.6276 57.6431 29.0052C57.6431 24.9931 58.4982 21.5511 59.2655 19.3368C57.8185 18.4818 55.9331 17.1883 54.3765 14.974L9.01611 49.0436C9.27919 55.7084 13.664 60.5755 18.531 63.0748ZM48.8298 22.0773V33.368L54.8149 28.8298C54.8149 28.8298 54.6396 30.2768 54.8149 32.6884L45.4096 39.7917V27.7336C45.4096 26.0236 43.7873 25.9359 43.7873 25.9359L48.8298 22.0773ZM35.6535 32.0088V37.6651L39.4244 34.8369V29.1806L42.6692 26.7032V41.9183L39.4244 44.4834V38.9148L35.6535 41.7429V47.3116L32.2334 49.8767V37.6432C32.2334 35.9331 30.6111 35.8454 30.6111 35.8454L35.6535 32.0088ZM21.6881 42.5322L25.8755 49.0436V39.3752L29.2079 36.8978V52.1348L25.7001 54.7876L21.9292 48.9778V57.6158L18.5968 60.0932V47.8378C18.5968 46.1277 16.9744 46.04 16.9744 46.04L21.6881 42.5322ZM8.0953 31.4826C7.41567 38.4105 3.99555 41.151 3.99555 48.4297C3.99555 57.3308 10.1561 66.7361 21.2934 69.5643C26.599 70.9235 30.2822 71.2743 32.935 72.217C33.2858 72.5678 35.5001 74.9575 35.5001 74.9575C35.5001 74.9575 37.7144 72.5678 38.0652 72.217C40.7179 71.2743 44.4011 70.9235 49.7067 69.5643C60.9098 66.7361 67.0046 57.3308 67.0046 48.4297C67.0046 40.296 62.8171 37.8186 62.8171 29.0052C62.8171 22.0773 66.0619 16.2455 66.0619 16.2455C66.0619 16.2455 57.9281 15.5659 55.8015 5.72212C55.8015 5.72212 50.9125 10.6769 46.0454 10.6769C39.7094 10.6769 35.522 5.28364 35.522 5.28364C35.522 5.28364 31.3345 10.6769 24.9986 10.6769C20.1096 10.6769 15.2425 5.72212 15.2425 5.72212C13.0939 15.5659 4.98212 16.2455 4.98212 16.2455C4.98212 16.2455 8.22685 22.0554 8.22685 29.0052C8.2707 29.9479 8.183 30.7153 8.0953 31.4826ZM8.27069 17.7802C8.27069 17.7802 13.7516 16.6621 16.3167 9.73417C16.3167 9.73417 19.9999 13.1543 25.0424 13.1543C31.3784 13.1543 35.5658 8.70375 35.5658 8.70375C35.5658 8.70375 39.7533 13.1543 46.0893 13.1543C51.1318 13.1543 54.8149 9.73417 54.8149 9.73417C57.38 16.6621 62.861 17.7802 62.861 17.7802C62.861 17.7802 60.4713 22.6692 60.4713 28.9833C60.4713 38.3228 64.6587 41.0414 64.6587 48.4078C64.6587 58.6681 56.6127 65.2672 49.1586 67.1526C43.2611 68.5996 39.4025 68.775 36.8374 70.0685C36.8374 70.0685 35.8947 70.9235 35.5439 71.362C35.1931 70.9235 34.2504 70.0685 34.2504 70.0685C31.6853 68.775 27.8267 68.6215 21.9292 67.1526C14.4751 65.2672 6.4291 58.69 6.4291 48.4078C6.4291 41.0414 10.6165 38.3009 10.6165 28.9833C10.5727 22.6692 8.27069 17.7802 8.27069 17.7802Z" fill="#111111"/>
</svg>
