<svg xmlns="http://www.w3.org/2000/svg" fill="none" viewBox="0 0 1466 687"><path fill="#222222" fill-rule="evenodd" d="M178.05 336.535C178.05 336.231 178.039 335.908 178.027 335.604C163.272 336.369 148.518 337.144 133.763 337.919L133.627 337.926H133.627H133.626H133.626H133.625H133.625H133.624H133.624C93.4434 340.037 53.2631 342.147 13.0828 344.065C11.6559 344.132 10.3795 344.222 9.23864 344.303L9.23787 344.303H9.2373H9.23686H9.23652L9.23448 344.303C5.55179 344.563 3.28106 344.724 1.9133 343.69C0.414539 342.557 0 339.99 0 334.548C0 332.003 0.0906594 328.83 0.203486 324.88L0.245768 323.395C2.51887 242.372 4.81591 161.367 7.16079 80.3437C7.47754 69.4208 7.86382 58.5022 8.25009 47.5838C8.68083 35.4082 9.11157 23.233 9.44586 11.0525C9.65677 3.54726 11.0267 5.41163e-05 16.1971 0C16.3058 0 16.4162 0.00156712 16.5284 0.00470095C53.2199 0.990445 89.9138 1.86976 126.607 2.74906C173.436 3.87125 220.264 4.99341 267.084 6.33675C285.58 6.87123 304.071 8.03051 322.563 9.18985C334.333 9.9278 346.104 10.6658 357.877 11.2427C362.471 11.4708 364.11 13.7336 363.895 21.3587C361.865 93.2224 359.972 165.086 358.079 236.961L358.066 237.433C357.72 250.564 357.374 263.695 357.028 276.827C356.633 291.716 356.274 306.586 356.035 321.475C355.927 328.32 354.515 331.477 349.67 331.591C302.898 332.772 256.134 334.183 209.366 335.593L209.347 335.594L209.065 335.602C198.727 335.914 188.389 336.226 178.05 336.535ZM917.944 0H16.1971H0V334.548V373.393C0.000191277 365.737 1.05588 365.711 7.65023 365.55L7.65403 365.55C20.9446 365.236 34.2363 364.976 47.5281 364.716H47.5292C76.8593 364.142 106.19 363.568 135.509 362.419C158.699 361.503 181.886 360.203 205.073 358.902L205.074 358.902L205.079 358.902C227.061 357.669 249.042 356.436 271.027 355.531C277.342 355.266 283.671 356.111 290.006 356.957H290.006L290.007 356.958C294.992 357.624 299.98 358.29 304.966 358.415C315.565 358.685 326.171 358.637 336.777 358.589H336.78C347.058 358.542 357.336 358.495 367.608 358.738C374.965 358.918 382.315 359.481 389.666 360.044H389.666L389.668 360.044C397.834 360.669 405.999 361.294 414.172 361.394C454.806 361.907 495.439 361.926 536.085 361.755C541.393 361.736 543.485 363.747 543.366 372.798C542.917 405.453 542.718 438.12 542.519 470.79V470.794C542.479 477.324 542.439 483.853 542.397 490.383C542.345 498.831 542.291 507.28 542.237 515.728C541.902 568.587 541.566 621.447 541.453 674.322C541.429 683.904 538.237 684.037 533.862 683.999C462.755 683.411 391.661 682.898 320.555 682.405C309.931 682.329 299.308 682.354 288.684 682.38C283.372 682.392 278.06 682.405 272.748 682.405V682.291V682.272C258.008 682.272 243.267 682.331 228.527 682.389H228.517C194.272 682.525 160.028 682.66 125.79 682.064C102.374 681.659 78.9634 680.528 55.5514 679.398C40.5469 678.673 25.5419 677.948 10.5351 677.415C5.35875 677.225 3.76875 674.701 3.74484 666.41C3.6253 610.454 3.446 554.498 2.76459 498.561C2.44256 472.207 1.76445 445.86 1.08627 419.511C0.732248 405.757 0.378208 392.001 0.0747932 378.244C0.0333373 376.358 3.39635e-05 374.757 0 373.397V687H1466V38.3846C1464.27 77.5035 1462.63 116.623 1460.99 155.748L1460.99 155.773L1460.98 155.796L1460.98 155.818C1460.63 164.141 1460.29 172.465 1459.93 180.788C1459.54 190.136 1459.18 199.471 1458.94 208.819C1458.83 213.117 1457.42 215.098 1452.58 215.17C1422.21 215.652 1403.64 216.194 1384.35 216.757L1384.35 216.757L1384.34 216.757C1367.29 217.255 1349.67 217.77 1322.83 218.274C1322.83 218.185 1322.83 218.093 1322.82 218.001C1322.82 217.896 1322.81 217.791 1322.81 217.689C1308.85 218.144 1294.89 218.604 1280.93 219.064L1278.4 219.148C1238.22 220.473 1198.04 221.798 1157.86 223.001C1156.43 223.044 1155.16 223.1 1154.02 223.151C1149.64 223.345 1147.25 223.451 1146.01 222.312C1144.53 220.954 1144.67 217.823 1144.98 210.956L1145.03 210.025C1147.3 159.156 1149.6 108.3 1151.94 57.4314C1152.26 50.5752 1152.64 43.7216 1153.03 36.8682V36.8658V36.8633V36.8609C1153.46 29.2178 1153.89 21.575 1154.23 13.9288C1154.44 9.11774 1155.87 6.89725 1161.31 6.99275C1198 7.61163 1234.69 8.16368 1271.39 8.71572L1271.39 8.71576C1318.22 9.42029 1365.05 10.1248 1411.86 10.9682C1427.47 11.2513 1431.94 11.8137 1436.76 12.4198C1441.29 12.9892 1446.12 13.5971 1460.78 14.0482C1463.44 14.131 1465.11 14.6401 1466 15.9783V0H917.944ZM917.944 0L922.756 9.7672L922.449 168.671C922.449 168.671 922.138 248.884 923.395 289.008C923.447 290.698 923.453 292.395 923.46 294.092C923.468 296.273 923.477 298.454 923.583 300.617C923.933 307.755 922.352 310.098 919.104 309.991C917.738 309.95 916.372 309.903 915.006 309.856C907.967 309.612 900.922 309.368 893.9 310.027C886.16 310.762 878.43 311.934 870.699 313.106C865.822 313.845 860.944 314.585 856.065 315.215C853.356 315.564 850.647 315.942 847.938 316.321C838.998 317.57 830.058 318.819 821.118 319.025C800.886 319.49 780.652 319.644 760.417 319.799C745.63 319.912 730.842 320.025 716.055 320.259C707.55 320.395 699.045 320.489 690.54 320.584H690.539C663.155 320.888 635.773 321.192 608.41 322.871C588.653 324.074 568.917 326.531 549.179 328.988C538.094 330.368 527.009 331.748 515.919 332.906C498.759 334.69 481.59 336.172 464.422 337.654C458.691 338.149 452.96 338.644 447.23 339.149C426.898 340.938 406.566 342.673 386.233 344.337C379.362 344.892 379.285 344.767 379.276 330.867C379.252 296.9 379.258 262.932 379.263 228.965V228.859C379.265 214.276 379.268 199.693 379.268 185.111H379.601H379.61V38.4604C379.61 25.3123 386.079 25.5448 386.079 25.5448C386.079 25.5448 724.773 18.9294 893.823 1.75304C899.507 1.18061 917.944 0 917.944 0ZM941.465 337.545L941.48 337.04L941.486 336.836C942.686 294.777 943.886 252.714 945.056 210.659C945.296 201.993 945.617 193.325 945.939 184.656L945.94 184.653V184.653V184.652V184.652V184.651V184.651C946.71 163.909 947.48 143.167 947.126 122.448C946.738 100.146 945.347 77.8608 943.956 55.5734L943.956 55.5711L943.955 55.5617L943.954 55.5524L943.954 55.5432L943.953 55.5341L943.953 55.5251C943.325 45.4615 942.696 35.3974 942.161 25.331C942.037 22.9811 941.973 20.6278 941.909 18.2749V18.2733V18.2716V18.27V18.2684V18.2667C941.806 14.4544 941.702 10.6435 941.347 6.85076C940.916 2.27845 942.567 0.774243 947.006 1.02494C959.341 1.72929 971.687 2.29038 984.034 2.73209C1020.68 4.04528 1057.32 5.2988 1093.98 6.5165C1095.18 6.55629 1096.39 6.59674 1097.59 6.63719C1107.95 6.98498 1118.3 7.33277 1128.65 7.2686C1133.35 7.24473 1135.03 8.65344 1134.84 13.3571C1134.1 31.9905 1133.42 50.624 1132.73 69.2574C1132.17 84.6119 1131.61 99.9663 1131.02 115.321C1130.41 131.041 1129.74 146.757 1129.08 162.471L1129.08 162.511C1128.59 174.005 1128.1 185.497 1127.63 196.99C1126.92 214.586 1126.19 232.181 1125.46 249.776L1125.43 250.563C1123.39 300.069 1121.34 349.573 1119.46 399.09C1117.81 442.426 1116.51 485.761 1115.29 529.109C1115.13 534.731 1113.48 536.725 1107.65 536.606C1053.65 535.543 999.646 534.66 945.642 533.967C939.576 533.896 938.93 530.995 938.942 526.184C938.946 523.777 938.914 518.083 938.868 510.216C938.631 468.987 938.052 368.087 940.593 368.087V368.111C940.874 358.251 941.156 348.391 941.437 338.53L941.451 338.042L941.465 337.545ZM1273.31 675.623C1288.11 674.615 1302.9 673.608 1317.69 672.612C1324.62 673.054 1331.8 673.484 1339.16 673.924L1339.21 673.927L1339.24 673.929L1339.26 673.93L1339.28 673.931C1374.81 676.058 1414.56 678.437 1451.43 683.579C1456.27 683.431 1457.68 679.34 1457.79 670.468C1457.91 661.068 1457.09 647.837 1456.26 634.508C1455.39 620.475 1454.52 606.332 1454.72 596.436C1455.06 579.723 1455.4 563.012 1455.74 546.301L1455.75 545.785L1455.76 545.264L1455.77 544.738L1455.78 544.355C1457.67 451.339 1459.56 358.337 1461.58 265.335C1461.8 255.453 1460.16 252.52 1455.57 252.224C1440.92 251.293 1436.09 250.038 1431.56 248.863C1426.75 247.612 1422.28 246.451 1406.68 245.866C1359.9 244.125 1313.11 242.671 1266.31 241.217L1266.31 241.217L1266.31 241.217L1266.3 241.216L1266.3 241.216L1266.29 241.216C1229.62 240.076 1192.96 238.937 1156.29 237.659C1150.85 237.462 1149.43 242.046 1149.22 251.978C1148.88 267.738 1148.45 283.491 1148.02 299.245V299.25V299.255V299.26L1148.02 299.324C1147.64 313.475 1147.25 327.626 1146.93 341.783C1144.59 446.794 1142.29 551.78 1140.02 656.79L1139.98 658.715C1139.6 675.764 1139.48 681.656 1142.12 683.446C1143.52 684.391 1145.69 684.192 1149.01 683.888C1150.15 683.783 1151.42 683.666 1152.85 683.579C1193.01 681.094 1233.16 678.358 1273.31 675.623ZM748.866 353.237C763.396 352.482 777.926 351.718 792.456 350.954L792.458 350.954L792.46 350.954C831.902 348.88 871.344 346.807 910.787 344.923C912.189 344.857 913.443 344.768 914.564 344.689C918.178 344.433 920.407 344.275 921.75 345.29C923.911 346.923 923.778 351.592 923.43 363.773L923.388 365.233C921.157 444.847 918.902 524.443 916.6 604.057C916.289 614.782 915.911 625.502 915.532 636.222L915.531 636.248L915.531 636.252L915.53 636.256C915.108 648.217 914.685 660.178 914.357 672.143C914.146 679.673 912.748 683.148 907.404 682.999C871.396 682.031 835.386 681.167 799.376 680.303L799.359 680.303L799.342 680.302C753.372 679.2 707.402 678.097 661.44 676.777C643.284 676.252 625.132 675.113 606.979 673.974L606.971 673.973C595.419 673.248 583.866 672.523 572.312 671.956C567.802 671.732 566.193 669.509 566.404 662.016C568.397 591.384 570.256 520.752 572.115 450.109C572.458 437.07 572.802 424.031 573.146 410.991C573.533 396.361 573.885 381.75 574.12 367.12C574.226 360.393 575.612 357.292 580.368 357.18C626.288 356.019 672.199 354.633 718.116 353.247L718.396 353.238L718.674 353.23C728.73 352.926 738.786 352.623 748.842 352.322C748.842 352.62 748.854 352.938 748.866 353.237ZM1010.1 683.006C1018.46 682.71 1026.81 682.413 1035.16 682.121C1035.17 682.237 1035.18 682.36 1035.18 682.476C1050.33 682.17 1060.28 681.857 1069.91 681.555C1080.81 681.213 1091.29 680.884 1108.44 680.591C1111.18 680.548 1111.98 679.345 1112.04 676.735C1112.17 671.06 1112.37 665.391 1112.6 659.716C1112.79 654.669 1112.99 649.623 1113.19 644.577C1114.26 617.16 1115.33 589.747 1116.48 562.333C1116.6 559.427 1115.67 558.564 1113.08 558.477C1104.8 558.203 1102.07 557.834 1099.51 557.489C1096.79 557.121 1094.27 556.779 1085.45 556.607C1059.02 556.095 1032.57 555.667 1006.13 555.24C985.411 554.904 964.69 554.569 943.97 554.193C940.897 554.135 940.093 555.484 939.971 558.405C939.782 563.048 939.539 567.689 939.296 572.33C939.078 576.492 938.86 580.654 938.681 584.818C937.357 615.703 936.06 646.582 934.776 677.467C934.581 682.125 934.453 684.148 935.387 684.979C936.294 685.786 938.203 685.468 942.025 685.346C964.718 684.615 987.412 683.81 1010.1 683.006Z" clip-rule="evenodd"/></svg>