<svg xmlns="http://www.w3.org/2000/svg" fill="none" viewBox="0 0 62 48"><path fill="#FF5B40" d="M21.1983 18.3047C20.916 18.4283 21.3062 18.6587 21.4622 18.6482L21.4997 18.7396C21.4641 18.6577 21.37 18.2222 21.1887 18.3065L21.1983 18.3047Z"/><path fill="#FF5B40" d="M21.4717 18.6464C21.1407 18.6709 21.5561 18.8273 21.4717 18.6464V18.6464ZM54.5027 18.8686C54.4394 18.9499 54.5073 19.0453 54.627 19.0517 54.7538 19.1456 54.8193 19.0244 54.8577 18.9677 54.6968 18.8508 54.6235 18.7269 54.5027 18.8686Z"/><path fill="#FF5B40" d="M54.627 19.0517C54.4597 19.0545 54.7425 19.1379 54.627 19.0517V19.0517ZM55.378 18.798C55.2266 18.6793 55.0638 18.8588 55.0595 18.9385 55.0954 18.971 55.1258 18.975 55.1657 18.9771 55.1657 18.9771 55.1847 18.9735 55.2133 18.9679 55.3496 19.06 55.5502 18.9225 55.378 18.798Z"/><path fill="#FF5B40" d="M55.2056 18.9793C55.2056 18.9793 55.1675 18.9867 55.158 18.9885 55.1408 19.0017 55.3079 19.0483 55.2056 18.9793ZM55.2154 19.2339C55.0488 19.3943 55.0408 19.4551 55.3196 19.5688 55.7614 19.7596 55.4144 19.0376 55.2154 19.2339ZM57.4346 21.8232C57.352 21.6518 57.2991 21.8889 57.2552 21.9171 57.2453 21.9683 57.2527 22.0064 57.2828 22.0597 57.3776 22.0907 57.487 21.9413 57.4346 21.8232ZM58.5848 24.4516C58.328 23.8897 58.829 24.3353 58.5848 24.4516V24.4516ZM33.5136 18.6065C33.499 18.7869 33.6239 18.309 33.5136 18.6065V18.6065Z"/><path fill="#FF5B40" d="M33.1434 18.7866C33.1426 19.1912 33.4845 18.9672 33.5117 18.597 33.6919 18.0985 33.1482 18.3516 33.1434 18.7866ZM41.5855 11.2653 41.7059 11.1729C41.4171 10.8539 41.2682 11.514 41.5855 11.2653ZM46.5315 7.88232C46.473 8.09091 46.7408 8.14764 46.8567 7.87863 46.9667 7.63047 46.5877 7.71361 46.5315 7.88232ZM44.878 8.88268C44.878 8.88268 44.8816 8.90169 44.874 8.91304 44.8721 8.90353 44.8798 8.89218 44.878 8.88268ZM59.4755 31.5099C59.4948 31.4568 59.497 31.4169 59.4992 31.3771 59.4779 31.4206 59.4681 31.4718 59.4755 31.5099ZM44.4992 9.22225C44.4992 9.22225 44.4897 9.22409 44.4801 9.22593 44.4801 9.22593 44.4801 9.22593 44.4992 9.22225ZM38.6407 10.8483C38.6407 10.8483 38.6315 10.8007 38.6069 10.7759 38.6201 10.793 38.6351 10.8197 38.6407 10.8483ZM27.9161 23.8811C28.0454 23.8857 28.1479 23.9053 28.1802 23.9188 28.1157 23.8918 28.0135 23.8228 27.9161 23.8811Z"/><path fill="#FF5B40" d="M0.183184 27.103C0.411681 27.0588 0.364078 27.068 0.48102 27.2131L0.775379 27.5606C0.826332 27.6198 1.08805 27.4409 1.18044 27.5612C1.24459 27.6375 1.33113 27.7786 1.52003 27.6829C1.73566 27.5722 1.77958 27.544 1.88333 27.6719C2.16495 27.647 2.78911 27.2994 2.60434 27.059C2.73783 27.2896 3.55792 26.9338 3.80276 26.7187C4.11642 26.4509 4.37131 26.4411 4.71904 26.1963C4.0845 26.3881 4.79599 25.777 4.91661 25.9411C5.04859 26.1129 5.43053 25.5853 5.59074 25.8009C5.53795 25.7322 5.4566 25.669 5.60558 25.5711C5.65903 25.5411 5.75791 25.5417 5.8409 25.358C5.89684 25.2386 5.98535 25.0834 6.13617 24.9951C6.43597 24.8089 6.66316 24.9622 6.30223 25.1898C6.08693 25.2512 5.89304 25.5254 6.15929 25.5233C6.37892 25.3822 6.38542 25.2625 6.60289 25.1613C6.92724 24.9999 7.33447 24.9607 7.64563 24.7821C7.80413 24.6824 7.74615 24.5358 7.76585 24.4334C7.80491 24.2778 8.01568 24.0398 8.24786 24.0146C8.50859 23.9839 8.2646 24.3566 8.61785 24.1404C8.56506 24.0717 8.37228 23.8919 8.62015 23.7947C8.81273 23.718 8.86821 23.9539 9.05862 23.917C9.34425 23.8618 9.67123 23.3054 9.81134 23.1106C9.93846 23.1551 10.1089 23.2701 10.2667 23.2692C10.1869 23.2649 10.2951 23.0072 10.3639 22.9544C10.492 22.8508 10.6019 22.9084 10.7103 22.9072C10.9443 22.8915 11.1836 22.648 11.0971 22.5069C10.9823 22.3219 11.5922 22.4111 11.6769 22.5427C11.7484 22.6571 11.8113 22.6252 11.8523 22.4792C11.9144 22.2897 11.9234 22.0808 11.8617 21.9151C11.8114 21.7572 11.6253 21.7142 11.7581 21.4814C11.7016 21.3937 12.0329 21.6256 12.0497 21.6618L12.3563 22.1746C12.509 22.0958 12.5741 22.024 12.5784 21.9442C12.7203 22.0648 13.0069 21.8614 12.9532 21.635C13.1156 21.8108 13.4814 21.7105 13.8058 21.5491C14.0232 21.4479 14.2751 21.3203 14.3694 21.1442C14.458 20.989 14.4436 20.8635 14.7028 20.7739C15.0001 20.677 15.1477 21.0825 15.2358 20.9767C15.2838 20.9181 15.9266 20.054 16.0098 20.1267C16.0948 20.2089 15.6988 20.5616 15.8984 20.5724C16.0676 20.5791 16.2974 20.3374 16.5597 20.3656C16.8314 20.3919 17.95 20.0474 17.659 19.7683C17.7235 19.7953 18.0235 19.8655 18.0226 19.7079C18.0178 19.5806 17.8529 19.4941 17.8195 19.3723C18.0293 19.2824 18.2924 19.4683 18.3732 19.3244C18.4522 19.171 18.2275 18.9284 18.409 18.7947C18.5485 18.6987 18.9517 18.6898 18.827 18.8618C18.7176 19.0112 18.6162 19.0999 18.6837 19.2447C18.7006 19.2808 18.8526 19.3008 18.891 19.244C18.8142 19.3575 18.4243 19.64 18.6463 19.7155C18.7621 19.7523 19.0176 19.6437 18.967 19.5351C19.2742 19.3869 19.7327 19.3575 20.0871 19.2495C20.1805 19.2216 21.0991 18.9157 21.0503 18.8166C20.9341 18.5728 20.8896 18.394 20.9066 18.1243C21.2367 18.2479 21.7381 18.3384 21.8237 18.6276C21.98 18.5678 22.1534 18.2384 21.99 18.2108C22.4021 18.2988 22.7637 18.5347 23.1168 18.062C23.3681 17.7273 23.6465 18.1963 23.7283 17.9043C23.9986 18.434 24.8959 17.0472 25.1205 17.5956L25.0063 17.3119C25.1863 17.4251 25.5111 17.4708 25.7774 17.4686C26.2396 17.4581 25.9409 17.1904 25.9078 17.0192C25.8876 16.9146 26.023 16.849 26.1732 16.8594C26.3842 16.8778 26.3568 16.9916 26.4513 17.0719C26.5686 17.1676 26.8681 17.0308 27.0333 17.0679C27.1871 17.0974 27.2847 17.2955 27.4841 17.0498C27.5397 16.9799 27.5509 16.7311 27.7333 16.755C28.0373 16.7949 28.259 16.9197 28.6192 16.7909C28.6936 16.7666 29.0259 16.5445 28.8988 16.5001C29.1721 16.5853 29.145 16.6497 29.5028 16.6102C29.6969 16.5924 29.9272 16.5577 30.1121 16.4923C30.3142 16.4138 30.3303 16.2923 30.6027 16.2199C30.7737 16.2362 31.0209 16.2377 31.0501 16.1334C31.1243 16.415 31.5668 15.9447 31.6488 15.9092C31.7842 15.8435 31.9543 16.0079 32.1619 15.9579C32.3976 15.6953 33.3641 16.1989 33.1915 15.5615C33.262 15.8241 33.5691 15.6759 33.599 15.4729C33.623 15.2907 33.7343 15.1508 33.84 14.9824C33.8027 15.1474 33.7505 15.2858 33.8103 15.4419C33.9744 15.933 34.0658 15.3333 34.4439 15.3983C34.7497 15.4477 34.6958 15.8329 35.1295 15.5222C35.5135 15.2605 35.137 15.2544 35.1614 15.0228C35.5517 14.9473 35.7141 15.1231 35.9318 15.2783C36.1703 15.4393 36.4695 15.3519 36.7668 15.2549C36.9154 15.2065 36.5391 14.8945 36.9812 15.0359C37.3607 15.1598 37.4601 15.3675 37.9273 15.1785C38.1752 15.0812 37.8209 14.8834 38.1802 14.9027C38.3607 14.9171 38.6671 15.1735 38.642 14.9417C38.6273 14.8656 38.6862 14.3018 39.035 14.4711C39.1302 14.4527 38.9136 14.7116 38.9283 14.7877C39.233 14.7287 39.9078 15.052 39.846 14.6299C39.8699 14.7536 39.9466 14.9459 39.8412 15.0649C39.8086 15.1008 39.5623 15.2569 39.8516 15.2207C40.4529 15.1636 40.105 14.2839 40.5825 14.2508C40.6061 14.4238 40.5867 14.4768 40.7344 14.5765C40.8707 14.6685 40.7192 14.8557 40.9815 14.8839C41.4965 14.9421 41.7607 14.674 42.2264 14.9884C42.2142 14.8231 42.719 14.9819 42.8351 14.9693C43.0101 14.9552 42.9577 14.8371 43.11 14.8077C43.2719 14.7764 43.6893 15.1987 43.76 15.1555C43.8211 15.1141 43.8126 14.9678 43.9591 14.9592C44.0847 14.9447 44.2587 15.0788 44.3568 14.9217C44.3798 14.8877 44.4638 14.5558 44.5998 14.6972C44.7262 14.8404 44.6912 14.9656 44.692 15.1232C44.7942 15.1922 45.3326 15.1671 45.4656 15.1907C45.8322 15.248 46.1568 15.3431 46.5216 15.3909C46.5361 15.2106 45.8549 15.2634 46.347 15.0498C46.5758 14.9563 46.7052 15.5231 46.7865 15.5863C46.7865 15.5863 46.8655 15.4329 46.8673 15.4424C46.9629 15.3746 47.1904 15.4786 47.3215 15.4927C47.5742 15.5228 47.5295 15.3933 47.7272 15.3945C47.9364 15.4034 48.0907 15.6399 48.1604 15.7448C48.3421 15.8675 48.5583 15.9638 48.7803 16.0392C49.1276 16.1497 49.776 16.4386 49.9926 16.1797C50.0808 16.0738 50.1162 15.8993 49.8448 15.8236C49.6777 15.7769 49.6526 15.5451 49.7933 15.5573C49.9453 15.5772 49.9059 15.7821 50.0751 15.7889C50.2044 15.7935 50.1746 15.6907 50.2149 15.6435C50.28 15.5717 50.322 15.8398 50.322 15.8398L50.2614 16.0882C50.2614 16.0882 50.1144 16.452 50.0936 16.4462C50.2456 16.4661 50.4296 16.2431 50.5131 16.2665C50.4809 16.253 50.5456 16.5364 50.7485 16.6155C50.9328 16.6489 50.9316 16.5407 50.9608 16.4364C50.9024 16.6449 51.4013 16.8247 51.5812 16.9378C51.7366 17.0262 51.7712 17.2562 51.9063 17.24C52.1063 17.2013 52.7839 16.8237 52.9397 17.1191C53.0336 17.2982 52.7001 17.412 52.9694 17.5276C53.1002 17.5911 53.0716 17.5966 53.1367 17.5249C53.2019 17.4531 53.3526 17.6705 53.3848 17.684C53.6405 17.8319 53.8243 17.6583 53.8788 18.0423C54.2827 18.4968 53.7203 18.142 53.7721 18.3588C53.8217 18.6156 54.2528 18.6999 54.4488 18.6916C54.6143 18.6793 54.8561 18.3465 55.0096 18.4253C55.1082 18.4753 55.1969 18.5765 55.2859 18.6284C55.3397 18.5489 55.3511 18.5566 55.4647 18.6333C55.6031 18.6854 55.9977 18.836 55.9473 18.9839C55.922 19.0578 55.4843 19.3989 55.8187 19.4427C55.9983 19.6053 56.1699 19.8286 56.2883 20.0326C56.3954 20.2289 56.1995 20.2372 56.3846 20.4283C56.511 20.5715 56.7213 20.6887 56.8059 20.5638C56.5672 20.7086 57.2459 21.3073 57.3929 21.5058C57.346 21.4162 56.9845 20.8745 57.3013 20.9809C57.4021 20.9911 57.9432 21.6953 57.9939 21.4981C57.9549 21.6536 57.6963 21.6444 57.7858 21.9033C57.8717 22.1431 58.0474 22.0303 58.1522 22.01C58.4931 21.9342 58.5132 22.3446 58.2088 22.3542C58.07 22.3514 57.619 22.1131 57.6287 22.3677C57.6403 22.6318 57.8614 22.5496 57.9416 22.5045C58.0295 22.448 58.2736 22.3318 58.3767 22.5584C58.478 22.7756 58.189 22.7624 58.2433 22.89C58.2844 23.0004 58.4705 23.0434 58.3215 23.1412C58.3424 23.1471 58.1087 23.1133 58.1937 23.1955C58.362 23.3504 58.1677 23.674 58.2737 23.7621C58.4268 23.8903 58.6016 23.9256 58.7489 24.0746C58.883 24.2065 58.9135 24.2105 58.955 23.9657C59.0008 23.947 59.1691 23.7961 59.2241 23.8249C59.3691 23.7574 59.2397 24.0586 59.2455 24.0378C59.2442 24.2353 59.4772 24.3678 59.4019 24.5402C59.3149 24.7543 59.1928 24.5313 59.1425 24.3734C59.0451 24.4316 58.6794 25.0942 58.7098 25.0982C58.8065 25.1387 59.0077 24.9025 59.1125 24.8822C59.2208 25.1868 58.9106 25.2172 59.0339 25.5485C59.0322 25.7954 59.0416 26.0994 59.099 26.3448C59.1937 26.6815 59.9817 27.4367 59.3856 27.5717C59.2142 27.6048 59.3401 28.4091 59.5053 28.4462C59.6591 28.4756 59.5499 28.8814 59.7232 28.8578C59.9268 28.8382 59.9298 28.956 59.9337 29.2314C59.9278 28.69 60.2127 29.6016 60.3112 29.6516C60.5311 29.7669 60.8145 29.7516 61.0479 29.8347C60.7662 29.8596 59.6487 30.0559 59.7316 29.3099C59.566 29.3222 59.3124 30.0026 59.1284 30.2256L59.7179 30.516C59.5452 30.7467 59.3 31.0111 59.2219 31.3222C59.1496 31.6123 59.6117 31.0396 59.5618 31.3945C59.6141 31.2562 59.7158 31.1182 59.8023 31.2592C59.8192 31.2954 59.9827 31.5795 59.9824 31.6289C59.9923 31.5776 59.781 31.6086 59.7198 31.65C59.6261 31.7273 59.5343 31.8141 59.4443 31.9105C59.2642 32.1031 59.004 32.3408 58.8614 32.6249C58.653 33.0795 59.2989 32.8954 59.3098 33.2583C59.3252 33.7978 58.9788 33.2828 58.9216 33.2939C58.8782 33.5291 58.8954 33.516 58.7446 33.6043C58.6377 33.6644 58.5298 33.8727 58.4853 33.9997C58.3943 34.2442 58.7604 34.0945 58.8623 34.2129C59.0698 34.4687 58.9505 34.6693 58.7207 34.911C58.6479 34.9941 58.4034 35.1598 58.3687 35.2355C58.3822 35.2033 58.9402 35.0757 58.519 35.5024C58.2146 35.8177 58.2144 35.5613 58.0132 35.4917C57.9069 35.7589 58.1249 35.8647 58.0225 36.1015C57.9029 36.3515 57.7167 36.0521 57.5802 36.2659C57.4339 36.5309 57.7163 36.9696 57.7835 37.1637C57.7043 37.0607 57.3725 36.6217 57.2177 36.7405C56.8235 37.1027 57.7168 37.1766 57.7205 37.1956C57.7382 37.3895 57.0322 37.4668 57.3942 37.6533C57.5363 37.7244 57.7042 37.9287 57.7161 38.1434C57.7126 38.3809 57.2008 38.1346 57.1286 38.1189C56.9426 38.076 56.766 38.0312 56.5664 38.0205C56.3173 38.0095 56.1084 38.257 56.0665 38.5512C56.0407 38.7239 56.3302 38.9441 55.9904 39.1282C55.874 39.1901 55.4194 39.495 55.581 39.2073C55.2495 39.5871 55.5414 40.0238 55.2956 40.387C55.1957 40.5346 54.9712 40.5484 54.884 40.5061C54.7873 40.4656 55.0008 40.3947 54.7704 40.4294C54.6694 40.4687 54.58 40.4662 54.5078 40.4506C54.257 40.43 55.2617 39.7524 54.8099 39.9187C54.6573 39.9975 54.0173 40.723 54.1628 40.8625C54.0876 40.7291 53.9482 40.8251 53.8237 40.9478C53.7396 41.0233 53.71 41.177 53.8286 41.0751C53.6851 41.2015 53.5233 41.2328 53.3875 41.3478C53.1924 41.5138 53.2937 41.7309 53.1579 41.846C53.0049 41.9742 52.7899 41.4239 52.5828 41.681C52.4697 41.8114 52.6459 41.9055 52.7451 41.8567C52.8253 41.8116 52.8065 42.0718 52.8046 42.0623C52.6844 42.411 52.2063 42.2371 52.0803 42.6067C51.9662 42.8853 51.8939 42.6132 51.7056 42.6101L51.4516 42.7776C51.4025 42.7279 51.3453 42.739 51.2652 42.7841C51.166 42.8329 50.9998 42.9439 50.946 43.0233C50.8268 43.224 51.4884 43.5301 50.8515 43.5052C50.6234 43.5 50.444 43.5939 50.3383 43.7623C50.3152 43.7964 50.1088 43.9546 50.1589 43.8562C50.1223 43.9224 50.1434 44.1847 50.109 44.2111C50.0193 44.258 49.8195 43.9909 49.915 43.9231C50.0545 43.827 50.0895 43.7019 50.1513 43.5617C50.0065 43.3234 49.7027 43.54 49.4388 43.7587C49.3202 43.8605 49.1325 44.0645 49.1945 44.1808C49.2245 44.2341 49.3702 44.0679 49.4405 44.074C49.9745 44.1286 49.2404 44.4185 49.3175 44.5614C48.9106 44.5513 48.8741 44.3117 48.7139 44.0961C48.5819 43.9244 48.1064 44.2234 47.9043 44.302C47.6641 44.3879 47.478 44.345 47.2339 44.4612C47.2863 44.5793 47.1435 44.6069 46.9949 44.6554C46.7012 44.7713 46.3411 44.5944 46.3025 44.9569C46.2989 44.9379 45.8604 44.8156 45.7418 44.9174C45.5907 45.0551 45.8387 45.2143 45.6173 45.3459C45.644 45.3309 45.5818 44.9582 45.2439 45.1518C45.0111 45.2757 44.6919 45.515 44.3846 45.4067C44.3306 45.2297 44.0413 45.2659 43.8432 45.3141C43.5956 45.362 43.7664 45.4276 43.7921 45.5607C43.816 45.6843 43.7659 45.7828 43.5341 45.7586C43.2605 45.7227 43.4696 45.7316 43.4018 45.6362C43.3471 45.558 42.996 45.7344 42.9067 45.7319C42.747 45.7234 42.774 45.6589 42.6715 45.6393C42.3752 45.5881 42.2127 45.7182 42.2933 45.8801C42.2553 45.8875 41.5973 45.6004 41.8527 45.7976C41.8564 45.8167 42.5884 46.1289 42.3807 46.1789C42.2189 46.2102 42.0313 46.1083 41.887 46.0771C41.7236 46.0495 41.5808 46.0771 41.4134 46.0799C41.227 46.0863 41.1654 45.9207 41.2649 45.8225C41.3798 45.7016 41.366 45.7832 41.3369 45.5817C41.2659 45.6744 41.1688 45.6833 41.0601 45.7339C40.9265 45.809 40.9958 45.9633 40.8966 46.0121C40.5649 46.1354 40.2607 45.8391 40.2829 45.6474C40.0375 45.6554 40.1937 45.9014 40.1729 45.8956C40.1102 45.8781 39.9659 45.8468 39.8421 45.8707C39.851 45.9677 40.5111 46.2149 39.9629 46.2913C39.5499 46.3514 39.7092 45.8471 39.7193 45.7465C39.7502 45.3953 39.4322 45.7429 39.3895 45.8794C39.2948 46.1048 39.1436 46.2425 38.8308 46.1057C38.6809 46.0459 38.5994 46.2886 38.4291 46.1736C38.3041 46.0892 38.3296 45.9659 38.3303 45.8671C38.3221 45.6714 38.1701 45.6515 37.9097 45.6328C37.5903 45.6156 36.9285 45.6154 36.6998 45.4031C36.3845 45.3556 36.6889 45.9083 36.2006 45.835C36.1795 45.5728 36.2635 45.2409 35.6881 45.1253C35.6841 45.1556 35.6978 45.3799 35.7395 45.3915C35.6465 45.3701 35.4445 45.1428 35.346 45.0928C35.2683 45.0486 35.1943 45.0235 35.1089 44.9906C35.0619 45.2069 34.9001 44.9324 34.8353 44.9548C34.6867 45.0032 34.8447 45.2587 34.8822 45.3502C34.7047 45.1477 34.6324 44.8756 34.3459 44.7732C34.2605 44.7404 33.9799 44.6171 33.9243 44.687C33.8994 44.7116 33.9564 45.0063 33.9791 45.0217C33.8842 44.9907 33.7416 44.7125 33.6906 44.6533C33.3324 44.18 33.7753 44.7849 33.5485 44.5822C33.4312 44.4865 33.1068 44.0856 33.0351 44.277C33.0471 44.1859 32.9947 44.0678 32.8639 44.0043C32.6876 43.9101 32.6673 44.1114 32.5871 44.1565C32.4821 44.2261 32.4227 43.7148 32.2523 43.5997C31.8716 43.3676 32.0913 43.7887 32.1211 43.8915C32.156 44.0721 31.9253 44.1562 31.8767 44.3135C31.8436 44.1424 31.8618 43.981 31.8496 43.8157C31.8301 43.6123 31.5 44.051 31.4828 44.0642C31.3038 44.1087 31.1773 43.9654 31.2849 43.8065C31.3445 43.7062 31.0381 43.4498 31.3271 43.463C31.3578 43.4176 31.5413 42.9875 31.4142 42.9431C31.2263 42.8906 30.9832 43.421 30.9254 43.5308C30.4672 43.5109 30.9493 42.7863 30.8382 42.6204C30.825 42.6032 30.7055 42.8532 30.6256 42.8489C30.4982 42.8539 30.3423 42.5585 30.2388 42.687C30.3288 42.5907 30.5905 42.4118 30.4398 42.1944C30.2327 41.8892 30.0561 41.8444 29.8994 41.9536C29.9323 41.8683 29.8608 41.7539 29.7147 41.7131C29.56 41.526 29.4943 41.3908 29.3814 41.2153C29.2479 40.9847 28.7185 40.801 28.6435 40.924C28.48 41.2022 28.0352 40.8936 28.2371 40.5587C28.3775 40.3145 28.6383 40.2838 28.8968 40.293C28.7474 40.746 29.3267 40.5749 29.0781 40.2086C28.9501 40.0065 28.6896 39.4256 28.4875 39.5041C28.6463 39.355 28.3127 38.9066 28.2627 38.6992C28.1603 38.3738 28.0727 37.8186 27.848 37.576C27.6988 37.4174 27.6771 37.2539 27.6351 36.9858C27.5561 36.577 27.3288 36.7294 27.4008 37.0509C27.2254 37.1144 27.2508 36.7346 27.2133 36.6432C27.1366 36.4509 26.9192 36.5521 26.839 36.5972C26.7909 36.3994 27.2427 36.2331 27.2952 36.3512C27.3212 36.4349 27.3963 36.8742 27.4711 36.4947C27.5123 36.2994 27.4298 36.1279 27.4406 35.9285C27.4449 35.8488 27.5064 35.758 27.488 35.6629C27.4531 35.4822 27.3085 35.1945 27.158 35.2335C27.2653 35.6862 26.9726 35.9598 26.6615 35.8325C27.0288 35.7911 27.151 35.146 27.2224 34.6982C27.2735 34.4516 27.2675 34.216 27.1472 34.0025C27.1208 33.9682 26.8458 33.5676 26.8897 33.5394C26.9604 33.4961 27.0693 33.7019 27.0559 33.4283C27.0547 33.32 27.0484 33.1339 26.94 33.1351C27.107 33.1817 27.1252 33.0204 27.136 32.821C27.134 32.555 26.8871 32.5041 26.8889 32.5136C26.8881 32.356 27.1614 32.4412 27.1077 32.2149C27.0746 32.0437 26.9545 32.0867 27.0602 31.9183C27.0738 31.8861 27.4652 31.3566 27.2708 31.4238C26.9849 31.5284 27.0887 31.3505 27.1174 31.0392C27.1439 30.7677 26.952 30.7456 26.9742 30.5539C27.109 30.587 27.2973 30.5901 27.3447 30.3244C27.3957 30.0778 26.8917 30.3824 26.8232 30.3858C26.6767 30.3944 26.964 30.0923 26.9907 30.0772C27.136 29.9604 27.3366 29.8229 27.4886 29.8429C27.6292 29.8551 27.6843 29.5781 27.5513 29.5545C27.4792 29.5389 27.325 29.5588 27.2781 29.4693C27.2179 29.3625 27.358 29.1677 27.3378 29.0631C27.0624 29.0178 27.2404 28.5592 27.35 28.6662C27.435 28.7484 27.3714 28.8791 27.4776 28.9177C27.5212 28.9389 27.5706 28.9392 27.6106 28.9414C27.5713 28.8404 27.505 28.8039 27.4368 28.7579C27.3555 28.6948 27.666 28.615 27.6411 28.6395C27.6411 28.6395 27.4748 28.1883 27.4561 28.1426C27.6612 28.1819 27.5956 28.0466 27.7522 27.9374C27.8727 27.8451 27.9079 27.9763 27.9838 28.011C28.105 28.0763 28.0832 27.3506 27.9162 27.304C28.1243 27.461 28.6375 26.6417 28.7362 26.3859C28.8254 26.1319 28.5256 26.3181 28.4608 26.3405C28.3891 26.5319 28.2227 26.3865 28.166 26.3482C28.1073 26.3003 27.6514 25.9347 27.9395 25.7902C28.0732 25.7151 28.7383 25.7838 28.7712 25.6985C28.7595 25.7402 28.3276 26.0605 28.3276 26.0605C28.432 26.0896 29.1442 25.942 28.9748 25.6788C28.9051 25.5739 28.2841 25.1712 28.2189 25.243C28.2745 25.1731 28.9819 24.8982 28.5456 24.736C28.7789 24.8191 28.9819 24.8982 29.262 24.8144C29.6183 24.716 29.369 24.4485 29.5303 24.2102C29.7012 23.97 30.3882 23.8963 29.8248 23.6896C29.5478 23.5853 29.2189 23.57 29.0074 23.3446C28.8696 23.1937 29.0944 23.1305 29.197 23.1501C29.4153 23.2065 29.5986 23.3881 29.8381 23.401C29.9578 23.4074 30.1242 22.9905 30.1838 22.8902C30.3582 22.9749 29.9775 23.305 30.1406 23.3819C30.2487 23.4301 30.2705 23.2878 30.3056 23.1626C30.3717 22.9427 30.4345 22.6543 30.2926 22.5338C30.1867 22.4458 30.0389 22.6519 29.8949 22.5712C30.0362 22.4847 30.1739 22.3792 30.3078 22.2547C30.4202 22.2231 30.5593 22.1764 30.6816 22.0936C30.9071 21.9317 30.561 21.9295 30.6071 21.8614C30.6455 21.8047 30.9443 21.7666 31.0595 21.5964C30.8397 21.4811 31.2205 21.4074 31.267 21.2899C31.2845 21.2274 31.2093 21.0939 31.1731 21.1108C31.299 21.047 31.6576 21.1651 31.7428 20.9415C31.8338 20.697 31.7409 20.3697 31.549 20.3476C31.2981 20.3271 31.119 20.3716 30.8973 20.2467C30.8633 20.2237 30.5151 19.9557 30.7117 19.8486C31.0075 19.6928 30.8837 19.7167 30.9678 19.9471C30.9788 20.0041 31.1918 20.2884 31.3089 20.1277C31.3774 20.1243 31.7517 20.1703 31.7766 20.1458C31.8897 20.0154 31.9 20.1712 32.0297 20.1264C32.3555 20.024 33.1549 19.3565 33.089 18.9648C33.0651 18.8412 32.7881 18.7369 32.9697 18.6031C33.22 18.4166 33.4682 18.27 33.7195 18.2412C33.8736 18.2212 33.9998 18.4138 34.0263 18.1424C34.0288 18.0531 34.0227 17.8175 34.1582 17.7519C34.2479 17.705 34.2659 17.8494 34.3501 17.774C34.6217 17.5439 34.5959 17.4108 34.8951 17.3233C35.099 17.2543 35.0623 17.0641 34.9926 16.9592C35.1501 17.0077 35.4279 16.7074 35.5735 16.5411C35.7766 16.3144 35.7284 16.1166 35.9315 15.8899C36.1749 15.616 36.7483 15.4657 36.788 15.2114C36.6462 15.0908 37.0076 15.0703 37.0611 15.0402C37.1756 14.9687 37.251 14.7963 37.3201 14.6942C37.1781 14.8795 37.0701 14.8313 36.9773 14.7605C37.2087 14.5776 37.1903 14.4825 37.1649 14.3C37.093 14.235 37.0442 14.1359 37.0507 14.0163C37.0587 13.9556 37.2191 13.8654 37.189 13.812C37.1703 13.7663 36.9802 13.7537 36.9446 13.6719C37.2605 13.3642 37.3146 13.7976 37.4319 13.8933C37.5151 13.966 37.8801 14.2702 37.9546 13.9402C37.9056 13.5847 38.2866 13.7675 38.615 13.5758C38.6684 13.5457 39.2712 12.9853 39.0427 13.0294C39.4044 12.9595 39.6391 12.8451 39.9703 12.5147C40.1789 12.3165 39.8485 12.2423 39.7386 12.1846C39.6895 12.135 39.4132 11.9319 39.5738 11.7923C39.658 11.7169 39.8889 11.8893 39.9021 11.9064C40.0135 12.023 40.1928 12.2349 40.4633 12.153C40.6406 12.099 41.0743 11.7883 41.1211 11.6214C41.1773 11.4527 40.4746 11.5984 40.8205 11.3441C41.0098 11.199 41.1215 11.2662 41.3279 11.1079C41.4407 11.0269 41.5421 10.9383 41.6698 10.884C41.9272 10.7849 42.1694 10.9649 42.4176 10.8183C42.3986 10.822 41.8908 10.5453 42.1141 10.4232C42.4443 10.241 42.4426 10.488 42.6561 10.4171C42.9153 10.3275 43.483 9.89222 43.6594 9.68056C43.8204 9.4916 43.7527 9.09039 44.1988 9.20141C44.127 9.13638 44.0137 8.44807 44.3162 8.42904C44.3733 8.418 44.3564 9.24986 44.5354 9.20538C44.5032 9.19188 44.9109 8.7974 44.9332 8.86212C44.9229 8.7063 44.3508 8.65909 44.8539 8.50263C45.2369 8.38912 45.1814 8.15324 45.0626 7.99865C44.7791 8.014 45.1057 7.81277 45.2994 7.84435C45.554 7.88391 45.6795 8.1753 45.9552 8.1713C45.8886 8.18418 45.8151 7.80383 45.9993 7.83726C46.0715 7.8529 46.6395 7.93047 46.5841 7.6946C46.5767 7.65656 46.4613 7.57037 46.5301 7.51761C46.5894 7.46669 46.7531 7.44491 46.742 7.38785C46.7328 7.34031 46.5444 7.08082 46.4565 7.13726C46.6685 7.0075 47.1674 7.18723 47.2562 7.28844C47.3657 7.39549 47.3215 7.4731 47.5522 7.38904C47.7008 7.34057 47.8553 7.27124 47.9908 7.20559C48.4103 7.02582 47.873 6.90284 47.7919 6.79028C47.6339 6.53477 48.2173 6.58965 48.1808 6.65591C48.2097 6.601 48.2177 6.54027 48.2085 6.49272C48.3957 6.64393 48.7586 6.12001 48.7274 5.95836C48.7611 6.03075 48.7697 6.17706 48.8056 6.20957C48.8793 6.28411 49.0414 6.20343 49.1477 6.24207C49.2748 6.28654 49.2621 6.47641 49.4891 6.37334C49.7886 6.23652 50.2444 6.03987 50.5043 5.85152C50.6953 5.71594 50.5702 5.37516 50.5435 5.39019C50.6676 5.31687 50.8256 5.57238 50.8447 5.5687C50.9955 5.48035 50.7469 5.11412 51.0556 5.02484C51.347 4.94876 51.2777 5.35672 51.5041 5.35241C51.8007 5.35424 51.7569 5.07664 51.9096 4.99781C52.1633 4.8797 52.3475 4.91312 52.5874 4.87661C52.7969 4.83611 53.1768 4.60481 52.9303 4.50452C52.7918 4.45238 52.7771 4.37631 52.9961 4.33397C53.196 4.29531 53.3557 4.30389 53.5439 4.30695C53.8197 4.30295 53.7749 4.17351 53.8861 4.03363C54.053 3.82382 54.1686 4.16643 54.2049 4.14956C54.3231 4.0971 54.19 3.81706 54.2987 3.76644C54.3617 3.73454 54.3974 4.07287 54.5468 3.92563C54.5965 3.87655 54.8636 3.4698 54.8636 3.4698C54.9204 3.50814 54.9369 3.59372 54.967 3.64709C54.8918 3.51366 55.3825 3.49769 55.4949 3.46609C55.8036 3.37681 56.1427 3.29152 56.4271 3.12802C56.7632 2.92494 56.7875 2.69335 56.8899 2.45654C57.0076 2.19704 56.7892 2.44643 56.7028 2.56177C56.5012 2.84735 56.4508 2.43295 56.4188 2.37007C56.5015 2.23571 56.6272 1.91548 56.3249 2.19094C56.0178 2.33911 56.0037 2.16427 56.0391 1.98974C56.1218 1.85538 56.5758 1.64923 56.527 1.55016C56.6391 1.56794 56.8365 1.61854 56.9683 1.53388C57.0828 1.4624 57.075 1.21732 57.157 1.18173C57.1094 1.19094 57.11 1.96023 57.1456 2.04213C57.3096 1.97096 57.4355 1.90715 57.3735 1.7909C57.4054 1.85378 57.611 2.4059 57.7483 2.34976C57.9599 2.26938 57.9812 1.92001 57.9724 1.82308C57.9393 1.65192 57.8669 1.37985 57.6295 1.3271C57.3713 1.26853 57.5092 1.11362 57.8468 0.969438C58.3656 0.740893 57.5177 0.697686 57.5081 1.00534C57.4073 0.995227 57.0288 0.723171 56.8641 0.893111C56.7243 1.03851 56.7098 1.21887 56.3813 1.15417C56.0717 1.08578 56.3562 0.922277 55.8457 1.0407C55.6649 1.07568 55.6206 1.15329 55.6335 1.21985C55.4287 1.13121 54.8312 1.46375 54.6423 1.55946C54.3542 1.70394 54.3268 1.81775 54.0369 1.95272C53.8213 2.06347 53.9647 1.93708 53.8241 1.92482C53.6036 1.90827 53.1456 2.14479 52.9395 2.25369C52.9109 2.25921 52.2293 2.66721 52.4213 2.68928C52.3414 2.68499 52.0989 2.55433 51.9935 2.67335C51.9532 2.72059 51.9369 2.89145 51.8494 2.8985C51.6344 2.91048 51.5527 2.89668 51.2781 3.00896C50.8205 3.19609 50.372 3.43077 49.9595 3.69796C49.8105 3.79581 49.3298 4.01699 49.2603 4.16853C49.2004 4.31822 49.5737 4.51236 49.3237 4.64949C49.0909 4.77342 48.9924 4.41761 48.9188 4.34308C48.7278 4.17285 48.4461 4.50352 48.3612 4.67775C48.234 4.9391 48.3396 5.07651 48.3877 5.27435C48.3748 5.20779 47.996 4.98512 47.8802 4.94832C47.6278 4.86889 47.2767 5.04528 46.9963 5.17842C46.8341 5.2591 46.3334 5.63211 45.9 5.89348L45.881 5.89716L45.8465 5.92354C45.5544 6.09839 45.3007 6.2165 45.2442 6.12878C45.3817 6.32907 44.6154 6.60548 44.3786 6.75978C44.0462 6.98187 43.7234 7.20213 43.3646 7.38987C43.212 7.46871 43.0747 7.52485 42.9484 7.63804C42.7361 7.81718 42.9673 7.94017 42.5818 8.14294C42.4387 8.21994 42.4649 7.99786 42.1936 8.17855C41.8173 8.42886 41.3228 8.73164 41.5757 9.01812C41.4313 9.29265 41.1904 8.91507 41.0051 9.0298C40.7225 9.20281 40.4491 9.42337 40.1911 9.62123C39.847 9.88504 39.5275 10.1737 39.208 10.4624C38.9917 10.6719 39.0193 10.8145 38.8071 10.9936C38.7407 10.9571 38.726 10.8811 38.7055 10.8259C38.7361 11.0863 37.6626 11.5109 37.6048 11.6207C37.4487 11.9369 37.7113 11.9157 37.2134 12.1501C36.9637 12.2379 36.7195 12.3541 36.5259 12.579C36.317 12.8265 36.1667 13.1219 35.9255 13.356C35.7934 13.49 35.9016 13.2323 35.7797 13.2658C35.3033 13.4072 35.397 14.198 35.1767 14.4379C35.0382 14.3857 35.1611 14.2041 35.0149 14.1633C35.034 14.1597 34.6839 14.1879 34.7063 14.2526C34.7885 14.4735 34.6293 14.6719 34.3616 14.6152C34.2799 14.6014 34.3823 14.9268 34.3823 14.9268C34.3765 14.9477 34.1593 14.9995 34.1326 15.0146C33.8863 15.1707 33.563 15.7462 33.3286 15.8112C33.2067 15.8447 32.7704 16.2447 32.92 16.3539C32.7758 16.579 32.5246 16.6079 32.6128 16.502C32.5188 16.6287 32.4812 16.8431 32.4462 16.9683C32.4209 17.0422 32.4091 17.3897 32.3535 17.4597C32.4475 17.333 32.1467 17.1051 31.9651 17.2388C31.8619 17.318 31.7869 17.441 31.75 17.5566C31.7267 17.6401 31.7862 17.8456 31.7649 17.8891C31.788 17.8551 31.4898 17.7944 31.3925 17.8526C31.1633 17.9956 30.9267 18.4063 30.7712 18.6238C30.5985 18.8545 30.2535 19.2665 30.4751 19.3913C30.6319 19.8443 30.1824 19.6649 30.0008 19.7987C29.7505 19.9852 29.4788 20.521 29.3153 20.7993C29.194 20.7339 28.7558 21.4302 28.7643 21.5766C28.7673 21.6943 28.9522 21.629 28.9381 21.76C28.9319 21.8302 28.7948 22.1428 28.7245 22.1367C28.5952 22.1321 28.6303 22.0069 28.5055 22.179C28.4499 22.2489 28.3759 22.2238 28.426 22.1253L28.166 22.6195C28.166 22.6195 27.9716 22.6867 27.9331 22.7434C27.766 23.0026 27.8983 23.125 27.8721 23.3471C27.8579 23.4781 27.6199 23.5241 27.6291 23.5716C27.6869 24.0241 28.7173 23.2231 28.6464 23.878C28.3073 23.9633 28.3907 24.2924 28.5918 24.362C28.3775 24.2752 28.145 24.3498 27.9248 24.2839C27.8299 24.2529 27.8261 23.9774 27.9428 23.8661C27.9523 23.8642 27.9619 23.8624 27.9791 23.8492C27.7395 23.8363 27.4103 23.8704 27.3599 24.0183C27.319 24.1643 27.538 24.1219 27.4009 24.4345C27.1633 24.1253 26.6388 25.4992 26.5592 25.7514C26.3117 26.3615 26.1438 27.0253 25.919 27.6507C25.8474 27.8421 25.683 27.9627 25.722 28.113C25.7554 28.2347 25.7983 28.3547 25.8394 28.4651C25.6552 28.4317 25.3048 29.9396 25.2786 30.1617C25.1542 30.8466 25.6666 30.4319 25.6612 30.9656C25.6587 31.0549 25.2454 30.8586 25.184 30.9494C25.1686 30.9721 25.4523 31.2132 25.4519 31.2625C25.4473 31.3917 25.1485 31.4297 25.208 31.6352C25.299 31.953 25.3754 32.1947 25.3442 32.5953C25.1268 31.8285 25.1405 32.9208 25.0965 32.949C24.9706 33.0128 25.0713 33.891 25.1059 34.121C25.1502 34.6057 25.0649 35.1351 25.1817 35.586C25.2314 35.8427 25.359 36.0943 25.5005 36.2642C25.5269 36.2985 25.864 36.5096 25.8324 36.3973C25.8471 36.4734 25.6173 36.7151 25.594 36.7985C25.5395 36.9767 25.5437 37.2028 25.5765 37.4233C25.616 37.7807 25.7782 38.2623 25.9491 38.5843C26.013 38.7101 26.2055 38.6334 26.3247 38.7386C26.4456 38.8533 26.6585 39.4434 26.5581 39.3839C26.5581 39.3839 26.4493 38.8723 26.3033 39.088C26.2188 39.2128 26.2758 39.5076 26.3448 39.7112C26.3669 39.8253 26.9545 40.9744 27.0719 40.7642C26.9775 40.9403 26.9301 41.2059 27.2836 41.2461C27.3137 41.2995 27.7128 42.189 27.6697 41.8126C27.7945 42.2028 27.9387 42.5399 28.195 42.8948C28.206 42.9518 29.0189 43.6824 28.9407 43.4312C29.0017 43.6956 28.9506 43.9422 29.3433 44.0833C29.5862 44.1646 29.7864 44.0765 29.9655 44.0321C29.818 44.1888 29.7384 44.4409 30.0463 44.7563C30.1823 44.8977 30.4331 44.9182 30.3052 44.7161C30.2168 44.5655 29.9677 44.5544 29.934 44.482C29.8797 44.3544 30.5338 44.3661 30.6267 44.6933C30.6715 44.8228 30.5375 44.9473 30.6699 45.0697C30.7417 45.1347 30.8138 45.1504 30.8648 45.2096C31.0195 45.3967 31.313 45.5865 31.5251 45.7132C32.0194 46.0221 32.5445 46.2855 33.0753 46.5281C33.4278 46.7164 33.8982 46.9017 34.2673 46.8698C34.4519 46.8538 34.8659 46.6455 35.039 46.9277C35.1688 47.1393 35.306 47.389 35.7682 47.3786C36.0154 47.3801 36.4147 47.0957 36.6484 47.1294C36.5781 47.1233 36.3839 47.4469 36.6879 47.4868C36.8399 47.5067 37.0017 47.4754 37.135 47.4497C37.2493 47.4276 37.273 47.2947 37.4041 47.3088C37.5239 47.3153 37.1513 47.5846 37.4021 47.6052C37.634 47.6294 37.6104 47.4564 37.74 47.4116C37.6675 47.4453 38.5841 47.7416 38.7515 47.7388C38.9111 47.7474 39.1166 47.7373 39.1857 47.6351C39.2549 47.533 38.9985 47.4839 39.0618 47.4026C39.2169 47.2345 39.4045 47.3363 39.472 47.4811C39.5696 47.6793 39.5484 47.7228 39.9421 47.7158C40.1779 47.7096 40.5606 47.6455 40.7903 47.7096C40.9896 47.7697 40.8544 47.7859 41.1932 47.75C41.4168 47.5786 42.0589 47.6813 42.3844 47.6282C42.9517 47.5481 43.4922 47.4831 44.0554 47.4333C44.3294 47.4198 44.8259 47.383 44.7628 47.1585C44.8428 47.4192 45.2793 47.2756 45.4919 47.0471C45.6049 46.9167 45.6477 46.7802 45.6238 46.6566C45.6891 46.8413 45.772 46.9633 46.2078 46.9185C46.8585 46.8618 47.6285 46.6044 48.2557 46.3746C48.6921 46.231 49.0948 46.015 49.5199 45.8638C49.7886 45.7724 50.0076 45.73 50.2328 45.6175C50.3949 45.5368 50.2448 45.5264 50.3974 45.4475C50.5863 45.3518 50.7651 45.3567 50.9598 45.2401C51.0209 45.1987 51.2812 44.961 51.1823 44.9604C51.1728 44.9622 51.0246 45.2177 50.9261 45.1677C50.8484 45.1236 50.8801 44.93 50.9339 44.8506C51.1724 44.4494 51.3865 44.842 51.4335 44.9315C51.5648 45.2021 52.1642 44.5732 52.3362 44.4413C52.7374 44.1665 52.2535 44.0134 52.5171 43.8441C52.7929 44.4023 54.2149 43.3284 54.5848 42.8919C54.7916 42.6842 54.2793 42.7931 54.6538 42.5333C54.9499 42.3281 54.9915 42.6456 55.2496 42.4477C55.6913 42.0762 56.084 41.655 56.4784 41.2434C56.6201 41.1075 56.7918 41.025 56.8972 40.9059C57.06 40.7265 57.0877 40.5633 57.2297 40.378C57.3639 40.2041 57.4548 40.2655 57.5602 40.1464C57.6945 39.9725 57.8155 39.7814 57.8948 39.5787C57.999 39.3514 58.0618 39.063 58.1983 38.8492C58.3501 38.6127 58.4768 38.7066 58.6372 38.6164C58.5933 38.6446 58.5224 38.4314 58.5209 38.3725C58.5221 38.4808 58.8281 38.2244 58.8742 38.1563C59.0183 37.9311 58.9852 37.76 59.2506 37.6001C59.3548 37.3728 59.4531 37.1664 59.5592 36.9486C59.6363 36.7857 59.7506 36.7636 59.793 36.6765C59.9144 36.436 59.9516 36.271 60.0009 36.0149C60.0636 35.7265 60.2049 35.64 60.2882 35.4069C60.4297 35.0146 60.5293 34.6106 60.6594 34.2106C60.7898 33.7612 60.8848 33.4864 61.0394 33.1113C61.1977 32.7551 61.3774 32.0496 61.2789 31.6938C61.225 31.5168 60.8684 31.6647 60.8737 31.4368C60.9049 31.0362 61.2866 31.1202 61.4444 31.1193C61.1173 31.1135 61.4198 30.5322 61.4401 30.331C61.4962 29.9058 61.4552 29.4896 61.4999 29.0568C61.5316 28.8632 61.5614 28.0979 61.4387 27.9737C61.3159 27.8495 61.2639 27.9384 61.2662 27.5928C61.2088 26.7851 61.3713 26.0928 61.0897 25.2496C60.9762 24.8671 60.8921 24.9426 60.6821 24.776C60.4985 24.6438 60.9049 24.4469 60.7947 24.1328C60.7568 23.8343 60.5272 23.4644 60.4054 23.1921C60.2539 22.8169 60.0947 22.4531 59.9069 22.0949C59.7931 21.7618 59.1466 20.3085 58.9569 20.8088C58.924 20.8941 58.7957 20.7413 58.6696 20.5487C58.5358 20.3674 58.3869 20.1595 58.3569 20.1061C58.2703 19.965 58.4365 19.8539 58.3316 19.6178C58.1911 19.2997 57.7098 18.7516 57.6878 19.1997C57.6358 19.2887 57.6253 19.4387 57.5961 19.543C57.5984 19.1973 57.5697 18.9464 57.3478 18.5651C56.9903 17.993 56.6889 18.1204 56.2386 17.7833C55.9945 17.5937 56.3535 17.6624 56.2669 17.5213C56.1804 17.3802 55.6403 17.0901 55.4681 16.9656C55.3527 16.8794 55.4955 16.8518 55.3039 16.7803L54.96 16.7383C54.7911 16.6822 54.759 16.3629 54.5183 16.2417C54.3212 16.1417 54.2014 16.1353 54.0313 15.9709C53.9844 15.8813 53.903 15.8181 53.7873 15.7813C53.4744 15.6445 53.2726 15.6737 53.0045 15.6663C52.8866 15.6694 52.9359 15.4133 52.9135 15.3486C52.8724 15.2381 52.3995 15.1422 52.2306 15.086C51.891 14.9643 51.5898 14.7858 51.2696 14.611C50.953 14.4551 50.6098 14.3144 50.2413 14.2475C50.1501 14.2356 49.5718 14.2586 49.5626 14.2111C49.5516 14.154 49.5038 13.9068 49.353 13.9951C49.0817 14.1758 49.2264 14.1577 48.935 13.928C48.8291 13.8399 48.4788 13.6118 48.4489 13.8148C48.4009 14.1792 47.9973 13.6753 47.8625 13.6421C47.3881 13.4873 46.757 13.4416 46.2648 13.3987C45.6927 13.3515 45.2139 13.2763 44.6762 13.2028C44.0206 13.1322 43.302 13.0936 42.6418 13.1523C42.1642 13.1854 42.306 13.3059 42.0124 13.4219C41.8846 13.4762 41.4677 13.2609 41.4588 13.164C41.5664 13.0051 41.3631 12.9753 41.2178 13.0922C41.1146 13.1713 40.8574 13.5269 40.8139 13.1999C40.833 13.1962 40.3026 13.1607 40.4902 13.2625C40.1832 13.1048 40.1925 12.8466 39.8184 13.057C40.1094 13.3361 39.5177 13.0855 39.4456 13.0699C39.1836 12.9923 38.7764 13.0316 38.4911 13.0374C37.9758 13.0286 37.4657 13.0976 36.9743 13.2124C36.8696 13.2326 36.7777 13.3194 36.6997 13.3246C36.4086 13.3513 36.1635 13.3099 35.8856 13.3538C35.5048 13.4275 35.4248 13.729 35.1009 13.5351C34.7979 13.3471 33.0384 13.6972 33.096 13.8932C32.8426 13.9619 32.7327 13.9043 32.5006 13.9294C32.2684 13.9546 32.0414 14.0577 31.8187 14.081C31.7611 13.885 31.2346 14.1249 31.1047 14.2191C30.843 14.3979 30.3723 14.262 30.0544 14.3038C29.6871 14.3452 29.2986 14.4302 28.961 14.5744C28.7055 14.683 28.7214 14.8673 28.4434 14.9112C28.078 14.9621 27.7197 14.7947 27.3818 14.9882C27.2654 15.0502 26.8134 15.5223 26.9508 15.1603C26.8444 14.8653 26.548 15.1199 26.6664 15.3238C26.6315 15.1432 26.2488 15.2073 26.1753 15.3892C25.9027 15.2052 23.9156 15.7571 24.0147 16.0141C23.9604 15.8865 23.8742 15.6961 23.5768 15.793C23.3539 15.8657 23.2924 15.9565 23.3467 16.0841C23.1505 16.1418 22.9306 16.0265 22.7512 16.1203C22.5451 16.2292 22.6771 16.401 22.4787 16.4986C22.1197 16.4299 21.4661 16.6253 21.0776 16.7103C20.6243 16.8177 19.9711 16.9637 19.5757 17.2177C19.3294 17.3738 19.3443 17.7063 18.9675 17.7496C18.7866 17.7846 18.4927 17.6441 18.3287 17.7153C18.2562 17.749 18.4358 17.9116 18.2945 17.9981C18.0826 18.1279 18.0735 17.7745 17.7169 17.9224C17.469 18.0196 17.3501 18.1708 17.1327 18.2721C16.8581 18.3843 16.609 18.3733 16.3271 18.4476C16.1118 18.5089 15.1495 18.7936 15.3629 19.0286C15.2571 18.6347 13.7541 19.5961 14.3101 19.7648C14.0384 19.7384 13.7552 19.7044 13.4481 19.8526C13.3135 20.0759 12.7122 20.133 12.4189 20.1995C11.9198 20.3256 11.7925 20.587 11.4052 20.7802C11.3902 20.7536 10.4839 20.9189 10.3847 20.9677C9.99917 21.1705 10.2159 21.4738 9.89183 21.5858C9.67068 21.668 9.97915 21.3223 9.64711 21.495C9.41428 21.619 9.33129 21.8027 9.0607 21.8846C8.82636 21.9497 8.45742 22.238 8.23293 22.2518C8.23293 22.2518 7.8915 22.1206 8.01395 22.2942C7.87318 22.5877 7.72833 22.3494 7.49701 22.5322C7.36123 22.6472 7.44495 22.927 7.34758 22.9853C7.3915 22.957 7.094 22.7976 7.00831 22.8141C6.88454 22.8381 6.73556 22.9359 6.63234 23.0151C6.45079 23.1488 6.52598 23.2822 6.62053 23.3626C6.53766 23.2405 6.07115 23.3307 6.1592 23.5307C6.20799 23.6298 6.32191 23.6571 6.13852 23.7813C5.92282 23.3298 5.31856 23.8314 4.80713 24.0979C4.61055 24.205 4.32828 24.3286 4.17129 24.4872C4.06406 24.5967 4.30326 24.659 4.32047 24.6458C4.21357 24.7059 3.94765 24.6587 3.78547 24.7394C3.5508 24.8538 3.32165 24.9967 3.09066 25.1302C2.16669 25.664 1.25961 26.2339 0.354357 26.8134C0.239781 26.8849 -0.0493173 27.1775 0.234465 27.1128L0.183184 27.103Z"/></svg>