<svg xmlns="http://www.w3.org/2000/svg" fill="none" viewBox="0 0 51 55"><path fill="#FF5B40" d="M32.6486 24.4181C35.68 25.4726 38.6373 26.6094 41.6835 27.4694C44.7371 28.3295 47.9019 28.7333 51 29.384C50.9481 29.8776 50.748 30.057 50.3774 30.1393C49.0137 30.431 47.6425 30.7077 46.301 31.0667C45.7599 31.2088 45.1522 31.4406 44.6778 31.4032C43.7291 31.3284 43.0472 32.0314 42.1208 32.0015C41.2165 31.9716 40.3049 32.2932 39.3933 32.4502C38.4594 32.6073 37.5107 32.6297 36.5916 32.8017C35.4799 33.0036 34.3755 33.3028 33.2415 33.4972C33.2712 33.5945 33.3082 33.6543 33.3082 33.7216C33.3601 34.3049 33.4935 34.7836 34.0642 35.1426C34.672 35.524 34.6201 36.3616 35.05 36.9225C35.6281 37.6704 36.0358 38.5454 36.5101 39.3755C37.3328 40.7965 38.1333 42.2324 38.9634 43.6533C39.3636 44.3414 39.9047 44.9621 40.1567 45.695C40.3271 46.2036 40.7051 46.6448 40.6607 47.2805C40.631 47.647 40.9942 48.0358 41.1424 48.4247C41.261 48.7314 41.2981 49.0829 40.9794 49.2997C40.6829 49.5017 40.4235 49.2773 40.2456 49.0903C39.4007 48.2004 38.3482 47.5722 37.481 46.7346C36.8288 46.1063 36.1247 45.5604 35.4873 44.9247C35.05 44.4909 34.5608 44.132 34.1458 43.6533C33.7826 43.2345 33.1674 42.9354 32.7227 42.4567C32.0927 41.7762 31.3516 41.2078 30.6474 40.602C29.8692 39.9289 29.0836 39.2708 28.3053 38.5977C28.2016 38.508 28.1349 38.3584 27.957 38.0966C27.9718 39.0689 28.0015 39.8766 27.9347 40.6918C27.8458 41.7313 27.8162 42.7783 27.7643 43.8179C27.6753 45.8521 27.2455 47.8489 27.0972 49.8756C27.0157 50.9825 27.0528 52.1491 26.6303 53.2335C26.5562 53.413 26.6006 53.6524 26.6303 53.8618C26.7785 54.8489 26.4969 55.1331 25.5185 54.9462C25.4074 54.9237 25.2888 54.9013 25.1554 54.8714C25.0887 53.5776 24.5921 52.3959 24.1844 51.1993C23.9769 50.601 23.9176 49.9803 23.8657 49.397C23.7768 48.32 23.1838 47.4749 22.8651 46.5102C22.5983 45.7025 22.1684 44.9322 22.2203 44.0647C22.2796 42.9802 21.7163 42.0454 21.6126 40.9984C21.5681 40.5272 21.5384 40.0336 21.4273 39.4877C17.0766 42.1875 13.0669 45.2463 8.99041 48.2752C9.24982 47.7816 8.77547 47.1982 9.16088 46.8243C9.70934 46.2858 9.85758 45.538 10.3171 44.9471C11.0805 43.9599 11.629 42.8232 12.3998 41.821C13.052 40.9759 13.7932 40.1234 14.1564 39.1437C14.6307 37.8573 15.5646 36.8926 16.1353 35.696C16.3132 35.3295 16.5059 34.9481 16.9506 34.8135C17.1359 34.7537 17.2322 34.5592 17.21 34.4396C17.1285 33.9235 17.4175 33.572 17.7362 33.1831C16.2242 32.9812 14.779 32.7569 13.3337 32.5923C11.629 32.4054 9.9317 32.1959 8.24183 31.9492C7.64148 31.8594 7.14489 31.5528 6.57419 31.4182C6.24807 31.3434 5.87008 31.3209 5.58102 31.291C4.34326 31.1639 3.21668 30.7152 2.05304 30.3861C1.34152 30.1842 0.689289 29.8252 0 29.3615C0.452115 28.823 1.05988 28.7034 1.60834 28.5912C4.20244 28.0677 6.78913 27.5517 9.30911 26.6916C10.0948 26.4224 10.9767 26.2878 11.8291 26.1532C12.3034 26.0784 12.8667 25.7194 13.3856 25.6521C14.4677 25.51 15.4608 25.0463 16.5281 24.8967C16.7727 24.8593 17.0173 24.7472 17.1878 24.5602C14.3491 19.168 11.1546 13.9853 8.20477 8.69786C8.77547 8.20426 9.84276 8.28653 10.3468 8.74273C11.1917 9.49808 12.0514 10.2459 13.052 10.7919C13.3707 10.9639 13.7043 11.4575 13.8451 11.809C13.897 11.9511 14.06 11.9735 14.2305 11.9511C14.9568 11.8539 15.9648 12.8037 15.9278 13.5515C16.4837 13.7011 17.0321 13.8731 17.2248 14.5238C17.2471 14.5836 17.2767 14.6584 17.3286 14.6958C18.3885 15.481 19.3965 16.3261 20.4267 17.1413C20.6564 17.3283 20.9751 17.433 21.2049 17.6947C21.3013 17.8069 21.6496 17.8593 21.7237 17.4479C22.0795 15.4287 22.4723 13.4094 22.7688 11.3827C22.8874 10.59 23.0875 9.76731 23.2654 8.97457C23.4136 8.32392 23.3247 7.47883 23.3543 6.72348C23.384 5.92326 23.5693 5.13051 23.7471 4.33777C23.9991 3.20849 24.3327 2.09416 24.5476 0.957396C24.6069 0.658248 24.7403 0.403972 24.9627 0.179611C25.1257 0.0300369 25.2591 0.00012207 25.4666 0.00012207C25.8002 0.00012207 25.7409 0.269355 25.7779 0.441366C26.3412 3.029 26.6599 5.6615 27.0157 8.28653C27.2677 10.1562 27.364 12.0408 27.6828 13.903C27.7717 14.4415 27.957 15.0473 27.7939 15.6456C27.7272 15.8998 27.831 16.1018 28.0015 16.3336C28.3424 16.8123 28.0904 17.4704 28.4091 18.0313C28.5203 18.0762 28.6315 18.0014 28.7723 17.8892C29.6024 17.2161 30.4029 16.4832 31.3071 15.9298C32.4411 15.2342 33.286 14.1947 34.4274 13.5141C34.7683 13.3122 34.9166 12.7738 35.2872 12.4821C35.6133 12.2203 35.7838 11.7492 36.3841 11.9511C36.6583 12.0408 36.7325 11.5472 36.94 11.3453C37.6589 10.6423 38.5928 10.2534 39.3117 9.55791C39.4748 9.40085 39.7194 9.31111 39.8676 9.1391C40.3049 8.60811 40.8163 8.35384 41.5204 8.54828C42.1208 9.34102 41.5649 10.1263 41.2017 10.747C40.6977 11.5921 40.253 12.4821 39.6601 13.2673C39.0671 14.0451 38.7633 14.9949 38.2 15.7727C36.8362 17.6648 35.7245 19.7289 34.3311 21.6061C33.6862 22.4811 33.1674 23.4384 32.6412 24.4181H32.6486Z"/></svg>