<svg width="96" height="119" viewBox="0 0 96 119" fill="none" xmlns="http://www.w3.org/2000/svg">
<path d="M42.6205 42.691C44.461 35.6391 46.4452 28.7596 47.9464 21.6732C49.4476 14.5695 50.1525 7.20723 51.2881 0.000116975C52.1497 0.120814 52.463 0.586337 52.6066 1.44844C53.1157 4.62094 53.5986 7.81069 54.2252 10.9315C54.4732 12.1901 54.8779 13.604 54.8126 14.7074C54.6821 16.9144 55.9092 18.5007 55.8569 20.6559C55.8047 22.7594 56.366 24.8802 56.6402 27.0009C56.9143 29.1734 56.9535 31.3804 57.2537 33.5184C57.6061 36.1046 58.1283 38.6737 58.4677 41.3117C58.6374 41.2427 58.7418 41.1565 58.8593 41.1565C59.8775 41.0358 60.7129 40.7255 61.3395 39.3978C62.0053 37.984 63.4673 38.1047 64.4463 37.1047C65.7517 35.7598 67.279 34.8115 68.7279 33.708C71.2081 31.7942 73.7145 29.932 76.1947 28.0009C77.3956 27.0699 78.4791 25.8112 79.7583 25.225C80.646 24.8284 81.4162 23.9491 82.5257 24.0526C83.1654 24.1215 83.8442 23.2767 84.5229 22.9318C85.0582 22.656 85.6717 22.5698 86.0502 23.3112C86.4027 24.0008 86.0111 24.6043 85.6847 25.0181C84.1313 26.9837 83.0348 29.432 81.5728 31.4493C80.4763 32.9666 79.5234 34.6046 78.4138 36.0874C77.6567 37.1047 77.0301 38.2426 76.1947 39.2082C75.4637 40.053 74.9415 41.4841 74.1061 42.5186C72.9182 43.9842 71.9261 45.7084 70.8687 47.3464C69.6939 49.1568 68.5452 50.9844 67.3703 52.7948C67.2137 53.0362 66.9526 53.1914 66.4957 53.6052C68.1927 53.5707 69.6025 53.5017 71.0254 53.6569C72.8399 53.8638 74.6674 53.9328 76.4819 54.0535C80.0325 54.2604 83.5178 55.2604 87.0554 55.6052C88.9873 55.7949 91.0237 55.7087 92.9165 56.6915C93.2298 56.8639 93.6475 56.7604 94.013 56.6915C95.7361 56.3466 96.2322 57.0018 95.9058 59.2777C95.8667 59.5364 95.8275 59.8122 95.7753 60.1226C93.517 60.2778 91.4545 61.433 89.3659 62.3813C88.3216 62.8641 87.2381 63.002 86.2199 63.1227C84.3402 63.3296 82.8651 64.7089 81.1812 65.4503C79.7714 66.0711 78.4269 67.0711 76.9126 66.9504C75.0198 66.8125 73.3881 68.1228 71.5606 68.3642C70.7382 68.4677 69.8767 68.5366 68.9237 68.7953C73.6361 78.9163 78.9751 88.2441 84.2619 97.7272C83.4003 97.1237 82.3821 98.2272 81.7295 97.3306C80.7896 96.0547 79.4842 95.7099 78.453 94.6409C76.7299 92.865 74.7457 91.5891 72.9965 89.7959C71.5214 88.2786 70.0333 86.5544 68.3233 85.7096C66.078 84.6061 64.3941 82.4336 62.3055 81.106C61.6659 80.6922 61.0001 80.2439 60.7652 79.2094C60.6607 78.7783 60.3213 78.5542 60.1125 78.6059C59.2118 78.7956 58.5982 78.1231 57.9194 77.3817C57.567 80.8991 57.1754 84.2613 56.8882 87.6234C56.5619 91.5891 56.1963 95.5375 55.7656 99.4686C55.6089 100.865 55.0737 102.02 54.8388 103.348C54.7082 104.107 54.6691 104.986 54.6168 105.658C54.3949 108.538 53.6117 111.159 53.0373 113.866C52.6849 115.521 52.0583 117.038 51.249 118.642C50.3091 117.59 50.1002 116.176 49.9044 114.9C48.9907 108.865 48.09 102.848 46.5888 96.9858C46.1189 95.1581 45.8839 93.1063 45.6489 91.1235C45.5184 90.0201 44.8918 88.7097 44.7743 87.5027C44.5263 84.9854 43.717 82.675 43.4559 80.1922C43.3906 79.6232 43.1948 79.0542 42.8685 78.6576C33.4567 85.2613 24.4105 92.6925 15.1815 99.5548C14.3199 98.2272 14.4635 95.7444 15.2598 94.5719C16.5782 92.6063 17.8836 90.6063 18.8365 88.2786C19.1368 87.5372 19.9983 86.7613 20.6119 86.4337C20.8599 86.313 20.899 85.9337 20.8599 85.5372C20.6902 83.8475 22.348 81.5026 23.6534 81.5888C23.9144 80.2956 24.2147 79.0197 25.3504 78.5714C25.4548 78.5197 25.5853 78.4507 25.6506 78.33C27.0212 75.8645 28.4963 73.5196 29.9192 71.1229C30.2455 70.5884 30.4283 69.847 30.8851 69.3125C31.0809 69.0884 31.1723 68.278 30.4544 68.1056C26.9299 67.278 23.4054 66.3642 19.8678 65.6745C18.4841 65.3986 17.0482 64.9331 15.6645 64.5193C14.5288 64.1745 13.0537 64.3814 11.7353 64.3124C10.3386 64.2434 8.95486 63.8124 7.57116 63.3986C5.60005 62.8123 3.65504 62.0365 1.67087 61.5364C1.14872 61.3985 0.704896 61.0882 0.313284 60.5709C0.0522091 60.1916 -5.83771e-06 59.8812 -5.88567e-06 59.3984C-5.96275e-06 58.6226 0.469929 58.7605 0.770165 58.6743C5.28676 57.3639 9.88167 56.6225 14.4635 55.7949C17.727 55.2087 21.0165 54.9845 24.2669 54.2431C25.2068 54.0362 26.2641 53.6052 27.3084 53.9845C27.7522 54.1397 28.1047 53.8983 28.5094 53.5017C29.3448 52.7086 30.4935 53.2948 31.4726 52.5534C31.5509 52.2948 31.4203 52.0362 31.2245 51.7086C30.0497 49.7775 28.7704 47.9153 27.8045 45.8118C26.5905 43.1738 24.776 41.2082 23.5881 38.553C23.2356 37.7599 22.2958 37.415 21.7867 36.5529C21.3298 35.7943 20.5074 35.3977 20.8599 34.0011C21.0165 33.3632 20.155 33.1908 19.8025 32.708C18.5755 31.0355 17.8967 28.8631 16.6827 27.1906C16.4085 26.8113 16.2519 26.2423 15.9517 25.8974C15.0248 24.8802 14.581 23.6905 14.9204 22.0525C16.3041 20.6559 17.6748 21.949 18.7582 22.7939C20.2333 23.9664 21.7867 25.0009 23.1573 26.3802C24.5149 27.7596 26.1727 28.4665 27.5303 29.7769C30.8329 32.9494 34.4358 35.5357 37.7122 38.7771C39.2395 40.2772 40.9104 41.4841 42.6205 42.7083L42.6205 42.691Z" fill="#D6E5EB"/>
</svg>
