<svg width="197" height="40" viewBox="0 0 197 40" fill="none" xmlns="http://www.w3.org/2000/svg">
<path d="M33.7326 4.79714C33.7326 2.70665 32.8984 2.87046 30.666 2.87046V2.58965L41.1326 2.38684V15.6396H41.4493C41.8047 14.5163 42.8861 9.64893 48.1387 9.64893C53.3913 9.64893 54.4264 12.8627 54.3878 17.8861V25.4836C54.3878 27.3322 54.5036 28.4555 55.0675 28.4555C55.3456 28.4555 55.7009 28.2527 55.9017 27.574L56.1026 27.8549C55.6237 29.1809 54.4727 30.1091 52.0395 30.1091C48.2546 30.1091 46.3466 27.8549 46.3466 22.3478V15.8736C46.3466 12.6989 46.1458 11.5288 44.8713 11.5288C43.0019 11.5288 41.5652 14.7035 41.5652 18.5647V29.7425H33.7249V4.79714H33.7326Z" fill="white"/>
<path d="M146.347 4.79714C146.347 2.70665 145.513 2.87046 143.281 2.87046V2.58965L153.747 2.38684V15.6396H154.064C154.419 14.5163 155.501 9.64893 160.753 9.64893C166.006 9.64893 167.041 12.8627 167.002 17.8861V25.4836C167.002 27.3322 167.118 28.4555 167.682 28.4555C167.96 28.4555 168.316 28.2527 168.516 27.574L168.717 27.8549C168.238 29.1809 167.087 30.1091 164.654 30.1091C160.869 30.1091 158.961 27.8549 158.961 22.3478V15.8736C158.961 12.6989 158.761 11.5288 157.486 11.5288C155.617 11.5288 154.18 14.7035 154.18 18.5647V29.7425H146.34V4.79714H146.347Z" fill="white"/>
<path d="M75.344 24.0405C73.8687 28.1825 70.609 30.1091 66.152 30.1091C60.4204 30.1091 56.396 27.0124 56.396 19.9375C56.396 12.8627 61.0152 9.64893 67.0248 9.64893C71.5204 9.64893 75.066 11.4196 75.066 14.9921C75.066 17.2464 73.2739 18.7753 71.0879 19.5787C68.9405 20.3432 66.43 20.663 64.5221 21.3884C64.8002 24.5241 65.8353 27.6989 69.5816 27.6989C72.092 27.6989 74.1159 26.4898 75.0351 23.9235L75.3518 24.0405H75.344ZM69.4503 13.0265C69.4503 11.0998 68.6161 10.0545 67.5424 10.0545C65.7503 10.0545 64.4371 11.5444 64.4371 18.7753C64.4371 19.5007 64.4371 20.2652 64.5144 21.0686C67.1021 19.5007 69.4503 16.404 69.4503 13.0265Z" fill="white"/>
<path d="M124.286 28.4243C123.653 29.2668 121.737 29.9922 119.513 29.9922C115.813 29.9922 114.175 28.0187 114.175 23.4399V13.0265C114.175 10.936 113.341 10.7332 111.108 10.7332V10.4134C115.249 10.4134 118.871 10.1716 121.853 9.64899V22.3089C121.853 26.8487 121.853 28.6583 123.05 28.6583C123.529 28.6583 123.923 28.3385 124.047 28.1357L124.286 28.4165V28.4243ZM118.076 0C120.548 0 122.456 1.73167 122.456 3.93916C122.456 6.14665 120.548 7.87832 118.076 7.87832C115.604 7.87832 113.696 6.14665 113.696 3.93916C113.696 1.73167 115.604 0 118.076 0Z" fill="white"/>
<path d="M129.74 22.8316C128.504 22.9096 127.507 23.2762 127.507 24.1576C127.507 25.4447 129.176 25.7645 131.57 25.8425C133.602 25.9205 136.027 25.5617 138.375 25.5617C143.474 25.5617 146.139 28.7754 146.139 32.1919C146.139 35.9673 142.516 39.9922 134.475 39.9922C125.754 39.9922 123.962 36.8955 123.962 33.9236C123.962 32.7146 124.595 31.2715 125.313 30.9907C124.317 30.2263 123.684 29.103 123.684 27.4571C123.684 24.6802 126.07 23.2372 129.098 22.5898C126.75 21.6615 124.958 19.8596 124.958 16.5991C124.958 10.9283 130.651 9.64904 134.591 9.64124C138.97 9.64124 144.54 11.8955 144.54 16.5133C144.54 22.0983 139.526 23.4712 134.506 23.4712C132.914 23.4712 131.238 23.3074 129.732 22.8316H129.74ZM125.676 35.3355C125.676 37.3479 127.909 39.7582 134.475 39.7582C141.04 39.7582 143.111 37.3089 143.111 35.0937C143.111 32.5976 141.079 32.1607 138.213 32.1607C135.548 32.1607 133.872 32.4415 131.207 32.4415C130.412 32.4415 129.539 32.4025 128.697 32.2777C127.028 32.3557 125.669 33.7676 125.669 35.3355H125.676ZM135.587 10.2497C135.309 10.0079 134.954 9.89085 134.591 9.89085C132.76 9.89085 131.802 13.1904 131.802 16.5679C131.802 19.9454 132.675 23.245 134.506 23.245C136.336 23.245 137.333 19.8674 137.333 16.5679C137.333 14.1186 136.854 11.6225 135.819 10.4993C135.734 10.4057 135.664 10.3511 135.579 10.2575L135.587 10.2497Z" fill="white"/>
<path d="M180.574 24.1965C180.574 27.9719 178.782 30.1092 175.082 30.1092C170.548 30.1092 169.706 27.7379 169.706 23.5179V10.7332H167.991V10.4134H168.432C172.332 10.4134 176.874 6.15441 176.874 3.4165H177.114V10.4134H179.701V10.7332H177.114V25.4446C177.114 27.4181 177.67 28.1747 178.504 28.1747C179.423 28.1747 180.219 26.326 180.219 24.1965H180.574Z" fill="white"/>
<path d="M182.042 22.4337C183.756 22.4337 184.745 23.7208 184.745 25.2107C184.745 26.4197 184.027 27.4181 183.231 28.2684C183.586 29.0718 185.463 29.7582 186.854 29.7582C189.001 29.7582 190.515 28.3542 190.515 26.6615C190.515 25.2185 189.836 24.3292 188.128 23.5258L183.154 21.2325C180.767 20.1483 179.57 18.2996 179.57 15.9673C179.57 12.4259 182.837 9.65684 187.734 9.65684C190.523 9.65684 192.354 10.7021 193.466 10.7021C194.223 10.7021 194.663 10.0625 194.663 9.57883V9.33702C194.663 9.22002 194.779 9.17322 194.825 9.17322C194.872 9.17322 194.941 9.21222 194.941 9.33702V15.8113C194.941 15.9751 194.825 15.9751 194.779 15.9751C194.733 15.9751 194.702 15.9751 194.663 15.8581C193.829 12.8862 192.392 10.0313 188.136 10.0313C186.344 10.0313 185.386 10.7177 185.386 12.0437C185.386 13.2918 186.22 14.337 187.812 15.0547L192.871 17.3479C195.814 18.674 196.571 20.8035 196.571 22.894C196.571 28.2372 191.674 30.1327 186.977 30.1327C182.636 30.1327 179.176 28.4868 179.176 25.5071C179.176 23.8222 180.288 22.4494 182.042 22.4494V22.4337Z" fill="white"/>
<path d="M115.187 27.3323C115.109 27.2543 115.024 27.2543 114.947 27.2933C114.545 27.6521 114.19 27.8939 113.433 27.8939C112.043 27.8939 111.641 25.3588 110.49 22.5507C108.659 18.1669 105.392 16.8799 101.337 16.8799C99.9849 16.8799 99.9463 16.638 101.221 16.4742C105.4 15.7488 110.019 13.3775 110.019 9.47736C110.019 5.78001 105.801 2.56628 99.1893 2.56628H85.0536C84.2811 2.56628 83.6323 2.62089 82.8598 2.62089V3.10451C83.1688 3.0733 83.4855 3.0499 83.8176 3.0499C85.4089 3.0499 86.8842 3.61153 86.8842 5.4212V25.9204C86.8842 28.2527 85.8105 29.415 82.6281 29.415C82.5122 29.415 82.4272 29.493 82.4272 29.5788C82.4272 29.6646 82.5045 29.7426 82.6281 29.7426H99.784C99.8999 29.7426 99.9849 29.6646 99.9849 29.5788C99.9849 29.493 99.9076 29.415 99.784 29.415C96.6016 29.415 95.5279 28.2527 95.5279 25.9204V2.8939H96.2463C99.8304 2.8939 101.422 6.23243 101.422 9.60997C101.422 13.2683 99.869 16.9657 96.8797 17.0047V17.4103C98.8339 17.4103 99.9849 19.8596 101.097 23.7207C102.333 27.9797 104.481 30.195 108.621 30.195C111.409 30.195 114.036 28.6661 115.148 27.5819C115.225 27.5039 115.225 27.4181 115.187 27.3401V27.3323Z" fill="white"/>
<path d="M22.37 2.89391H21.9297V25.9282C21.9297 28.2605 23.0034 29.4228 26.1858 29.4228C26.3017 29.4228 26.3867 29.5008 26.3867 29.5866C26.3867 29.6724 26.3094 29.7504 26.1858 29.7504H9.03759C8.92172 29.7504 8.83675 29.6724 8.83675 29.5866C8.83675 29.5008 8.914 29.4228 9.03759 29.4228C12.2201 29.4228 13.2938 28.2605 13.2938 25.9282V5.0624C13.2938 3.25272 11.4244 3.04992 9.47016 3.04992C4.58059 3.05772 2.23236 6.71606 2.23236 10.1326C2.23236 10.2496 2.23236 10.6942 2.30961 11.0608C2.78852 9.69578 4.49562 8.85335 6.04823 8.85335C7.95617 8.85335 10.0263 10.1404 10.0263 12.7535C10.0263 14.961 8.55095 17.1373 5.49207 17.1373C2.4332 17.1373 0 14.8752 0 11.4197C0 6.99687 3.86222 2.5741 10.7061 2.5741H31.5234V13.0265C31.5234 13.1435 31.4462 13.2293 31.3226 13.2293C31.199 13.2293 31.1218 13.1513 31.1218 13.0265C31.0059 8.80655 27.6149 2.89391 22.3622 2.89391H22.37Z" fill="white"/>
<path d="M182.652 29.025C184.606 29.025 186.19 27.4255 186.19 25.4524C186.19 23.4794 184.606 21.8799 182.652 21.8799C180.698 21.8799 179.114 23.4794 179.114 25.4524C179.114 27.4255 180.698 29.025 182.652 29.025Z" fill="white"/>
</svg>
