<svg width="138" height="40" viewBox="0 0 138 40" fill="none" xmlns="http://www.w3.org/2000/svg">
<path d="M106.069 17.4713C105.563 18.5977 105.31 19.977 105.08 21.2184V21.4713C103.448 25.5862 100.598 29.7011 98.092 29.7011C96.8506 29.7011 96.3448 28.069 95.977 25.3333L95.2184 20.3448L95.0805 18.5977L92.4598 18.2299L89.8391 24.092L90.0919 19.6092L87.3563 19.2414C86.7356 21.7471 85.7241 24.1149 84.6207 26.1149C83.1494 29.1034 80.0919 30.9885 76.7586 30.9885H76.6437C74.023 30.9885 71.6552 30.2299 69.4023 29.1264V27.8851C75.0575 25.1264 80.069 21.2184 84.1379 16.3908V16.2759L82.023 14.6437C78.7816 18.8506 74.6437 22.2529 69.9081 24.6207L69.6552 24.7356C69.908 17.1264 70.4138 9.26437 70.7816 5.77011L68.046 5.51724C67.6782 9.26437 67.1724 17.8851 66.8046 25.977L64.9425 26.4828L64.1839 28.8506L66.6897 30.5977L66.5747 39.3333V39.5862H69.3103V32.092C71.5632 33.0805 74.046 33.7241 76.6667 33.7241H76.7816C81.0345 33.7241 84.7816 31.3563 86.7586 27.8621L86.1379 32.7356L88.7586 33.4942L93.0115 23.8851L93.2644 25.7471C93.5172 27.8621 94.2529 32.4828 98.2529 32.4828C100.759 32.4828 102.989 30.6207 104.736 28C104.989 30.1149 105.494 32 106.483 33.3563C107.471 34.8506 109.103 35.8621 111.103 35.8621C113.126 35.954 114.989 34.8276 115.839 32.9885C117.218 30.1149 116.598 25.7471 114.207 22.5057C113.816 22.069 113.402 21.6322 112.966 21.2644H119.448V25.3793C119.333 32.8736 120.069 36.6207 121.954 38.6207C122.828 39.4943 123.954 40 125.195 40H125.31C130.552 40 134.414 32.5057 135.287 29.5172L132.552 28.7586C131.793 31.6322 128.437 37.2414 125.31 37.2414C124.69 37.2414 124.322 36.9885 124.069 36.7356C122.322 34.9885 122.069 29.3793 122.069 25.2414V20.9885C127.517 20.6437 132.897 19.3793 137.931 17.2414L136.805 14.7356C133.057 16.4828 127.816 17.7241 122.322 18.2299C122.437 14.7356 122.828 12 123.31 7.74713L123.563 4.36782L120.828 4L120.46 7.37931C120.092 10.3678 119.839 14.1149 119.586 18V18.3678C119.54 18.3448 111.678 18.8506 106.069 17.4713ZM113.31 31.7011C112.805 32.6897 112.069 33.0805 111.195 33.0805C110.069 33.0805 109.195 32.5747 108.69 31.8391C107.31 29.7241 107.195 25.6092 107.701 22.2299L107.954 20.9885C109.448 21.7471 111.08 22.9885 111.954 24.2299C113.931 26.8506 114.184 30.092 113.31 31.7011ZM48.1379 35.4483C46.1379 35.4483 45.4023 33.8161 45.1494 32.069C50.3908 29.7011 52.6437 24.3218 52.6437 21.7011C52.6437 19.4483 51.1494 18.5747 49.7701 18.5747C46.6437 18.5747 42.5287 23.931 42.2759 30.1839L39.6552 30.4368C38.4138 30.4368 37.5402 30.1839 37.0345 29.5632C35.2874 27.7012 35.4023 23.5632 35.4023 20.4598V18.9655L32.8966 18.0919L26.023 28.069C25.908 22.8276 26.2759 16.5747 26.8966 11.4713C28.1379 6.48276 29.2644 1.60919 28.5287 0.620689C28.2759 0.252873 27.908 0 27.2874 0L26.2989 0.505746C25.0115 3.86207 24.2988 7.4023 24.1839 10.9885C23.0575 15.2414 21.931 18.5977 20.6897 21.977L20.9425 21.3563C18.069 28.092 12.8276 34.9655 10.7126 35.3333C10.3448 34.7126 9.95402 32.4598 10.3448 26.092V25.4713L10.8506 20.4828L18.3448 19.4942L17.8391 16.7586L11.2184 17.6322L11.3333 16.3908C11.7011 13.8851 12.092 10.8966 12.3218 7.51724L9.58621 7.26437C9.33333 10.6437 8.96552 13.4943 8.5977 16L8.48276 17.8621L0 18.7356L0.252873 21.6092L8.11494 20.8506L7.74713 25.3333V26.092C7.24138 31.954 7.37931 35.954 8.87356 37.4483C9.24138 37.954 9.86207 38.2069 10.5057 38.2069C12.5057 38.2069 14.8736 36.3448 17.7471 32.5977C19.8621 29.7241 21.8621 26.4828 23.3563 22.9885V22.7356C23.3563 26.5977 23.3563 30.2299 23.6092 32.4828L26.1149 33.1034L29.7931 27.5862L32.6667 23.5862C32.6667 26.5747 33.1724 29.7011 35.0345 31.5862C36.2529 32.8276 37.931 33.4943 39.6552 33.4483L42.6437 33.0805H42.3908C43.0115 36.4598 45.0115 38.3218 48 38.3218C53.2414 38.3218 56.1149 33.0805 56.9885 28.5747L54.2529 28.069C54.2529 28.3218 52.7586 35.5632 48.023 35.5632L48.1379 35.4483ZM49.7701 21.4713V21.7241C49.7701 22.9655 48.5287 26.8506 45.1494 28.9655C45.7701 24.5977 48.6437 21.4713 49.7701 21.4713Z" fill="white"/>
</svg>
