<svg xmlns="http://www.w3.org/2000/svg" fill="none" viewBox="0 0 200 111"><g clip-path="url(#a)"><g fill="#fff" clip-path="url(#b)"><path d="M50.1148 48.0568C50.1148 46.459 49.4772 46.5842 47.771 46.5842V46.3696L55.7707 46.2146V56.3438H56.0128C56.2844 55.4853 57.1109 51.7651 61.1255 51.7651 65.1401 51.7651 65.9313 54.2214 65.9017 58.0608V63.8676C65.9017 65.2806 65.9903 66.1391 66.4213 66.1391 66.6338 66.1391 66.9054 65.9841 67.0589 65.4654L67.2124 65.68C66.8464 66.6936 65.9667 67.403 64.107 67.403 61.2141 67.403 59.7558 65.68 59.7558 61.471V56.5226C59.7558 54.0962 59.6023 53.2019 58.6282 53.2019 57.1995 53.2019 56.1013 55.6284 56.1013 58.5795V67.1228H50.1089V48.0568H50.1148ZM136.188 48.0568C136.188 46.459 135.55 46.5842 133.844 46.5842V46.3696L141.844 46.2146V56.3438H142.086C142.358 55.4853 143.184 51.7651 147.199 51.7651 151.213 51.7651 152.004 54.2214 151.975 58.0608V63.8676C151.975 65.2806 152.064 66.1391 152.495 66.1391 152.707 66.1391 152.979 65.9841 153.132 65.4654L153.286 65.68C152.92 66.6936 152.04 67.403 150.18 67.403 147.287 67.403 145.829 65.68 145.829 61.471V56.5226C145.829 54.0962 145.676 53.2019 144.701 53.2019 143.273 53.2019 142.175 55.6284 142.175 58.5795V67.1228H136.182V48.0568H136.188ZM81.9197 62.7649C80.792 65.9306 78.3006 67.4032 74.8941 67.4032 70.5134 67.4032 67.4375 65.0363 67.4375 59.6289 67.4375 54.2215 70.968 51.7653 75.5612 51.7653 78.9972 51.7653 81.7071 53.1186 81.7071 55.8491 81.7071 57.5721 80.3374 58.7406 78.6666 59.3547 77.0254 59.939 75.1066 60.1834 73.6484 60.7378 73.8609 63.1345 74.652 65.561 77.5154 65.561 79.4341 65.561 80.9809 64.6369 81.6835 62.6754L81.9256 62.7649H81.9197ZM77.415 54.3467C77.415 52.8742 76.7774 52.0753 75.9568 52.0753 74.5871 52.0753 73.5834 53.214 73.5834 58.7406 73.5834 59.2951 73.5834 59.8793 73.6425 60.4934 75.6202 59.2951 77.415 56.9282 77.415 54.3467ZM119.326 66.1155C118.842 66.7594 117.378 67.3138 115.677 67.3138 112.849 67.3138 111.598 65.8055 111.598 62.3059V54.3468C111.598 52.749 110.96 52.594 109.254 52.594V52.3496C112.418 52.3496 115.187 52.1648 117.466 51.7653V61.4414C117.466 64.9112 117.466 66.2943 118.381 66.2943 118.747 66.2943 119.048 66.0499 119.143 65.8949L119.326 66.1095V66.1155ZM114.579 44.3905C116.468 44.3905 117.927 45.714 117.927 47.4012 117.927 49.0884 116.468 50.412 114.579 50.412 112.69 50.412 111.232 49.0884 111.232 47.4012 111.232 45.714 112.69 44.3905 114.579 44.3905Z"/><path d="M123.494 61.8409C122.549 61.9005 121.788 62.1807 121.788 62.8544 121.788 63.8381 123.063 64.0825 124.893 64.1422 126.446 64.2018 128.3 63.9275 130.094 63.9275 133.991 63.9275 136.028 66.3838 136.028 68.9951 136.028 71.8806 133.259 74.957 127.113 74.957 120.447 74.957 119.078 72.5901 119.078 70.3186 119.078 69.3946 119.562 68.2916 120.111 68.077 119.349 67.4927 118.865 66.6342 118.865 65.3763 118.865 63.2538 120.69 62.1509 123.004 61.6561 121.209 60.9466 119.839 59.5694 119.839 57.0774 119.839 52.7431 124.191 51.7654 127.201 51.7594 130.549 51.7594 134.806 53.4824 134.806 57.0118 134.806 61.2805 130.974 62.3298 127.137 62.3298 125.92 62.3298 124.639 62.2046 123.488 61.8409H123.494ZM120.388 71.3977C120.388 72.9359 122.095 74.7781 127.113 74.7781 132.131 74.7781 133.713 72.9061 133.713 71.2129 133.713 69.3051 132.161 68.9713 129.97 68.9713 127.934 68.9713 126.652 69.1859 124.616 69.1859 124.007 69.1859 123.34 69.1561 122.697 69.0607 121.422 69.1203 120.383 70.1994 120.383 71.3977H120.388ZM127.963 52.2244C127.751 52.0396 127.479 51.9502 127.201 51.9502 125.802 51.9502 125.07 54.472 125.07 57.0535 125.07 59.635 125.737 62.1569 127.137 62.1569 128.536 62.1569 129.297 59.5754 129.297 57.0535 129.297 55.1815 128.931 53.2737 128.14 52.4152 128.075 52.3437 128.022 52.3019 127.957 52.2304L127.963 52.2244ZM162.347 62.8842C162.347 65.7697 160.978 67.4033 158.15 67.4033 154.684 67.4033 154.041 65.5909 154.041 62.3655V52.594H152.73V52.3496H153.067C156.048 52.3496 159.519 49.0944 159.519 47.0018H159.702V52.3496H161.68V52.594H159.702V63.8381C159.702 65.3464 160.128 65.9247 160.765 65.9247 161.468 65.9247 162.076 64.5118 162.076 62.8842H162.347Z"/><path d="M163.469 61.5368C164.78 61.5368 165.535 62.5205 165.535 63.6592 165.535 64.5833 164.986 65.3464 164.378 65.9962 164.65 66.6103 166.085 67.1349 167.147 67.1349 168.789 67.1349 169.946 66.0618 169.946 64.7681 169.946 63.6651 169.426 62.9855 168.121 62.3714L164.319 60.6186C162.495 59.7899 161.58 58.377 161.58 56.5944 161.58 53.8877 164.077 51.7712 167.82 51.7712 169.952 51.7712 171.351 52.5701 172.201 52.5701 172.78 52.5701 173.116 52.0813 173.116 51.7116V51.5268C173.116 51.4374 173.205 51.4016 173.24 51.4016 173.275 51.4016 173.329 51.4314 173.329 51.5268V56.4751C173.329 56.6003 173.24 56.6003 173.205 56.6003 173.169 56.6003 173.146 56.6003 173.116 56.5109 172.478 54.2395 171.38 52.0574 168.127 52.0574 166.758 52.0574 166.026 52.5821 166.026 53.5956 166.026 54.5495 166.663 55.3484 167.879 55.8968L171.746 57.6496C173.996 58.6631 174.574 60.2907 174.574 61.8885 174.574 65.9724 170.831 67.4211 167.242 67.4211 163.924 67.4211 161.279 66.1632 161.279 63.8857 161.279 62.598 162.129 61.5487 163.469 61.5487V61.5368ZM112.371 65.2807C112.312 65.2211 112.247 65.2211 112.188 65.2509 111.881 65.5251 111.61 65.7099 111.031 65.7099 109.968 65.7099 109.661 63.7723 108.782 61.6261 107.382 58.2755 104.885 57.2918 101.786 57.2918 100.752 57.2918 100.723 57.107 101.697 56.9818 104.891 56.4273 108.422 54.6149 108.422 51.634 108.422 48.8081 105.198 46.3518 100.144 46.3518H89.3403C88.7499 46.3518 88.254 46.3935 87.6636 46.3935V46.7632C87.8998 46.7393 88.1418 46.7214 88.3957 46.7214 89.6119 46.7214 90.7395 47.1507 90.7395 48.5338V64.2016C90.7395 65.9842 89.9189 66.8725 87.4865 66.8725 87.398 66.8725 87.333 66.9321 87.333 66.9977 87.333 67.0633 87.392 67.1229 87.4865 67.1229H100.599C100.688 67.1229 100.752 67.0633 100.752 66.9977 100.752 66.9321 100.693 66.8725 100.599 66.8725 98.1666 66.8725 97.3459 65.9842 97.3459 64.2016V46.6022H97.895C100.634 46.6022 101.851 49.1539 101.851 51.7354 101.851 54.5315 100.664 57.3574 98.3791 57.3872V57.6972C99.8728 57.6972 100.752 59.5692 101.603 62.5203 102.547 65.7755 104.189 67.4687 107.353 67.4687 109.484 67.4687 111.492 66.3002 112.342 65.4715 112.401 65.4118 112.401 65.3463 112.371 65.2866V65.2807ZM41.4311 46.6023H41.0945V64.2077C41.0945 65.9903 41.9152 66.8786 44.3476 66.8786 44.4361 66.8786 44.5011 66.9382 44.5011 67.0038 44.5011 67.0694 44.442 67.129 44.3476 67.129H31.241C31.1524 67.129 31.0875 67.0694 31.0875 67.0038 31.0875 66.9382 31.1465 66.8786 31.241 66.8786 33.6734 66.8786 34.494 65.9903 34.494 64.2077V48.2597C34.494 46.8766 33.0653 46.7216 31.5716 46.7216 27.8345 46.7275 26.0397 49.5237 26.0397 52.1349 26.0397 52.2244 26.0397 52.5642 26.0987 52.8444 26.4648 51.8011 27.7695 51.1572 28.9562 51.1572 30.4145 51.1572 31.9967 52.1409 31.9967 54.1381 31.9967 55.8253 30.8691 57.4887 28.5311 57.4887 26.1932 57.4887 24.3335 55.7597 24.3335 53.1186 24.3335 49.7383 27.2854 46.3579 32.5162 46.3579H48.4271V54.3468C48.4271 54.4362 48.3681 54.5018 48.2736 54.5018 48.1792 54.5018 48.1201 54.4422 48.1201 54.3468 48.0316 51.1214 45.4398 46.6023 41.4252 46.6023H41.4311Z"/><path d="M163.936 66.5746C165.429 66.5746 166.64 65.3521 166.64 63.8441C166.64 62.336 165.429 61.1135 163.936 61.1135C162.443 61.1135 161.232 62.336 161.232 63.8441C161.232 65.3521 162.443 66.5746 163.936 66.5746Z"/></g></g><defs><clipPath id="a"><path fill="#fff" d="M0 0H151.333V39.7441H0z" transform="translate(24.3335 35.2188)"/></clipPath><clipPath id="b"><path fill="#fff" d="M0 0H150.241V30.5724H0z" transform="translate(24.3335 44.3905)"/></clipPath></defs></svg>