<svg xmlns="http://www.w3.org/2000/svg" fill="none" viewBox="0 0 200 111"><g fill="#fff" clip-path="url(#a)"><path d="M66.8529 66.4725 57.6001 53.5619H54.1343V72.7771H57.8359V59.8568L67.0886 72.7771H70.5544V53.5619H66.8529V66.4725ZM92.0009 53.5619H87.5118L82.6388 61.5022 77.6272 53.5619H72.9023L80.3833 64.9826V72.7771H84.4008V65.0336L92.0009 53.5619ZM102.525 61.5291 100.277 61.0163C97.6398 60.4257 97.0808 59.9517 97.0808 58.807 97.0808 57.7011 98.2231 56.6755 100.393 56.6755 102.316 56.647 104.183 57.3211 105.643 58.5712L107.972 55.4918C105.801 53.7176 103.038 53.0857 100.551 53.0857 96.0527 53.0857 92.8955 55.73 92.8955 59.242 92.8955 62.003 94.7524 63.7797 98.539 64.5283L100.751 64.9633C103.315 65.4762 104.26 66.4216 104.26 67.5275 104.26 69.0659 102.96 69.7781 100.79 69.817 98.697 69.8558 96.6846 69.1073 94.869 67.2528L92.4629 70.1694C94.3173 72.3009 97.5936 73.2488 100.671 73.2488 105.366 73.2488 108.288 70.9593 108.288 67.2504 108.288 64.0568 106.275 62.3992 102.525 61.5291ZM114.789 64.8637C115.411 67.7559 117.635 69.6662 120.561 69.6662 122.688 69.6662 124.382 68.6819 125.602 66.9927L128.397 69.3576C127.499 70.5875 126.318 71.583 124.955 72.2599 123.591 72.9368 122.084 73.2752 120.561 73.2463 114.458 73.2463 110.521 68.8715 110.521 63.1648 110.521 57.4581 114.427 53.0833 120.019 53.0833 124.207 53.0833 129.935 55.9998 128.988 64.8588L114.789 64.8637ZM125.189 61.7527C124.761 57.8178 122.216 56.6317 120.486 56.6317 117.543 56.6317 115.411 58.4813 114.728 61.7527H125.189ZM126.958 42.7295H140.081V55.8515H145.88V36.9329H126.958V42.7295Z"/></g><defs><clipPath id="a"><path fill="#fff" d="M0 0H91.7313V36.3159H0z" transform="translate(54.1343 36.9329)"/></clipPath></defs></svg>