<svg xmlns="http://www.w3.org/2000/svg" fill="none" viewBox="0 0 200 111"><g fill="#fff" clip-path="url(#a)"><path d="M94.7681 39.7441C95.7038 39.7582 96.6367 39.7301 97.5724 39.7582 97.5556 40.5251 97.5696 41.292 97.564 42.0589 96.6339 42.0589 95.701 42.0589 94.7737 42.0617 94.7709 41.2892 94.7737 40.5167 94.7709 39.7441M109.905 39.7526C110.838 39.7413 111.771 39.7554 112.704 39.7441 112.698 44.4214 112.698 49.0959 112.704 53.7732 111.774 53.7676 110.847 53.7648 109.919 53.7732 109.897 49.0987 109.919 44.4242 109.905 39.7498M147.575 39.7892C147.857 39.7331 148.146 39.7415 148.435 39.7471 151.231 39.7499 154.027 39.7415 156.823 39.7499 156.985 39.719 157.021 39.8876 157.007 40.014 157.007 49.3096 157.007 58.6024 157.007 67.8979 156.988 68.6115 157.052 69.3278 156.971 70.0385 153.914 70.0357 150.858 70.0385 147.801 70.0385 147.6 70.0835 147.547 69.8419 147.572 69.6958 147.577 59.726 147.572 49.759 147.575 39.7892ZM133.341 39.9323C133.442 39.8087 133.638 39.7665 133.733 39.921 137.826 44.0281 141.919 48.1351 146.009 52.2421 146.124 52.3292 146.099 52.4753 146.113 52.6045 143.978 54.717 141.863 56.852 139.748 58.9842 139.669 59.0937 139.569 59.1274 139.445 59.0853 135.52 55.144 131.587 51.2083 127.67 47.2642 127.432 47.0423 127.186 46.8232 126.992 46.5591 126.872 46.3962 127.051 46.2529 127.152 46.1434 129.217 44.073 131.276 41.9998 133.338 39.9295M71.4566 40.5757C72.4007 40.5925 73.3448 40.5504 74.2862 40.5982 74.1573 41.5757 74.3534 42.5646 74.2133 43.545 74.8885 43.7051 75.6029 43.5759 76.2921 43.6152 76.2921 44.236 76.2921 44.8569 76.2949 45.4749 75.6421 45.4777 74.9866 45.458 74.3338 45.4805 74.3086 45.5002 74.2554 45.5423 74.2301 45.562 74.2862 46.1688 74.1909 46.7784 74.247 47.3851 74.317 48.02 74.1797 48.6549 74.2441 49.2898 74.303 49.8713 74.2301 50.4556 74.2946 51.0371 74.3562 51.3236 74.5747 51.627 74.8857 51.6551 75.3536 51.7001 75.827 51.672 76.2977 51.6326 76.2893 52.3602 76.2977 53.0878 76.2921 53.8154 75.474 53.8912 74.6504 53.9165 73.8295 53.8575 73.2188 53.7985 72.566 53.6609 72.1038 53.2282 71.6359 52.7872 71.451 52.1214 71.4594 51.4922 71.4594 49.4864 71.4622 47.4807 71.4594 45.4749 70.8991 45.4749 70.3416 45.4721 69.7812 45.4777 69.7812 44.8569 69.7812 44.2332 69.7812 43.6124 70.3388 43.618 70.8963 43.6152 71.4538 43.618 71.4594 42.6039 71.4594 41.5898 71.4538 40.5757M47.6857 43.4804C48.5934 43.2416 49.5879 43.3006 50.4452 43.6827 50.9943 43.9552 51.4398 44.4271 51.6891 44.9889 52.1261 44.4692 52.6024 43.9523 53.23 43.6686 54.1489 43.2416 55.2135 43.2725 56.18 43.5113 57.0541 43.7192 57.8385 44.3597 58.1495 45.2137 58.3596 45.6968 58.4577 46.225 58.4717 46.7531 58.4717 49.0932 58.4689 51.4304 58.4745 53.7704 57.5472 53.7704 56.6227 53.7704 55.6953 53.7704 55.7374 52.7985 55.6337 51.8265 55.701 50.8545 55.701 50.405 55.6561 49.9528 55.6869 49.5061 55.7346 49.0089 55.6225 48.5145 55.6925 48.02 55.6365 47.3486 55.7038 46.5845 55.2415 46.0339 54.9137 45.5873 54.3142 45.5086 53.7987 45.5423 53.1403 45.5536 52.5296 46.0311 52.3223 46.652 52.1794 47.0902 52.1261 47.5537 52.1318 48.0144 52.1346 49.9331 52.1318 51.8518 52.1346 53.7704 51.2016 53.7704 50.2715 53.7564 49.3386 53.7789 49.3218 51.6186 49.3386 49.4555 49.3302 47.2953 49.3078 46.8318 49.2405 46.3177 48.8819 45.989 48.4449 45.4805 47.6773 45.4524 47.0805 45.635 46.2849 45.9412 45.7946 46.7615 45.7778 47.5987 45.7582 49.6578 45.7806 51.7169 45.7666 53.7789 44.8421 53.7592 43.9148 53.7789 42.9902 53.7676 43.0014 50.3826 42.9874 47.0003 42.993 43.6152 43.8699 43.6152 44.7496 43.6265 45.6265 43.6068 45.6293 44.0647 45.6181 44.5254 45.6377 44.9833 46.1392 44.2866 46.8424 43.6911 47.6857 43.4804ZM61.2529 44.2417C62.3875 43.399 63.8752 43.3119 65.2367 43.3484 66.3546 43.4186 67.5985 43.5507 68.4361 44.385 68.946 44.8036 69.1393 45.489 69.1505 46.1295 69.1589 48.051 69.1449 49.9753 69.1561 51.8968 69.1982 52.5288 69.2122 53.189 69.4951 53.7705 68.551 53.7705 67.6041 53.7677 66.6599 53.7733 66.5731 53.4699 66.5114 53.1581 66.489 52.8435 65.996 53.262 65.4553 53.6525 64.8193 53.807 63.5362 54.161 62.071 54.1891 60.8859 53.512 60.4573 53.1749 60.0146 52.7845 59.8465 52.2451 59.5075 51.3096 59.5523 50.2112 60.0482 49.3376 60.39 48.905 60.8159 48.5117 61.3482 48.3319 62.6201 47.8319 64.018 47.8909 65.3348 47.5706 65.7158 47.4695 66.1725 47.3318 66.3153 46.9161 66.4358 46.475 66.3546 45.961 66.0576 45.607 65.4805 45.1322 64.6624 45.194 63.9648 45.2727 63.2588 45.3654 62.7573 46.0312 62.7237 46.7194 61.7908 46.7194 60.8551 46.7194 59.9222 46.7194 59.9922 45.7587 60.432 44.7755 61.2557 44.2417M63.0011 49.7843C62.3903 50.1157 62.2979 50.9697 62.5752 51.5512 62.7994 51.9782 63.3121 52.1046 63.7519 52.1608 64.5223 52.2311 65.4244 52.1046 65.9175 51.4389 66.5086 50.7169 66.3462 49.7225 66.363 48.8572 65.3292 49.4528 64.0124 49.1297 63.0011 49.7843ZM80.9677 43.385C82.2256 43.2361 83.5984 43.4412 84.6153 44.2474 86.0638 45.3261 86.6521 47.2111 86.6661 48.9612 86.6325 49.0848 86.7389 49.377 86.5204 49.3517 84.1223 49.3629 81.7241 49.3517 79.326 49.3545 79.3428 50.068 79.4913 50.863 80.0656 51.3434 80.4466 51.7873 81.0517 51.8996 81.6037 51.953 82.5646 52.012 83.6236 51.5316 84.0158 50.613 84.8227 50.6074 85.6295 50.6102 86.4364 50.613 86.0666 51.9361 85.1645 53.1581 83.8673 53.6778 82.5422 54.1694 81.0489 54.1751 79.7098 53.734 77.9952 53.1581 76.7962 51.4895 76.6001 49.7141 76.3843 48.2589 76.6197 46.6886 77.4797 45.4694 78.253 44.298 79.5781 43.5254 80.9677 43.385ZM80.0824 45.9863C79.5949 46.3627 79.368 46.9807 79.3204 47.5791 80.8304 47.5735 82.3377 47.5735 83.8477 47.5791 83.674 46.7869 83.3266 45.8683 82.4946 45.5761 81.6989 45.3317 80.71 45.3795 80.0852 45.9863M103.159 43.3596C104.106 43.3062 105.067 43.3511 105.991 43.5674 106.72 43.7388 107.426 44.1209 107.857 44.7473 108.185 45.2052 108.275 45.7867 108.278 46.3373 108.275 48.1605 108.278 49.9836 108.278 51.8068 108.275 52.4726 108.334 53.1524 108.591 53.7732 107.647 53.7592 106.703 53.7732 105.759 53.7676 105.686 53.453 105.63 53.1383 105.577 52.8237 104.624 53.8182 103.176 54.1047 101.851 54.0401 101.075 53.9811 100.251 53.7957 99.6655 53.2479 98.9259 52.6664 98.699 51.6551 98.7494 50.7562 98.7998 50.0932 98.9819 49.3712 99.5114 48.9274 100.386 48.0846 101.666 47.9975 102.803 47.8346 103.619 47.6885 104.537 47.7194 105.227 47.1969 105.756 46.6266 105.431 45.5142 104.661 45.326 104.025 45.1743 103.313 45.1462 102.694 45.385 102.153 45.5985 101.898 46.1659 101.82 46.7081 100.893 46.7278 99.9625 46.7194 99.0351 46.7109 99.094 45.6884 99.6011 44.6602 100.506 44.1349 101.279 43.5955 102.237 43.4354 103.159 43.3568M102.002 49.8488C101.492 50.2056 101.453 50.9331 101.652 51.4753 101.84 51.9697 102.419 52.1158 102.893 52.1607 103.675 52.2225 104.621 52.0849 105.07 51.3545 105.619 50.6382 105.451 49.6859 105.479 48.8459 104.409 49.4639 103.025 49.1044 102.005 49.8488M87.6689 43.6181C88.5598 43.6125 89.4507 43.6181 90.3388 43.6125 90.3388 43.9524 90.336 44.2923 90.3528 44.6322 90.8123 44.3597 91.1905 43.9412 91.7088 43.7642 92.4652 43.5142 93.2721 43.6462 94.0509 43.6125 94.0509 44.4019 94.0509 45.1941 94.0509 45.9834 93.16 46.0368 92.1935 45.8121 91.3698 46.2503 90.6722 46.5762 90.3641 47.3909 90.3416 48.1184 90.3388 50.0006 90.3388 51.8855 90.3416 53.7677 89.4647 53.7621 88.5851 53.7789 87.7082 53.7593 87.6998 53.7228 87.6802 53.6469 87.6689 53.6104 87.6689 50.2787 87.6689 46.947 87.6689 43.6153M94.7709 43.6067C95.701 43.6235 96.6311 43.6095 97.5612 43.6151 97.5556 47.003 97.5724 50.3881 97.5528 53.7759 96.6255 53.7647 95.6954 53.7675 94.7681 53.7759 94.7681 50.3853 94.7681 46.9974 94.7681 43.6067M122.143 52.068C124.818 52.0427 127.496 52.0652 130.172 52.0567 130.637 52.0708 131.105 52.0202 131.567 52.0989 131.578 57.9644 131.567 63.83 131.573 69.6956 131.573 69.8248 131.536 69.9428 131.461 70.0467 128.362 70.0299 125.264 70.0467 122.165 70.0383 122.14 69.8529 122.123 69.6675 122.126 69.4821 122.143 63.6783 122.109 57.8717 122.143 52.068ZM69.7839 70.0413C69.7811 65.3528 69.7783 60.667 69.7839 55.9813 70.6944 55.9813 71.6077 55.9954 72.5211 55.9729 72.6555 56.4673 72.5519 56.9842 72.5771 57.4871 72.6163 58.1528 72.5127 58.8186 72.5771 59.4844 72.6247 60.035 72.4762 60.5884 72.6163 61.1334 72.7984 60.7373 73.129 60.4367 73.5016 60.2232 75.1321 59.1389 77.5751 59.4535 78.7742 61.0407 79.1692 61.4564 79.4045 61.9874 79.595 62.5239 80.1833 64.26 80.1217 66.2208 79.3877 67.9007 78.847 69.148 77.6619 70.1003 76.306 70.2773 75.2554 70.3868 74.1432 70.2379 73.2411 69.6564 72.8769 69.4458 72.6807 69.0609 72.4202 68.7463 72.4202 69.1761 72.423 69.6059 72.4202 70.0357 71.5405 70.0357 70.6608 70.0329 69.7783 70.0357M74.2916 61.7598C74.0199 61.8385 73.7594 61.9677 73.538 62.1447 72.8572 62.6363 72.6079 63.5128 72.507 64.3106 72.409 65.3893 72.5042 66.586 73.2046 67.4625 74.0255 68.5047 75.8689 68.4288 76.5693 67.2883 77.2641 66.1674 77.3678 64.7263 76.9671 63.4819 76.7822 62.9032 76.4825 62.3076 75.9222 62.0183 75.4459 61.7036 74.8436 61.639 74.2944 61.7626M103.07 55.984C104.002 55.984 104.933 55.984 105.866 55.984 105.877 58.4842 105.852 60.9844 105.877 63.4817 106.311 63.1278 106.63 62.6586 107.045 62.2822 107.835 61.4872 108.586 60.6501 109.382 59.8663 110.483 59.8495 111.584 59.8663 112.687 59.8607 111.441 61.122 110.127 62.3215 108.891 63.5941 109.006 63.9284 109.275 64.184 109.44 64.4958 110.665 66.3415 111.878 68.1899 113.102 70.0356 111.97 70.0356 110.841 70.0356 109.706 70.0356 109.012 68.9006 108.328 67.7601 107.619 66.6336 107.39 66.2628 107.224 65.8414 106.894 65.5493 106.58 65.9117 106.182 66.1954 105.877 66.555 105.843 67.7124 105.877 68.8754 105.863 70.0327 104.93 70.0327 103.997 70.0327 103.064 70.0327 103.064 65.347 103.064 60.6641 103.064 55.9784M82.1864 60.6051C83.4191 59.6837 85.0384 59.5068 86.5316 59.6163 87.585 59.6584 88.6748 59.9197 89.5097 60.5967 89.9748 61.0883 90.2633 61.7569 90.2577 62.4395 90.2633 64.1531 90.2577 65.8696 90.2577 67.586 90.2493 68.4119 90.2661 69.2715 90.5883 70.044 89.647 70.0356 88.7085 70.0412 87.7671 70.044 87.6663 69.7294 87.6075 69.4063 87.5906 69.0776 86.7642 69.912 85.5735 70.2856 84.4221 70.3137 83.4219 70.3727 82.3601 70.1479 81.5813 69.4878 80.4634 68.3894 80.3906 66.4005 81.4356 65.2319 81.9763 64.7599 82.6487 64.4481 83.3519 64.3161 84.3436 64.111 85.3634 64.0885 86.3552 63.8807 86.7726 63.7992 87.1844 63.5773 87.3973 63.1952 87.5654 62.6671 87.3805 62.0406 86.9267 61.7176 86.5905 61.5013 86.1702 61.4957 85.7864 61.4732 85.2513 61.4676 84.6406 61.5322 84.2596 61.9564 83.9626 62.2317 83.873 62.6418 83.8225 63.0267 82.8896 63.021 81.9567 63.0267 81.0238 63.0239 81.0798 62.1052 81.444 61.1866 82.1836 60.6108M84.8535 65.746C84.5061 65.833 84.1419 65.9454 83.8842 66.2095 83.4975 66.5578 83.4219 67.1477 83.5704 67.6253 83.7413 68.1085 84.2596 68.381 84.747 68.4175 85.5091 68.5158 86.3832 68.3866 86.9351 67.8023 87.5402 67.0438 87.4842 66.0184 87.4842 65.1026 86.6773 65.5493 85.7276 65.5184 84.8535 65.7431M94.4831 61.31C95.1191 60.2566 96.3182 59.6049 97.5396 59.5824 98.4529 59.5908 99.4475 59.7116 100.168 60.3353 100.845 60.8381 101.092 61.7033 101.229 62.4983 101.33 63.3832 101.285 64.2765 101.297 65.1642 101.294 66.7908 101.305 68.4173 101.294 70.0438 100.372 70.0382 99.4503 70.0438 98.5314 70.0438 98.5258 68.1729 98.5286 66.302 98.5314 64.431 98.509 63.7653 98.4866 63.0574 98.142 62.4674 97.831 61.9449 97.1642 61.7932 96.5955 61.8241 95.9932 61.8494 95.3124 62.0629 95.0238 62.6416 94.5223 63.4619 94.5952 64.4619 94.5924 65.3834 94.5924 66.9368 94.5924 68.4903 94.5924 70.0438 93.6623 70.0438 92.7321 70.0438 91.802 70.0438 91.802 66.6531 91.7992 63.2596 91.802 59.8661 92.6845 59.8661 93.567 59.8689 94.4495 59.8661 94.4719 60.3493 94.4075 60.8381 94.4859 61.3157"/></g><defs><clipPath id="a"><path fill="#fff" d="M0 0H114.027V30.5724H0z" transform="translate(42.9868 39.7441)"/></clipPath></defs></svg>