<svg xmlns="http://www.w3.org/2000/svg" fill="none" viewBox="0 0 201 111"><g fill="#fff" fill-rule="evenodd" clip-path="url(#a)" clip-rule="evenodd"><path d="M19.2413 67.7863C18.1248 68.9108 16.6981 69.5785 15.2094 69.6136 10.4332 69.5785 9.34764 65.0453 9.34764 59.0714 9.34764 53.0975 10.3711 48.5292 15.1474 48.5292 16.6051 48.5292 18.0007 49.1969 19.0242 50.3917L21.6605 55.3114H21.8155V48.3887H21.6605L19.1793 49.8294C18.0628 48.7401 16.6361 48.1075 15.1474 48.0724 10.5572 48.1075 5.09863 52.0784 5.09863 59.0714 5.09863 66.0644 10.4332 70.0704 15.2094 70.0704 16.7291 70.0353 18.1868 69.4028 19.3654 68.3134L21.9396 69.7542H22.0947V62.5152H21.9396L19.2413 67.7863ZM34.7806 48.1074C30.2835 48.1074 24.98 52.3946 24.98 59.0713 24.98 65.748 30.2835 70.0703 34.7806 70.0703 39.2777 70.0703 44.5812 65.7832 44.5812 59.0713 44.5812 52.3594 39.2467 48.1074 34.7806 48.1074ZM34.7806 69.6135C30.2215 69.6135 29.167 65.3615 29.167 59.0713 29.167 52.8163 30.2215 48.5291 34.7806 48.5291 39.3398 48.5291 40.3943 52.7811 40.3943 59.0713 40.3632 65.3263 39.3398 69.6135 34.7806 69.6135ZM60.3056 48.4941V48.8455H62.6937V62.3044H62.6627L54.1027 48.4941H46.7212V48.8455H49.1403V69.2974H46.7212V69.6488H51.9937V69.2974H49.5745V48.8455H49.6055L63.0349 70.0705H63.1589V48.8455H65.5471V48.4941H60.3056ZM75.9682 48.4941H67.6562V48.8455H70.0444V69.2974H67.6562V69.6488H75.9682C80.0931 69.6488 87.1645 67.6107 87.1645 58.9309 87.1645 50.2512 80.1241 48.4941 75.9682 48.4941ZM75.9061 69.2974H73.8902V48.8455H75.9061C80.8065 48.8455 83.0395 52.6407 83.0395 59.0715 83.0395 65.5022 80.7754 69.2974 75.9061 69.2974ZM102.578 69.2974H95.5069V58.5092H99.0736C100.252 59.5634 101.617 62.6207 101.617 62.6207H101.772V53.9761H101.586C101.586 53.9761 100.221 57.0333 99.0426 58.0875H95.4759V48.8455H101.803C103.633 50.216 105.245 54.1869 105.245 54.1869H105.401V48.4941H89.2729V48.8455H91.6921V69.2974H89.2729V69.6488H105.928V62.5504H105.773C105.804 62.5504 104.191 67.2592 102.578 69.2974ZM102.082 39.9198 96.1274 45.472 96.1895 45.5774 102.268 43.9961 101.772 42.4851 102.175 40.0252 102.082 39.9198ZM135.237 48.4941V48.8455H137.656V62.3044H137.594L129.034 48.4941H121.652V48.8455H124.071V69.2974H121.652V69.6488H126.925V69.2974H124.506V48.8455H124.568L137.966 70.0705H138.09V48.8455H140.509V48.4941H135.237ZM150.466 47.7561 142.371 69.2973H140.138V69.6487H145.162V69.2973H142.836L145.813 61.2853H151.892L155.056 69.2973H152.637V69.6487H161.414V69.2973H159.181L150.59 47.7561H150.466ZM148.791 53.3435 151.768 60.8987H145.937L148.791 53.3435ZM172.299 57.2442 168.608 55.8385C166.778 55.1357 165.258 54.1166 165.258 52.1136 165.258 49.8295 166.871 48.5644 169.321 48.5644 170.841 48.5644 171.802 49.0213 172.702 49.97L175.307 54.8546H175.462V48.1076H175.307L172.826 49.5132C171.833 48.5644 170.593 48.0725 169.29 48.1076 165.724 48.1076 163.397 50.7431 163.366 54.4329 163.397 57.4199 165.227 58.9661 167.336 59.8446L171.089 61.3908C173.074 62.199 174.439 63.1829 174.439 65.3968 174.439 67.4701 173.198 69.5785 169.942 69.6137 168.422 69.5785 166.685 68.8757 165.661 67.7512L162.839 62.4098H162.684L162.808 69.7191H162.963L165.506 68.1729C166.778 69.2974 168.329 69.9651 169.942 70.0002 174.035 70.0002 176.703 66.7321 176.703 63.1478 176.765 59.704 174.594 58.1227 172.299 57.2442ZM178.595 48.4941V55.0654H178.75C178.75 55.0654 180.487 50.8837 182.099 48.8455H185.356V69.2974H182.41V69.6488H192.086V69.2974H189.14V48.8455H192.396C194.04 50.8837 195.746 55.0654 195.746 55.0654H195.901V48.4941H178.595Z"/></g><defs><clipPath id="a"><path fill="#fff" d="M0 0H191.36V30.5724H0z" transform="translate(4.81982 39.7441)"/></clipPath></defs></svg>