<svg xmlns="http://www.w3.org/2000/svg" fill="none" viewBox="0 0 201 111"><g fill="#fff" fill-rule="evenodd" clip-path="url(#a)" clip-rule="evenodd"><path d="M102.651 49.3479 106.745 49.1944 103.309 60.5741H110.65L114.085 49.1944 118.09 49.3479 119.717 43.9445H104.278L102.651 49.3479ZM87.4426 52.3065C86.4149 57.645 80.789 60.8398 74.6228 60.8398 68.4567 60.8398 64.064 57.6391 65.0858 52.3065 66.09 47.0802 71.7805 43.6846 77.9232 43.6846 84.0659 43.6846 88.4468 47.0802 87.4426 52.3065ZM72.4676 52.3951C72.1035 54.2907 73.4072 55.5958 75.6329 55.5958 77.8586 55.5958 79.6615 54.2966 80.0256 52.3951 80.3662 50.6293 79.2034 49.153 76.872 49.153 74.5406 49.153 72.8082 50.6293 72.4676 52.3951Z"/><path d="M85.1631 59.3162C87.2596 60.267 90.096 60.8398 92.6447 60.8398 97.0139 60.8398 101.788 58.8792 102.552 54.9049 103.092 52.0821 101.107 50.712 98.1062 50.1392L96.503 49.8321C95.9627 49.7199 95.0701 49.6313 95.1875 49.0172 95.3167 48.3321 96.2974 48.1373 96.9375 48.1373 98.5173 48.1373 99.8327 48.6865 100.954 49.3951L103.756 45.1373C101.964 44.1452 99.9325 43.6846 97.6305 43.6846 93.2378 43.6846 88.44 45.8873 87.6824 49.838 87.1832 52.4423 89.3267 53.8301 92.1162 54.2494L93.5491 54.4679C94.1951 54.5801 95.1523 54.645 95.0055 55.395 94.8587 56.145 93.6607 56.3871 92.9383 56.3871 91.247 56.3871 89.8024 55.7021 88.6455 54.8635L88.3166 54.6214 85.1631 59.3221V59.3162ZM134.018 44.3636C132.549 43.9207 130.882 43.6786 129.22 43.6786 123.294 43.6786 117.915 47.5585 116.981 52.4127 116.071 57.1548 119.865 60.8397 125.626 60.8397 126.941 60.8397 129.713 60.639 130.982 60.1783L132.391 53.9599C131.029 54.9107 129.572 55.5012 127.887 55.5012 125.69 55.5012 124.058 54.0898 124.41 52.2592 124.757 50.4521 126.83 49.0171 129.026 49.0171 130.688 49.0171 132.015 49.7907 133.019 50.6942L134.023 44.3636H134.018ZM145.774 43.6786C139.637 43.6786 133.946 47.0742 132.936 52.3005 131.909 57.639 136.307 60.8338 142.473 60.8338 148.64 60.8338 154.265 57.6331 155.293 52.3005 156.297 47.0742 151.916 43.6786 145.774 43.6786ZM144.723 49.147C147.054 49.147 148.217 50.6234 147.876 52.3891 147.512 54.2847 145.709 55.5898 143.483 55.5898 141.258 55.5898 139.954 54.2906 140.318 52.3891 140.659 50.6234 142.391 49.147 144.723 49.147ZM66.9877 40.6314C65.1554 40.1 63.0707 39.8047 61.0036 39.8047 53.61 39.8047 46.8977 44.4995 45.7349 50.3636 44.5957 56.0977 49.3289 60.5504 56.5169 60.5504 58.1554 60.5504 61.6143 60.3083 63.194 59.7532L64.9558 52.2356C63.2586 53.3812 61.444 54.1017 59.3358 54.1017 56.5933 54.1017 54.5614 52.395 55.0018 50.1805 55.4364 47.9955 58.0203 46.2593 60.7628 46.2593 62.8358 46.2593 64.486 47.1924 65.7427 48.2849L66.9936 40.6314H66.9877ZM82.9616 62.7827 83.2435 67.2413H83.314C83.4608 66.7866 83.6194 66.3083 83.8484 65.8653L85.3753 62.7827H87.8593L88.2352 67.2413H88.3056C88.4348 66.8043 88.5817 66.3496 88.7813 65.9244L90.2729 62.7827H93.6438L89.0867 70.259H86.2561L86.0095 66.196H85.9038C85.7981 66.5799 85.6982 66.9578 85.5221 67.324L84.0657 70.259H81.3114L79.6025 62.7827H82.9616Z"/><path d="M93.4089 62.7827H96.5331L96.0574 65.2984H98.0482L98.5239 62.7827H101.648L100.233 70.259H97.1086L97.6019 67.6606H95.6111L95.1237 70.259H91.9995L93.4089 62.7827Z"/><path d="M110.791 66.5385C110.339 68.9361 107.855 70.377 105.13 70.377 102.405 70.377 100.467 68.942 100.92 66.5385 101.366 64.1881 103.879 62.6646 106.587 62.6646 109.294 62.6646 111.232 64.1941 110.785 66.5385H110.791ZM104.179 66.5798C104.02 67.4302 104.596 68.0149 105.577 68.0149 106.557 68.0149 107.356 67.4302 107.514 66.5798 107.667 65.7885 107.15 65.1212 106.123 65.1212 105.095 65.1212 104.332 65.7826 104.179 66.5798ZM111.501 62.7827H114.743L113.786 67.8555H116.505L116.052 70.259H110.092L111.501 62.7827ZM124.175 67.5778 124.321 67.6841C124.832 68.062 125.472 68.3691 126.218 68.3691 126.535 68.3691 127.07 68.2628 127.128 67.9203 127.193 67.5837 126.77 67.5542 126.482 67.5069L125.848 67.4065C124.615 67.2176 123.669 66.5916 123.893 65.4223 124.227 63.6448 126.342 62.6586 128.285 62.6586 129.301 62.6586 130.2 62.8653 130.987 63.3141L129.748 65.2274C129.254 64.9085 128.673 64.6605 127.974 64.6605 127.692 64.6605 127.258 64.7491 127.199 65.0562 127.146 65.3337 127.54 65.3751 127.78 65.4223L128.485 65.5581C129.806 65.818 130.687 66.4321 130.446 67.7018 130.112 69.4852 128.003 70.371 126.071 70.371 124.95 70.371 123.693 70.1112 122.771 69.686L124.163 67.5719 124.175 67.5778Z"/><path d="M135.315 67.5486L135.186 66.2316C135.151 65.9128 135.157 65.588 135.157 65.2691H135.039L134.017 67.5486H135.321H135.315ZM132.491 70.2532H129.061L133.571 62.777H137.153L138.921 70.2532H135.491L135.374 69.3202H132.925L132.491 70.2532Z"/><path d="M140.072 62.7827H143.313L142.356 67.8555H145.075L144.623 70.259H138.656L140.072 62.7827ZM146.637 62.7827H152.633L152.252 64.826H149.515L149.38 65.5405H151.876L151.512 67.4834H149.016L148.875 68.2157H151.705L151.318 70.259H145.222L146.637 62.7827ZM46.2461 70.2707H80.6181V70.2588H80.5887L80.1542 68.3573H46.2461V70.2707ZM46.2461 67.5546H79.9662L79.5317 65.6412H46.2461V67.5546ZM46.2461 64.8261H79.332L79.1852 64.1293 78.8798 62.7947H46.2461V64.8261ZM118.067 62.7827H124.068L123.681 64.826H120.95L120.815 65.5405H123.311L122.941 67.4834H120.445L120.31 68.2157H123.135L122.747 70.259H116.657L118.067 62.7827ZM152.451 60.385H152.11L152.392 59.0386H151.899L151.964 58.7551H153.285L153.226 59.0386H152.733L152.451 60.385ZM154.7 60.385H154.383L154.671 59.0209 154.078 60.385H153.743L153.737 59.0209H153.731L153.444 60.385H153.126L153.473 58.7551H153.966L153.99 60.0425H153.996L154.553 58.7551H155.047L154.7 60.385Z"/></g><defs><clipPath id="a"><path fill="#fff" d="M0 0H109.869V30.5724H0z" transform="translate(45.5654 39.8047)"/></clipPath></defs></svg>