<svg xmlns="http://www.w3.org/2000/svg" fill="none" viewBox="0 0 200 111"><g fill="#fff" clip-path="url(#a)"><path d="M99.4382 45.7393C93.2338 45.7393 88.54 50.5589 88.54 56.5295 88.54 62.8238 93.4316 67.3198 99.4382 67.3198 105.445 67.3198 110.318 62.8238 110.318 56.5295 110.318 50.5589 105.643 45.7393 99.4382 45.7393ZM99.4382 51.4401C102.118 51.4221 104.312 53.7061 104.312 56.5295 104.312 59.335 102.118 61.6189 99.4382 61.6189 96.7586 61.6189 94.5646 59.335 94.5646 56.5295 94.5646 53.7061 96.7586 51.4401 99.4382 51.4401ZM130.483 63.5423C130.483 65.6284 128.792 67.3189 126.706 67.3189 124.62 67.3189 122.93 65.6284 122.93 63.5423 122.93 61.4562 124.62 59.7657 126.706 59.7657 128.792 59.7657 130.483 61.4562 130.483 63.5423ZM119.491 66.6005H113.556V39.8047H119.491V66.6005Z"/><path fill-rule="evenodd" d="M61.4023 66.6003L72.1926 39.8046H77.7676L88.378 66.6003H80.8248L79.5659 62.8238H70.2144L68.9555 66.6003H61.4023ZM77.7676 57.2488H72.1926L74.9801 48.2569L77.7676 57.2488Z" clip-rule="evenodd"/></g><defs><clipPath id="a"><path fill="#fff" d="M0 0H77.1952V30.5724H0z" transform="translate(61.4023 39.8047)"/></clipPath></defs></svg>