<svg xmlns="http://www.w3.org/2000/svg" fill="none" viewBox="0 0 201 111"><g fill="#fff" clip-path="url(#a)"><path d="M146.525 44.0667C143.126 44.8923 140.534 47.6188 139.535 51.4205 139.017 53.379 138.959 57.1423 139.439 58.9664 140.265 62.2113 142.243 64.8226 144.835 66.0899 146.141 66.7235 146.217 66.7427 148.675 66.7427 151.133 66.7427 151.19 66.7235 152.515 66.0899 155.05 64.861 156.989 62.3265 157.815 59.216 158.314 57.3343 158.352 54.1086 157.911 52.0541 156.682 46.2939 151.728 42.8186 146.525 44.0667ZM150.576 45.4299C153.437 46.1787 155.491 48.4636 156.394 51.9197 156.778 53.4174 156.835 57.1231 156.47 58.5824 156.048 60.3488 154.954 62.4033 153.878 63.4786 152.669 64.669 151.401 65.3026 149.616 65.5522 147.197 65.917 144.681 64.9762 143.088 63.1137 142.108 61.9617 141.091 59.7536 140.784 58.0448 139.363 49.9805 144.163 43.7595 150.576 45.4299ZM22.0464 55.3182V66.2626H28.6322 35.2181L35.1413 65.5905 35.0645 64.9185 29.2658 64.8801 23.4864 64.8225V60.4064 55.9902L28.3442 55.9326 33.1828 55.8942V55.3182 54.7422L28.3442 54.7038 23.4864 54.6462 23.4288 50.1724 23.3904 45.7178H28.9586 34.5268L34.7188 45.2186C34.834 44.9498 34.9108 44.6426 34.9108 44.5466 34.9108 44.4506 32.338 44.3738 28.4786 44.3738H22.0464V55.3182ZM39.3276 55.3182V66.2626H39.9997 40.6717V56.2782C40.6717 50.7868 40.7293 46.2939 40.8253 46.2939 40.9021 46.2939 43.859 50.7868 47.3727 56.2782L53.7858 66.2626H54.7266 55.6482V55.3182 44.3738H54.8802 54.1122V54.2045C54.1122 62.5952 54.0738 63.9969 53.8434 63.7665 53.709 63.6129 52.2113 61.3088 50.5216 58.6783 48.8512 56.0286 46.1055 51.7468 44.435 49.1164L41.3821 44.3738H40.3453 39.3276V55.3182ZM61.4087 55.3182V66.2626H65.4024C67.9177 66.2434 69.9338 66.1474 70.8746 65.9746 75.8668 65.0913 78.6701 61.3856 78.6893 55.6638 78.6893 51.2092 77.0381 47.6187 74.1003 45.7178 72.4107 44.6426 70.7594 44.3738 65.7864 44.3738H61.4087V55.3182ZM71.9499 46.1978C73.9467 46.8699 75.5788 48.5979 76.5004 50.998 76.9229 52.1117 77.0381 52.7453 77.1149 54.7038 77.2493 58.4671 76.654 60.5024 74.8108 62.5184 73.1211 64.3809 71.1626 64.9185 66.0745 64.9185H62.9447V55.3182 45.737L65.7864 45.6794C68.9354 45.6218 70.6634 45.7562 71.9499 46.1978ZM82.9136 55.3182V66.2626H89.4418 95.97V65.5905 64.9185H90.1138 84.2576V60.4064 55.8942H89.0578 93.858V55.2606 54.6462H89.1154 84.3536L84.296 50.1724 84.2576 45.7178H89.8258C92.8787 45.7178 95.394 45.6986 95.394 45.6602 95.394 45.641 95.4708 45.3338 95.5668 44.9882L95.7588 44.3738H89.3266 82.9136V55.3182ZM108.393 44.5082C108.297 44.6618 107.816 45.8138 104.84 53.0141 103.9 55.2798 102.306 59.1391 101.269 61.5968 100.251 64.0353 99.4258 66.0898 99.4258 66.1666 99.4258 66.2242 99.733 66.2626 100.117 66.2242L100.808 66.1666 102.018 63.2865 103.228 60.4064 107.836 60.3488 112.444 60.3104 112.655 59.6959C112.77 59.3695 112.866 59.0815 112.866 59.0431 112.866 59.0047 110.85 58.9471 108.373 58.9279L103.88 58.8703 106.472 52.6301C107.893 49.1932 109.122 46.3131 109.199 46.2362 109.276 46.1594 110.025 47.7147 110.831 49.6924 111.657 51.67 112.54 53.7821 112.77 54.3581 113.02 54.9342 113.673 56.4894 114.21 57.8143 114.767 59.1391 115.631 61.2128 116.13 62.4224 116.649 63.6321 117.206 64.9953 117.378 65.4369 117.686 66.205 117.762 66.2626 118.454 66.2626H119.222L118.953 65.725C118.799 65.4369 118.204 64.0353 117.609 62.6144 117.033 61.1936 115.708 57.9871 114.671 55.5102 113.653 53.0333 112.271 49.654 111.599 48.0219 110.927 46.3899 110.293 44.9114 110.197 44.7578 110.025 44.4506 108.546 44.2394 108.393 44.5082ZM118.051 44.5466C118.051 44.6426 118.204 45.0842 118.416 45.545 119.049 47.0619 126.23 64.4001 126.749 65.725 126.941 66.205 127.075 66.2626 127.843 66.2626H128.726L129.418 64.5729C129.802 63.6513 130.896 61.04 131.837 58.7743 132.778 56.5086 134.467 52.4381 135.6 49.7308 136.714 47.0235 137.635 44.7194 137.635 44.585 137.635 44.4698 137.347 44.3738 137.002 44.3738H136.368L133.987 50.0764C131.568 55.9326 130.915 57.4687 129.187 61.6352 128.65 62.9601 128.112 64.1889 127.997 64.4001 127.824 64.7265 127.594 64.3041 126.461 61.5392 125.731 59.7535 124.713 57.2958 124.195 56.0862 123.696 54.8766 122.851 52.8413 122.333 51.574 119.088 43.7594 119.395 44.3738 118.684 44.3738 118.339 44.3738 118.051 44.4506 118.051 44.5466ZM162.211 55.3182V66.2626H162.979 163.747V60.9824 55.7022H167.645 171.543L174.231 60.9824 176.9 66.2626H177.63C178.014 66.2626 178.34 66.2242 178.34 66.1666 178.34 66.1282 177.13 63.7089 175.633 60.7904 173.29 56.1822 172.983 55.491 173.29 55.395 176.113 54.4541 177.63 52.5533 177.63 49.942 177.63 48.4251 177.15 47.2347 176.151 46.2362 174.538 44.6042 173.367 44.3738 167.108 44.3738H162.211V55.3182ZM173.252 45.929C174.884 46.4859 176.228 48.4059 176.228 50.1532 176.228 51.19 175.402 52.7261 174.557 53.2829 173.021 54.3005 172.407 54.4157 167.933 54.5117L163.747 54.5886V50.038 45.4874L168.125 45.5834C171.159 45.641 172.714 45.737 173.252 45.929Z"/></g><defs><clipPath id="a"><path fill="#fff" d="M0 0H157.448V23.6936H0z" transform="translate(21.6533 43.365)"/></clipPath></defs></svg>