<svg xmlns="http://www.w3.org/2000/svg" fill="none" viewBox="0 0 201 111"><g fill="#fff" clip-path="url(#a)"><path d="M14.3828 41.8881 15.1424 42.1484C15.3296 43.8186 14.7626 44.7513 15.1149 45.5322 15.225 45.9064 15.3296 45.9443 15.6654 46.3131 15.8271 46.579 15.9459 46.868 16.0177 47.1699 16.1819 47.4415 16.3183 47.7285 16.425 48.0267 16.5576 48.3041 16.6752 48.5883 16.7773 48.878 17.3278 50.3693 17.1021 51.0471 18.2691 52.1913 18.4428 53.2522 18.7061 54.297 19.0562 55.3148L19.2709 56.0252C19.326 56.356 19.7333 59.5175 20.8452 60.0381 21.2264 60.1523 21.6381 60.1133 21.9902 59.9296 22.5847 59.3873 22.2599 58.9264 22.3425 58.3028 22.3975 58.1564 22.5021 57.7605 22.7994 56.676L23.0746 55.6348C23.2083 55.2404 23.2625 54.8241 23.2342 54.4092L23.4269 53.4386C23.4681 52.809 23.577 52.1855 23.7517 51.5786 23.8402 51.2584 23.9876 50.957 24.1865 50.6892 24.2966 50.4669 24.3242 50.0548 24.4838 49.7565L25.5847 46.7089C25.7774 46.0365 26.0196 44.6266 26.1847 43.9162L26.3719 43.0269C26.4498 42.6324 26.5969 42.2544 26.8067 41.9098H29.1132L29.7682 42.0562C29.9653 42.1842 30.186 42.2727 30.4178 42.3165 30.8251 42.3545 31.3425 41.9803 31.6398 42.7666 31.7593 43.2157 31.7002 43.6929 31.4747 44.1006 31.3236 44.2025 31.1801 44.3148 31.0453 44.4368 30.9627 44.5886 30.9077 44.8489 30.6655 44.9791 30.4563 45.3587 30.3342 45.7789 30.3077 46.21 30.1205 47.5115 30.3077 47.2512 30.3077 48.6611V49.442C30.3173 49.7102 30.2724 49.9775 30.1756 50.2283 30.1756 50.7706 30.1756 51.3128 30.1756 51.8551 30.1737 52.1426 30.1461 52.4293 30.093 52.7119 30.093 53.7531 29.8508 54.881 30.0379 55.8734 30.0379 55.8734 30.1756 56.5838 30.1756 56.6163 30.2392 56.8741 30.2761 57.1375 30.2857 57.4026V57.9449C29.1847 60.922 30.5003 61.6323 30.1756 65.2385 30.3668 65.6061 30.5935 65.9548 30.8526 66.2796 31.0178 66.6158 30.9903 66.464 31.1774 66.6538 31.2696 66.7508 31.3441 66.8627 31.3976 66.9846 31.4382 67.1441 31.4476 67.3097 31.4251 67.4726 31.3738 67.5759 31.2961 67.6643 31.1995 67.7289 31.103 67.7936 30.991 67.8324 30.8747 67.8414H29.8013C29.3113 67.9553 29.4985 68.0312 29.0141 68.324H27.4948C26.515 68.324 27.137 68.324 25.6453 68.362 25.293 68.1017 25.3205 67.2774 25.3755 66.9846 25.6177 66.0953 25.7829 66.5779 26.2177 65.9 26.6214 65.2276 26.766 64.4346 26.6251 63.6659 26.4324 62.3265 26.3003 62.7386 26.4875 61.3612L26.7352 59.5012C26.7923 58.7213 26.7923 57.9384 26.7352 57.1586V54.6262C26.7352 54.5502 26.7352 54.3279 26.7352 54.1815 26.8398 53.9917 26.7352 54.0296 26.8398 53.7694 26.8513 53.4453 26.8881 53.1226 26.9499 52.8041V52.2618C26.8942 51.9024 26.8942 51.5367 26.9499 51.1773V50.5808C27.0049 49.7619 27.0875 50.0982 27.115 49.2793 27.115 49.1329 27.2196 48.2381 26.8122 47.9779 26.4875 48.1243 26.57 48.2382 26.3499 48.6449 26.2764 48.9393 26.2231 49.2382 26.1902 49.5396 26.145 49.6703 26.1263 49.8085 26.1352 49.9463 26.0501 50.0701 25.9937 50.2108 25.97 50.3584 25.97 50.4723 25.8654 50.6947 25.8379 50.8411V51.2532C25.6453 52.2184 25.5902 51.8443 25.1333 52.9234 25.0232 53.2596 24.8306 54.2628 24.7535 54.637L24.4783 55.8625 24.2361 56.4048C24.2361 56.4048 23.8838 57.446 23.7462 57.934L22.6067 60.9057C22.5792 61.0575 22.0562 62.6193 21.9021 63.2863L21.5773 64.6637C21.4397 64.9999 21.3572 65.2059 21.2251 65.5584L20.8177 66.4532C20.6801 66.8219 20.625 67.0822 20.5425 67.3425 20.5482 67.5074 20.5199 67.6716 20.4594 67.8254 20.3988 67.9792 20.3072 68.1193 20.1902 68.2373 19.3755 66.4532 18.836 65.5259 18.5388 63.514L18.759 63.1019C18.759 62.8796 18.759 62.8037 18.4617 62.4349 18.4617 62.4349 17.9718 61.8384 17.9113 61.7625 17.801 61.68 17.7118 61.5733 17.6506 61.451 17.5895 61.3286 17.5581 61.1939 17.559 61.0575 17.606 60.7603 17.5757 60.4562 17.4709 60.1736 17.4709 60.1736 17.2287 59.8374 16.981 59.6313 16.7771 59.385 16.6136 59.1087 16.4966 58.8125 16.2437 58.3183 16.0586 57.7931 15.9461 57.2508L15.6213 55.7975C15.4011 54.8322 15.1314 54.496 14.4819 53.0861L13.7993 51.6328C13.5762 51.1782 13.4382 50.6877 13.392 50.1849 13.2536 49.6772 13.0243 49.1979 12.7149 48.7696 12.4911 49.1376 12.4145 49.5745 12.5002 49.9951 12.6267 50.4306 12.6898 50.8816 12.6874 51.3345 12.6874 51.6328 12.7424 52.3052 12.6874 52.598 12.6323 52.8909 12.6323 52.8258 12.5498 53.2325 12.5119 53.466 12.5119 53.704 12.5498 53.9375L12.9296 60.8948C12.9791 61.7137 12.9791 61.6052 12.9791 62.7548 12.902 63.6496 12.5498 63.8394 12.9791 64.8046 13.1993 65.2873 13.3865 65.2873 13.6066 65.7699 13.724 66.1292 13.8987 66.4679 14.1241 66.7731 14.4065 67.1617 14.541 67.636 14.5039 68.1125L14.3388 68.3349H13.6177C13.425 68.3349 13.1277 68.2969 12.858 68.2969H9.32955L9.19193 68.0746V67.6679C10.2929 66.6647 10.5516 66.6267 10.7938 64.6908 10.8351 64.0334 10.8351 63.3742 10.7938 62.7169 10.7819 62.0444 10.8372 61.3723 10.9589 60.7105 11.036 59.6259 11.2562 58.9589 11.2562 58.6661 11.2562 57.2508 11.2837 55.7975 11.2011 54.3875L11.1461 53.4928 11.3112 52.0449C11.1736 51.5569 11.0635 51.4484 10.9589 50.9983 10.8543 50.5482 10.7663 50.5157 11.0635 49.9138 11.1881 49.1975 11.2434 48.4712 11.2286 47.7447 11.2375 47.4786 11.1604 47.2165 11.0085 46.9963L10.6286 46.2155C10.5716 45.6751 10.5551 45.1314 10.5791 44.5886 10.497 44.4404 10.3952 44.3036 10.2763 44.1819 9.92404 43.9976 9.68185 43.5854 9.32955 43.477 9.2745 43.3631 9.10936 43.2872 9.00477 43.1028 8.98278 42.9484 8.93634 42.7984 8.86715 42.6581 8.72948 42.406 8.65405 42.1255 8.64697 41.8393 9.65432 41.4651 9.48918 41.6495 10.3864 41.8393H12.858C13.0176 41.8393 13.2654 41.9857 13.48 41.9857H14.2397L14.3828 41.8881ZM46.007 67.0767C45.7321 66.8244 45.4764 66.5525 45.2418 66.2633 45.0932 66.003 44.9446 65.336 44.862 65.1788 44.6557 64.8474 44.519 64.4786 44.4602 64.0942L44.0363 62.2614C43.9614 62.0716 43.8971 61.8778 43.8436 61.6811L43.2932 59.794C43.2271 59.5608 43.1666 59.3005 43.1005 59.0402 42.9934 58.8063 42.9087 58.563 42.8473 58.3136 42.7647 57.7713 42.6767 57.3266 42.5721 56.8332L42.1702 54.7996C42.1262 54.5936 41.939 53.9266 41.895 53.7531L41.5372 52.3269C41.4826 52.0996 41.4108 51.8766 41.3225 51.6599L41.1078 50.7922C41.0993 50.643 41.0716 50.4954 41.0253 50.353L40.6014 48.7262 40.4308 47.9995C40.4282 47.7449 40.3931 47.4917 40.3262 47.2458 40.073 47.2186 39.5225 46.9529 39.2693 47.3325 39.1427 47.506 39.1812 49.2522 38.8619 50.2662L38.6087 51.0796C38.6087 51.1393 38.5042 51.4267 38.3555 51.9527L37.3372 55.2931C37.2956 55.4776 37.2404 55.6588 37.172 55.8354V55.9818L36.8968 56.8223 36.7867 57.3646 35.5151 62.0119C35.3026 62.5114 35.0408 62.9891 34.7335 63.4381 34.4894 63.8851 34.2832 64.3513 34.117 64.8317L33.9518 65.2656C33.7182 65.7448 33.3865 66.1713 32.9775 66.5182 32.8047 66.6838 32.6208 66.8378 32.427 66.9791 32.1518 67.2123 32.1738 67.3858 32.1133 67.6516 33.3793 68.5788 34.5904 68.286 35.5647 68.286H36.7702C36.7702 67.6516 36.8583 67.6787 36.583 67.0659 36.4344 66.6321 36.1151 66.4586 35.884 66.1386 35.5427 65.4716 35.9445 64.4521 36.2858 63.1181L36.4564 62.1909C36.6436 61.7516 36.6436 61.8384 36.7537 61.5184 36.8142 61.3178 36.8363 61.0575 36.8803 60.8514 37.0289 60.1573 37.1335 59.8374 37.4308 59.6313 37.728 59.4253 40.0344 59.3981 40.2931 59.5445 40.5202 59.6908 40.7079 59.889 40.8402 60.1222 40.9725 60.3555 41.0454 60.6169 41.0528 60.884L41.1188 61.2853C41.2858 61.6549 41.3918 62.0485 41.4326 62.4511L41.9831 64.1919C42.2803 65.3849 42.6436 66.5453 42.2803 67.2123 42.0271 67.5919 41.7299 67.5051 41.5812 67.619 41.4339 67.6914 41.3173 67.8127 41.2518 67.9615 41.1864 68.1103 41.1763 68.2771 41.2234 68.4324H41.7739C41.9445 68.4324 42.1757 68.5192 42.3244 68.5192H44.273C44.9252 68.5325 45.5734 68.4144 46.1776 68.1721 46.2161 67.5702 46.3868 67.6028 46.007 67.0767ZM40.1996 57.8147 40.073 57.9882C39.458 58.0363 38.8394 58.0163 38.2289 57.9286 38.1023 56.3017 38.6968 55.3473 39.0106 53.7205L39.1592 52.9342C39.2858 52.5275 39.2473 52.3919 39.6271 52.2347 39.8418 52.3214 39.8583 52.5004 39.8583 52.777 39.8399 52.9925 39.8049 53.2064 39.7537 53.4168 39.7537 53.6175 39.8418 54.4038 39.8583 54.6641 40.0069 56.0577 39.9684 55.6781 40.1996 57.1314V57.8147ZM58.5678 65.976C57.7641 65.8567 57.5714 65.7428 57.3402 64.7559 57.1764 64.0587 57.0696 63.3496 57.021 62.6356L56.8503 61.0684C56.7017 59.729 56.6191 59.2952 55.7494 58.357V58.2106C55.9861 57.8039 56.3879 57.8636 56.5366 57.7497 56.8301 57.518 57.0863 57.2437 57.2962 56.9363 57.7604 56.2652 58.1307 55.5356 58.3971 54.7672 58.6319 52.9702 58.1613 51.1527 57.0815 49.6861 55.6393 47.7393 52.6118 47.5658 51.1916 47.7989H50.6411C50.4235 47.7905 50.2083 47.7503 50.0026 47.6796 49.7917 47.669 49.5804 47.669 49.3696 47.6796 49.1769 47.6796 48.9677 47.6796 48.775 47.6796 48.6757 47.7266 48.5657 47.7471 48.4558 47.7393 48.3292 47.7989 48.3072 47.7393 48.1806 47.826 48.0989 48.2306 48.114 48.6483 48.2246 49.0462L48.6705 49.4258C48.7611 49.4954 48.8359 49.5831 48.8899 49.683 48.944 49.783 48.9761 49.893 48.9842 50.006 48.9742 50.2121 49.0041 50.4182 49.0723 50.6133 49.0723 50.8194 49.0723 51.0526 49.0723 51.2532 49.1108 52.6198 49.1108 53.0861 49.1108 53.6935V61.448C49.1108 61.6812 49.0283 61.9144 49.0283 62.115V63.0206L49.0723 64.1051V64.539C49.0723 64.6583 48.9237 66.2254 48.8796 66.3393 48.799 66.672 48.6233 66.975 48.3732 67.2124 48.1365 67.4456 47.9053 67.413 47.8228 67.9065V68.3132C48.8356 68.6657 48.731 68.4596 49.7494 68.3132H51.4008C51.5053 68.259 51.5494 68.4 51.676 68.4 51.7508 68.3518 51.8409 68.3325 51.9292 68.3457 52.2705 68.3457 52.3145 68.3728 52.4411 68.3132H53.4154C53.4496 68.1824 53.4455 68.0448 53.4036 67.9162 53.3617 67.7876 53.2838 67.6733 53.1787 67.5866 53.0322 67.4343 52.8779 67.2895 52.7164 67.1527 52.2485 66.746 52.2044 66.8328 52.0173 66.1061 51.8901 65.2407 51.833 64.3667 51.8466 63.4924L51.4228 63.346V63.1182C51.5053 62.9718 51.6319 62.9393 51.698 62.7657 51.7731 62.4703 51.8228 62.1692 51.8466 61.8655 51.8773 61.7315 51.8993 61.5956 51.9127 61.4588 51.9127 61.1986 51.5934 59.832 51.5934 59.7453 51.6319 59.2518 51.632 59.2518 52.0173 59.0186 52.2073 58.9067 52.4256 58.8504 52.6468 58.8562 52.8681 58.8619 53.0831 58.9295 53.2668 59.0511 53.7321 59.5898 54.0906 60.2097 54.3237 60.8786 54.4944 61.4209 54.4723 61.5185 54.4723 62.679V63.1182C54.621 64.7125 55.5733 67.9661 56.421 68.541 56.6166 68.6676 56.8513 68.7223 57.0838 68.6956 57.3163 68.6688 57.5318 68.5622 57.6925 68.3945 58.0343 68.0677 58.283 67.6582 58.4137 67.207 58.5143 66.9909 58.5989 66.768 58.6669 66.54 58.7164 66.2634 58.8045 66.1387 58.5678 65.976ZM55.1769 55.8951C54.9769 56.3192 54.6208 56.6526 54.1806 56.8278 53.7567 57.0013 52.5292 57.0881 52.2099 56.7085 51.7696 56.215 51.9182 54.355 51.9182 53.8616V53.3193H51.4723C51.2576 52.9994 51.5549 52.777 51.6209 52.4137 51.687 52.0504 51.7035 51.8335 51.7696 51.5135 51.9182 50.5591 51.9182 50.1199 52.2099 49.6861 52.5292 49.1438 52.7219 49.3065 53.1017 49.3932 53.5733 49.4606 54.019 49.6475 54.3953 49.9355 54.7961 50.4594 55.1376 51.0249 55.4136 51.622 55.6668 52.4028 55.4136 52.3432 55.5623 53.0698 55.7109 53.7965 55.898 53.9158 55.7494 54.5231 55.6567 54.7622 55.5501 54.9957 55.4301 55.2227 55.3916 55.4611 55.3056 55.6896 55.1769 55.8951ZM72.8695 54.2087C72.8428 54.2695 72.8028 54.3239 72.7525 54.3681 72.7022 54.4122 72.6428 54.4449 72.5783 54.464 72.5138 54.4831 72.4459 54.4881 72.3792 54.4787 72.3126 54.4692 72.2488 54.4456 72.1924 54.4093 72.0658 54.3225 72.0438 54.1165 71.9612 53.9755 71.7686 53.8291 71.8126 53.8562 71.664 53.623 71.3888 53.1892 71.1135 52.3161 70.8988 51.8227 70.8603 51.622 70.7337 51.4159 70.6897 51.2424 70.3704 50.6025 70.2438 50.8682 69.842 50.6351 69.68 50.5145 69.5306 50.3782 69.3961 50.2284 69.2412 50.2161 69.09 50.1757 68.9502 50.1091L67.9979 49.9355C67.5961 49.7891 66.3025 49.3282 65.8566 49.5614 64.958 50.0234 64.2314 50.7544 63.7814 51.6491L63.5502 52.4029C63.3805 52.6335 63.2503 52.89 63.1648 53.1621 63.1238 53.4204 63.1036 53.6815 63.1043 53.9429 63.0576 54.2067 62.9723 54.4625 62.8511 54.7021 62.3006 56.7628 62.6364 55.7433 62.6364 57.7768V59.3494C62.6364 60.7973 62.7024 64.1703 64.2272 65.4771 65.1575 66.2905 68.0805 67.1636 69.0383 66.5617 69.5887 66.2146 69.7759 65.3741 69.842 64.6475 69.9658 63.9804 69.8218 63.2921 69.4401 62.7278 69.1429 62.4079 69.2034 62.641 68.8896 62.5543 68.4823 62.4404 68.675 62.4404 68.3392 62.294V61.6541C68.3782 61.5721 68.4341 61.4989 68.5032 61.4391 68.5724 61.3794 68.6534 61.3344 68.741 61.307 68.9105 61.3247 69.0817 61.3137 69.2474 61.2745L72.8089 61.4209C72.8976 61.4141 72.9862 61.435 73.0621 61.4806 73.1667 61.4209 73.1447 61.3938 73.2933 61.5402 73.3268 62.082 73.3268 62.6253 73.2933 63.167 72.8264 63.8158 72.6169 64.6106 72.7044 65.4012 72.735 66.1375 72.7129 66.875 72.6383 67.6083L72.0218 67.7818C71.5979 67.9011 71.2181 68.2753 70.7942 68.2753H69.4181C69.1869 68.2753 68.8676 68.541 68.6144 68.541H67.6566C65.3282 68.541 63.8859 68.7416 61.5575 65.5476 60.0712 63.487 59.6309 60.5533 59.6309 58.4004V57.3539C59.6309 57.0936 59.6309 56.7465 59.6694 56.2259 59.6686 56.0432 59.6908 55.861 59.7354 55.6837 59.829 55.4731 59.9356 55.2685 60.0547 55.0709 60.1373 51.7033 62.5924 48.9703 64.1392 48.2762 65.9006 47.4899 66.0933 47.3435 67.574 47.4899 69.886 47.7502 68.9282 47.2892 71.0309 48.5365L71.9612 49.0787 72.4071 49.3661C72.6163 49.5126 72.6823 49.4529 72.8695 49.7729V54.2087ZM87.3793 67.0769C87.1062 66.8244 86.8523 66.5525 86.6196 66.2635 86.471 66.0032 86.3224 65.3362 86.2343 65.1789 86.0328 64.8453 85.8964 64.4774 85.8325 64.0944L85.4086 62.2615C85.333 62.0724 85.2705 61.8786 85.2214 61.6812L84.671 59.7941C84.6104 59.5609 84.5444 59.3006 84.4838 59.0404 84.3743 58.8074 84.2894 58.5639 84.2306 58.3137 84.1425 57.7714 84.06 57.3268 83.9554 56.8333L83.548 54.7998C83.5095 54.5937 83.3168 53.9267 83.2728 53.7532L82.915 52.327C82.8593 52.1006 82.7895 51.8779 82.7058 51.66L82.4911 50.7923C82.4799 50.6434 82.4522 50.4961 82.4086 50.3531L81.9847 48.7263 81.8141 47.9996C81.8088 47.7453 81.7737 47.4923 81.7095 47.2459 81.4508 47.2188 80.9003 46.9585 80.6471 47.3326 80.5205 47.5062 80.5645 49.2523 80.2453 50.2663L79.992 51.0798C79.992 51.1394 79.8875 51.4268 79.7388 51.9528L78.7315 55.2932C78.6856 55.4772 78.6287 55.6583 78.5608 55.8355V55.9819L78.2856 56.8225 78.181 57.3647 76.9095 62.012C76.6972 62.5126 76.4334 62.9905 76.1223 63.4382 75.8799 63.8853 75.6755 64.3515 75.5113 64.8319L75.3406 65.2657C75.1085 65.7459 74.7766 66.1726 74.3663 66.5183 74.1935 66.6839 74.0096 66.8379 73.8158 66.9793 73.5406 67.2124 73.5626 67.386 73.4966 67.6517 74.7682 68.579 75.9737 68.2861 76.948 68.2861H78.159C78.159 67.6517 78.2416 67.6788 77.9663 67.066 77.8177 66.6322 77.504 66.4587 77.2673 66.1387 76.9315 65.4717 77.3333 64.4523 77.6691 63.1183L77.8397 62.191C77.9539 61.9736 78.0532 61.749 78.137 61.5185 78.203 61.3179 78.2196 61.0576 78.2636 60.8516 78.4122 60.1574 78.5168 59.8375 78.8141 59.6314 79.1113 59.4254 81.4233 59.3983 81.6765 59.5447 81.9032 59.6916 82.091 59.8898 82.2241 60.1229 82.3572 60.3559 82.4318 60.6169 82.4416 60.8841L82.5022 61.2854C82.6711 61.6547 82.7788 62.0483 82.8214 62.4513L83.3719 64.192C83.6691 65.385 84.0269 66.5454 83.6691 67.2124 83.4159 67.592 83.1187 67.5053 82.97 67.6191 82.8225 67.6915 82.7053 67.8125 82.6389 67.9611 82.5726 68.1097 82.5612 68.2765 82.6067 68.4326H83.1572C83.3278 68.4326 83.559 68.5193 83.7077 68.5193H85.6563C86.3103 68.5326 86.9602 68.4145 87.5664 68.1723 87.6104 67.5703 87.7756 67.6029 87.3793 67.0769ZM81.5719 57.8148 81.4453 57.9883C80.8302 58.0364 80.2117 58.0164 79.6012 57.9287 79.4746 56.3019 80.0691 55.342 80.3884 53.7206L80.537 52.9343C80.6636 52.5276 80.6196 52.3921 81.0049 52.2348 81.2141 52.3216 81.2361 52.5005 81.2361 52.7771 81.2149 52.9923 81.18 53.206 81.1315 53.417 81.1315 53.6176 81.2141 54.4039 81.2361 54.6642 81.3847 56.0578 81.3407 55.6782 81.5719 57.1315V57.8148ZM99.4021 65.9761C98.5985 65.8568 98.4058 65.7429 98.1746 64.756 98.0134 64.0582 97.9067 63.3494 97.8553 62.6357L97.6902 61.0685C97.5416 59.7291 97.4535 59.2952 96.5893 58.3571V58.2107C96.8205 57.804 97.2223 57.8636 97.3709 57.7498 97.665 57.517 97.9228 57.2429 98.1361 56.9363 98.5989 56.2645 98.9691 55.5351 99.237 54.7672 99.4717 52.9703 99.0011 51.1528 97.9214 49.6861 96.4847 47.7394 93.4516 47.5658 92.0314 47.799H91.481C91.2633 47.7906 91.0481 47.7504 90.8424 47.6797 90.6316 47.6689 90.4203 47.6689 90.2094 47.6797 90.0168 47.6797 89.8076 47.6797 89.6149 47.6797 89.5156 47.7266 89.4055 47.7472 89.2956 47.7394 89.169 47.799 89.147 47.7394 89.0204 47.8261 88.9407 48.2308 88.9558 48.6481 89.0644 49.0462L89.5103 49.4258C89.6005 49.4963 89.6753 49.5841 89.7302 49.6838 89.785 49.7835 89.8189 49.8931 89.8296 50.0061 89.821 50.2117 89.849 50.4172 89.9122 50.6134 89.9122 50.8195 89.9122 51.0527 89.9122 51.2533 89.9562 52.6198 89.9562 53.0862 89.9562 53.6935V61.4481C89.9562 61.6813 89.8681 61.9144 89.8681 62.1151V63.0207L89.9122 64.1052V64.539C89.9122 64.6583 89.7635 66.2255 89.7195 66.3394 89.6389 66.6721 89.4631 66.9751 89.2131 67.2125 88.9819 67.4456 88.7452 67.4131 88.6626 67.9066V68.3133C89.681 68.6658 89.5709 68.4597 90.5892 68.3133H92.2406C92.3507 68.2591 92.3892 68.4 92.5158 68.4 92.5929 68.3525 92.6845 68.3333 92.7746 68.3458 93.1103 68.3458 93.1544 68.3729 93.281 68.3133H94.2553C94.2901 68.183 94.2868 68.0457 94.2459 67.9172 94.205 67.7886 94.1282 67.674 94.0241 67.5866 93.8755 67.4131 93.7654 67.3589 93.5562 67.1528 93.0883 66.7461 93.0498 66.8329 92.8571 66.1062 92.73 65.2408 92.6729 64.3668 92.6865 63.4924L92.2626 63.346V63.1183C92.3507 62.9719 92.4773 62.9393 92.5379 62.7658 92.613 62.4704 92.6627 62.1693 92.6865 61.8656 92.7171 61.7315 92.7392 61.5957 92.7525 61.4589 92.7525 61.1986 92.4333 59.8321 92.4333 59.7453 92.4773 59.2519 92.4773 59.2519 92.8571 59.0187 93.0471 58.9068 93.2655 58.8505 93.4867 58.8562 93.708 58.862 93.923 58.9296 94.1067 59.0512 94.5719 59.5908 94.9321 60.2103 95.1691 60.8787 95.3342 61.421 95.3122 61.5186 95.3122 62.679V63.1183C95.4608 64.7126 96.4131 67.9662 97.2663 68.541 97.462 68.6677 97.6966 68.7224 97.9291 68.6956 98.1617 68.6689 98.3772 68.5623 98.5379 68.3946 98.8765 68.0662 99.123 67.6571 99.2535 67.207 99.3534 66.9901 99.4398 66.7673 99.5122 66.54 99.5508 66.2635 99.6388 66.1388 99.4021 65.9761ZM96.0113 55.8952C95.8117 56.3177 95.458 56.6507 95.0205 56.8279 94.5966 57.0014 93.3691 57.0882 93.0498 56.7086 92.6039 56.2151 92.7525 54.3551 92.7525 53.8616V53.3194H92.3342C92.1195 52.9994 92.4168 52.7771 92.4828 52.4138 92.5489 52.0504 92.5654 51.8335 92.6314 51.5136 92.7801 50.5592 92.7801 50.1199 93.0773 49.6861 93.3911 49.1439 93.5837 49.3065 93.9636 49.3933 94.4351 49.4607 94.8809 49.6475 95.2571 49.9356 95.66 50.4582 96.0016 51.0239 96.2755 51.622 96.5287 52.4029 96.2755 52.3433 96.4241 53.0699 96.5728 53.7966 96.7599 53.9159 96.6113 54.5232 96.5727 54.6696 96.3361 55.136 96.2975 55.2228 96.2451 55.4624 96.148 55.6904 96.0113 55.8952ZM191.091 65.2222C190.888 65.2229 190.686 65.2631 190.498 65.3406 190.31 65.4182 190.139 65.5314 189.995 65.6739 189.852 65.8164 189.738 65.9854 189.661 66.1712 189.583 66.357 189.544 66.556 189.545 66.7568 189.541 66.9587 189.578 67.1593 189.654 67.347 189.73 67.5347 189.843 67.7056 189.986 67.8499 190.129 67.9942 190.3 68.109 190.489 68.1876 190.678 68.2662 190.881 68.307 191.086 68.3077 191.29 68.3085 191.493 68.269 191.681 68.1915 191.87 68.114 192.04 68.0002 192.183 67.8567 192.327 67.7131 192.439 67.5429 192.514 67.3558 192.59 67.1688 192.626 66.9688 192.622 66.7677 192.626 66.5667 192.59 66.3669 192.515 66.1799 192.44 65.993 192.328 65.8226 192.186 65.6787 192.043 65.5348 191.873 65.4203 191.685 65.3419 191.497 65.2636 191.296 65.2228 191.091 65.2222ZM191.091 68.0583C190.922 68.0548 190.755 68.0182 190.6 67.9508 190.445 67.8833 190.305 67.7863 190.189 67.6653 190.072 67.5443 189.981 67.4017 189.92 67.2458 189.86 67.0898 189.831 66.9236 189.836 66.7568 189.832 66.5909 189.861 66.4257 189.921 66.2707 189.982 66.1158 190.073 65.9741 190.189 65.8537 190.305 65.7334 190.444 65.6367 190.598 65.5693 190.752 65.5019 190.918 65.465 191.086 65.4608 191.255 65.465 191.421 65.502 191.576 65.5698 191.73 65.6376 191.869 65.7347 191.985 65.8556 192.101 65.9766 192.192 66.1189 192.252 66.2745 192.312 66.4301 192.341 66.5958 192.336 66.7622 192.342 66.9283 192.315 67.0939 192.256 67.2495 192.196 67.4051 192.106 67.5474 191.99 67.6681 191.874 67.7889 191.735 67.8856 191.581 67.9526 191.427 68.0196 191.26 68.0555 191.091 68.0583Z"/><path d="M191.368 66.8111C191.464 66.7901 191.551 66.7373 191.613 66.6614 191.675 66.5855 191.709 66.491 191.709 66.3935 191.714 66.3256 191.702 66.2574 191.674 66.195 191.646 66.1326 191.603 66.0779 191.549 66.0356 191.383 65.938 191.191 65.8925 190.999 65.9055 190.834 65.9061 190.671 65.9206 190.509 65.9489V67.6624H190.784V66.925H190.977C191.022 66.9172 191.068 66.919 191.112 66.9302 191.156 66.9415 191.197 66.9619 191.233 66.9902 191.268 67.0184 191.297 67.0539 191.318 67.0941 191.338 67.1343 191.349 67.1783 191.351 67.2232 191.361 67.3761 191.403 67.5254 191.472 67.6624H191.764C191.704 67.5281 191.665 67.3855 191.648 67.2395 191.626 66.9738 191.522 66.8382 191.368 66.8111ZM190.999 66.7026H190.795V66.1387C190.863 66.1341 190.931 66.1341 190.999 66.1387 191.307 66.1387 191.417 66.2905 191.417 66.4423 191.417 66.5942 191.224 66.6809 190.999 66.6809V66.7026ZM111.539 47.4465C113.978 48.7805 113.405 47.6743 115.844 47.6743L116.097 47.7936 116.268 47.6743C117.281 47.7068 116.945 47.8207 117.919 48.1406 118.09 47.8803 118.426 47.9671 118.662 47.8803H119.994V49.0408C119.928 49.7078 119.89 49.4475 119.675 50.1254 119.549 50.4732 119.485 50.8404 119.488 51.2099 119.488 51.3889 119.488 51.5624 119.488 51.7522 119.469 51.9587 119.427 52.1625 119.361 52.3595L118.772 52.506 118.558 51.8661C118.446 51.5098 118.354 51.1477 118.282 50.7815 118.178 50.5755 118.2 50.1688 117.925 50.1688 117.71 49.8813 117.798 49.8217 117.501 49.5885 117.374 49.5289 117.033 49.3553 116.95 49.415L116.824 49.5614H116.46C116.378 49.4444 116.26 49.3561 116.124 49.3093 115.987 49.2626 115.839 49.2597 115.701 49.3011L115.552 49.1818H115.315C115.213 49.4316 115.163 49.6989 115.167 49.9681 115.14 50.2276 115.127 50.4882 115.128 50.749V56.0091C115.128 56.1555 115.084 56.7628 115.084 56.9092V57.7823C115.084 57.8691 115.04 58.3246 115.018 58.4764 115.018 58.7096 114.98 59.0187 114.98 59.2627 115.018 59.3495 115.04 59.805 115.084 59.9568L115.15 60.7431C115.15 61.3505 115.189 61.9632 115.189 62.576V64.7451C115.189 66.4587 115.552 66.4912 116.84 67.8252V68.6983C116.714 68.6983 116.565 68.6386 116.394 68.6386 116.224 68.6386 115.932 68.579 115.844 68.579 115.635 68.3783 115.679 68.3458 115.337 68.3458H112.921C112.358 68.3254 111.797 68.4157 111.27 68.6115L110.928 67.8523C112.816 65.3579 112.453 66.6051 112.453 63.6443V59.5447C112.453 59.3169 112.415 58.9644 112.415 58.6445V56.9038C112.417 56.6654 112.46 56.429 112.541 56.2043 112.541 56.0307 112.541 55.7433 112.541 55.483 112.541 54.8106 112.37 54.2629 112.37 53.5905 112.37 52.2294 112.602 52.506 112.37 51.1232 112.244 50.4562 112.415 50.5809 111.969 49.8759 111.798 49.6156 111.627 49.4096 111.567 49.3336 111.44 49.1925 111.266 49.1003 111.077 49.0734 110.726 49.4234 110.298 49.6904 109.827 49.8542 109.492 50.1199 109.552 49.9735 109.343 50.4399 109.345 50.5864 109.316 50.7316 109.257 50.8662 109.198 51.0008 109.111 51.1216 109.002 51.2208 108.748 51.4268 108.831 51.3672 108.704 51.66 108.599 51.8545 108.472 52.0365 108.325 52.2023 107.835 52.2023 107.857 52.083 107.857 51.4756 107.857 51.1557 107.923 50.8357 107.923 50.5483V49.6156C107.956 48.9726 107.897 48.3281 107.747 47.7014 108.556 47.0073 108.572 47.1591 109.442 47.6146L109.827 47.8207C110.312 47.8803 110.119 47.6146 110.609 47.5279 110.87 47.5246 111.131 47.5355 111.391 47.5604L111.539 47.4465ZM132.077 67.0769C131.804 66.8244 131.55 66.5525 131.318 66.2635 131.169 66.0032 131.021 65.3362 130.932 65.1789 130.731 64.8453 130.595 64.4774 130.531 64.0944L130.107 62.2615C130.034 62.0716 129.971 61.8779 129.92 61.6812L129.369 59.7941C129.303 59.5609 129.237 59.3006 129.176 59.0404 129.067 58.8074 128.982 58.5639 128.923 58.3137 128.835 57.7714 128.753 57.3268 128.648 56.8333L128.241 54.7998C128.202 54.5937 128.009 53.9267 127.965 53.7532L127.608 52.327C127.553 52.0997 127.481 51.8767 127.393 51.66L127.184 50.7923C127.173 50.6434 127.145 50.4961 127.101 50.3531L126.677 48.7263 126.507 47.9996C126.501 47.7453 126.466 47.4923 126.402 47.2459 126.143 47.2188 125.593 46.9585 125.34 47.3326 125.213 47.5062 125.257 49.2523 124.938 50.2663L124.685 51.0798C124.685 51.1394 124.58 51.4268 124.431 51.9528L123.413 55.2932C123.367 55.4772 123.31 55.6583 123.242 55.8355V55.9819L122.967 56.8225 122.863 57.3647 121.591 62.012C121.379 62.5126 121.115 62.9905 120.804 63.4382 120.562 63.8853 120.357 64.3515 120.193 64.8319L120.022 65.2657C119.79 65.7459 119.458 66.1726 119.048 66.5183 118.875 66.6839 118.691 66.8379 118.497 66.9793 118.222 67.2124 118.244 67.386 118.178 67.6517 119.45 68.579 120.655 68.2861 121.635 68.2861H122.841C122.841 67.6517 122.923 67.6788 122.648 67.066 122.499 66.6322 122.186 66.4587 121.949 66.1387 121.613 65.4717 122.015 64.4523 122.351 63.1183L122.521 62.191C122.636 61.9736 122.735 61.749 122.819 61.5185 122.885 61.3179 122.901 61.0576 122.945 60.8516 123.094 60.1574 123.198 59.8375 123.496 59.6314 123.793 59.4254 126.105 59.3983 126.358 59.5447 126.585 59.6916 126.773 59.8898 126.906 60.1229 127.039 60.3559 127.113 60.6169 127.123 60.8841L127.184 61.2854C127.35 61.6555 127.458 62.0488 127.503 62.4513L128.054 64.192C128.351 65.385 128.709 66.5454 128.351 67.2124 128.098 67.592 127.8 67.5053 127.652 67.6191 127.504 67.6915 127.387 67.8125 127.321 67.9611 127.254 68.1097 127.243 68.2765 127.288 68.4326H127.839C128.009 68.4326 128.241 68.5193 128.389 68.5193H130.338C130.992 68.5326 131.642 68.4145 132.248 68.1723 132.292 67.5703 132.463 67.6029 132.077 67.0769ZM126.27 57.8148 126.143 57.9883C125.528 58.0364 124.91 58.0164 124.299 57.9287 124.173 56.3019 124.767 55.342 125.087 53.7206L125.235 52.9343C125.362 52.5276 125.318 52.3921 125.703 52.2348 125.912 52.3216 125.934 52.5005 125.934 52.7771 125.913 52.9923 125.878 53.206 125.83 53.417 125.83 53.6176 125.912 54.4039 125.934 54.6642 126.083 56.0578 126.039 55.6782 126.27 57.1315V57.8148ZM134.923 49.3282C134.827 49.593 134.657 49.8259 134.433 50.0006 134.337 50.2553 134.209 50.4975 134.054 50.7219 133.822 51.3075 133.927 51.2641 134.098 51.8877 134.268 52.5114 134.351 52.9018 134.417 53.0753L135.006 54.7022C135.072 54.9082 135.006 54.995 135.094 55.3149 135.132 55.4613 135.243 55.7487 135.325 55.9819L135.876 58.4818C135.915 58.7047 135.994 58.9193 136.107 59.1163 136.217 59.5555 136.343 59.9622 136.47 60.396 136.476 60.5545 136.504 60.7113 136.553 60.8624L136.745 61.4047C137.018 61.2428 137.233 61.0023 137.362 60.716 137.464 60.4211 137.549 60.1205 137.615 59.8158 137.787 59.5551 137.923 59.2723 138.017 58.9753 138.249 58.2817 138.433 57.5733 138.567 56.855 138.633 56.4754 138.65 56.3615 138.694 56.1826L139.393 54.2683C139.668 53.5146 140.433 51.1014 139.883 50.1416 139.609 49.7891 139.295 49.4688 138.947 49.1872 138.947 48.8944 138.947 48.4877 138.947 48.1677 138.984 48.0944 139.041 48.0333 139.113 47.9918 139.184 47.9504 139.266 47.9305 139.349 47.9346 139.52 47.8803 139.668 47.8803 139.795 47.8478 139.936 47.8642 140.078 47.8642 140.219 47.8478 140.367 47.8478 140.516 47.8207 140.643 47.8207L142.129 47.9671H142.553L142.993 47.9075C143.294 47.9038 143.594 47.9422 143.885 48.0213 143.945 48.14 143.965 48.2744 143.942 48.4051 143.919 48.5357 143.855 48.6558 143.758 48.748L143.544 49.1547C143.461 49.2251 143.368 49.2835 143.268 49.3282 143.063 49.4326 142.877 49.57 142.718 49.7349 142.509 50.0277 142.316 50.2772 142.129 50.5212 141.949 50.8933 141.807 51.282 141.705 51.6817 141.639 51.9149 141.237 52.5819 141.155 52.815 141.072 53.0482 140.962 53.802 140.896 53.9755 140.77 54.1607 140.658 54.3546 140.56 54.5557 140.467 54.7522 140.395 54.9575 140.345 55.1685L140.032 56.3019C139.905 56.7953 139.795 57.1153 139.646 57.6684L139.437 58.4493C139.057 59.9026 139.31 59.5826 138.782 61.0359L138.397 62.0825C138.131 62.7872 137.927 63.5129 137.786 64.2516L137.466 65.7646C137.384 66.1387 136.811 68.4326 136.365 68.7254 136.284 68.7777 136.188 68.8055 136.09 68.8055 135.993 68.8055 135.897 68.7777 135.815 68.7254 135.391 68.4054 134.989 66.014 134.907 65.6181L134.676 64.5987C134.649 64.131 134.592 63.6656 134.505 63.205L134.142 62.538C134.103 62.3645 134.103 61.9958 134.037 61.8114L133.487 60.2713C133.404 59.9243 133.382 58.7638 133.36 58.4439 133.034 57.7024 132.772 56.9351 132.578 56.15 132.364 55.3963 131.813 54.5232 131.621 53.8562L131.494 53.3627C131.346 52.528 131.112 51.7103 130.795 50.9225 130.653 50.5085 130.453 50.1161 130.2 49.7566 129.969 49.4963 129.545 49.556 129.353 49.1764 129.231 48.8711 129.203 48.5376 129.27 48.2165 129.589 47.4953 131.114 47.8695 131.472 47.8695H132.066C132.149 47.902 132.765 47.8424 133.487 47.8098 133.727 47.7946 133.968 47.7946 134.208 47.8098 134.462 47.817 134.713 47.8665 134.951 47.9563 135.013 48.4123 135.004 48.875 134.923 49.3282ZM148.398 52.2675V61.9092C148.398 62.1098 148.464 63.536 148.464 63.5631V64.8429C148.406 65.9666 148.768 67.0724 149.483 67.9501V68.27C148.836 68.356 148.181 68.356 147.534 68.27H146.984C146.821 68.2882 146.664 68.3379 146.521 68.4165 146.411 68.4165 146.224 68.4436 146.031 68.4436 145.729 68.4797 145.423 68.4705 145.123 68.4165 144.972 68.2882 144.837 68.1425 144.721 67.9826 144.626 67.7829 144.603 67.5572 144.655 67.3428 144.943 67.0281 145.186 66.676 145.376 66.2962 145.642 65.9758 145.792 65.5767 145.8 65.1628 145.8 65.1357 145.905 62.8961 145.905 62.8419V61.4157C145.905 61.215 145.905 60.9547 145.905 60.7216 145.905 60.4884 145.905 60.2552 145.905 60.022L145.8 58.162V57.3486C145.8 57.0883 145.756 56.8063 145.8 56.5081L145.905 54.2143C145.861 53.3737 145.949 50.3533 145.184 49.5073 144.93 49.247 144.314 49.1874 144.297 48.5204 144.297 48.1408 144.336 48.1733 144.611 47.9781 145.398 47.2515 146.263 48.0649 147.094 47.9781L147.815 47.7449C148.066 47.7042 148.323 47.7042 148.574 47.7449 148.802 47.813 149.036 47.8531 149.274 47.8642 149.675 48.0106 149.675 48.2113 149.675 48.6776 148.338 50.7871 148.398 50.1743 148.398 52.2675ZM157.2 48.3142C155.78 50.0604 155.824 50.3478 155.824 52.5277V53.2815C155.804 54.1632 155.684 55.0399 155.466 55.8953H155.78V56.5948C155.78 57.4624 155.719 58.368 155.719 59.2357 155.719 59.4688 155.719 59.8159 155.719 60.1087L155.973 61.0089C155.973 61.2421 155.973 62.5761 155.929 62.8364 155.866 63.4362 155.851 64.04 155.884 64.6422 156.006 65.2197 156.32 65.7408 156.776 66.1226 157.007 66.2364 159.936 66.4696 160.464 66.1768 160.993 65.884 161.015 65.4501 161.207 64.9296 161.315 64.6936 161.407 64.4508 161.483 64.2029 161.483 64.0565 161.521 63.6606 161.692 63.5359 161.952 63.492 162.215 63.472 162.479 63.4763L162.606 63.7094 162.54 64.409V64.9024C162.595 65.461 162.61 66.0228 162.584 66.5835 162.617 67.0598 162.595 67.5384 162.518 68.0097 162.22 68.3838 162.033 68.0368 161.714 68.2103 161.417 68.2103 161.163 68.2971 160.866 68.2971 160.486 68.2971 160.211 68.2971 159.87 68.2971H159.639 158.301C158.048 68.2971 157.817 68.3296 157.58 68.3296 157.326 68.3369 157.072 68.326 156.82 68.2971L155.4 68.1236C155.185 68.1236 154.448 68.2971 154.189 68.2971H152.538L152.114 68.3838C151.987 68.3838 151.817 68.3838 151.69 68.0693V67.5704C151.817 67.3101 152.389 66.7028 152.538 66.4425 152.703 66.2854 152.832 66.0953 152.917 65.8848 153.001 65.6743 153.039 65.4484 153.028 65.2224V64.1378C153.028 63.9047 153.066 63.7908 153.11 63.498 153.181 63.3034 153.209 63.0965 153.193 62.8906 153.211 62.6755 153.191 62.4588 153.132 62.2507 152.964 61.3988 152.928 60.5265 153.028 59.6641V55.7434C153.028 55.5428 153.132 55.5428 153.193 55.3096V54.4365 53.596C153.193 53.5092 153.154 52.8368 153.132 52.6958V51.4757C153.15 51.0192 153.128 50.562 153.066 50.1092 152.813 49.2361 152.708 49.5669 152.218 49.0626 151.839 48.6288 151.965 48.4552 151.987 47.9021 152.262 47.6689 152.433 47.8154 152.62 47.8154 152.686 47.8154 152.813 47.7828 152.917 47.7828 153.022 47.7828 153.132 47.8154 153.259 47.8154 153.685 47.8968 154.119 47.9259 154.552 47.9021 155.824 47.696 155.758 47.5551 157.134 47.8425L157.2 48.3142ZM168.71 48.3142C167.29 50.0603 167.328 50.3477 167.328 52.5277V53.2814C167.311 54.1633 167.191 55.0404 166.971 55.8952H167.29V56.5947C167.29 57.4624 167.224 58.368 167.224 59.2356 167.224 59.4688 167.224 59.8159 167.224 60.1087L167.477 61.0089C167.477 61.242 167.477 62.576 167.438 62.8363 167.373 63.436 167.358 64.04 167.394 64.6421 167.511 65.2288 167.83 65.7576 168.297 66.1388 168.528 66.2527 171.451 66.4859 171.98 66.193 172.508 65.9002 172.53 65.4664 172.723 64.9458 172.833 64.7109 172.925 64.4679 172.998 64.2191 172.998 64.0727 173.042 63.6769 173.213 63.5521 173.471 63.5084 173.733 63.4885 173.994 63.4925L174.121 63.7257 174.055 64.4252V64.9187C174.111 65.4772 174.126 66.0391 174.099 66.5997 174.132 67.0759 174.111 67.5541 174.039 68.0259 173.741 68.4001 173.549 68.053 173.229 68.2266 172.932 68.2266 172.679 68.3133 172.382 68.3133 172.002 68.3133 171.727 68.3133 171.391 68.3133H171.154 169.822C169.563 68.3133 169.332 68.3459 169.101 68.3459 168.845 68.3531 168.59 68.3422 168.336 68.3133L166.916 68.1398C166.706 68.1398 165.963 68.3133 165.71 68.3133H164.059L163.635 68.4001C163.503 68.4001 163.338 68.4001 163.211 68.0856V67.5867C163.338 67.3264 163.91 66.719 164.059 66.4587 164.221 66.2995 164.348 66.1089 164.431 65.8988 164.514 65.6888 164.553 65.464 164.543 65.2386V64.1541C164.543 63.9209 164.587 63.807 164.626 63.5142 164.7 63.3206 164.73 63.1132 164.714 62.9068 164.733 62.6913 164.71 62.4743 164.648 62.267 164.482 61.4147 164.446 60.5428 164.543 59.6803V55.7596C164.543 55.559 164.648 55.559 164.714 55.3258V54.4528 53.6122C164.714 53.5255 164.67 52.8531 164.648 52.7121V51.4919C164.664 51.0356 164.644 50.5786 164.587 50.1254 164.328 49.2523 164.224 49.5831 163.739 49.0788 163.354 48.645 163.481 48.4715 163.503 47.9183 163.778 47.6852 163.949 47.8316 164.141 47.8316 164.202 47.8316 164.328 47.799 164.438 47.799 164.549 47.799 164.648 47.8316 164.774 47.8316 165.2 47.913 165.635 47.9422 166.068 47.9183 167.339 47.7123 167.273 47.5713 168.655 47.8587L168.71 48.3142ZM180.573 42.0727 180.898 42.1866C181.448 42.1866 181.85 42.333 182.389 42.0727 182.644 42.0478 182.898 42.0098 183.149 41.9588 184.184 41.8883 185.026 42.1866 186.055 42.333L186.27 42.4794C187.492 42.2191 188.147 41.8504 189.022 43.1518 189.353 43.6345 189.402 44.5672 189.457 45.4565 189.498 45.8278 189.498 46.2023 189.457 46.5736 189.496 46.7889 189.468 47.0108 189.377 47.2102 189.285 47.4096 189.135 47.577 188.945 47.6907H188.808C187.855 46.1669 188.29 46.1289 186.854 45.0878 185.956 44.4533 185.439 43.8188 184.492 43.9707 184.333 44.1174 184.146 44.2317 183.942 44.3069 183.719 44.2492 183.525 44.1168 183.391 43.9327 183.057 43.6804 182.645 43.5484 182.224 43.5585 181.817 43.5965 181.327 43.6345 181.123 44.3069 181.013 44.7136 181.283 46.476 181.255 46.9098 181.286 47.132 181.277 47.3578 181.228 47.5768 181.123 47.9889 181.096 47.8371 181.096 48.2492 180.992 48.688 180.945 49.1382 180.958 49.5886L181.145 50.1851C181.228 50.7274 180.986 53.0104 181.475 53.6069 181.784 53.8033 182.138 53.9173 182.505 53.9377 182.825 53.6764 183.202 53.4909 183.606 53.3954L184.013 52.9887C184.089 52.7848 184.209 52.5998 184.365 52.4464 184.434 52.0178 184.625 51.6172 184.916 51.2914 185.186 51.2914 185.62 51.107 185.786 51.8879 185.868 52.2544 185.894 52.6309 185.863 53.005 185.908 53.416 185.823 53.8307 185.62 54.1926V54.827C185.782 55.0683 185.851 55.359 185.813 55.6459 185.813 55.9441 185.813 56.2749 185.813 56.5352 185.836 57.1322 185.818 57.7301 185.758 58.3247 185.701 58.4293 185.613 58.5141 185.506 58.5675 185.399 58.6209 185.277 58.6402 185.158 58.6229 185.119 58.5871 185.071 58.5614 185.019 58.5482 184.967 58.5349 184.913 58.5345 184.861 58.547 184.734 58.4463 184.632 58.3183 184.564 58.1729 184.509 57.9126 184.371 57.7282 184.266 57.2835 183.666 56.3888 183.611 56.9853 182.989 56.6491 182.744 56.4751 182.532 56.2604 182.362 56.0146 182.115 55.9538 181.89 55.8261 181.712 55.6459 181.544 55.6194 181.372 55.629 181.207 55.6739 181.043 55.7188 180.89 55.798 180.76 55.9061 180.87 57.3215 181.035 57.1317 181.035 58.0753V59.1869C180.838 59.5131 180.761 59.8958 180.815 60.2715V61.5024C180.953 62.6195 180.6 65.0326 181.415 66.1497 181.688 66.4292 182.024 66.6396 182.397 66.7633 182.77 66.887 183.168 66.9202 183.556 66.8601 183.711 66.8202 183.857 66.7562 183.991 66.6703 184.211 66.41 184.239 66.3721 184.481 66.3721H185.406C185.724 66.0433 186.022 65.6956 186.298 65.3309 186.677 65.0326 186.732 64.7398 186.898 64.0294 187.057 63.6607 187.25 63.1021 187.448 62.69 187.745 62.2074 188.043 62.2074 188.422 62.061L188.72 62.3213V63.4058C188.72 64.5554 188.692 64.7452 188.692 65.5749V67.744C188.587 68.1182 188.692 68.0802 188.34 68.4164 187.961 68.525 187.567 68.5744 187.173 68.5628 187.063 68.5628 186.198 68.2266 186.006 68.2266H185.598C185.136 68.2266 184.866 68.4544 184.162 68.4544H183.292C183.25 68.4998 183.198 68.5354 183.14 68.5585 183.083 68.5817 183.02 68.5918 182.958 68.5882 182.896 68.5845 182.835 68.5672 182.781 68.5375 182.726 68.5078 182.679 68.4664 182.642 68.4164 182.547 68.4686 182.442 68.4992 182.333 68.5057 182.224 68.5123 182.116 68.4948 182.015 68.4544L179.709 68.2646C179.549 68.2646 179.411 68.2266 179.246 68.2266L179.086 68.4164H178.679C177.578 68.5093 176.47 68.3821 175.42 68.0423V67.3753C177.622 65.5153 177.485 64.8049 177.485 61.6055V59.2628C177.476 58.8536 177.495 58.4442 177.54 58.0373V56.6979C177.528 56.4164 177.583 56.1362 177.699 55.879L177.54 53.3846C177.54 52.7176 177.54 52.4573 177.567 52.197L177.699 51.0419 178.052 49.3283C178.052 48.9596 177.892 47.3219 177.837 46.9152 177.727 45.8741 177.727 45.2884 177.215 44.4967 176.857 44.1225 176.725 43.7483 176.318 43.526 175.977 43.1971 175.756 42.7661 175.69 42.3005 175.91 42.0781 176.125 42.0402 176.241 41.9263 176.565 41.8178 176.483 41.9263 176.835 41.8883 177.018 41.81 177.218 41.7759 177.417 41.7892 177.616 41.8024 177.809 41.8624 177.98 41.9643H178.531C178.757 42.0222 178.964 42.1382 179.131 42.3005 179.681 42.5228 179.681 42.3005 180.231 42.0022L180.573 42.0727ZM106.425 48.6558C106.277 48.8944 106.084 48.9811 105.941 49.198 105.842 49.3173 105.82 49.4963 105.699 49.5559 105.646 49.5824 105.587 49.5937 105.528 49.5885 105.358 49.6752 105.336 49.8867 105.258 50.0928 105.151 50.4017 105.095 50.7259 105.093 51.0526 105.066 51.378 105.093 51.5949 105.093 51.9474V52.3324C105.093 53.0536 105.165 53.4169 105.192 54.1273 105.192 54.3659 105.264 54.5177 105.192 54.6967 105.143 54.7835 105.071 54.816 105.022 54.9353 104.923 55.1739 105.022 55.38 105.071 55.6782 105.121 55.9765 105.071 56.3073 105.071 56.6652 105.071 57.5925 105.071 58.1564 105.071 59.0837 105.071 59.3548 105.099 59.5338 105.099 59.7995 105.099 60.0652 105.17 60.2171 105.17 60.4611 105.168 60.7524 105.127 61.0422 105.049 61.3233 104.983 61.4538 104.942 61.5954 104.928 61.7409 104.954 61.9137 104.995 62.0842 105.049 62.2506 105.106 62.6097 105.139 62.9719 105.148 63.3351 105.173 63.6836 105.173 64.0333 105.148 64.3817 105.148 64.5336 105.077 64.6529 105.049 64.7993 105.034 65.1115 105.068 65.4242 105.148 65.7266 105.218 66.0329 105.316 66.3323 105.44 66.6213 105.545 66.8996 105.692 67.1609 105.875 67.3968 106.024 67.6083 106.315 67.6083 106.337 67.9065 106.329 68.0524 106.269 68.1908 106.167 68.297 105.974 68.5952 105.66 68.4163 105.319 68.4163 104.978 68.4163 104.769 68.3837 104.422 68.3566 104.243 68.2974 104.059 68.2574 103.871 68.2373 103.672 68.2483 103.475 68.2885 103.288 68.3566 103.167 68.3566 103.095 68.4434 102.996 68.4434 102.851 68.4506 102.705 68.4415 102.561 68.4163 102.391 68.4163 102.291 68.4434 102.099 68.4434 101.961 68.4639 101.82 68.4547 101.686 68.4163 101.493 68.3241 101.422 68.1451 101.301 67.9662 101.18 67.7872 101.08 67.7872 101.08 67.6354 101.08 67.4835 101.202 67.4293 101.301 67.31 101.414 67.1584 101.544 67.0185 101.686 66.8925 101.823 66.7226 101.945 66.5411 102.049 66.3502 102.251 66.045 102.407 65.7126 102.512 65.3633 102.582 64.8237 102.591 64.278 102.539 63.7364 102.625 63.2239 102.665 62.705 102.66 62.1855 102.633 61.9469 102.561 61.7951 102.539 61.589 102.545 61.2258 102.576 60.8635 102.633 60.5045 102.633 60.114 102.583 59.8754 102.561 59.485 102.598 59.1244 102.598 58.761 102.561 58.4004 102.502 58.2538 102.452 58.1034 102.413 57.9503 102.377 57.6731 102.377 57.3925 102.413 57.1152 102.364 56.8085 102.34 56.4984 102.341 56.188 102.341 55.8897 102.44 55.7108 102.484 55.4125 102.577 55.152 102.643 54.8832 102.682 54.6099 102.674 54.3275 102.641 54.0463 102.583 53.7694 102.556 53.5683 102.515 53.369 102.462 53.1729 102.462 53.0265 102.363 52.9343 102.341 52.7554 102.269 52.3703 102.44 52.0992 102.44 51.6708 102.456 51.3723 102.447 51.0731 102.413 50.7761 102.37 50.5825 102.313 50.3922 102.242 50.2067 102.204 50.0178 102.139 49.8351 102.049 49.6644 101.9 49.4524 101.714 49.2687 101.499 49.1221 101.279 48.9757 101.036 49.0028 100.888 48.7642 100.793 48.5989 100.743 48.4119 100.745 48.2219 100.745 47.7447 101.207 47.6254 101.592 47.5332 101.885 47.497 102.183 47.5172 102.468 47.5929 102.831 47.6254 103.051 47.6851 103.414 47.7447 103.607 47.7718 103.75 47.8912 103.965 47.864 104.18 47.8369 104.328 47.6254 104.543 47.5658 104.664 47.5389 104.788 47.5279 104.912 47.5332 105.126 47.5332 105.247 47.6525 105.462 47.6851 105.677 47.7176 105.947 47.4736 106.189 47.6254 106.431 47.7773 106.552 47.864 106.552 48.1297 106.552 48.3955 106.497 48.4768 106.425 48.6558Z"/></g><defs><clipPath id="a"><path fill="#fff" d="M0 0H184V28H0z" transform="translate(8.62305 41.2118)"/></clipPath></defs></svg>