<svg xmlns="http://www.w3.org/2000/svg" fill="none" viewBox="0 0 200 111"><g fill="#fff" clip-path="url(#a)"><path d="M142.306 57.2205L160.123 46.1117V49.1242L142.306 60.2801L124.466 49.1242V46.1117L142.306 57.2205Z"/><path d="M142.306 43.2876C138.281 43.2876 134.751 45.3116 132.727 48.4419C132.892 48.2771 132.986 48.183 133.151 48.0653C138.164 43.8995 145.389 44.8409 149.32 50.0894L151.932 48.4183C149.861 45.3823 146.307 43.2876 142.306 43.2876Z"/><path d="M142.306 48.4418C140.117 48.4418 138.187 49.5479 137.034 51.1484 137.975 50.4658 139.058 50.1128 140.211 50.1128 142.141 50.1128 143.859 51.1013 145.012 52.7723L147.507 51.219C146.424 49.5009 144.494 48.4418 142.306 48.4418ZM130.256 43.923C137.599 38.1333 147.978 39.7102 153.509 47.4063L153.556 47.4534 156.263 45.7823C153.297 41.24 148.143 38.2274 142.306 38.2274 136.516 38.2274 131.362 41.1929 128.35 45.7823 128.891 45.1704 129.573 44.4408 130.256 43.923ZM55.8359 66.4231V55.785H59.3192V66.3054C59.3192 68.8708 61.4609 69.4827 62.6612 69.4827 65.2737 69.4827 66.1445 67.9294 66.1445 67.035V55.785H69.6278V72.307H67.6037L66.2387 70.4241C65.2972 71.5774 63.7439 72.6129 61.4374 72.6129 58.1189 72.6365 55.8359 70.4477 55.8359 66.4231ZM95.4468 49.9716V72.3304H97.4238L98.7182 70.4476C99.6596 71.6008 101.213 72.6834 103.519 72.6834 106.603 72.6834 109.192 70.8006 109.192 66.6348V61.5276C109.192 57.3618 106.579 55.479 103.355 55.479 101.119 55.479 99.6126 56.4675 98.8124 57.456V49.9481L95.4468 49.9716ZM102.531 69.5061C100.389 69.5061 98.8359 68.4706 98.883 66.2112V61.6688C98.883 59.9037 100.295 58.5386 102.578 58.5386 104.202 58.5386 105.802 59.7389 105.802 61.6688V66.3053C105.802 68.3529 104.155 69.5061 102.531 69.5061ZM82.4085 49.9716V57.4794C81.6318 56.4909 80.1255 55.5024 77.8661 55.5024 74.6417 55.5024 72.0293 57.3853 72.0293 61.551V66.6583C72.0293 70.8241 74.6417 72.7069 77.7014 72.7069 79.9843 72.7069 81.5612 71.6007 82.5026 70.471L83.7971 72.3539H85.7741V49.9951H82.4085V49.9716ZM75.4184 66.3758V61.7393C75.4184 59.8094 77.0424 58.6091 78.6428 58.6091 80.9257 58.6091 82.3379 59.9036 82.3379 61.7393V66.2817C82.3849 68.5176 80.8316 69.5767 78.6899 69.5767 77.0894 69.5061 75.4184 68.3528 75.4184 66.3758ZM111.545 49.9716H115.028V72.3303H111.545V49.9716ZM92.411 55.8085H88.9277V72.3304H92.411V55.8085ZM90.6933 53.808C91.7852 53.808 92.6703 52.9229 92.6703 51.831 92.6703 50.7391 91.7852 49.854 90.6933 49.854 89.6014 49.854 88.7163 50.7391 88.7163 51.831 88.7163 52.9229 89.6014 53.808 90.6933 53.808ZM124.631 69.506C122.231 69.506 121.078 68.2586 121.078 66.5405V65.1755H131.386V61.4804C131.386 57.6676 128.727 55.4318 124.608 55.4318 120.324 55.4318 117.571 57.8324 117.571 61.5745V66.6817C117.571 70.4945 120.324 72.7304 124.608 72.7304 127.785 72.7304 130.139 71.4359 131.08 69.2471L128.585 67.6938C127.715 68.8941 126.444 69.506 124.631 69.506ZM121.078 61.5275C121.078 59.8094 122.278 58.6091 124.514 58.6091 126.75 58.6091 127.95 59.8094 127.95 61.5275V62.563H121.125L121.078 61.5275ZM46.8696 55.4318C43.4804 55.4318 41.2916 56.7968 40.4679 58.8209L43.1745 60.4919C44.3277 58.6561 45.4103 58.562 46.8696 58.562 49.0113 58.562 49.9527 59.5505 49.9527 61.1744V62.4689H47.0108C44.869 62.4689 39.6206 63.1985 39.6206 67.7408 39.6206 70.9652 42.0683 72.5892 45.0338 72.5892 47.3873 72.5892 49.1054 71.483 50.0939 70.3533L51.459 72.2361H53.483V60.9155C53.436 57.7853 51.2472 55.4318 46.8696 55.4318ZM49.9292 67.0583C49.8821 67.3172 49.8821 67.6232 49.5526 68.0468 49.0348 68.7764 47.6698 69.506 46.1164 69.506 44.4454 69.506 43.2451 68.8235 43.2451 67.482 43.2451 65.505 46.4224 65.0813 48.4464 64.9872H49.9527L49.9292 67.0583Z"/></g><defs><clipPath id="a"><path fill="#fff" d="M0 0H120.761V34.5031H0z" transform="translate(39.6196 37.8998)"/></clipPath></defs></svg>