<svg xmlns="http://www.w3.org/2000/svg" fill="none" viewBox="0 0 201 111"><path fill="#fff" d="M154.716 46.4987L148.939 53.8113H148.227L151.266 46.4994M43.7517 64.2211C41.8062 64.2211 40.0879 63.7377 38.8234 63.0936L37.5588 64.2211H36.9753L36.5864 57.0694L37.2667 57.0053C39.3096 61.6444 41.7088 63.1253 43.9465 63.1253C46.2809 63.1253 47.6429 61.6119 47.6429 59.5828C47.6429 57.6495 46.897 56.7154 43.8491 55.4594C42.8118 55.0402 41.6122 54.6212 40.6066 54.1377C38.3372 53.011 37.1375 51.2385 37.1375 48.8871C37.1375 45.0529 40.4767 42.7338 43.7517 42.7338C45.3733 42.7338 46.4756 43.1846 47.5455 43.797L48.8101 42.702H49.3611L49.913 49.0161L49.2644 49.1129C47.4805 45.5687 45.5676 43.8295 43.4604 43.8295C41.6122 43.8295 40.3802 45.0529 40.3802 46.9537C40.3802 48.4678 41.0278 49.628 43.3305 50.627C44.4651 51.1421 45.7948 51.5929 46.9944 52.1729C49.6208 53.4295 50.8529 55.0728 50.8529 57.4561C50.8529 61.7086 47.254 64.2211 43.7517 64.2211ZM60.7745 64.2518C55.8461 64.2518 53.4144 60.7408 53.4144 56.4567C53.4144 52.4942 56.2032 48.6926 61.1965 48.6926C66.1256 48.6926 68.4917 52.1718 68.4917 56.4242C68.4917 60.4192 65.7678 64.2518 60.7745 64.2518ZM60.9044 49.5951C58.6349 49.5951 57.2405 52.1075 57.2405 56.521C57.2405 60.8699 58.7316 63.3493 61.0342 63.3493C63.401 63.3493 64.6981 60.8376 64.6981 56.4242C64.6981 52.075 63.3037 49.5951 60.9044 49.5951ZM75.5292 64.123C72.9677 64.123 72.1576 62.8678 72.1576 60.5485V50.9154H69.7568V50.4646L72.7411 48.1128L75.1079 45.0521H75.5942V49.2404H80.5225V50.9154H75.594V59.2595C75.594 60.5485 75.7889 61.3219 76.4381 61.7719C76.9886 62.1586 77.7351 62.2878 78.8043 62.2878C79.3229 62.2878 79.9714 62.2553 80.5874 62.2237L80.6199 62.6745C79.3553 63.4471 77.2798 64.123 75.5292 64.123ZM90.6715 51.1412C89.4395 51.1412 88.498 51.3668 87.2984 51.9468V62.6101L89.1141 63.286V63.7369H81.7864V63.286L83.8301 62.61V43.1521L81.5932 41.7022V41.3796L87.17 39.8652L87.2984 39.962V51.2376L87.429 51.3019C89.3421 49.4976 91.0928 48.6926 92.8436 48.6926C95.7622 48.6926 96.9944 50.8834 96.9944 53.1709V62.61L99.0366 63.2859V63.7369H91.7089V63.2859L93.5246 62.61V54.4911C93.5246 52.3979 92.6819 51.1412 90.6715 51.1412ZM103.839 55.3617C103.839 59.4534 105.006 62.1274 108.67 62.1274C110.291 62.1274 111.622 61.805 113.566 61.0965L113.761 61.4833C111.783 63.1892 109.578 64.2525 107.503 64.2525C103.061 64.2525 100.141 61.2249 100.141 56.7474C100.141 52.1408 103.643 48.6933 107.6 48.6933C111.88 48.6933 113.956 51.56 113.923 55.3616L103.839 55.3617ZM110.292 54.2668C110.162 51.2383 109.286 49.596 107.373 49.596C105.492 49.596 104.034 51.56 103.871 54.5567L110.292 54.2668ZM122.548 64.2518C120.862 64.2518 118.626 63.8658 117.069 63.4143V43.1518L114.799 41.7019V41.3792L120.409 39.8652L120.539 39.962V50.7543L120.668 50.8193C121.803 49.6918 123.359 48.6926 125.37 48.6926C128.45 48.6926 131.238 51.4961 131.238 56.1026C131.238 60.7091 127.736 64.2518 122.548 64.2518ZM123.101 50.9477C122.127 50.9477 121.316 51.141 120.538 51.4635V61.6759C121.543 62.7066 122.84 63.1568 124.072 63.1568C125.986 63.1568 127.574 61.4501 127.574 56.9075C127.574 52.9133 125.856 50.9477 123.101 50.9477ZM140.123 64.7352C138.502 68.6976 136.979 70.4376 134.968 70.4376C133.25 70.4376 132.439 69.4393 132.439 68.4077C132.439 67.4094 133.346 66.5718 134.384 66.5718C135.487 66.5718 136.135 67.151 136.914 68.1178C137.53 67.4409 138.275 66.2818 138.697 65.3794L139.248 64.1552L133.509 50.4002L131.531 49.627V49.2086H139.444V49.627L137.367 50.4002L140.869 59.8391H141.031L144.209 50.626L142.328 49.6269V49.2085H147.906V49.6269L145.797 50.69L140.123 64.7352ZM158.609 64.2518C156.826 64.2518 155.303 63.9619 153.81 63.3826L153.778 59.1307L154.426 59.0659C156.177 62.1267 157.507 63.2859 159.225 63.2859C160.75 63.2859 161.689 62.32 161.689 60.8377C161.689 59.1625 159.972 58.5184 158.123 57.7775C156.08 56.9076 153.908 55.9417 153.908 53.2675C153.908 50.7225 156.177 48.6926 159.485 48.6926C160.75 48.6926 162.533 48.9509 163.407 49.2727L163.505 53.1059L162.889 53.2675C161.301 50.6578 160.264 49.6592 158.772 49.6592C157.409 49.6592 156.567 50.561 156.567 51.7209C156.567 53.3968 158.318 54.0727 160.166 54.8135C162.208 55.651 164.414 56.6175 164.414 59.3559C164.414 62.3525 161.755 64.2518 158.609 64.2518Z"/></svg>