<svg xmlns="http://www.w3.org/2000/svg" fill="none" viewBox="0 0 200 111"><g clip-path="url(#a)"><g fill="#fff" clip-path="url(#b)"><path d="M176.912 60.349C176.277 60.4176 175.78 60.8806 175.608 61.3951C175.351 62.1325 175.711 62.8184 176.088 63.1442C177.083 63.9845 178.815 63.4357 178.815 61.961C178.815 61.6866 178.781 61.4808 178.644 61.2064C178.404 60.7263 177.786 60.2461 176.929 60.349H176.912ZM177.186 63.1785C176.414 63.1785 175.9 62.544 175.968 61.8066C176.02 61.3265 176.294 60.9835 176.637 60.812C176.757 60.7434 176.843 60.7434 177.049 60.7091C177.82 60.6234 178.386 61.2064 178.386 61.9095C178.386 62.6126 177.889 63.1614 177.203 63.1614L177.186 63.1785Z"/><path d="M177.872 61.7038C177.992 60.9664 177.1 61.0521 176.551 61.1379 176.551 61.6695 176.534 62.2525 176.551 62.7498H176.928V62.1325C177.477 62.0124 177.391 62.4754 177.546 62.7498H177.94C177.837 62.4754 177.837 62.0982 177.597 61.9438 177.717 61.8924 177.803 61.8067 177.872 61.6866V61.7038ZM176.928 61.8238V61.4294C177.168 61.3779 177.443 61.4122 177.46 61.5837 177.477 61.8067 177.22 61.841 176.928 61.8238ZM25.3698 46.3558H20.894V63.2814H32.0234L33.4467 60.9663H25.3698V46.3558ZM40.9577 48.688H47.9714L49.4119 46.3558H36.4819V63.2814H47.9886L49.429 60.9663H40.9577V55.7704H47.9886L49.429 53.4382H40.9577V48.688ZM60.1126 55.7703H65.0171V61.3093C60.1812 62.0981 56.7686 59.6974 56.7686 54.8443 56.7686 49.9913 60.4041 48.1907 63.7824 48.1907 65.7716 48.1907 67.8466 48.6366 69.3728 49.3568V46.4073C67.9152 46.0643 65.703 45.8585 63.5766 45.8585 55.2596 45.8585 51.7441 50.1628 51.7441 54.5185 51.7441 60.7263 56.8887 63.7787 63.8338 63.7787 66.6119 63.7787 68.704 63.1785 69.5614 62.9041V53.421H61.5702L60.1298 55.7532 60.1126 55.7703ZM77.4157 48.688H84.4294L85.8699 46.3558H72.9399V63.2814H84.4466L85.8871 60.9663H77.4157V55.7704H84.4466L85.8871 53.4382H77.4157V48.688ZM104.7 46.3558H101.939V57.3995L93.0047 46.3558H89.2148V63.2814H91.9929V52.2206L101.219 63.2814H104.7V46.3558ZM116.651 46.3558H108.077V63.2985H114.61C120.681 63.2985 126.031 59.9889 126.031 53.7125 126.031 49.374 123.116 46.3558 116.651 46.3558ZM114.319 60.9664H112.552V48.688H115.502C119.841 48.688 121.041 51.5518 121.041 54.6043 121.041 59.5773 117.131 60.9664 114.302 60.9664H114.319ZM132.651 46.3558 125.688 63.2985H128.432L130.284 58.8399H136.698L138.481 63.2985H143.317L136.321 46.3558H132.651ZM131.193 56.5077 133.491 50.7116 135.72 56.5077H131.193ZM160.175 50.2142C160.175 48.3794 159.06 46.3558 154.636 46.3558H145.924V63.2985H150.4V55.8218H151.24L156.145 63.2985H161.392L155.802 55.1359C156.762 54.9129 160.192 53.5582 160.192 50.2314L160.175 50.2142ZM151.823 53.6096H150.383V48.688H152.321C153.658 48.688 155.459 48.9796 155.459 50.9345 155.459 52.8894 153.504 53.6096 151.823 53.6096ZM176.055 46.3558 171.304 53.7297 166.709 46.3558H161.547L168.166 56.7307V63.2814H172.625V56.5249L179.107 46.3558H176.055Z"/></g></g><defs><clipPath id="a"><path fill="#fff" d="M0 0H158.212V18.3434H0z" transform="translate(20.894 45.8585)"/></clipPath><clipPath id="b"><path fill="#fff" d="M0 0H158.212V17.9202H0z" transform="translate(20.894 45.8585)"/></clipPath></defs></svg>