<svg xmlns="http://www.w3.org/2000/svg" fill="none" viewBox="0 0 205 111"><g clip-path="url(#a)"><path fill="#fff" fill-rule="evenodd" d="M18.0605 41.4332 12.7649 51.8614H12.7106L12.4659 41.4332H4.12946L.08252 60.8223H5.62289L8.28426 47.4615H8.33819L9.04438 60.8223H13.4711L19.8255 47.4615H19.8794L16.8926 60.8223H22.4323L26.56 41.4332H18.0605ZM23.1795 60.822H28.2344L29.4762 58.5202H34.7339L35.0046 60.822H39.8794L37.3742 44.7087H32.4996L23.1795 60.822ZM33.7859 50.2383H33.8313L34.3731 55.0672H31.2809L33.7859 50.2383ZM41.3227 60.822H46.2881L48.77 48.8386H53.2386L54.0962 44.7087H40.1942L39.3369 48.8386H43.8056L41.3227 60.822ZM56.3999 60.822H61.365L63.8469 48.8386H68.3155L69.1734 44.7087H55.2714L54.4142 48.8386H58.8828L56.3999 60.822ZM74.4104 48.5458H77.096C78.3825 48.5458 78.7664 49.3122 78.7664 49.9449 78.7664 50.9154 77.9987 51.7503 76.3513 51.7503H73.7335L74.4104 48.5458ZM66.9634 60.8222H71.8379L73.0119 55.203H75.1557C76.5324 55.203 77.1638 55.8354 77.1638 56.6702 77.1638 57.4827 76.9153 58.475 76.9153 59.2427 76.9153 59.9646 76.938 60.4156 77.1187 60.8222H81.8583C81.4511 59.8747 81.6321 58.2267 81.6321 56.715 81.6321 55.2033 81.429 53.8269 79.9621 53.42V53.3752C82.2866 52.991 83.7305 51.2762 83.7305 48.9293 83.7305 45.522 81.4511 44.7086 78.4728 44.7086H70.3032L66.9634 60.8222ZM83.0098 60.8219H96.505L97.3622 56.692H88.8318L89.2611 54.6838H97.0241L97.8139 50.8473H90.0736L90.5016 48.8385H98.8522L99.6868 44.7086H86.3723L83.0098 60.8219ZM113.249 49.5834C113.339 45.6112 110.247 44.3254 106.816 44.3254 103.567 44.3254 100.047 45.9957 100.047 49.6289 100.047 52.3145 101.942 53.3522 103.905 54.0066 106.139 54.7516 107.787 54.9096 107.787 56.0833 107.787 57.1436 106.591 57.6398 105.62 57.6398 104.808 57.6398 104.221 57.595 103.794 57.2345 103.387 56.8276 103.184 56.2861 103.184 55.4061H98.3763C98.1741 59.5139 101.514 61.206 105.214 61.206 108.713 61.206 112.48 59.3783 112.48 55.4966 112.48 53.5777 111.534 52.0429 108.735 51.0507 107.156 50.4864 104.741 50.4183 104.741 49.1999 104.741 48.1395 105.823 47.8913 106.658 47.8913 107.223 47.8913 107.742 47.9815 108.103 48.2524 108.464 48.5234 108.689 48.929 108.667 49.5834H113.249ZM128.078 49.5834C128.168 45.6112 125.076 44.3254 121.645 44.3254 118.397 44.3254 114.877 45.9957 114.877 49.6289 114.877 52.3145 116.772 53.3522 118.736 54.0066 120.97 54.7516 122.616 54.9096 122.616 56.0833 122.616 57.1436 121.421 57.6398 120.45 57.6398 119.638 57.6398 119.052 57.595 118.622 57.2345 118.215 56.8276 118.013 56.2861 118.013 55.4061H113.206C113.004 59.5139 116.343 61.206 120.044 61.206 123.543 61.206 127.311 59.3783 127.311 55.4966 127.311 53.5777 126.363 52.0429 123.564 51.0507 121.986 50.4864 119.57 50.4183 119.57 49.1999 119.57 48.1395 120.653 47.8913 121.489 47.8913 122.053 47.8913 122.571 47.9815 122.933 48.2524 123.295 48.5234 123.52 48.929 123.498 49.5834H128.078ZM129.173 60.8219H135.147L136.695 53.4355H144.325L145.276 48.8186H137.646L138.161 46.4023H147.15L148.181 41.4331H133.218L129.173 60.8219ZM145.738 60.8219H151.711L155.732 41.4331H149.756L145.738 60.8219ZM163.463 46.0497H166.694C168.242 46.0497 168.704 46.9728 168.704 47.733 168.704 48.9009 167.78 49.9058 165.798 49.9058H162.649L163.463 46.0497ZM154.502 60.8219H160.366L161.78 54.0599H164.359C166.017 54.0599 166.777 54.821 166.777 55.8259 166.777 56.803 166.477 57.9974 166.477 58.9219 166.477 59.7902 166.505 60.333 166.721 60.8219H172.425C171.936 59.6811 172.151 57.6988 172.151 55.8801 172.151 54.0599 171.909 52.4035 170.144 51.9155V51.861C172.94 51.3983 174.678 49.3352 174.678 46.5108 174.678 42.4109 171.936 41.4331 168.351 41.4331H158.52L154.502 60.8219ZM174.353 60.8219H179.892L182.554 47.4614H182.609L183.313 60.8219H187.741L194.094 47.4614H194.148L191.162 60.8219H196.701L200.829 41.4331H192.33L187.035 51.861H186.979L186.737 41.4331H178.397L174.353 60.8219ZM128.497 64.4525C128.497 64.4525 145.406 62.5232 166.404 62.1538 187.517 61.7823 196.253 63.5044 196.253 63.5044L195.802 65.8532C195.802 65.8532 187.208 64.1819 166.446 64.5465 145.569 64.9139 126.329 68.9416 126.329 68.9416L128.497 64.4525Z" clip-rule="evenodd"/><mask id="b" width="4" height="5" x="201" y="41" maskUnits="userSpaceOnUse" style="mask-type:luminance"><path fill="#D43329" d="M201.248 41.4259H204.869V45.0288H201.248V41.4259Z"/></mask><g mask="url(#b)"><path fill="#fff" fill-rule="evenodd" d="M202.688 43.107H203.03C203.319 43.107 203.584 43.0922 203.584 42.7604C203.584 42.4809 203.341 42.4377 203.121 42.4377H202.688V43.107ZM202.359 42.1731H203.174C203.676 42.1731 203.91 42.3702 203.91 42.7746C203.91 43.1549 203.67 43.3139 203.356 43.348L203.959 44.2775H203.607L203.034 43.3716H202.688V44.2775H202.359V42.1731ZM203.062 44.7632C203.896 44.7632 204.541 44.0993 204.541 43.2177C204.541 42.3557 203.896 41.6912 203.062 41.6912C202.221 41.6912 201.576 42.3557 201.576 43.2177C201.576 44.0993 202.221 44.7632 203.062 44.7632ZM203.062 41.4259C204.045 41.4259 204.869 42.2015 204.869 43.2177C204.869 44.2535 204.045 45.0288 203.062 45.0288C202.076 45.0288 201.248 44.2535 201.248 43.2177C201.248 42.2015 202.076 41.4259 203.062 41.4259Z" clip-rule="evenodd"/></g></g><defs><clipPath id="a"><path fill="#fff" d="M0 0H204.835V28.2794H0z" transform="translate(.08252 40.951)"/></clipPath></defs></svg>