<svg xmlns="http://www.w3.org/2000/svg" fill="none" viewBox="0 0 200 111"><g fill="#fff" clip-path="url(#a)"><path d="M106.655 36.5322C107.161 37.5428 106.864 38.8671 106.336 39.7744L102.252 48.875 102.216 48.9176 100.74 39.6854C100.622 38.7989 101.578 38.4206 102.141 37.9947 102.112 37.8644 101.968 37.8708 101.877 37.8102L100.497 37.7959 100.455 37.7546C100.462 36.6085 101.085 35.5501 102.141 34.9939 103.244 34.3628 104.797 34.5344 105.754 35.3437 106.142 35.6868 106.469 36.0855 106.655 36.5322ZM99.1299 36.216C99.4637 36.8279 99.6566 37.5224 99.5393 38.2914L97.8737 48.8622C97.8828 48.875 97.8673 48.8893 97.8541 48.8956L97.4227 48.0451 93.2484 38.8129C92.8599 37.6242 93.2197 36.3813 94.0941 35.5293 94.9751 34.644 96.4244 34.4039 97.5765 34.8841 98.1865 35.1449 98.769 35.6251 99.1299 36.216ZM112.696 40.6662C113.258 41.6148 113.131 43.0501 112.507 43.9304 112.12 44.5486 111.481 44.8571 110.94 45.2624L102.291 51.1425H102.271L102.368 50.8613 106.952 40.6121C107.639 39.404 108.95 38.7922 110.337 38.9767 111.287 39.1485 112.237 39.7602 112.696 40.6662ZM93.0474 40.6121 97.8186 51.1414H97.7419L88.1226 44.5757C87.1437 43.7588 86.7424 42.5352 87.0747 41.2988 87.3237 40.372 88.1004 39.5061 89.0244 39.1626 90.5373 38.6141 92.2418 39.1975 93.0474 40.6121ZM115.207 48.0992C115.686 49.1021 115.497 50.4753 114.812 51.3283 114.132 52.1455 113.222 52.592 112.155 52.5636L101.898 52.5701 110.49 46.6499C111.33 46.1142 112.606 46.0172 113.522 46.4509 114.229 46.7259 114.895 47.4125 115.207 48.0992ZM84.8347 48.0992C84.3566 49.1021 84.5441 50.4753 85.2309 51.3283 85.9112 52.1455 86.8182 52.592 87.887 52.5636L98.1436 52.5701 89.5513 46.6499C88.712 46.1142 87.4362 46.0172 86.5213 46.4509 85.8134 46.7259 85.1476 47.4125 84.8347 48.0992ZM66.4168 58.6504C61.4332 58.6504 57.3828 62.6644 57.3828 67.6 57.3828 72.5343 61.4332 76.5507 66.4168 76.5507 71.4005 76.5507 75.4536 72.5343 75.4536 67.6 75.4536 62.6645 71.4005 58.6504 66.4168 58.6504ZM66.4168 74.7877C62.4146 74.7877 59.1578 71.5625 59.1578 67.6001 59.1578 63.6388 62.4146 60.4135 66.4168 60.4135 70.4192 60.4135 73.676 63.6389 73.676 67.6001 73.676 71.5625 70.4192 74.7877 66.4168 74.7877ZM144.33 67.7137C143.846 67.4619 140.896 65.9583 140.473 65.7402 138.926 64.9567 138.377 64.2649 138.377 63.093 138.377 61.4643 139.727 60.4123 141.821 60.4123 143.051 60.4123 144.239 60.948 144.936 61.3364 145.063 61.4048 145.213 61.4435 145.369 61.4435 145.856 61.4435 146.257 61.0474 146.257 60.5646 146.257 60.2394 146.077 59.954 145.812 59.8017 144.934 59.3163 143.436 58.6517 141.821 58.6517 138.745 58.6517 136.598 60.4766 136.598 63.093 136.598 65.4408 138.157 66.5482 139.682 67.3201 140.109 67.5356 143.092 69.0585 143.539 69.2921 144.717 69.9025 145.369 70.819 145.369 71.8736 145.369 73.2868 144.16 74.7891 141.922 74.7891 139.746 74.7891 138.055 73.3436 137.589 72.8983L137.449 72.7665 136.134 73.9539 136.288 74.1062C136.872 74.6796 139.007 76.5508 141.922 76.5508 145.191 76.5508 147.144 74.1721 147.144 71.8736 147.144 70.157 146.12 68.6402 144.33 67.7137ZM47.8897 60.4134C49.8302 60.4134 51.6534 61.1622 53.0219 62.5159 53.3477 62.8373 53.9602 62.8373 54.2807 62.5159 54.4502 62.352 54.5401 62.1314 54.5401 61.8952 54.5401 61.6615 54.4502 61.4382 54.2807 61.2743L54.1713 61.1632C52.4796 59.5421 50.2472 58.6504 47.8897 58.6504 42.9086 58.6504 38.8555 62.6657 38.8555 67.5987 38.8555 72.5344 42.9086 76.5508 47.8897 76.5508 50.5195 76.5508 52.8888 75.4334 54.5401 73.652L53.2824 72.4052C51.9531 73.8663 50.0295 74.7878 47.8896 74.7878 43.8886 74.7878 40.6318 71.5613 40.6318 67.5988 40.6319 63.6401 43.8887 60.4134 47.8897 60.4134ZM109.147 60.4134C111.085 60.4134 112.91 61.1622 114.279 62.5159 114.603 62.8373 115.216 62.8373 115.536 62.5159 115.706 62.352 115.8 62.1314 115.8 61.8952 115.8 61.6615 115.706 61.4382 115.536 61.2743L115.428 61.1632C113.733 59.5421 111.503 58.6504 109.147 58.6504 104.164 58.6504 100.11 62.6656 100.11 67.5985 100.11 72.5343 104.164 76.5507 109.147 76.5507 111.775 76.5507 114.145 75.4333 115.798 73.6518L114.539 72.4051C113.21 73.8661 111.284 74.7877 109.147 74.7877 105.144 74.7877 101.886 71.5612 101.886 67.5987 101.886 63.6401 105.144 60.4134 109.147 60.4134ZM93.84 58.6504C93.5064 58.6504 93.243 58.8634 93.0996 59.1382 92.9536 59.4131 87.7824 72.0811 87.7812 72.0811 87.7812 72.0811 82.6099 59.4129 82.4651 59.1382 82.3205 58.8632 82.0574 58.6504 81.7238 58.6504 81.334 58.6504 81.0408 58.9343 80.9379 59.292 80.8349 59.6519 77.917 75.5955 77.917 75.5955 77.9065 75.6473 77.9014 75.7016 77.9014 75.7569 77.9014 76.1956 78.2624 76.5507 78.7029 76.5507 79.0939 76.5507 79.4197 76.2746 79.49 75.9093L82.0169 62.2682C82.0169 62.2682 86.8925 74.1966 87.0345 74.4804 87.1779 74.7631 87.4437 74.9838 87.7826 74.9838 88.1214 74.9838 88.3861 74.7631 88.528 74.4804 88.6714 74.1964 93.5468 62.2682 93.5468 62.2682L96.1728 76.4526H97.8047C97.8047 76.4526 94.7303 59.6518 94.6273 59.292 94.5228 58.9343 94.2295 58.6504 93.84 58.6504ZM125.967 58.6517C125.63 58.6505 125.368 58.8686 125.221 59.1525 125.075 59.4352 118.529 75.4474 118.529 75.4474 118.49 75.5415 118.467 75.6462 118.467 75.7572 118.467 76.1958 118.826 76.5522 119.269 76.5522 119.606 76.5522 119.896 76.3431 120.014 76.0475L122.556 69.8563H129.381L132.092 76.4527H133.823C133.823 76.4527 126.856 59.4351 126.713 59.1524 126.571 58.8686 126.306 58.6505 125.967 58.6517ZM123.28 68.0942 125.967 61.5505 128.657 68.0942H123.28ZM160.254 58.7461H150.193C149.703 58.7461 149.305 59.1412 149.305 59.6277 149.305 60.1116 149.703 60.5066 150.193 60.5066H154.41V76.4516H156.039V60.5067H160.254C160.744 60.5067 161.145 60.1117 161.145 59.6278 161.145 59.1412 160.744 58.7461 160.254 58.7461Z"/></g><defs><clipPath id="a"><path fill="#fff" d="M0 0H122.289V42.8013H0z" transform="translate(38.8555 33.7507)"/></clipPath></defs></svg>