<svg xmlns="http://www.w3.org/2000/svg" fill="none" viewBox="0 0 201 111"><path fill="#fff" d="M76.403 61.5945C76.403 56.0313 79.017 53.9367 79.5365 48.6417 78.816 53.2832 75.7495 57.0199 75.7495 61.5945 75.7495 63.3539 76.0176 64.929 76.403 66.3701 78.2965 72.7879 84.0608 76.3068 89.5569 77.7478 81.1116 75.5862 76.403 68.3977 76.403 61.5945ZM125.148 61.5945C125.148 58.7124 124.36 56.4335 123.506 54.3389 122.467 51.8589 121.344 49.5633 121.344 46.7482 121.344 53.4843 124.545 55.4448 124.545 61.5945 124.545 68.3977 119.903 75.5862 111.391 77.7478 119.065 75.7873 125.148 70.1571 125.148 61.5945ZM122.333 34.6499C120.573 34.1305 119.317 32.8234 118.546 30.7289L116.932 25.3435 115.999 28.9527C117.691 36.4764 123.841 36.9958 123.841 36.9958L126.321 35.8229 122.333 34.6499ZM93.1596 62.0469 89.9591 57.0702 86.3564 59.7513C86.3564 59.7513 87.5964 59.8183 87.5964 61.1253V70.4755L90.1434 68.582V61.9799L93.0256 66.4204 95.7066 64.3928V52.7638L93.1596 54.6573V62.0469ZM103.498 51.1887 100.616 53.3502V49.0271L96.7623 51.9092C96.7623 51.9092 98.0023 51.9762 98.0023 53.2832V62.6334L100.616 60.6729V56.4167L103.498 54.2551V58.5783L105.978 56.7518V45.039L103.498 46.9325V51.1887ZM110.687 50.1497V41.4531L106.833 44.3352C106.833 44.3352 108.073 44.4022 108.073 45.7092V55.0594L115.262 49.6303C115.127 47.8038 115.262 46.6811 115.262 46.6811L110.687 50.1497Z"/><path fill="#fff" d="M77.8452 46.7479C77.8452 53.35 74.5776 54.657 74.5776 61.5942 74.5776 63.6888 75.0064 66.003 75.6599 67.7624 75.861 67.377 76.4712 66.8673 76.8064 66.6159 76.3539 65.1749 75.7674 63.3537 75.7674 61.5942 75.7674 57.0867 78.8338 53.283 79.5543 48.6414 79.6214 48.0549 79.6214 47.4014 79.6214 46.7479 79.6884 41.4528 77.1414 36.9956 77.1414 36.9956L74.6614 35.8226 76.3538 39.6766C77.1917 41.6372 77.8452 44.0669 77.8452 46.7479ZM121.346 46.7481C121.346 49.5632 122.452 51.7919 123.507 54.3389L124.881 54.2718C124.027 52.1773 123.189 50.1497 123.189 46.7481 123.189 44.0671 123.842 41.6541 124.697 39.6769L126.487 35.6616 123.842 36.9958C123.842 36.9958 121.346 41.4531 121.346 46.7481Z"/><path fill="#fff" d="M98.5229 79.7751C96.4954 79.0546 93.6803 78.7865 89.6252 77.7476C84.062 76.3735 78.3815 72.7709 76.4713 66.3699C76.1362 66.705 75.8178 67.0904 75.6167 67.4758C77.7783 73.6255 83.2745 77.9487 89.156 79.507C92.943 80.4957 94.7192 80.5459 97.5343 81.3335C97.9197 81.7189 100.483 84.534 100.483 84.534V81.8529C100.483 81.8697 98.791 79.9762 98.5229 79.7751Z"/><path fill="#fff" d="M90.0776 75.9213C94.5851 77.0272 97.5343 77.1613 99.4948 78.1499C99.4948 78.1499 100.215 78.8034 100.483 79.1386C100.752 78.8034 101.472 78.1499 101.472 78.1499C103.433 77.1613 106.382 77.044 110.889 75.9213C116.586 74.4802 122.736 69.4533 122.736 61.5944C122.736 55.9642 119.536 53.8697 119.536 46.7481C119.536 41.9055 121.362 38.1855 121.362 38.1855C121.362 38.1855 117.173 37.3309 115.212 32.0358C115.212 32.0358 112.397 34.6499 108.543 34.6499C103.701 34.6499 100.5 31.2483 100.5 31.2483C100.5 31.2483 97.2997 34.6499 92.457 34.6499C88.603 34.6499 85.7879 32.0358 85.7879 32.0358C83.8274 37.3309 79.6382 38.1855 79.6382 38.1855C79.6382 38.1855 81.4647 41.9222 81.4647 46.7481C81.4647 53.8864 78.2642 55.9642 78.2642 61.5944C78.2474 69.5035 84.3971 74.4802 90.0776 75.9213ZM120.692 61.5944C120.692 68.2636 115.397 72.6538 110.42 73.9608C106.817 74.8824 102.511 75.3348 101.137 76.1224C100.802 76.3235 100.483 76.7089 100.483 76.7089C100.483 76.7089 100.098 76.3235 99.8299 76.1224C98.5229 75.4018 94.1327 74.8824 90.5468 73.9608C90.4127 73.8938 90.2787 73.8938 90.1614 73.8267L118.296 52.6967C119.251 56.0983 120.692 58.2599 120.692 61.5944ZM118.664 39.3585C118.078 41.0509 117.424 43.7487 117.424 46.7481C117.424 47.9881 117.491 49.1611 117.692 50.1497L87.5306 72.7878C83.7436 70.8273 80.4593 67.0906 80.275 61.9966L114.944 35.9569C116.184 37.6493 117.558 38.705 118.664 39.3585ZM83.5425 46.7481C83.5425 43.6817 82.889 41.0509 82.3025 39.3585C83.6095 38.6379 85.3187 37.3309 86.6257 35.1023C88.0668 35.8899 90.0943 36.7444 92.4403 36.7444C96.0429 36.7444 98.858 35.1693 100.483 33.9964C102.126 35.1693 104.924 36.7444 108.527 36.7444C109.113 36.7444 109.632 36.6774 110.169 36.6104L80.6604 58.7123C81.515 55.3777 83.5425 52.6297 83.5425 46.7481Z"/><path fill="#fff" d="M92.441 32.8066C97.2837 32.8066 100.484 28.6845 100.484 28.6845V26.0704L97.9372 28.5504C96.6302 29.8574 94.5356 30.9131 92.441 30.9131 90.8659 30.9131 89.3746 30.1925 88.1178 29.1536L84.1968 25.8861 85.0514 28.9526C84.9843 28.9526 88.7043 32.8066 92.441 32.8066ZM125.148 61.5944C125.148 70.157 119.065 75.7872 111.341 77.7477 107.286 78.7866 104.47 79.0547 102.443 79.7752 102.175 80.0433 100.482 81.8698 100.482 81.8698V84.5508C100.482 84.5508 103.096 81.7357 103.432 81.3503 106.247 80.5628 108.006 80.4958 111.81 79.5239 119.468 77.5634 126.405 70.8942 126.405 61.5944 126.405 58.2598 125.684 56.2322 124.897 54.2717L123.523 54.3388C124.361 56.4333 125.148 58.7122 125.148 61.5944Z"/><path fill="#fff" d="M108.526 32.8065C112.263 32.8065 115.983 29.0195 115.983 29.0195L116.837 25.886 112.916 29.1536C111.609 30.1925 110.168 30.913 108.593 30.913 106.498 30.913 104.404 29.8741 103.097 28.5503L100.118 25.7255 100.249 28.5503C100.182 28.6006 103.683 32.8065 108.526 32.8065ZM85.2132 28.7828 84.1951 25.8861 82.4357 30.7288C81.6481 32.8233 80.4082 34.1303 78.6487 34.6498L74.6606 35.8228 77.1406 36.9957C77.1239 36.9957 83.571 36.3065 85.2132 28.7828Z"/><path fill="#111" d="M80.6605 58.7121L110.169 36.5432C109.649 36.6102 109.063 36.6772 108.527 36.6772C104.924 36.6772 102.109 35.1021 100.483 33.9291C98.8413 35.1021 96.043 36.6772 92.4403 36.6772C90.0776 36.6772 88.0501 35.8897 86.6258 35.0351C85.3188 37.2637 83.6096 38.5707 82.3026 39.2912C82.8891 40.9837 83.5426 43.6815 83.5426 46.6809C83.5426 52.6295 81.515 55.3776 80.6605 58.7121ZM90.1447 73.8265C90.2787 73.8936 90.4128 73.8936 90.5301 73.9606C94.1327 74.8822 98.4392 75.3346 99.8132 76.1222C100.148 76.3233 100.467 76.7087 100.467 76.7087C100.467 76.7087 100.852 76.3233 101.12 76.1222C102.427 75.4016 106.817 74.8822 110.403 73.9606C115.38 72.7206 120.675 68.3304 120.675 61.5942C120.675 58.2597 119.234 56.0981 118.262 52.6965L90.1447 73.8265ZM77.0578 46.7479C77.0578 53.0987 73.7903 54.5397 73.7903 61.5942C73.7903 71.732 81.6323 78.4011 88.9717 80.2946C92.6414 81.2162 93.7473 81.2832 97.0819 82.054C97.35 82.3221 100.483 85.7237 100.483 85.7237C100.483 85.7237 103.617 82.3891 103.885 82.054C107.22 81.1994 108.326 81.1994 111.995 80.2946C119.318 78.4011 127.177 71.732 127.177 61.5942C127.177 54.523 123.909 53.0987 123.909 46.7479C123.909 44.4523 124.362 42.1734 125.35 40.0118L127.445 35.3032L122.602 33.9291C121.094 33.4767 120.055 32.354 119.335 30.5276L117.173 24.646L112.33 28.6341C111.09 29.673 109.783 30.2092 108.476 30.2092C106.784 30.2092 104.807 29.3546 103.567 28.1146L100.5 25.0482L97.4338 28.1146C96.1268 29.4216 94.2333 30.2092 92.5241 30.2092C91.2841 30.2092 89.9771 29.6897 88.6701 28.6341L83.8274 24.579L81.6658 30.4605C81.0123 32.287 79.9064 33.4767 78.3983 33.8621L73.5557 35.3702L75.6502 40.0788C76.5383 42.1734 77.0578 44.4523 77.0578 46.7479ZM78.6329 34.6497C80.3923 34.1302 81.6491 32.8232 82.4199 30.7286L84.1793 25.886L88.1004 29.1535C89.4074 30.1924 90.8484 30.913 92.4236 30.913C94.5181 30.913 96.6127 29.8741 97.9197 28.5503L100.467 26.0703L103.014 28.5503C104.321 29.8573 106.415 30.913 108.51 30.913C110.085 30.913 111.576 30.1924 112.833 29.1535L116.754 25.886L118.514 30.7286C119.301 32.8232 120.541 34.1302 122.301 34.6497L126.289 35.8226L124.596 39.6766C123.742 41.6372 123.088 43.9998 123.088 46.7479C123.088 50.1495 123.943 52.177 124.78 54.2716C125.568 56.2321 126.289 58.2597 126.289 61.5942C126.356 70.8774 119.418 77.5633 111.761 79.5238C107.974 80.5124 106.197 80.5627 103.382 81.3502C102.997 81.7356 100.433 84.5507 100.433 84.5507C100.433 84.5507 97.8192 81.7356 97.484 81.3502C94.6689 80.5627 92.9095 80.4957 89.1058 79.5238C83.2242 78.0157 77.728 73.7092 75.5665 67.4925C74.9129 65.6661 74.5778 63.7056 74.5778 61.611C74.5108 54.6738 77.7783 53.3668 77.7783 46.7647C77.7783 44.0836 77.1248 41.6707 76.2702 39.6934L74.5778 35.8394L78.6329 34.6497ZM87.5306 72.7876L117.692 50.1495C117.558 49.1106 117.424 47.9879 117.424 46.7479C117.424 43.6815 118.078 41.0507 118.664 39.3583C117.558 38.7048 116.117 37.7161 114.928 36.0237L80.2583 62.0634C80.4594 67.1574 83.8107 70.8774 87.5306 72.7876ZM110.688 41.4528V50.0825L115.263 46.6139C115.263 46.6139 115.129 47.7198 115.263 49.563L108.074 54.9921V45.776C108.074 44.469 106.834 44.402 106.834 44.402L110.688 41.4528ZM100.618 49.0436V53.3668L103.5 51.2052V46.882L105.98 44.9885V56.6175L103.5 58.5781V54.3219L100.618 56.4835V60.7397L98.0035 62.7002V53.35C98.0035 52.043 96.7635 51.976 96.7635 51.976L100.618 49.0436ZM89.9436 57.0867L93.1441 62.0634V54.6738L95.6911 52.7803V64.4261L93.01 66.4536L90.1279 62.0132V68.6152L87.5809 70.5087V61.1418C87.5809 59.8348 86.3409 59.7678 86.3409 59.7678L89.9436 57.0867ZM79.5545 48.6414C79.0351 53.9365 76.421 56.0311 76.421 61.5942C76.421 68.3974 81.1296 75.586 89.642 77.7476C93.6971 78.7865 96.5122 79.0546 98.5397 79.7751C98.8078 80.0432 100.5 81.8697 100.5 81.8697C100.5 81.8697 102.193 80.0432 102.461 79.7751C104.488 79.0546 107.303 78.7865 111.358 77.7476C119.921 75.586 124.579 68.3974 124.579 61.5942C124.579 55.3776 121.379 53.4841 121.379 46.7479C121.379 41.4528 123.859 36.9956 123.859 36.9956C123.859 36.9956 117.642 36.4761 116.017 28.9524C116.017 28.9524 112.28 32.7394 108.56 32.7394C103.717 32.7394 100.517 28.6173 100.517 28.6173C100.517 28.6173 97.3165 32.7394 92.4738 32.7394C88.7371 32.7394 85.0172 28.9524 85.0172 28.9524C83.375 36.4761 77.1751 36.9956 77.1751 36.9956C77.1751 36.9956 79.6551 41.4361 79.6551 46.7479C79.6886 47.4685 79.6215 48.0549 79.5545 48.6414ZM79.6886 38.1686C79.6886 38.1686 83.8777 37.314 85.8382 32.0189C85.8382 32.0189 88.6533 34.6329 92.5073 34.6329C97.35 34.6329 100.55 31.2313 100.55 31.2313C100.55 31.2313 103.751 34.6329 108.594 34.6329C112.448 34.6329 115.263 32.0189 115.263 32.0189C117.223 37.314 121.412 38.1686 121.412 38.1686C121.412 38.1686 119.586 41.9053 119.586 46.7312C119.586 53.8695 122.786 55.9473 122.786 61.5775C122.786 69.4196 116.637 74.4633 110.94 75.9043C106.432 77.0103 103.483 77.1443 101.522 78.133C101.522 78.133 100.802 78.7865 100.534 79.1216C100.266 78.7865 99.5451 78.133 99.5451 78.133C97.5846 77.1443 94.6354 77.027 90.1279 75.9043C84.4307 74.4633 78.281 69.4363 78.281 61.5775C78.281 55.9473 81.4815 53.8527 81.4815 46.7312C81.448 41.9053 79.6886 38.1686 79.6886 38.1686Z"/></svg>