<svg xmlns="http://www.w3.org/2000/svg" fill="none" viewBox="0 0 201 111"><g clip-path="url(#a)"><path fill="#fff" fill-rule="evenodd" d="M55.7792 46.342C49.0768 46.342 46.314 51.3151 46.314 55.1307C46.314 59.8738 50.0979 63.7186 54.7617 63.7186C59.4255 63.7186 63.2094 59.8738 63.2094 55.1307C63.2094 53.5461 62.8111 52.0709 62.0072 50.709C65.9287 51.8738 69.8104 55.0395 70.7337 55.9997C68.1629 61.9806 62.2715 65.9203 54.7906 65.9203C47.3097 65.9203 41.3496 61.9623 38.1487 55.3243C40.6834 48.5219 47.5161 43.505 55.7792 43.505C61.3735 43.505 67.8696 45.3635 72.9425 49.3471C73.5871 47.138 73.5653 45.1189 73.5653 45.1189C73.5653 45.1189 66.0699 39.7441 55.7828 39.7441C43.8589 39.7441 36.3382 47.9669 34.2598 55.3243C36.6605 62.5246 43.9603 69.6739 54.7653 69.6739C65.5702 69.6739 72.8267 62.5246 75.2781 55.3243C70.6287 50.081 63.4339 46.342 55.7828 46.342M54.7653 59.9614C52.1401 59.9614 50.0146 57.7998 50.0146 55.1344C50.0146 52.4689 52.1437 50.3037 54.7653 50.3037C57.3869 50.3037 59.516 52.4653 59.516 55.1344C59.516 57.8035 57.3905 59.9614 54.7653 59.9614ZM160.193 66.6688L161.229 64.971C162.033 65.599 162.884 65.9897 163.619 65.9897C164.285 65.9897 164.571 65.6684 164.571 65.296V65.2631C164.571 64.7373 163.901 64.5146 162.934 64.091C161.667 63.5287 160.577 62.8861 160.577 61.3416V61.3087C160.577 59.5598 161.913 58.5264 163.651 58.5264C164.618 58.5264 165.708 58.866 166.606 59.5086L165.654 61.243C164.987 60.8012 164.252 60.4616 163.619 60.4616C163.05 60.4616 162.75 60.7501 162.75 61.1079V61.1408C162.75 61.6154 163.416 61.8856 164.368 62.3311C165.672 62.9591 166.74 63.62 166.74 65.0659V65.1024C166.74 66.9865 165.371 67.9359 163.583 67.9359C162.304 67.9212 161.175 67.505 160.193 66.6798M151.398 58.6652H153.77V59.8884C154.287 59.1581 154.939 58.4972 156.073 58.4972C157.746 58.4972 158.712 59.6839 158.712 61.568V67.7642H156.341V62.28C156.341 61.2102 155.873 60.6661 155.073 60.6661C154.273 60.6661 153.77 61.2102 153.77 62.28V67.7642H151.398V58.6652ZM141.795 63.3352V63.149C141.795 60.4507 143.598 58.4972 146.021 58.4972C148.443 58.4972 150.214 60.4178 150.214 63.1307V63.317C150.214 66.0153 148.425 67.9687 146.006 67.9687C143.588 67.9687 141.799 66.0481 141.799 63.3352M147.878 63.3023V63.1819C147.878 61.7067 147.143 60.5858 146.006 60.5858C144.869 60.5858 144.134 61.6885 144.134 63.1673V63.2841C144.134 64.7446 144.884 65.8802 146.021 65.8802C147.158 65.8802 147.875 64.7775 147.875 63.2987M137.841 57.6976H140.314V55.5068H137.841V57.6976ZM137.892 67.7642H140.264V58.6652H137.892V67.7642ZM131.906 65.4895V60.7026H131.005V58.6652H131.906V56.3393H134.278V58.6652H136.049V60.7026H134.278V64.9966C134.278 65.5223 134.513 65.7743 135.013 65.7743C135.379 65.7743 135.73 65.672 136.031 65.5223V67.4429C135.491 67.7642 134.908 67.9212 134.278 67.9176C132.906 67.9176 131.906 67.3736 131.906 65.4895ZM127.051 57.6976H129.524V55.5068H127.051V57.6976ZM127.101 67.7642H129.473V58.6652H127.101V67.7642ZM116.774 63.3498V63.0796C116.774 59.9724 118.396 58.4972 120.182 58.4972C121.384 58.4972 122.086 59.1581 122.604 59.8373V55.5068H124.976V67.7642H122.604V66.5082C122.086 67.275 121.369 67.9359 120.182 67.9359C118.411 67.9359 116.774 66.4571 116.774 63.3535M122.637 63.3023V63.1344C122.637 61.5899 121.869 60.604 120.88 60.604C119.892 60.604 119.142 61.5899 119.142 63.1344V63.3023C119.142 64.8468 119.896 65.8291 120.88 65.8291C121.865 65.8291 122.637 64.8432 122.637 63.3023ZM108.03 63.3206V63.1673C108.03 60.4689 109.684 58.4972 111.937 58.4972C114.493 58.4972 115.746 60.6186 115.746 63.3352C115.746 63.4703 115.746 63.7588 115.728 64.1129H110.383C110.586 65.3179 111.321 65.9495 112.321 65.9495C113.056 65.9495 113.624 65.61 114.189 65.0513L115.409 66.5118C114.591 67.4283 113.555 67.9724 112.219 67.9724C109.847 67.9724 108.026 66.154 108.026 63.3206M113.454 62.521C113.353 61.2649 112.82 60.4835 111.933 60.4835C111.046 60.4835 110.496 61.2284 110.362 62.521H113.454ZM98.7962 58.6688H101.168V59.9249C101.686 59.1581 102.403 58.4972 103.59 58.4972C105.361 58.4972 106.998 59.9724 106.998 63.0796V63.3498C106.998 66.4571 105.379 67.9322 103.59 67.9322C102.388 67.9322 101.668 67.2713 101.168 66.5922V70.3275H98.7962V58.6652V58.6688ZM104.626 63.3023V63.1344C104.626 61.5899 103.873 60.604 102.888 60.604C101.903 60.604 101.135 61.5899 101.135 63.1344V63.3023C101.135 64.8468 101.903 65.8291 102.888 65.8291C103.873 65.8291 104.626 64.8432 104.626 63.3023ZM93.3394 61.3306L94.7588 58.6652H97.2139L94.6249 63.0942L97.3116 67.7642H94.7914L93.3032 64.9308L91.8005 67.7642H89.3274L91.9997 63.1307L89.4252 58.6652H91.9309L93.3322 61.3306M80.695 55.8829H88.2266V58.1065H83.0993V60.6698H87.6074V62.8934H83.0993V65.5443H88.2918V67.7679H80.6914V55.8683M135.842 48.0801V47.8062C135.842 44.7026 137.461 43.2238 139.25 43.2238C140.452 43.2238 141.154 43.8847 141.672 44.5639V40.2334H144.044V52.4908H141.672V51.2348C141.154 51.9979 140.434 52.6625 139.25 52.6625C137.479 52.6625 135.842 51.1837 135.842 48.0801ZM141.705 48.0289V47.861C141.705 46.3165 140.937 45.3306 139.952 45.3306C138.967 45.3306 138.214 46.3165 138.214 47.861V48.0289C138.214 49.5734 138.967 50.5593 139.952 50.5593C140.937 50.5593 141.705 49.5734 141.705 48.0289ZM126.917 49.8948V49.7925C126.917 47.788 128.202 46.8897 130.042 46.8897C130.69 46.8897 131.312 47.0102 131.914 47.2622V46.992C131.914 45.9368 131.294 45.3964 130.226 45.3964C129.39 45.3964 128.723 45.6666 128.173 45.9039L127.521 44.0198C128.477 43.5159 129.498 43.2713 130.577 43.2896C131.798 43.2896 132.714 43.6291 133.3 44.2243C133.92 44.8523 134.22 45.8017 134.22 46.9737V52.4908H131.899V51.505C131.363 52.217 130.632 52.6588 129.578 52.6588C128.108 52.6588 126.92 51.6583 126.92 49.8911M131.946 49.5004V48.7373C131.526 48.5438 131.088 48.4488 130.624 48.4488C129.755 48.4488 129.205 48.8907 129.205 49.7232V49.756C129.205 50.5009 129.672 50.877 130.36 50.8952C131.276 50.9098 131.946 50.3329 131.946 49.5041V49.5004ZM122.626 52.4872H124.998V40.2334H122.626V52.4908V52.4872ZM115.311 51.3151V52.4872H112.94V40.2334H115.311V44.6478C115.829 43.8847 116.546 43.2202 117.734 43.2202C119.505 43.2202 121.141 44.699 121.141 47.8026V48.0764C121.141 51.1837 119.523 52.6588 117.734 52.6588C116.532 52.6588 115.815 51.9943 115.311 51.3188V51.3151ZM118.769 48.0216V47.8537C118.769 46.3092 118.016 45.3233 117.031 45.3233C116.046 45.3233 115.279 46.3092 115.279 47.8537V48.0216C115.279 49.5661 116.046 50.552 117.031 50.552C118.016 50.552 118.769 49.5661 118.769 48.0216ZM102.663 48.0728V47.7989C102.663 44.6953 104.282 43.2165 106.071 43.2165C107.273 43.2165 107.975 43.8774 108.493 44.5566V40.2334H110.865V52.4908H108.493V51.2348C107.975 51.9979 107.258 52.6625 106.071 52.6625C104.3 52.6625 102.663 51.1837 102.663 48.0801V48.0728ZM108.526 48.0216V47.8537C108.526 46.3092 107.758 45.3233 106.773 45.3233C105.788 45.3233 105.035 46.3092 105.035 47.8537V48.0216C105.035 49.5661 105.788 50.552 106.773 50.552C107.758 50.552 108.526 49.5661 108.526 48.0216ZM94.0129 43.3881H96.3847V44.6077C96.9025 43.8774 97.5542 43.2165 98.6876 43.2165C100.36 43.2165 101.327 44.4032 101.327 46.2873V52.4835H98.9555V46.9993C98.9555 45.9294 98.4884 45.3854 97.6882 45.3854C96.888 45.3854 96.3847 45.9258 96.3847 46.9993V52.4835H94.0129V43.3918M89.3202 42.4242H91.7897V40.2334H89.3202V42.4242ZM89.3708 52.4908H91.7426V43.3918H89.3708V52.4908ZM80.6986 40.6058H83.1211V50.2343H87.8464V52.4908H80.6986V40.6058Z" clip-rule="evenodd"/></g><defs><clipPath id="a"><path fill="#fff" d="M0 0H132.48V30.5724H0z" transform="translate(34.2598 39.7441)"/></clipPath></defs></svg>