<svg xmlns="http://www.w3.org/2000/svg" fill="none" viewBox="0 0 200 111"><g clip-path="url(#a)"><path fill="#fff" d="M128.332 53.2186C127.946 54.0795 127.752 55.1337 127.577 56.0825V56.2758C126.329 59.4209 124.15 62.566 122.235 62.566C121.286 62.566 120.9 61.3185 120.619 59.2276L120.039 55.4148L119.934 54.0795L117.931 53.7984L115.928 58.2788L116.121 54.8526L114.03 54.5715C113.556 56.4866 112.782 58.2964 111.939 59.825C110.815 62.1091 108.478 63.5499 105.93 63.5499H105.842C103.839 63.5499 102.029 62.9701 100.308 62.1267V61.1779C104.63 59.0695 108.46 56.0825 111.57 52.3928V52.3049L109.954 51.0574C107.476 54.2728 104.314 56.8732 100.694 58.6829L100.501 58.7708C100.694 52.955 101.081 46.946 101.362 44.2753L99.2709 44.082C98.9897 46.946 98.6032 53.5348 98.3221 59.7196L96.8989 60.1061L96.319 61.9159L98.2342 63.2512L98.1464 69.9279V70.1212H100.237V64.3933C101.959 65.1488 103.857 65.6408 105.86 65.6408H105.948C109.198 65.6408 112.062 63.831 113.573 61.1603L113.099 64.8853L115.102 65.4651L118.352 58.1207L118.546 59.5439C118.739 61.1603 119.301 64.692 122.358 64.692C124.273 64.692 125.978 63.2688 127.313 61.2658C127.506 62.8822 127.893 64.323 128.648 65.3597C129.404 66.5017 130.651 67.2748 132.18 67.2748C133.726 67.3451 135.149 66.4842 135.8 65.0785C136.854 62.8822 136.379 59.5439 134.552 57.0665C134.253 56.7326 133.937 56.3988 133.603 56.1177H138.558V59.2627C138.47 64.9907 139.033 67.8546 140.473 69.3833C141.141 70.0509 142.002 70.4375 142.951 70.4375H143.039C147.045 70.4375 149.996 64.7095 150.664 62.4254L148.573 61.8456C147.993 64.0419 145.428 68.329 143.039 68.329C142.564 68.329 142.283 68.1358 142.09 67.9425C140.754 66.6071 140.561 62.32 140.561 59.1573V55.9068C144.725 55.6433 148.837 54.6769 152.685 53.0429L151.824 51.1277C148.96 52.463 144.954 53.4118 140.754 53.7984C140.842 51.1277 141.141 49.0368 141.51 45.7863L141.703 43.2035L139.612 42.9223L139.331 45.5052C139.05 47.7893 138.857 50.6533 138.664 53.6227V53.9038C138.628 53.8862 132.619 54.2728 128.332 53.2186ZM133.867 64.0946C133.48 64.8501 132.918 65.1488 132.25 65.1488C131.389 65.1488 130.722 64.7623 130.335 64.2C129.281 62.5835 129.193 59.4384 129.58 56.8556L129.773 55.9068C130.915 56.4866 132.162 57.4354 132.83 58.3842C134.341 60.3872 134.534 62.8647 133.867 64.0946ZM84.055 66.9585C82.5263 66.9585 81.9641 65.7111 81.7708 64.3757C85.7768 62.566 87.4987 58.4545 87.4987 56.4515C87.4987 54.7296 86.3567 54.0619 85.3024 54.0619C82.9129 54.0619 79.7678 58.1558 79.5745 62.9349L77.5715 63.1282C76.6227 63.1282 75.955 62.9349 75.5685 62.4605C74.2331 61.0374 74.321 57.8747 74.321 55.5027V54.3606L72.4058 53.693L67.1523 61.3185C67.0644 57.3124 67.3456 52.5333 67.82 48.6327C68.7688 44.8199 69.6297 41.095 69.0675 40.3395C68.8742 40.0584 68.5931 39.8651 68.1187 39.8651L67.3631 40.2517C66.3792 42.8169 65.8345 45.5228 65.7467 48.2637C64.8857 51.5142 64.0248 54.0795 63.076 56.6623L63.2693 56.1879C61.073 61.336 57.0669 66.5896 55.4505 66.8707C55.1693 66.3963 54.8706 64.6744 55.1693 59.8074V59.333L55.5559 55.5203L61.2838 54.7647L60.8973 52.6739L55.837 53.3415L55.9249 52.3928C56.206 50.4776 56.5047 48.1934 56.6804 45.6106L54.5895 45.4173C54.3962 48.0002 54.1151 50.1789 53.834 52.0941L53.7461 53.5173L47.2627 54.1849L47.456 56.3812L53.465 55.8014L53.1839 59.2276V59.8074C52.7973 64.2879 52.9028 67.3451 54.0448 68.4872C54.326 68.8737 54.8004 69.067 55.2923 69.067C56.821 69.067 58.6307 67.6438 60.827 64.7798C62.4435 62.5835 63.9721 60.1061 65.1141 57.4354V57.2422C65.1141 60.194 65.1141 62.9701 65.3074 64.692L67.2226 65.1664L70.0338 60.9495L72.2301 57.8923C72.2301 60.1764 72.6167 62.566 74.0399 64.0067C74.9711 64.9555 76.2537 65.4651 77.5715 65.4299L79.8556 65.1488H79.6624C80.1368 67.7316 81.6654 69.1548 83.9495 69.1548C87.9556 69.1548 90.1519 65.1488 90.8195 61.705L88.7287 61.3185C88.7287 61.5118 87.5866 67.0464 83.9671 67.0464L84.055 66.9585ZM85.3024 56.2758V56.4691C85.3024 57.4179 84.3536 60.3872 81.7708 62.0037C82.2452 58.6654 84.4415 56.2758 85.3024 56.2758Z"/></g><defs><clipPath id="a"><path fill="#fff" d="M0 0H105.475V30.5724H0z" transform="translate(47.2627 39.8652)"/></clipPath></defs></svg>